%TF.GenerationSoftware,KiCad,Pcbnew,9.0.3*%
%TF.CreationDate,2025-07-14T03:19:36-04:00*%
%TF.ProjectId,CHEAPSUITS,43484541-5053-4554-9954-532e6b696361,rev?*%
%TF.SameCoordinates,Original*%
%TF.FileFunction,Drillmap*%
%TF.FilePolarity,Positive*%
%FSLAX45Y45*%
G04 Gerber Fmt 4.5, Leading zero omitted, Abs format (unit mm)*
G04 Created by KiCad (PCBNEW 9.0.3) date 2025-07-14 03:19:36*
%MOMM*%
%LPD*%
G01*
G04 APERTURE LIST*
%ADD10C,0.050000*%
%ADD11C,0.200000*%
%ADD12C,0.100000*%
%ADD13C,0.700000*%
G04 APERTURE END LIST*
D10*
X17404990Y-13444990D02*
X11654990Y-13444990D01*
X17404990Y-4554990D02*
G75*
G02*
X17704990Y-4854990I0J-300000D01*
G01*
X17704990Y-13144990D02*
G75*
G02*
X17404990Y-13444990I-300000J0D01*
G01*
X11354990Y-13144990D02*
X11354990Y-4854990D01*
X11354990Y-4854990D02*
G75*
G02*
X11654990Y-4554990I300000J0D01*
G01*
X17704990Y-4854990D02*
X17704990Y-13144990D01*
X11654990Y-13444990D02*
G75*
G02*
X11354990Y-13144990I0J300000D01*
G01*
X11654990Y-4554990D02*
X17404990Y-4554990D01*
D11*
D12*
X14515000Y-9385000D02*
X14545000Y-9415000D01*
X14545000Y-9385000D02*
X14515000Y-9415000D01*
X14515000Y-10295000D02*
X14545000Y-10325000D01*
X14545000Y-10295000D02*
X14515000Y-10325000D01*
X14615000Y-9245000D02*
X14645000Y-9275000D01*
X14645000Y-9245000D02*
X14615000Y-9275000D01*
X15350610Y-10863500D02*
G75*
G02*
X15320590Y-10863500I-15010J0D01*
G01*
X15320590Y-10863500D02*
G75*
G02*
X15350610Y-10863500I15010J0D01*
G01*
X15320590Y-10863485D02*
X15320590Y-10863515D01*
X15350610Y-10863515D02*
G75*
G02*
X15320590Y-10863515I-15010J0D01*
G01*
X15350610Y-10863515D02*
X15350610Y-10863485D01*
X15350610Y-10863485D02*
G75*
G03*
X15320590Y-10863485I-15010J0D01*
G01*
D13*
X16970000Y-5660000D02*
X16970000Y-6360000D01*
X16620000Y-6010000D02*
X17320000Y-6010000D01*
D11*
X11613267Y-13758974D02*
X11613267Y-13558974D01*
X11613267Y-13558974D02*
X11660886Y-13558974D01*
X11660886Y-13558974D02*
X11689457Y-13568498D01*
X11689457Y-13568498D02*
X11708505Y-13587545D01*
X11708505Y-13587545D02*
X11718029Y-13606593D01*
X11718029Y-13606593D02*
X11727552Y-13644688D01*
X11727552Y-13644688D02*
X11727552Y-13673259D01*
X11727552Y-13673259D02*
X11718029Y-13711355D01*
X11718029Y-13711355D02*
X11708505Y-13730402D01*
X11708505Y-13730402D02*
X11689457Y-13749450D01*
X11689457Y-13749450D02*
X11660886Y-13758974D01*
X11660886Y-13758974D02*
X11613267Y-13758974D01*
X11813267Y-13758974D02*
X11813267Y-13625640D01*
X11813267Y-13663736D02*
X11822791Y-13644688D01*
X11822791Y-13644688D02*
X11832314Y-13635164D01*
X11832314Y-13635164D02*
X11851362Y-13625640D01*
X11851362Y-13625640D02*
X11870410Y-13625640D01*
X11937076Y-13758974D02*
X11937076Y-13625640D01*
X11937076Y-13558974D02*
X11927552Y-13568498D01*
X11927552Y-13568498D02*
X11937076Y-13578021D01*
X11937076Y-13578021D02*
X11946600Y-13568498D01*
X11946600Y-13568498D02*
X11937076Y-13558974D01*
X11937076Y-13558974D02*
X11937076Y-13578021D01*
X12060886Y-13758974D02*
X12041838Y-13749450D01*
X12041838Y-13749450D02*
X12032314Y-13730402D01*
X12032314Y-13730402D02*
X12032314Y-13558974D01*
X12165648Y-13758974D02*
X12146600Y-13749450D01*
X12146600Y-13749450D02*
X12137076Y-13730402D01*
X12137076Y-13730402D02*
X12137076Y-13558974D01*
X12394219Y-13758974D02*
X12394219Y-13558974D01*
X12394219Y-13558974D02*
X12460886Y-13701831D01*
X12460886Y-13701831D02*
X12527552Y-13558974D01*
X12527552Y-13558974D02*
X12527552Y-13758974D01*
X12708505Y-13758974D02*
X12708505Y-13654212D01*
X12708505Y-13654212D02*
X12698981Y-13635164D01*
X12698981Y-13635164D02*
X12679933Y-13625640D01*
X12679933Y-13625640D02*
X12641838Y-13625640D01*
X12641838Y-13625640D02*
X12622791Y-13635164D01*
X12708505Y-13749450D02*
X12689457Y-13758974D01*
X12689457Y-13758974D02*
X12641838Y-13758974D01*
X12641838Y-13758974D02*
X12622791Y-13749450D01*
X12622791Y-13749450D02*
X12613267Y-13730402D01*
X12613267Y-13730402D02*
X12613267Y-13711355D01*
X12613267Y-13711355D02*
X12622791Y-13692307D01*
X12622791Y-13692307D02*
X12641838Y-13682783D01*
X12641838Y-13682783D02*
X12689457Y-13682783D01*
X12689457Y-13682783D02*
X12708505Y-13673259D01*
X12803743Y-13625640D02*
X12803743Y-13825640D01*
X12803743Y-13635164D02*
X12822791Y-13625640D01*
X12822791Y-13625640D02*
X12860886Y-13625640D01*
X12860886Y-13625640D02*
X12879933Y-13635164D01*
X12879933Y-13635164D02*
X12889457Y-13644688D01*
X12889457Y-13644688D02*
X12898981Y-13663736D01*
X12898981Y-13663736D02*
X12898981Y-13720878D01*
X12898981Y-13720878D02*
X12889457Y-13739926D01*
X12889457Y-13739926D02*
X12879933Y-13749450D01*
X12879933Y-13749450D02*
X12860886Y-13758974D01*
X12860886Y-13758974D02*
X12822791Y-13758974D01*
X12822791Y-13758974D02*
X12803743Y-13749450D01*
X12984695Y-13739926D02*
X12994219Y-13749450D01*
X12994219Y-13749450D02*
X12984695Y-13758974D01*
X12984695Y-13758974D02*
X12975172Y-13749450D01*
X12975172Y-13749450D02*
X12984695Y-13739926D01*
X12984695Y-13739926D02*
X12984695Y-13758974D01*
X12984695Y-13635164D02*
X12994219Y-13644688D01*
X12994219Y-13644688D02*
X12984695Y-13654212D01*
X12984695Y-13654212D02*
X12975172Y-13644688D01*
X12975172Y-13644688D02*
X12984695Y-13635164D01*
X12984695Y-13635164D02*
X12984695Y-13654212D01*
D12*
X11322490Y-14072490D02*
X11352490Y-14102490D01*
X11352490Y-14072490D02*
X11322490Y-14102490D01*
D11*
X11651362Y-13978974D02*
X11670410Y-13978974D01*
X11670410Y-13978974D02*
X11689457Y-13988498D01*
X11689457Y-13988498D02*
X11698981Y-13998021D01*
X11698981Y-13998021D02*
X11708505Y-14017069D01*
X11708505Y-14017069D02*
X11718029Y-14055164D01*
X11718029Y-14055164D02*
X11718029Y-14102783D01*
X11718029Y-14102783D02*
X11708505Y-14140878D01*
X11708505Y-14140878D02*
X11698981Y-14159926D01*
X11698981Y-14159926D02*
X11689457Y-14169450D01*
X11689457Y-14169450D02*
X11670410Y-14178974D01*
X11670410Y-14178974D02*
X11651362Y-14178974D01*
X11651362Y-14178974D02*
X11632314Y-14169450D01*
X11632314Y-14169450D02*
X11622791Y-14159926D01*
X11622791Y-14159926D02*
X11613267Y-14140878D01*
X11613267Y-14140878D02*
X11603743Y-14102783D01*
X11603743Y-14102783D02*
X11603743Y-14055164D01*
X11603743Y-14055164D02*
X11613267Y-14017069D01*
X11613267Y-14017069D02*
X11622791Y-13998021D01*
X11622791Y-13998021D02*
X11632314Y-13988498D01*
X11632314Y-13988498D02*
X11651362Y-13978974D01*
X11803743Y-14159926D02*
X11813267Y-14169450D01*
X11813267Y-14169450D02*
X11803743Y-14178974D01*
X11803743Y-14178974D02*
X11794219Y-14169450D01*
X11794219Y-14169450D02*
X11803743Y-14159926D01*
X11803743Y-14159926D02*
X11803743Y-14178974D01*
X11879933Y-13978974D02*
X12003743Y-13978974D01*
X12003743Y-13978974D02*
X11937076Y-14055164D01*
X11937076Y-14055164D02*
X11965648Y-14055164D01*
X11965648Y-14055164D02*
X11984695Y-14064688D01*
X11984695Y-14064688D02*
X11994219Y-14074212D01*
X11994219Y-14074212D02*
X12003743Y-14093259D01*
X12003743Y-14093259D02*
X12003743Y-14140878D01*
X12003743Y-14140878D02*
X11994219Y-14159926D01*
X11994219Y-14159926D02*
X11984695Y-14169450D01*
X11984695Y-14169450D02*
X11965648Y-14178974D01*
X11965648Y-14178974D02*
X11908505Y-14178974D01*
X11908505Y-14178974D02*
X11889457Y-14169450D01*
X11889457Y-14169450D02*
X11879933Y-14159926D01*
X12127552Y-13978974D02*
X12146600Y-13978974D01*
X12146600Y-13978974D02*
X12165648Y-13988498D01*
X12165648Y-13988498D02*
X12175172Y-13998021D01*
X12175172Y-13998021D02*
X12184695Y-14017069D01*
X12184695Y-14017069D02*
X12194219Y-14055164D01*
X12194219Y-14055164D02*
X12194219Y-14102783D01*
X12194219Y-14102783D02*
X12184695Y-14140878D01*
X12184695Y-14140878D02*
X12175172Y-14159926D01*
X12175172Y-14159926D02*
X12165648Y-14169450D01*
X12165648Y-14169450D02*
X12146600Y-14178974D01*
X12146600Y-14178974D02*
X12127552Y-14178974D01*
X12127552Y-14178974D02*
X12108505Y-14169450D01*
X12108505Y-14169450D02*
X12098981Y-14159926D01*
X12098981Y-14159926D02*
X12089457Y-14140878D01*
X12089457Y-14140878D02*
X12079933Y-14102783D01*
X12079933Y-14102783D02*
X12079933Y-14055164D01*
X12079933Y-14055164D02*
X12089457Y-14017069D01*
X12089457Y-14017069D02*
X12098981Y-13998021D01*
X12098981Y-13998021D02*
X12108505Y-13988498D01*
X12108505Y-13988498D02*
X12127552Y-13978974D01*
X12318029Y-13978974D02*
X12337076Y-13978974D01*
X12337076Y-13978974D02*
X12356124Y-13988498D01*
X12356124Y-13988498D02*
X12365648Y-13998021D01*
X12365648Y-13998021D02*
X12375172Y-14017069D01*
X12375172Y-14017069D02*
X12384695Y-14055164D01*
X12384695Y-14055164D02*
X12384695Y-14102783D01*
X12384695Y-14102783D02*
X12375172Y-14140878D01*
X12375172Y-14140878D02*
X12365648Y-14159926D01*
X12365648Y-14159926D02*
X12356124Y-14169450D01*
X12356124Y-14169450D02*
X12337076Y-14178974D01*
X12337076Y-14178974D02*
X12318029Y-14178974D01*
X12318029Y-14178974D02*
X12298981Y-14169450D01*
X12298981Y-14169450D02*
X12289457Y-14159926D01*
X12289457Y-14159926D02*
X12279933Y-14140878D01*
X12279933Y-14140878D02*
X12270410Y-14102783D01*
X12270410Y-14102783D02*
X12270410Y-14055164D01*
X12270410Y-14055164D02*
X12279933Y-14017069D01*
X12279933Y-14017069D02*
X12289457Y-13998021D01*
X12289457Y-13998021D02*
X12298981Y-13988498D01*
X12298981Y-13988498D02*
X12318029Y-13978974D01*
X12470410Y-14178974D02*
X12470410Y-14045640D01*
X12470410Y-14064688D02*
X12479933Y-14055164D01*
X12479933Y-14055164D02*
X12498981Y-14045640D01*
X12498981Y-14045640D02*
X12527553Y-14045640D01*
X12527553Y-14045640D02*
X12546600Y-14055164D01*
X12546600Y-14055164D02*
X12556124Y-14074212D01*
X12556124Y-14074212D02*
X12556124Y-14178974D01*
X12556124Y-14074212D02*
X12565648Y-14055164D01*
X12565648Y-14055164D02*
X12584695Y-14045640D01*
X12584695Y-14045640D02*
X12613267Y-14045640D01*
X12613267Y-14045640D02*
X12632314Y-14055164D01*
X12632314Y-14055164D02*
X12641838Y-14074212D01*
X12641838Y-14074212D02*
X12641838Y-14178974D01*
X12737076Y-14178974D02*
X12737076Y-14045640D01*
X12737076Y-14064688D02*
X12746600Y-14055164D01*
X12746600Y-14055164D02*
X12765648Y-14045640D01*
X12765648Y-14045640D02*
X12794219Y-14045640D01*
X12794219Y-14045640D02*
X12813267Y-14055164D01*
X12813267Y-14055164D02*
X12822791Y-14074212D01*
X12822791Y-14074212D02*
X12822791Y-14178974D01*
X12822791Y-14074212D02*
X12832314Y-14055164D01*
X12832314Y-14055164D02*
X12851362Y-14045640D01*
X12851362Y-14045640D02*
X12879933Y-14045640D01*
X12879933Y-14045640D02*
X12898981Y-14055164D01*
X12898981Y-14055164D02*
X12908505Y-14074212D01*
X12908505Y-14074212D02*
X12908505Y-14178974D01*
X13298981Y-13969450D02*
X13127553Y-14226593D01*
X13556124Y-13978974D02*
X13575172Y-13978974D01*
X13575172Y-13978974D02*
X13594219Y-13988498D01*
X13594219Y-13988498D02*
X13603743Y-13998021D01*
X13603743Y-13998021D02*
X13613267Y-14017069D01*
X13613267Y-14017069D02*
X13622791Y-14055164D01*
X13622791Y-14055164D02*
X13622791Y-14102783D01*
X13622791Y-14102783D02*
X13613267Y-14140878D01*
X13613267Y-14140878D02*
X13603743Y-14159926D01*
X13603743Y-14159926D02*
X13594219Y-14169450D01*
X13594219Y-14169450D02*
X13575172Y-14178974D01*
X13575172Y-14178974D02*
X13556124Y-14178974D01*
X13556124Y-14178974D02*
X13537076Y-14169450D01*
X13537076Y-14169450D02*
X13527553Y-14159926D01*
X13527553Y-14159926D02*
X13518029Y-14140878D01*
X13518029Y-14140878D02*
X13508505Y-14102783D01*
X13508505Y-14102783D02*
X13508505Y-14055164D01*
X13508505Y-14055164D02*
X13518029Y-14017069D01*
X13518029Y-14017069D02*
X13527553Y-13998021D01*
X13527553Y-13998021D02*
X13537076Y-13988498D01*
X13537076Y-13988498D02*
X13556124Y-13978974D01*
X13708505Y-14159926D02*
X13718029Y-14169450D01*
X13718029Y-14169450D02*
X13708505Y-14178974D01*
X13708505Y-14178974D02*
X13698981Y-14169450D01*
X13698981Y-14169450D02*
X13708505Y-14159926D01*
X13708505Y-14159926D02*
X13708505Y-14178974D01*
X13841838Y-13978974D02*
X13860886Y-13978974D01*
X13860886Y-13978974D02*
X13879934Y-13988498D01*
X13879934Y-13988498D02*
X13889457Y-13998021D01*
X13889457Y-13998021D02*
X13898981Y-14017069D01*
X13898981Y-14017069D02*
X13908505Y-14055164D01*
X13908505Y-14055164D02*
X13908505Y-14102783D01*
X13908505Y-14102783D02*
X13898981Y-14140878D01*
X13898981Y-14140878D02*
X13889457Y-14159926D01*
X13889457Y-14159926D02*
X13879934Y-14169450D01*
X13879934Y-14169450D02*
X13860886Y-14178974D01*
X13860886Y-14178974D02*
X13841838Y-14178974D01*
X13841838Y-14178974D02*
X13822791Y-14169450D01*
X13822791Y-14169450D02*
X13813267Y-14159926D01*
X13813267Y-14159926D02*
X13803743Y-14140878D01*
X13803743Y-14140878D02*
X13794219Y-14102783D01*
X13794219Y-14102783D02*
X13794219Y-14055164D01*
X13794219Y-14055164D02*
X13803743Y-14017069D01*
X13803743Y-14017069D02*
X13813267Y-13998021D01*
X13813267Y-13998021D02*
X13822791Y-13988498D01*
X13822791Y-13988498D02*
X13841838Y-13978974D01*
X14098981Y-14178974D02*
X13984696Y-14178974D01*
X14041838Y-14178974D02*
X14041838Y-13978974D01*
X14041838Y-13978974D02*
X14022791Y-14007545D01*
X14022791Y-14007545D02*
X14003743Y-14026593D01*
X14003743Y-14026593D02*
X13984696Y-14036117D01*
X14289457Y-14178974D02*
X14175172Y-14178974D01*
X14232315Y-14178974D02*
X14232315Y-13978974D01*
X14232315Y-13978974D02*
X14213267Y-14007545D01*
X14213267Y-14007545D02*
X14194219Y-14026593D01*
X14194219Y-14026593D02*
X14175172Y-14036117D01*
X14403743Y-14064688D02*
X14384696Y-14055164D01*
X14384696Y-14055164D02*
X14375172Y-14045640D01*
X14375172Y-14045640D02*
X14365648Y-14026593D01*
X14365648Y-14026593D02*
X14365648Y-14017069D01*
X14365648Y-14017069D02*
X14375172Y-13998021D01*
X14375172Y-13998021D02*
X14384696Y-13988498D01*
X14384696Y-13988498D02*
X14403743Y-13978974D01*
X14403743Y-13978974D02*
X14441838Y-13978974D01*
X14441838Y-13978974D02*
X14460886Y-13988498D01*
X14460886Y-13988498D02*
X14470410Y-13998021D01*
X14470410Y-13998021D02*
X14479934Y-14017069D01*
X14479934Y-14017069D02*
X14479934Y-14026593D01*
X14479934Y-14026593D02*
X14470410Y-14045640D01*
X14470410Y-14045640D02*
X14460886Y-14055164D01*
X14460886Y-14055164D02*
X14441838Y-14064688D01*
X14441838Y-14064688D02*
X14403743Y-14064688D01*
X14403743Y-14064688D02*
X14384696Y-14074212D01*
X14384696Y-14074212D02*
X14375172Y-14083736D01*
X14375172Y-14083736D02*
X14365648Y-14102783D01*
X14365648Y-14102783D02*
X14365648Y-14140878D01*
X14365648Y-14140878D02*
X14375172Y-14159926D01*
X14375172Y-14159926D02*
X14384696Y-14169450D01*
X14384696Y-14169450D02*
X14403743Y-14178974D01*
X14403743Y-14178974D02*
X14441838Y-14178974D01*
X14441838Y-14178974D02*
X14460886Y-14169450D01*
X14460886Y-14169450D02*
X14470410Y-14159926D01*
X14470410Y-14159926D02*
X14479934Y-14140878D01*
X14479934Y-14140878D02*
X14479934Y-14102783D01*
X14479934Y-14102783D02*
X14470410Y-14083736D01*
X14470410Y-14083736D02*
X14460886Y-14074212D01*
X14460886Y-14074212D02*
X14441838Y-14064688D01*
X14556124Y-13978974D02*
X14556124Y-14017069D01*
X14632315Y-13978974D02*
X14632315Y-14017069D01*
X14927553Y-14255164D02*
X14918029Y-14245640D01*
X14918029Y-14245640D02*
X14898981Y-14217069D01*
X14898981Y-14217069D02*
X14889458Y-14198021D01*
X14889458Y-14198021D02*
X14879934Y-14169450D01*
X14879934Y-14169450D02*
X14870410Y-14121831D01*
X14870410Y-14121831D02*
X14870410Y-14083736D01*
X14870410Y-14083736D02*
X14879934Y-14036117D01*
X14879934Y-14036117D02*
X14889458Y-14007545D01*
X14889458Y-14007545D02*
X14898981Y-13988498D01*
X14898981Y-13988498D02*
X14918029Y-13959926D01*
X14918029Y-13959926D02*
X14927553Y-13950402D01*
X14984696Y-13978974D02*
X15108505Y-13978974D01*
X15108505Y-13978974D02*
X15041838Y-14055164D01*
X15041838Y-14055164D02*
X15070410Y-14055164D01*
X15070410Y-14055164D02*
X15089458Y-14064688D01*
X15089458Y-14064688D02*
X15098981Y-14074212D01*
X15098981Y-14074212D02*
X15108505Y-14093259D01*
X15108505Y-14093259D02*
X15108505Y-14140878D01*
X15108505Y-14140878D02*
X15098981Y-14159926D01*
X15098981Y-14159926D02*
X15089458Y-14169450D01*
X15089458Y-14169450D02*
X15070410Y-14178974D01*
X15070410Y-14178974D02*
X15013267Y-14178974D01*
X15013267Y-14178974D02*
X14994219Y-14169450D01*
X14994219Y-14169450D02*
X14984696Y-14159926D01*
X15346600Y-14178974D02*
X15346600Y-13978974D01*
X15432315Y-14178974D02*
X15432315Y-14074212D01*
X15432315Y-14074212D02*
X15422791Y-14055164D01*
X15422791Y-14055164D02*
X15403743Y-14045640D01*
X15403743Y-14045640D02*
X15375172Y-14045640D01*
X15375172Y-14045640D02*
X15356124Y-14055164D01*
X15356124Y-14055164D02*
X15346600Y-14064688D01*
X15556124Y-14178974D02*
X15537077Y-14169450D01*
X15537077Y-14169450D02*
X15527553Y-14159926D01*
X15527553Y-14159926D02*
X15518029Y-14140878D01*
X15518029Y-14140878D02*
X15518029Y-14083736D01*
X15518029Y-14083736D02*
X15527553Y-14064688D01*
X15527553Y-14064688D02*
X15537077Y-14055164D01*
X15537077Y-14055164D02*
X15556124Y-14045640D01*
X15556124Y-14045640D02*
X15584696Y-14045640D01*
X15584696Y-14045640D02*
X15603743Y-14055164D01*
X15603743Y-14055164D02*
X15613267Y-14064688D01*
X15613267Y-14064688D02*
X15622791Y-14083736D01*
X15622791Y-14083736D02*
X15622791Y-14140878D01*
X15622791Y-14140878D02*
X15613267Y-14159926D01*
X15613267Y-14159926D02*
X15603743Y-14169450D01*
X15603743Y-14169450D02*
X15584696Y-14178974D01*
X15584696Y-14178974D02*
X15556124Y-14178974D01*
X15737077Y-14178974D02*
X15718029Y-14169450D01*
X15718029Y-14169450D02*
X15708505Y-14150402D01*
X15708505Y-14150402D02*
X15708505Y-13978974D01*
X15889458Y-14169450D02*
X15870410Y-14178974D01*
X15870410Y-14178974D02*
X15832315Y-14178974D01*
X15832315Y-14178974D02*
X15813267Y-14169450D01*
X15813267Y-14169450D02*
X15803743Y-14150402D01*
X15803743Y-14150402D02*
X15803743Y-14074212D01*
X15803743Y-14074212D02*
X15813267Y-14055164D01*
X15813267Y-14055164D02*
X15832315Y-14045640D01*
X15832315Y-14045640D02*
X15870410Y-14045640D01*
X15870410Y-14045640D02*
X15889458Y-14055164D01*
X15889458Y-14055164D02*
X15898981Y-14074212D01*
X15898981Y-14074212D02*
X15898981Y-14093259D01*
X15898981Y-14093259D02*
X15803743Y-14112307D01*
X15975172Y-14169450D02*
X15994220Y-14178974D01*
X15994220Y-14178974D02*
X16032315Y-14178974D01*
X16032315Y-14178974D02*
X16051362Y-14169450D01*
X16051362Y-14169450D02*
X16060886Y-14150402D01*
X16060886Y-14150402D02*
X16060886Y-14140878D01*
X16060886Y-14140878D02*
X16051362Y-14121831D01*
X16051362Y-14121831D02*
X16032315Y-14112307D01*
X16032315Y-14112307D02*
X16003743Y-14112307D01*
X16003743Y-14112307D02*
X15984696Y-14102783D01*
X15984696Y-14102783D02*
X15975172Y-14083736D01*
X15975172Y-14083736D02*
X15975172Y-14074212D01*
X15975172Y-14074212D02*
X15984696Y-14055164D01*
X15984696Y-14055164D02*
X16003743Y-14045640D01*
X16003743Y-14045640D02*
X16032315Y-14045640D01*
X16032315Y-14045640D02*
X16051362Y-14055164D01*
X16127553Y-14255164D02*
X16137077Y-14245640D01*
X16137077Y-14245640D02*
X16156124Y-14217069D01*
X16156124Y-14217069D02*
X16165648Y-14198021D01*
X16165648Y-14198021D02*
X16175172Y-14169450D01*
X16175172Y-14169450D02*
X16184696Y-14121831D01*
X16184696Y-14121831D02*
X16184696Y-14083736D01*
X16184696Y-14083736D02*
X16175172Y-14036117D01*
X16175172Y-14036117D02*
X16165648Y-14007545D01*
X16165648Y-14007545D02*
X16156124Y-13988498D01*
X16156124Y-13988498D02*
X16137077Y-13959926D01*
X16137077Y-13959926D02*
X16127553Y-13950402D01*
D12*
X11352490Y-14351490D02*
G75*
G02*
X11322470Y-14351490I-15010J0D01*
G01*
X11322470Y-14351490D02*
G75*
G02*
X11352490Y-14351490I15010J0D01*
G01*
D11*
X11651362Y-14242974D02*
X11670410Y-14242974D01*
X11670410Y-14242974D02*
X11689457Y-14252498D01*
X11689457Y-14252498D02*
X11698981Y-14262021D01*
X11698981Y-14262021D02*
X11708505Y-14281069D01*
X11708505Y-14281069D02*
X11718029Y-14319164D01*
X11718029Y-14319164D02*
X11718029Y-14366783D01*
X11718029Y-14366783D02*
X11708505Y-14404878D01*
X11708505Y-14404878D02*
X11698981Y-14423926D01*
X11698981Y-14423926D02*
X11689457Y-14433450D01*
X11689457Y-14433450D02*
X11670410Y-14442974D01*
X11670410Y-14442974D02*
X11651362Y-14442974D01*
X11651362Y-14442974D02*
X11632314Y-14433450D01*
X11632314Y-14433450D02*
X11622791Y-14423926D01*
X11622791Y-14423926D02*
X11613267Y-14404878D01*
X11613267Y-14404878D02*
X11603743Y-14366783D01*
X11603743Y-14366783D02*
X11603743Y-14319164D01*
X11603743Y-14319164D02*
X11613267Y-14281069D01*
X11613267Y-14281069D02*
X11622791Y-14262021D01*
X11622791Y-14262021D02*
X11632314Y-14252498D01*
X11632314Y-14252498D02*
X11651362Y-14242974D01*
X11803743Y-14423926D02*
X11813267Y-14433450D01*
X11813267Y-14433450D02*
X11803743Y-14442974D01*
X11803743Y-14442974D02*
X11794219Y-14433450D01*
X11794219Y-14433450D02*
X11803743Y-14423926D01*
X11803743Y-14423926D02*
X11803743Y-14442974D01*
X11879933Y-14242974D02*
X12003743Y-14242974D01*
X12003743Y-14242974D02*
X11937076Y-14319164D01*
X11937076Y-14319164D02*
X11965648Y-14319164D01*
X11965648Y-14319164D02*
X11984695Y-14328688D01*
X11984695Y-14328688D02*
X11994219Y-14338212D01*
X11994219Y-14338212D02*
X12003743Y-14357259D01*
X12003743Y-14357259D02*
X12003743Y-14404878D01*
X12003743Y-14404878D02*
X11994219Y-14423926D01*
X11994219Y-14423926D02*
X11984695Y-14433450D01*
X11984695Y-14433450D02*
X11965648Y-14442974D01*
X11965648Y-14442974D02*
X11908505Y-14442974D01*
X11908505Y-14442974D02*
X11889457Y-14433450D01*
X11889457Y-14433450D02*
X11879933Y-14423926D01*
X12127552Y-14242974D02*
X12146600Y-14242974D01*
X12146600Y-14242974D02*
X12165648Y-14252498D01*
X12165648Y-14252498D02*
X12175172Y-14262021D01*
X12175172Y-14262021D02*
X12184695Y-14281069D01*
X12184695Y-14281069D02*
X12194219Y-14319164D01*
X12194219Y-14319164D02*
X12194219Y-14366783D01*
X12194219Y-14366783D02*
X12184695Y-14404878D01*
X12184695Y-14404878D02*
X12175172Y-14423926D01*
X12175172Y-14423926D02*
X12165648Y-14433450D01*
X12165648Y-14433450D02*
X12146600Y-14442974D01*
X12146600Y-14442974D02*
X12127552Y-14442974D01*
X12127552Y-14442974D02*
X12108505Y-14433450D01*
X12108505Y-14433450D02*
X12098981Y-14423926D01*
X12098981Y-14423926D02*
X12089457Y-14404878D01*
X12089457Y-14404878D02*
X12079933Y-14366783D01*
X12079933Y-14366783D02*
X12079933Y-14319164D01*
X12079933Y-14319164D02*
X12089457Y-14281069D01*
X12089457Y-14281069D02*
X12098981Y-14262021D01*
X12098981Y-14262021D02*
X12108505Y-14252498D01*
X12108505Y-14252498D02*
X12127552Y-14242974D01*
X12318029Y-14242974D02*
X12337076Y-14242974D01*
X12337076Y-14242974D02*
X12356124Y-14252498D01*
X12356124Y-14252498D02*
X12365648Y-14262021D01*
X12365648Y-14262021D02*
X12375172Y-14281069D01*
X12375172Y-14281069D02*
X12384695Y-14319164D01*
X12384695Y-14319164D02*
X12384695Y-14366783D01*
X12384695Y-14366783D02*
X12375172Y-14404878D01*
X12375172Y-14404878D02*
X12365648Y-14423926D01*
X12365648Y-14423926D02*
X12356124Y-14433450D01*
X12356124Y-14433450D02*
X12337076Y-14442974D01*
X12337076Y-14442974D02*
X12318029Y-14442974D01*
X12318029Y-14442974D02*
X12298981Y-14433450D01*
X12298981Y-14433450D02*
X12289457Y-14423926D01*
X12289457Y-14423926D02*
X12279933Y-14404878D01*
X12279933Y-14404878D02*
X12270410Y-14366783D01*
X12270410Y-14366783D02*
X12270410Y-14319164D01*
X12270410Y-14319164D02*
X12279933Y-14281069D01*
X12279933Y-14281069D02*
X12289457Y-14262021D01*
X12289457Y-14262021D02*
X12298981Y-14252498D01*
X12298981Y-14252498D02*
X12318029Y-14242974D01*
X12470410Y-14442974D02*
X12470410Y-14309640D01*
X12470410Y-14328688D02*
X12479933Y-14319164D01*
X12479933Y-14319164D02*
X12498981Y-14309640D01*
X12498981Y-14309640D02*
X12527553Y-14309640D01*
X12527553Y-14309640D02*
X12546600Y-14319164D01*
X12546600Y-14319164D02*
X12556124Y-14338212D01*
X12556124Y-14338212D02*
X12556124Y-14442974D01*
X12556124Y-14338212D02*
X12565648Y-14319164D01*
X12565648Y-14319164D02*
X12584695Y-14309640D01*
X12584695Y-14309640D02*
X12613267Y-14309640D01*
X12613267Y-14309640D02*
X12632314Y-14319164D01*
X12632314Y-14319164D02*
X12641838Y-14338212D01*
X12641838Y-14338212D02*
X12641838Y-14442974D01*
X12737076Y-14442974D02*
X12737076Y-14309640D01*
X12737076Y-14328688D02*
X12746600Y-14319164D01*
X12746600Y-14319164D02*
X12765648Y-14309640D01*
X12765648Y-14309640D02*
X12794219Y-14309640D01*
X12794219Y-14309640D02*
X12813267Y-14319164D01*
X12813267Y-14319164D02*
X12822791Y-14338212D01*
X12822791Y-14338212D02*
X12822791Y-14442974D01*
X12822791Y-14338212D02*
X12832314Y-14319164D01*
X12832314Y-14319164D02*
X12851362Y-14309640D01*
X12851362Y-14309640D02*
X12879933Y-14309640D01*
X12879933Y-14309640D02*
X12898981Y-14319164D01*
X12898981Y-14319164D02*
X12908505Y-14338212D01*
X12908505Y-14338212D02*
X12908505Y-14442974D01*
X13298981Y-14233450D02*
X13127553Y-14490593D01*
X13556124Y-14242974D02*
X13575172Y-14242974D01*
X13575172Y-14242974D02*
X13594219Y-14252498D01*
X13594219Y-14252498D02*
X13603743Y-14262021D01*
X13603743Y-14262021D02*
X13613267Y-14281069D01*
X13613267Y-14281069D02*
X13622791Y-14319164D01*
X13622791Y-14319164D02*
X13622791Y-14366783D01*
X13622791Y-14366783D02*
X13613267Y-14404878D01*
X13613267Y-14404878D02*
X13603743Y-14423926D01*
X13603743Y-14423926D02*
X13594219Y-14433450D01*
X13594219Y-14433450D02*
X13575172Y-14442974D01*
X13575172Y-14442974D02*
X13556124Y-14442974D01*
X13556124Y-14442974D02*
X13537076Y-14433450D01*
X13537076Y-14433450D02*
X13527553Y-14423926D01*
X13527553Y-14423926D02*
X13518029Y-14404878D01*
X13518029Y-14404878D02*
X13508505Y-14366783D01*
X13508505Y-14366783D02*
X13508505Y-14319164D01*
X13508505Y-14319164D02*
X13518029Y-14281069D01*
X13518029Y-14281069D02*
X13527553Y-14262021D01*
X13527553Y-14262021D02*
X13537076Y-14252498D01*
X13537076Y-14252498D02*
X13556124Y-14242974D01*
X13708505Y-14423926D02*
X13718029Y-14433450D01*
X13718029Y-14433450D02*
X13708505Y-14442974D01*
X13708505Y-14442974D02*
X13698981Y-14433450D01*
X13698981Y-14433450D02*
X13708505Y-14423926D01*
X13708505Y-14423926D02*
X13708505Y-14442974D01*
X13841838Y-14242974D02*
X13860886Y-14242974D01*
X13860886Y-14242974D02*
X13879934Y-14252498D01*
X13879934Y-14252498D02*
X13889457Y-14262021D01*
X13889457Y-14262021D02*
X13898981Y-14281069D01*
X13898981Y-14281069D02*
X13908505Y-14319164D01*
X13908505Y-14319164D02*
X13908505Y-14366783D01*
X13908505Y-14366783D02*
X13898981Y-14404878D01*
X13898981Y-14404878D02*
X13889457Y-14423926D01*
X13889457Y-14423926D02*
X13879934Y-14433450D01*
X13879934Y-14433450D02*
X13860886Y-14442974D01*
X13860886Y-14442974D02*
X13841838Y-14442974D01*
X13841838Y-14442974D02*
X13822791Y-14433450D01*
X13822791Y-14433450D02*
X13813267Y-14423926D01*
X13813267Y-14423926D02*
X13803743Y-14404878D01*
X13803743Y-14404878D02*
X13794219Y-14366783D01*
X13794219Y-14366783D02*
X13794219Y-14319164D01*
X13794219Y-14319164D02*
X13803743Y-14281069D01*
X13803743Y-14281069D02*
X13813267Y-14262021D01*
X13813267Y-14262021D02*
X13822791Y-14252498D01*
X13822791Y-14252498D02*
X13841838Y-14242974D01*
X14098981Y-14442974D02*
X13984696Y-14442974D01*
X14041838Y-14442974D02*
X14041838Y-14242974D01*
X14041838Y-14242974D02*
X14022791Y-14271545D01*
X14022791Y-14271545D02*
X14003743Y-14290593D01*
X14003743Y-14290593D02*
X13984696Y-14300117D01*
X14289457Y-14442974D02*
X14175172Y-14442974D01*
X14232315Y-14442974D02*
X14232315Y-14242974D01*
X14232315Y-14242974D02*
X14213267Y-14271545D01*
X14213267Y-14271545D02*
X14194219Y-14290593D01*
X14194219Y-14290593D02*
X14175172Y-14300117D01*
X14403743Y-14328688D02*
X14384696Y-14319164D01*
X14384696Y-14319164D02*
X14375172Y-14309640D01*
X14375172Y-14309640D02*
X14365648Y-14290593D01*
X14365648Y-14290593D02*
X14365648Y-14281069D01*
X14365648Y-14281069D02*
X14375172Y-14262021D01*
X14375172Y-14262021D02*
X14384696Y-14252498D01*
X14384696Y-14252498D02*
X14403743Y-14242974D01*
X14403743Y-14242974D02*
X14441838Y-14242974D01*
X14441838Y-14242974D02*
X14460886Y-14252498D01*
X14460886Y-14252498D02*
X14470410Y-14262021D01*
X14470410Y-14262021D02*
X14479934Y-14281069D01*
X14479934Y-14281069D02*
X14479934Y-14290593D01*
X14479934Y-14290593D02*
X14470410Y-14309640D01*
X14470410Y-14309640D02*
X14460886Y-14319164D01*
X14460886Y-14319164D02*
X14441838Y-14328688D01*
X14441838Y-14328688D02*
X14403743Y-14328688D01*
X14403743Y-14328688D02*
X14384696Y-14338212D01*
X14384696Y-14338212D02*
X14375172Y-14347736D01*
X14375172Y-14347736D02*
X14365648Y-14366783D01*
X14365648Y-14366783D02*
X14365648Y-14404878D01*
X14365648Y-14404878D02*
X14375172Y-14423926D01*
X14375172Y-14423926D02*
X14384696Y-14433450D01*
X14384696Y-14433450D02*
X14403743Y-14442974D01*
X14403743Y-14442974D02*
X14441838Y-14442974D01*
X14441838Y-14442974D02*
X14460886Y-14433450D01*
X14460886Y-14433450D02*
X14470410Y-14423926D01*
X14470410Y-14423926D02*
X14479934Y-14404878D01*
X14479934Y-14404878D02*
X14479934Y-14366783D01*
X14479934Y-14366783D02*
X14470410Y-14347736D01*
X14470410Y-14347736D02*
X14460886Y-14338212D01*
X14460886Y-14338212D02*
X14441838Y-14328688D01*
X14556124Y-14242974D02*
X14556124Y-14281069D01*
X14632315Y-14242974D02*
X14632315Y-14281069D01*
X14927553Y-14519164D02*
X14918029Y-14509640D01*
X14918029Y-14509640D02*
X14898981Y-14481069D01*
X14898981Y-14481069D02*
X14889458Y-14462021D01*
X14889458Y-14462021D02*
X14879934Y-14433450D01*
X14879934Y-14433450D02*
X14870410Y-14385831D01*
X14870410Y-14385831D02*
X14870410Y-14347736D01*
X14870410Y-14347736D02*
X14879934Y-14300117D01*
X14879934Y-14300117D02*
X14889458Y-14271545D01*
X14889458Y-14271545D02*
X14898981Y-14252498D01*
X14898981Y-14252498D02*
X14918029Y-14223926D01*
X14918029Y-14223926D02*
X14927553Y-14214402D01*
X15108505Y-14442974D02*
X14994219Y-14442974D01*
X15051362Y-14442974D02*
X15051362Y-14242974D01*
X15051362Y-14242974D02*
X15032315Y-14271545D01*
X15032315Y-14271545D02*
X15013267Y-14290593D01*
X15013267Y-14290593D02*
X14994219Y-14300117D01*
X15337077Y-14433450D02*
X15356124Y-14442974D01*
X15356124Y-14442974D02*
X15394219Y-14442974D01*
X15394219Y-14442974D02*
X15413267Y-14433450D01*
X15413267Y-14433450D02*
X15422791Y-14414402D01*
X15422791Y-14414402D02*
X15422791Y-14404878D01*
X15422791Y-14404878D02*
X15413267Y-14385831D01*
X15413267Y-14385831D02*
X15394219Y-14376307D01*
X15394219Y-14376307D02*
X15365648Y-14376307D01*
X15365648Y-14376307D02*
X15346600Y-14366783D01*
X15346600Y-14366783D02*
X15337077Y-14347736D01*
X15337077Y-14347736D02*
X15337077Y-14338212D01*
X15337077Y-14338212D02*
X15346600Y-14319164D01*
X15346600Y-14319164D02*
X15365648Y-14309640D01*
X15365648Y-14309640D02*
X15394219Y-14309640D01*
X15394219Y-14309640D02*
X15413267Y-14319164D01*
X15537077Y-14442974D02*
X15518029Y-14433450D01*
X15518029Y-14433450D02*
X15508505Y-14414402D01*
X15508505Y-14414402D02*
X15508505Y-14242974D01*
X15641839Y-14442974D02*
X15622791Y-14433450D01*
X15622791Y-14433450D02*
X15613267Y-14423926D01*
X15613267Y-14423926D02*
X15603743Y-14404878D01*
X15603743Y-14404878D02*
X15603743Y-14347736D01*
X15603743Y-14347736D02*
X15613267Y-14328688D01*
X15613267Y-14328688D02*
X15622791Y-14319164D01*
X15622791Y-14319164D02*
X15641839Y-14309640D01*
X15641839Y-14309640D02*
X15670410Y-14309640D01*
X15670410Y-14309640D02*
X15689458Y-14319164D01*
X15689458Y-14319164D02*
X15698981Y-14328688D01*
X15698981Y-14328688D02*
X15708505Y-14347736D01*
X15708505Y-14347736D02*
X15708505Y-14404878D01*
X15708505Y-14404878D02*
X15698981Y-14423926D01*
X15698981Y-14423926D02*
X15689458Y-14433450D01*
X15689458Y-14433450D02*
X15670410Y-14442974D01*
X15670410Y-14442974D02*
X15641839Y-14442974D01*
X15765648Y-14309640D02*
X15841839Y-14309640D01*
X15794220Y-14242974D02*
X15794220Y-14414402D01*
X15794220Y-14414402D02*
X15803743Y-14433450D01*
X15803743Y-14433450D02*
X15822791Y-14442974D01*
X15822791Y-14442974D02*
X15841839Y-14442974D01*
X15889458Y-14519164D02*
X15898981Y-14509640D01*
X15898981Y-14509640D02*
X15918029Y-14481069D01*
X15918029Y-14481069D02*
X15927553Y-14462021D01*
X15927553Y-14462021D02*
X15937077Y-14433450D01*
X15937077Y-14433450D02*
X15946600Y-14385831D01*
X15946600Y-14385831D02*
X15946600Y-14347736D01*
X15946600Y-14347736D02*
X15937077Y-14300117D01*
X15937077Y-14300117D02*
X15927553Y-14271545D01*
X15927553Y-14271545D02*
X15918029Y-14252498D01*
X15918029Y-14252498D02*
X15898981Y-14223926D01*
X15898981Y-14223926D02*
X15889458Y-14214402D01*
X11252490Y-14515490D02*
X11252490Y-14715490D01*
X11152490Y-14615490D02*
X11352490Y-14615490D01*
X11594219Y-14506974D02*
X11727552Y-14506974D01*
X11727552Y-14506974D02*
X11641838Y-14706974D01*
X11803743Y-14687926D02*
X11813267Y-14697450D01*
X11813267Y-14697450D02*
X11803743Y-14706974D01*
X11803743Y-14706974D02*
X11794219Y-14697450D01*
X11794219Y-14697450D02*
X11803743Y-14687926D01*
X11803743Y-14687926D02*
X11803743Y-14706974D01*
X11937076Y-14506974D02*
X11956124Y-14506974D01*
X11956124Y-14506974D02*
X11975172Y-14516498D01*
X11975172Y-14516498D02*
X11984695Y-14526021D01*
X11984695Y-14526021D02*
X11994219Y-14545069D01*
X11994219Y-14545069D02*
X12003743Y-14583164D01*
X12003743Y-14583164D02*
X12003743Y-14630783D01*
X12003743Y-14630783D02*
X11994219Y-14668878D01*
X11994219Y-14668878D02*
X11984695Y-14687926D01*
X11984695Y-14687926D02*
X11975172Y-14697450D01*
X11975172Y-14697450D02*
X11956124Y-14706974D01*
X11956124Y-14706974D02*
X11937076Y-14706974D01*
X11937076Y-14706974D02*
X11918029Y-14697450D01*
X11918029Y-14697450D02*
X11908505Y-14687926D01*
X11908505Y-14687926D02*
X11898981Y-14668878D01*
X11898981Y-14668878D02*
X11889457Y-14630783D01*
X11889457Y-14630783D02*
X11889457Y-14583164D01*
X11889457Y-14583164D02*
X11898981Y-14545069D01*
X11898981Y-14545069D02*
X11908505Y-14526021D01*
X11908505Y-14526021D02*
X11918029Y-14516498D01*
X11918029Y-14516498D02*
X11937076Y-14506974D01*
X12127552Y-14506974D02*
X12146600Y-14506974D01*
X12146600Y-14506974D02*
X12165648Y-14516498D01*
X12165648Y-14516498D02*
X12175172Y-14526021D01*
X12175172Y-14526021D02*
X12184695Y-14545069D01*
X12184695Y-14545069D02*
X12194219Y-14583164D01*
X12194219Y-14583164D02*
X12194219Y-14630783D01*
X12194219Y-14630783D02*
X12184695Y-14668878D01*
X12184695Y-14668878D02*
X12175172Y-14687926D01*
X12175172Y-14687926D02*
X12165648Y-14697450D01*
X12165648Y-14697450D02*
X12146600Y-14706974D01*
X12146600Y-14706974D02*
X12127552Y-14706974D01*
X12127552Y-14706974D02*
X12108505Y-14697450D01*
X12108505Y-14697450D02*
X12098981Y-14687926D01*
X12098981Y-14687926D02*
X12089457Y-14668878D01*
X12089457Y-14668878D02*
X12079933Y-14630783D01*
X12079933Y-14630783D02*
X12079933Y-14583164D01*
X12079933Y-14583164D02*
X12089457Y-14545069D01*
X12089457Y-14545069D02*
X12098981Y-14526021D01*
X12098981Y-14526021D02*
X12108505Y-14516498D01*
X12108505Y-14516498D02*
X12127552Y-14506974D01*
X12318029Y-14506974D02*
X12337076Y-14506974D01*
X12337076Y-14506974D02*
X12356124Y-14516498D01*
X12356124Y-14516498D02*
X12365648Y-14526021D01*
X12365648Y-14526021D02*
X12375172Y-14545069D01*
X12375172Y-14545069D02*
X12384695Y-14583164D01*
X12384695Y-14583164D02*
X12384695Y-14630783D01*
X12384695Y-14630783D02*
X12375172Y-14668878D01*
X12375172Y-14668878D02*
X12365648Y-14687926D01*
X12365648Y-14687926D02*
X12356124Y-14697450D01*
X12356124Y-14697450D02*
X12337076Y-14706974D01*
X12337076Y-14706974D02*
X12318029Y-14706974D01*
X12318029Y-14706974D02*
X12298981Y-14697450D01*
X12298981Y-14697450D02*
X12289457Y-14687926D01*
X12289457Y-14687926D02*
X12279933Y-14668878D01*
X12279933Y-14668878D02*
X12270410Y-14630783D01*
X12270410Y-14630783D02*
X12270410Y-14583164D01*
X12270410Y-14583164D02*
X12279933Y-14545069D01*
X12279933Y-14545069D02*
X12289457Y-14526021D01*
X12289457Y-14526021D02*
X12298981Y-14516498D01*
X12298981Y-14516498D02*
X12318029Y-14506974D01*
X12470410Y-14706974D02*
X12470410Y-14573640D01*
X12470410Y-14592688D02*
X12479933Y-14583164D01*
X12479933Y-14583164D02*
X12498981Y-14573640D01*
X12498981Y-14573640D02*
X12527553Y-14573640D01*
X12527553Y-14573640D02*
X12546600Y-14583164D01*
X12546600Y-14583164D02*
X12556124Y-14602212D01*
X12556124Y-14602212D02*
X12556124Y-14706974D01*
X12556124Y-14602212D02*
X12565648Y-14583164D01*
X12565648Y-14583164D02*
X12584695Y-14573640D01*
X12584695Y-14573640D02*
X12613267Y-14573640D01*
X12613267Y-14573640D02*
X12632314Y-14583164D01*
X12632314Y-14583164D02*
X12641838Y-14602212D01*
X12641838Y-14602212D02*
X12641838Y-14706974D01*
X12737076Y-14706974D02*
X12737076Y-14573640D01*
X12737076Y-14592688D02*
X12746600Y-14583164D01*
X12746600Y-14583164D02*
X12765648Y-14573640D01*
X12765648Y-14573640D02*
X12794219Y-14573640D01*
X12794219Y-14573640D02*
X12813267Y-14583164D01*
X12813267Y-14583164D02*
X12822791Y-14602212D01*
X12822791Y-14602212D02*
X12822791Y-14706974D01*
X12822791Y-14602212D02*
X12832314Y-14583164D01*
X12832314Y-14583164D02*
X12851362Y-14573640D01*
X12851362Y-14573640D02*
X12879933Y-14573640D01*
X12879933Y-14573640D02*
X12898981Y-14583164D01*
X12898981Y-14583164D02*
X12908505Y-14602212D01*
X12908505Y-14602212D02*
X12908505Y-14706974D01*
X13298981Y-14497450D02*
X13127553Y-14754593D01*
X13556124Y-14506974D02*
X13575172Y-14506974D01*
X13575172Y-14506974D02*
X13594219Y-14516498D01*
X13594219Y-14516498D02*
X13603743Y-14526021D01*
X13603743Y-14526021D02*
X13613267Y-14545069D01*
X13613267Y-14545069D02*
X13622791Y-14583164D01*
X13622791Y-14583164D02*
X13622791Y-14630783D01*
X13622791Y-14630783D02*
X13613267Y-14668878D01*
X13613267Y-14668878D02*
X13603743Y-14687926D01*
X13603743Y-14687926D02*
X13594219Y-14697450D01*
X13594219Y-14697450D02*
X13575172Y-14706974D01*
X13575172Y-14706974D02*
X13556124Y-14706974D01*
X13556124Y-14706974D02*
X13537076Y-14697450D01*
X13537076Y-14697450D02*
X13527553Y-14687926D01*
X13527553Y-14687926D02*
X13518029Y-14668878D01*
X13518029Y-14668878D02*
X13508505Y-14630783D01*
X13508505Y-14630783D02*
X13508505Y-14583164D01*
X13508505Y-14583164D02*
X13518029Y-14545069D01*
X13518029Y-14545069D02*
X13527553Y-14526021D01*
X13527553Y-14526021D02*
X13537076Y-14516498D01*
X13537076Y-14516498D02*
X13556124Y-14506974D01*
X13708505Y-14687926D02*
X13718029Y-14697450D01*
X13718029Y-14697450D02*
X13708505Y-14706974D01*
X13708505Y-14706974D02*
X13698981Y-14697450D01*
X13698981Y-14697450D02*
X13708505Y-14687926D01*
X13708505Y-14687926D02*
X13708505Y-14706974D01*
X13794219Y-14526021D02*
X13803743Y-14516498D01*
X13803743Y-14516498D02*
X13822791Y-14506974D01*
X13822791Y-14506974D02*
X13870410Y-14506974D01*
X13870410Y-14506974D02*
X13889457Y-14516498D01*
X13889457Y-14516498D02*
X13898981Y-14526021D01*
X13898981Y-14526021D02*
X13908505Y-14545069D01*
X13908505Y-14545069D02*
X13908505Y-14564117D01*
X13908505Y-14564117D02*
X13898981Y-14592688D01*
X13898981Y-14592688D02*
X13784696Y-14706974D01*
X13784696Y-14706974D02*
X13908505Y-14706974D01*
X13975172Y-14506974D02*
X14108505Y-14506974D01*
X14108505Y-14506974D02*
X14022791Y-14706974D01*
X14279934Y-14506974D02*
X14184696Y-14506974D01*
X14184696Y-14506974D02*
X14175172Y-14602212D01*
X14175172Y-14602212D02*
X14184696Y-14592688D01*
X14184696Y-14592688D02*
X14203743Y-14583164D01*
X14203743Y-14583164D02*
X14251362Y-14583164D01*
X14251362Y-14583164D02*
X14270410Y-14592688D01*
X14270410Y-14592688D02*
X14279934Y-14602212D01*
X14279934Y-14602212D02*
X14289457Y-14621259D01*
X14289457Y-14621259D02*
X14289457Y-14668878D01*
X14289457Y-14668878D02*
X14279934Y-14687926D01*
X14279934Y-14687926D02*
X14270410Y-14697450D01*
X14270410Y-14697450D02*
X14251362Y-14706974D01*
X14251362Y-14706974D02*
X14203743Y-14706974D01*
X14203743Y-14706974D02*
X14184696Y-14697450D01*
X14184696Y-14697450D02*
X14175172Y-14687926D01*
X14460886Y-14506974D02*
X14422791Y-14506974D01*
X14422791Y-14506974D02*
X14403743Y-14516498D01*
X14403743Y-14516498D02*
X14394219Y-14526021D01*
X14394219Y-14526021D02*
X14375172Y-14554593D01*
X14375172Y-14554593D02*
X14365648Y-14592688D01*
X14365648Y-14592688D02*
X14365648Y-14668878D01*
X14365648Y-14668878D02*
X14375172Y-14687926D01*
X14375172Y-14687926D02*
X14384696Y-14697450D01*
X14384696Y-14697450D02*
X14403743Y-14706974D01*
X14403743Y-14706974D02*
X14441838Y-14706974D01*
X14441838Y-14706974D02*
X14460886Y-14697450D01*
X14460886Y-14697450D02*
X14470410Y-14687926D01*
X14470410Y-14687926D02*
X14479934Y-14668878D01*
X14479934Y-14668878D02*
X14479934Y-14621259D01*
X14479934Y-14621259D02*
X14470410Y-14602212D01*
X14470410Y-14602212D02*
X14460886Y-14592688D01*
X14460886Y-14592688D02*
X14441838Y-14583164D01*
X14441838Y-14583164D02*
X14403743Y-14583164D01*
X14403743Y-14583164D02*
X14384696Y-14592688D01*
X14384696Y-14592688D02*
X14375172Y-14602212D01*
X14375172Y-14602212D02*
X14365648Y-14621259D01*
X14556124Y-14506974D02*
X14556124Y-14545069D01*
X14632315Y-14506974D02*
X14632315Y-14545069D01*
X14927553Y-14783164D02*
X14918029Y-14773640D01*
X14918029Y-14773640D02*
X14898981Y-14745069D01*
X14898981Y-14745069D02*
X14889458Y-14726021D01*
X14889458Y-14726021D02*
X14879934Y-14697450D01*
X14879934Y-14697450D02*
X14870410Y-14649831D01*
X14870410Y-14649831D02*
X14870410Y-14611736D01*
X14870410Y-14611736D02*
X14879934Y-14564117D01*
X14879934Y-14564117D02*
X14889458Y-14535545D01*
X14889458Y-14535545D02*
X14898981Y-14516498D01*
X14898981Y-14516498D02*
X14918029Y-14487926D01*
X14918029Y-14487926D02*
X14927553Y-14478402D01*
X15108505Y-14706974D02*
X14994219Y-14706974D01*
X15051362Y-14706974D02*
X15051362Y-14506974D01*
X15051362Y-14506974D02*
X15032315Y-14535545D01*
X15032315Y-14535545D02*
X15013267Y-14554593D01*
X15013267Y-14554593D02*
X14994219Y-14564117D01*
X15346600Y-14706974D02*
X15346600Y-14506974D01*
X15432315Y-14706974D02*
X15432315Y-14602212D01*
X15432315Y-14602212D02*
X15422791Y-14583164D01*
X15422791Y-14583164D02*
X15403743Y-14573640D01*
X15403743Y-14573640D02*
X15375172Y-14573640D01*
X15375172Y-14573640D02*
X15356124Y-14583164D01*
X15356124Y-14583164D02*
X15346600Y-14592688D01*
X15556124Y-14706974D02*
X15537077Y-14697450D01*
X15537077Y-14697450D02*
X15527553Y-14687926D01*
X15527553Y-14687926D02*
X15518029Y-14668878D01*
X15518029Y-14668878D02*
X15518029Y-14611736D01*
X15518029Y-14611736D02*
X15527553Y-14592688D01*
X15527553Y-14592688D02*
X15537077Y-14583164D01*
X15537077Y-14583164D02*
X15556124Y-14573640D01*
X15556124Y-14573640D02*
X15584696Y-14573640D01*
X15584696Y-14573640D02*
X15603743Y-14583164D01*
X15603743Y-14583164D02*
X15613267Y-14592688D01*
X15613267Y-14592688D02*
X15622791Y-14611736D01*
X15622791Y-14611736D02*
X15622791Y-14668878D01*
X15622791Y-14668878D02*
X15613267Y-14687926D01*
X15613267Y-14687926D02*
X15603743Y-14697450D01*
X15603743Y-14697450D02*
X15584696Y-14706974D01*
X15584696Y-14706974D02*
X15556124Y-14706974D01*
X15737077Y-14706974D02*
X15718029Y-14697450D01*
X15718029Y-14697450D02*
X15708505Y-14678402D01*
X15708505Y-14678402D02*
X15708505Y-14506974D01*
X15889458Y-14697450D02*
X15870410Y-14706974D01*
X15870410Y-14706974D02*
X15832315Y-14706974D01*
X15832315Y-14706974D02*
X15813267Y-14697450D01*
X15813267Y-14697450D02*
X15803743Y-14678402D01*
X15803743Y-14678402D02*
X15803743Y-14602212D01*
X15803743Y-14602212D02*
X15813267Y-14583164D01*
X15813267Y-14583164D02*
X15832315Y-14573640D01*
X15832315Y-14573640D02*
X15870410Y-14573640D01*
X15870410Y-14573640D02*
X15889458Y-14583164D01*
X15889458Y-14583164D02*
X15898981Y-14602212D01*
X15898981Y-14602212D02*
X15898981Y-14621259D01*
X15898981Y-14621259D02*
X15803743Y-14640307D01*
X15965648Y-14783164D02*
X15975172Y-14773640D01*
X15975172Y-14773640D02*
X15994220Y-14745069D01*
X15994220Y-14745069D02*
X16003743Y-14726021D01*
X16003743Y-14726021D02*
X16013267Y-14697450D01*
X16013267Y-14697450D02*
X16022791Y-14649831D01*
X16022791Y-14649831D02*
X16022791Y-14611736D01*
X16022791Y-14611736D02*
X16013267Y-14564117D01*
X16013267Y-14564117D02*
X16003743Y-14535545D01*
X16003743Y-14535545D02*
X15994220Y-14516498D01*
X15994220Y-14516498D02*
X15975172Y-14487926D01*
X15975172Y-14487926D02*
X15965648Y-14478402D01*
M02*
