%TF.GenerationSoftware,KiCad,Pcbnew,9.0.3*%
%TF.CreationDate,2025-07-14T03:19:36-04:00*%
%TF.ProjectId,CHEAPSUITS,43484541-5053-4554-9954-532e6b696361,rev?*%
%TF.SameCoordinates,Original*%
%TF.FileFunction,Drillmap*%
%TF.FilePolarity,Positive*%
%FSLAX45Y45*%
G04 Gerber Fmt 4.5, Leading zero omitted, Abs format (unit mm)*
G04 Created by KiCad (PCBNEW 9.0.3) date 2025-07-14 03:19:36*
%MOMM*%
%LPD*%
G01*
G04 APERTURE LIST*
%ADD10C,0.050000*%
%ADD11C,0.200000*%
G04 APERTURE END LIST*
D10*
X17404990Y-13444990D02*
X11654990Y-13444990D01*
X17404990Y-4554990D02*
G75*
G02*
X17704990Y-4854990I0J-300000D01*
G01*
X17704990Y-13144990D02*
G75*
G02*
X17404990Y-13444990I-300000J0D01*
G01*
X11354990Y-13144990D02*
X11354990Y-4854990D01*
X11354990Y-4854990D02*
G75*
G02*
X11654990Y-4554990I300000J0D01*
G01*
X17704990Y-4854990D02*
X17704990Y-13144990D01*
X11654990Y-13444990D02*
G75*
G02*
X11354990Y-13144990I0J300000D01*
G01*
X11654990Y-4554990D02*
X17404990Y-4554990D01*
D11*
X11613267Y-13758974D02*
X11613267Y-13558974D01*
X11613267Y-13558974D02*
X11660886Y-13558974D01*
X11660886Y-13558974D02*
X11689457Y-13568498D01*
X11689457Y-13568498D02*
X11708505Y-13587545D01*
X11708505Y-13587545D02*
X11718029Y-13606593D01*
X11718029Y-13606593D02*
X11727552Y-13644688D01*
X11727552Y-13644688D02*
X11727552Y-13673259D01*
X11727552Y-13673259D02*
X11718029Y-13711355D01*
X11718029Y-13711355D02*
X11708505Y-13730402D01*
X11708505Y-13730402D02*
X11689457Y-13749450D01*
X11689457Y-13749450D02*
X11660886Y-13758974D01*
X11660886Y-13758974D02*
X11613267Y-13758974D01*
X11813267Y-13758974D02*
X11813267Y-13625640D01*
X11813267Y-13663736D02*
X11822791Y-13644688D01*
X11822791Y-13644688D02*
X11832314Y-13635164D01*
X11832314Y-13635164D02*
X11851362Y-13625640D01*
X11851362Y-13625640D02*
X11870410Y-13625640D01*
X11937076Y-13758974D02*
X11937076Y-13625640D01*
X11937076Y-13558974D02*
X11927552Y-13568498D01*
X11927552Y-13568498D02*
X11937076Y-13578021D01*
X11937076Y-13578021D02*
X11946600Y-13568498D01*
X11946600Y-13568498D02*
X11937076Y-13558974D01*
X11937076Y-13558974D02*
X11937076Y-13578021D01*
X12060886Y-13758974D02*
X12041838Y-13749450D01*
X12041838Y-13749450D02*
X12032314Y-13730402D01*
X12032314Y-13730402D02*
X12032314Y-13558974D01*
X12165648Y-13758974D02*
X12146600Y-13749450D01*
X12146600Y-13749450D02*
X12137076Y-13730402D01*
X12137076Y-13730402D02*
X12137076Y-13558974D01*
X12394219Y-13758974D02*
X12394219Y-13558974D01*
X12394219Y-13558974D02*
X12460886Y-13701831D01*
X12460886Y-13701831D02*
X12527552Y-13558974D01*
X12527552Y-13558974D02*
X12527552Y-13758974D01*
X12708505Y-13758974D02*
X12708505Y-13654212D01*
X12708505Y-13654212D02*
X12698981Y-13635164D01*
X12698981Y-13635164D02*
X12679933Y-13625640D01*
X12679933Y-13625640D02*
X12641838Y-13625640D01*
X12641838Y-13625640D02*
X12622791Y-13635164D01*
X12708505Y-13749450D02*
X12689457Y-13758974D01*
X12689457Y-13758974D02*
X12641838Y-13758974D01*
X12641838Y-13758974D02*
X12622791Y-13749450D01*
X12622791Y-13749450D02*
X12613267Y-13730402D01*
X12613267Y-13730402D02*
X12613267Y-13711355D01*
X12613267Y-13711355D02*
X12622791Y-13692307D01*
X12622791Y-13692307D02*
X12641838Y-13682783D01*
X12641838Y-13682783D02*
X12689457Y-13682783D01*
X12689457Y-13682783D02*
X12708505Y-13673259D01*
X12803743Y-13625640D02*
X12803743Y-13825640D01*
X12803743Y-13635164D02*
X12822791Y-13625640D01*
X12822791Y-13625640D02*
X12860886Y-13625640D01*
X12860886Y-13625640D02*
X12879933Y-13635164D01*
X12879933Y-13635164D02*
X12889457Y-13644688D01*
X12889457Y-13644688D02*
X12898981Y-13663736D01*
X12898981Y-13663736D02*
X12898981Y-13720878D01*
X12898981Y-13720878D02*
X12889457Y-13739926D01*
X12889457Y-13739926D02*
X12879933Y-13749450D01*
X12879933Y-13749450D02*
X12860886Y-13758974D01*
X12860886Y-13758974D02*
X12822791Y-13758974D01*
X12822791Y-13758974D02*
X12803743Y-13749450D01*
X12984695Y-13739926D02*
X12994219Y-13749450D01*
X12994219Y-13749450D02*
X12984695Y-13758974D01*
X12984695Y-13758974D02*
X12975172Y-13749450D01*
X12975172Y-13749450D02*
X12984695Y-13739926D01*
X12984695Y-13739926D02*
X12984695Y-13758974D01*
X12984695Y-13635164D02*
X12994219Y-13644688D01*
X12994219Y-13644688D02*
X12984695Y-13654212D01*
X12984695Y-13654212D02*
X12975172Y-13644688D01*
X12975172Y-13644688D02*
X12984695Y-13635164D01*
X12984695Y-13635164D02*
X12984695Y-13654212D01*
M02*
