G04 #@! TF.GenerationSoftware,KiCad,Pcbnew,9.0.3*
G04 #@! TF.CreationDate,2025-07-14T03:19:36-04:00*
G04 #@! TF.ProjectId,CHEAPSUITS,43484541-5053-4554-9954-532e6b696361,rev?*
G04 #@! TF.SameCoordinates,Original*
G04 #@! TF.FileFunction,Legend,Bot*
G04 #@! TF.FilePolarity,Positive*
%FSLAX46Y46*%
G04 Gerber Fmt 4.6, Leading zero omitted, Abs format (unit mm)*
G04 Created by KiCad (PCBNEW 9.0.3) date 2025-07-14 03:19:36*
%MOMM*%
%LPD*%
G01*
G04 APERTURE LIST*
%ADD10C,0.000000*%
%ADD11C,3.050000*%
G04 APERTURE END LIST*
D10*
G04 #@! TO.C,G\u002A\u002A\u002A*
G36*
X125614390Y-102010671D02*
G01*
X125603716Y-103858521D01*
X122792892Y-105526283D01*
X119982068Y-107194046D01*
X119971382Y-105370100D01*
X119970112Y-105090173D01*
X119969626Y-104728576D01*
X119970494Y-104398507D01*
X119972624Y-104108387D01*
X119975923Y-103866640D01*
X119980297Y-103681688D01*
X119985653Y-103561954D01*
X119991898Y-103515862D01*
X119997524Y-103511897D01*
X120059432Y-103473360D01*
X120184758Y-103397303D01*
X120368116Y-103286943D01*
X120604121Y-103145498D01*
X120887385Y-102976184D01*
X121212522Y-102782220D01*
X121574147Y-102566821D01*
X121966873Y-102333206D01*
X122385314Y-102084592D01*
X122824083Y-101824195D01*
X125625064Y-100162820D01*
X125614390Y-102010671D01*
G37*
G36*
X125614240Y-96183937D02*
G01*
X125603716Y-99180643D01*
X122792892Y-100848405D01*
X119982068Y-102516168D01*
X119971539Y-99543120D01*
X119970345Y-99114148D01*
X119969816Y-98648130D01*
X119970126Y-98211848D01*
X119971232Y-97811842D01*
X119973088Y-97454654D01*
X119975649Y-97146826D01*
X119978871Y-96894899D01*
X119982709Y-96705414D01*
X119987119Y-96584913D01*
X119992056Y-96539937D01*
X119997668Y-96535984D01*
X120059537Y-96497480D01*
X120184826Y-96421454D01*
X120368149Y-96311124D01*
X120604119Y-96169707D01*
X120887352Y-96000419D01*
X121212460Y-95806478D01*
X121574058Y-95591100D01*
X121966760Y-95357503D01*
X122385180Y-95108903D01*
X122823933Y-94848517D01*
X125624763Y-93187232D01*
X125614240Y-96183937D01*
G37*
G36*
X125614566Y-106023435D02*
G01*
X125603716Y-107305387D01*
X122792892Y-108973151D01*
X119982068Y-110640915D01*
X119971187Y-109432663D01*
X119970460Y-109342098D01*
X119969363Y-109041569D01*
X119970353Y-108770812D01*
X119973255Y-108540283D01*
X119977896Y-108360441D01*
X119984104Y-108241742D01*
X119991704Y-108194645D01*
X119994121Y-108192828D01*
X120046735Y-108159079D01*
X120162941Y-108086643D01*
X120337316Y-107978847D01*
X120564440Y-107839018D01*
X120838892Y-107670481D01*
X121155251Y-107476563D01*
X121508096Y-107260590D01*
X121892007Y-107025889D01*
X122301562Y-106775785D01*
X122731341Y-106513605D01*
X122808310Y-106466673D01*
X123236977Y-106205241D01*
X123645810Y-105955813D01*
X124029226Y-105721800D01*
X124381642Y-105506614D01*
X124697475Y-105313666D01*
X124971142Y-105146368D01*
X125197061Y-105008132D01*
X125369649Y-104902368D01*
X125483322Y-104832489D01*
X125532498Y-104801907D01*
X125625416Y-104741482D01*
X125614566Y-106023435D01*
G37*
G36*
X136378110Y-80715980D02*
G01*
X136442842Y-80778585D01*
X136557496Y-80894796D01*
X136718239Y-81060584D01*
X136921239Y-81271923D01*
X137162663Y-81524784D01*
X137438677Y-81815141D01*
X137745450Y-82138966D01*
X138079147Y-82492232D01*
X138435937Y-82870912D01*
X138811985Y-83270977D01*
X139203461Y-83688402D01*
X141997510Y-86670988D01*
X141888173Y-86785111D01*
X141778836Y-86899234D01*
X141635081Y-86773015D01*
X141633244Y-86771401D01*
X141535314Y-86683421D01*
X141388677Y-86549099D01*
X141198268Y-86373090D01*
X140969025Y-86160051D01*
X140705884Y-85914639D01*
X140413782Y-85641509D01*
X140097655Y-85345320D01*
X139762440Y-85030726D01*
X139413075Y-84702385D01*
X139054495Y-84364953D01*
X138691637Y-84023086D01*
X138329438Y-83681441D01*
X137972835Y-83344675D01*
X137626765Y-83017443D01*
X137296164Y-82704403D01*
X136985968Y-82410211D01*
X136701115Y-82139523D01*
X136446542Y-81896996D01*
X136227184Y-81687287D01*
X136047979Y-81515051D01*
X135913863Y-81384946D01*
X135829773Y-81301627D01*
X135800646Y-81269752D01*
X135800678Y-81268932D01*
X135830357Y-81218347D01*
X135904475Y-81130361D01*
X136006554Y-81021441D01*
X136120116Y-80908059D01*
X136228681Y-80806681D01*
X136315773Y-80733777D01*
X136364911Y-80705816D01*
X136378110Y-80715980D01*
G37*
G36*
X141888173Y-93502126D02*
G01*
X141997510Y-93616249D01*
X139203461Y-96598835D01*
X138972423Y-96845301D01*
X138589522Y-97253043D01*
X138224293Y-97641066D01*
X137880569Y-98005343D01*
X137562184Y-98341847D01*
X137272969Y-98646549D01*
X137016759Y-98915424D01*
X136797384Y-99144444D01*
X136618680Y-99329581D01*
X136484477Y-99466807D01*
X136398610Y-99552097D01*
X136364911Y-99581422D01*
X136364090Y-99581390D01*
X136313476Y-99551728D01*
X136225438Y-99477653D01*
X136116456Y-99375634D01*
X136003007Y-99262138D01*
X135901570Y-99153635D01*
X135828624Y-99066595D01*
X135800646Y-99017485D01*
X135800666Y-99017348D01*
X135831273Y-98984087D01*
X135916715Y-98899503D01*
X136052056Y-98768253D01*
X136232359Y-98594992D01*
X136452687Y-98384378D01*
X136708104Y-98141066D01*
X136993672Y-97869713D01*
X137304456Y-97574976D01*
X137635519Y-97261512D01*
X137981923Y-96933976D01*
X138338732Y-96597025D01*
X138701010Y-96255316D01*
X139063819Y-95913505D01*
X139422223Y-95576249D01*
X139771286Y-95248204D01*
X140106070Y-94934026D01*
X140421639Y-94638373D01*
X140713057Y-94365900D01*
X140975385Y-94121264D01*
X141203689Y-93909122D01*
X141393030Y-93734130D01*
X141538473Y-93600945D01*
X141635081Y-93514222D01*
X141778836Y-93388003D01*
X141888173Y-93502126D01*
G37*
G36*
X148841817Y-93514222D02*
G01*
X148843655Y-93515837D01*
X148941584Y-93603816D01*
X149088221Y-93738139D01*
X149278630Y-93914148D01*
X149507873Y-94127186D01*
X149771014Y-94372599D01*
X150063117Y-94645728D01*
X150379244Y-94941918D01*
X150714458Y-95256511D01*
X151063824Y-95584852D01*
X151422404Y-95922285D01*
X151785261Y-96264152D01*
X152147460Y-96605796D01*
X152504063Y-96942563D01*
X152850133Y-97269794D01*
X153180735Y-97582834D01*
X153490930Y-97877026D01*
X153775783Y-98147714D01*
X154030357Y-98390241D01*
X154249715Y-98599951D01*
X154428920Y-98772186D01*
X154563035Y-98902292D01*
X154647125Y-98985610D01*
X154676252Y-99017485D01*
X154670603Y-99032289D01*
X154621255Y-99099578D01*
X154532060Y-99201203D01*
X154416371Y-99321540D01*
X154361575Y-99375369D01*
X154247556Y-99480939D01*
X154159146Y-99554075D01*
X154111987Y-99581422D01*
X154098789Y-99571258D01*
X154034057Y-99508652D01*
X153919402Y-99392441D01*
X153758659Y-99226653D01*
X153555659Y-99015314D01*
X153314235Y-98762453D01*
X153038221Y-98472096D01*
X152731449Y-98148271D01*
X152397751Y-97795005D01*
X152040962Y-97416326D01*
X151664913Y-97016260D01*
X151273437Y-96598835D01*
X148479389Y-93616249D01*
X148588725Y-93502126D01*
X148698062Y-93388003D01*
X148841817Y-93514222D01*
G37*
G36*
X154113136Y-80705847D02*
G01*
X154163721Y-80735526D01*
X154251707Y-80809644D01*
X154360626Y-80911724D01*
X154474009Y-81025285D01*
X154575387Y-81133851D01*
X154648291Y-81220942D01*
X154676252Y-81270080D01*
X154666088Y-81283279D01*
X154603482Y-81348011D01*
X154487272Y-81462665D01*
X154321483Y-81623409D01*
X154110145Y-81826409D01*
X153857283Y-82067832D01*
X153566927Y-82343847D01*
X153243102Y-82650619D01*
X152889836Y-82984316D01*
X152511156Y-83341106D01*
X152111090Y-83717155D01*
X151693666Y-84108631D01*
X148711080Y-86902679D01*
X148596957Y-86793342D01*
X148482834Y-86684006D01*
X148609053Y-86540251D01*
X148610667Y-86538413D01*
X148698647Y-86440484D01*
X148832969Y-86293846D01*
X149008978Y-86103438D01*
X149222017Y-85874194D01*
X149467429Y-85611053D01*
X149740558Y-85318951D01*
X150036748Y-85002824D01*
X150351342Y-84667610D01*
X150679683Y-84318244D01*
X151017115Y-83959664D01*
X151358982Y-83596806D01*
X151700627Y-83234608D01*
X152037393Y-82878005D01*
X152364625Y-82531934D01*
X152677665Y-82201333D01*
X152971857Y-81891138D01*
X153242545Y-81606285D01*
X153485072Y-81351711D01*
X153694781Y-81132353D01*
X153867017Y-80953148D01*
X153997122Y-80819032D01*
X154080441Y-80734943D01*
X154112316Y-80705816D01*
X154113136Y-80705847D01*
G37*
G36*
X142600729Y-94098996D02*
G01*
X142626977Y-94116587D01*
X142700031Y-94174244D01*
X142724571Y-94209296D01*
X142716973Y-94222140D01*
X142671162Y-94296745D01*
X142586506Y-94433593D01*
X142465943Y-94627962D01*
X142312411Y-94875128D01*
X142128848Y-95170370D01*
X141918191Y-95508964D01*
X141683379Y-95886188D01*
X141427348Y-96297318D01*
X141153038Y-96737632D01*
X140863385Y-97202408D01*
X140561328Y-97686922D01*
X140389142Y-97962852D01*
X140093109Y-98436202D01*
X139810558Y-98886691D01*
X139544469Y-99309631D01*
X139297822Y-99700336D01*
X139073598Y-100054119D01*
X138874776Y-100366296D01*
X138704337Y-100632178D01*
X138565261Y-100847081D01*
X138460529Y-101006317D01*
X138393119Y-101105200D01*
X138366013Y-101139044D01*
X138359806Y-101138038D01*
X138294753Y-101106987D01*
X138190530Y-101042217D01*
X138065171Y-100956741D01*
X137936716Y-100863570D01*
X137823199Y-100775719D01*
X137742657Y-100706198D01*
X137713127Y-100668020D01*
X137720985Y-100654361D01*
X137770614Y-100580563D01*
X137863129Y-100447260D01*
X137995297Y-100259001D01*
X138163886Y-100020331D01*
X138365665Y-99735800D01*
X138597403Y-99409954D01*
X138855867Y-99047340D01*
X139137826Y-98652506D01*
X139440048Y-98230000D01*
X139759302Y-97784369D01*
X140092355Y-97320160D01*
X142467179Y-94012532D01*
X142600729Y-94098996D01*
G37*
G36*
X155773598Y-82615259D02*
G01*
X155827918Y-82667963D01*
X155906086Y-82764983D01*
X155995901Y-82888544D01*
X156085164Y-83020873D01*
X156161675Y-83144196D01*
X156213232Y-83240739D01*
X156227636Y-83292728D01*
X156216122Y-83302149D01*
X156143770Y-83351242D01*
X156009065Y-83439078D01*
X155816717Y-83562677D01*
X155571438Y-83719060D01*
X155277939Y-83905244D01*
X154940932Y-84118250D01*
X154565129Y-84355097D01*
X154155240Y-84612804D01*
X153715977Y-84888392D01*
X153252051Y-85178878D01*
X152768175Y-85481284D01*
X152496818Y-85650683D01*
X152023434Y-85946054D01*
X151572463Y-86227255D01*
X151148625Y-86491351D01*
X150756636Y-86735411D01*
X150401214Y-86956502D01*
X150087078Y-87151691D01*
X149818945Y-87318047D01*
X149601534Y-87452637D01*
X149439562Y-87552527D01*
X149337747Y-87614786D01*
X149300808Y-87636481D01*
X149295006Y-87634413D01*
X149253354Y-87589929D01*
X149193310Y-87505152D01*
X149106328Y-87370770D01*
X152410444Y-84998912D01*
X152669222Y-84813198D01*
X153123706Y-84487279D01*
X153557166Y-84176745D01*
X153965039Y-83884850D01*
X154342766Y-83614845D01*
X154685785Y-83369982D01*
X154989535Y-83153513D01*
X155249456Y-82968691D01*
X155460986Y-82818767D01*
X155619564Y-82706993D01*
X155720630Y-82636621D01*
X155759623Y-82610904D01*
X155773598Y-82615259D01*
G37*
G36*
X134727707Y-82626155D02*
G01*
X134801505Y-82675784D01*
X134934808Y-82768298D01*
X135123067Y-82900466D01*
X135361736Y-83069055D01*
X135646268Y-83270835D01*
X135972114Y-83502572D01*
X136334728Y-83761036D01*
X136729561Y-84042995D01*
X137152068Y-84345218D01*
X137597699Y-84664471D01*
X138061908Y-84997524D01*
X141369535Y-87372349D01*
X141283071Y-87505899D01*
X141265481Y-87532147D01*
X141207824Y-87605201D01*
X141172771Y-87629740D01*
X141168160Y-87627582D01*
X141105013Y-87591554D01*
X140980505Y-87516608D01*
X140800332Y-87406328D01*
X140570188Y-87264295D01*
X140295767Y-87094089D01*
X139982765Y-86899294D01*
X139636875Y-86683490D01*
X139263793Y-86450260D01*
X138869212Y-86203184D01*
X138458828Y-85945845D01*
X138038335Y-85681825D01*
X137613427Y-85414704D01*
X137189799Y-85148065D01*
X136773147Y-84885490D01*
X136369163Y-84630559D01*
X135983543Y-84386855D01*
X135621981Y-84157959D01*
X135290172Y-83947454D01*
X134993811Y-83758920D01*
X134738591Y-83595939D01*
X134530208Y-83462093D01*
X134374356Y-83360964D01*
X134276730Y-83296133D01*
X134243024Y-83271183D01*
X134244030Y-83264976D01*
X134275081Y-83199923D01*
X134339851Y-83095699D01*
X134425327Y-82970341D01*
X134518497Y-82841885D01*
X134606349Y-82728368D01*
X134675870Y-82647826D01*
X134714048Y-82618297D01*
X134727707Y-82626155D01*
G37*
G36*
X141196863Y-92658573D02*
G01*
X141230125Y-92707005D01*
X141287916Y-92790956D01*
X141373164Y-92914708D01*
X138044149Y-95304284D01*
X137760245Y-95508012D01*
X137305820Y-95833852D01*
X136873020Y-96143877D01*
X136466348Y-96434878D01*
X136090305Y-96703645D01*
X135749391Y-96946970D01*
X135448107Y-97161643D01*
X135190954Y-97344457D01*
X134982434Y-97492202D01*
X134827046Y-97601670D01*
X134729292Y-97669651D01*
X134693674Y-97692937D01*
X134682654Y-97685584D01*
X134633917Y-97626369D01*
X134561133Y-97523129D01*
X134476096Y-97394389D01*
X134390598Y-97258671D01*
X134316431Y-97134499D01*
X134265388Y-97040397D01*
X134249262Y-96994886D01*
X134256010Y-96989184D01*
X134318921Y-96946551D01*
X134443226Y-96865856D01*
X134623236Y-96750653D01*
X134853260Y-96604497D01*
X135127609Y-96430942D01*
X135440593Y-96233544D01*
X135786523Y-96015856D01*
X136159709Y-95781434D01*
X136554461Y-95533833D01*
X136965090Y-95276607D01*
X137385907Y-95013311D01*
X137811221Y-94747499D01*
X138235342Y-94482727D01*
X138652583Y-94222550D01*
X139057251Y-93970521D01*
X139443659Y-93730196D01*
X139806116Y-93505129D01*
X140138933Y-93298876D01*
X140436420Y-93114990D01*
X140692887Y-92957028D01*
X140902646Y-92828542D01*
X141060005Y-92733089D01*
X141159277Y-92674223D01*
X141194770Y-92655498D01*
X141196863Y-92658573D01*
G37*
G36*
X150382242Y-97314341D02*
G01*
X150568734Y-97574203D01*
X150894688Y-98028737D01*
X151205250Y-98462236D01*
X151497167Y-98870141D01*
X151767189Y-99247892D01*
X152012064Y-99590929D01*
X152228541Y-99894692D01*
X152413368Y-100154621D01*
X152563295Y-100366155D01*
X152675069Y-100524735D01*
X152745440Y-100625801D01*
X152771156Y-100664792D01*
X152765626Y-100682023D01*
X152709659Y-100741425D01*
X152606339Y-100825890D01*
X152469982Y-100923140D01*
X152395053Y-100972363D01*
X152260180Y-101054894D01*
X152156737Y-101110201D01*
X152102586Y-101128309D01*
X152096374Y-101121699D01*
X152052594Y-101059153D01*
X151970744Y-100935245D01*
X151854386Y-100755659D01*
X151707085Y-100526077D01*
X151532404Y-100252182D01*
X151333906Y-99939657D01*
X151115155Y-99594186D01*
X150879713Y-99221451D01*
X150631144Y-98827136D01*
X150373011Y-98416923D01*
X150108878Y-97996495D01*
X149842308Y-97571536D01*
X149576865Y-97147729D01*
X149316111Y-96730756D01*
X149063610Y-96326300D01*
X148822925Y-95940045D01*
X148597620Y-95577674D01*
X148391258Y-95244870D01*
X148207402Y-94947315D01*
X148049616Y-94690693D01*
X147921463Y-94480687D01*
X147826506Y-94322980D01*
X147768308Y-94223254D01*
X147750433Y-94187194D01*
X147753491Y-94185117D01*
X147801848Y-94151927D01*
X147885753Y-94094176D01*
X148009470Y-94008952D01*
X150382242Y-97314341D01*
G37*
G36*
X152116227Y-79148991D02*
G01*
X152180312Y-79179193D01*
X152284000Y-79243459D01*
X152409180Y-79328723D01*
X152537741Y-79421918D01*
X152651574Y-79509976D01*
X152732567Y-79579831D01*
X152762609Y-79618417D01*
X152754844Y-79632140D01*
X152705373Y-79706048D01*
X152613010Y-79839456D01*
X152480985Y-80027814D01*
X152312527Y-80266573D01*
X152110867Y-80551187D01*
X151879234Y-80877106D01*
X151620860Y-81239781D01*
X151338973Y-81634664D01*
X151036805Y-82057207D01*
X150717585Y-82502861D01*
X150384543Y-82967078D01*
X148009719Y-86274705D01*
X147876169Y-86188241D01*
X147849921Y-86170650D01*
X147776867Y-86112993D01*
X147752327Y-86077941D01*
X147754486Y-86073330D01*
X147790514Y-86010182D01*
X147865459Y-85885674D01*
X147975740Y-85705501D01*
X148117773Y-85475357D01*
X148287979Y-85200937D01*
X148482774Y-84887934D01*
X148698578Y-84542044D01*
X148931808Y-84168962D01*
X149178884Y-83774382D01*
X149436223Y-83363997D01*
X149700243Y-82943504D01*
X149967364Y-82518597D01*
X150234003Y-82094969D01*
X150496578Y-81678316D01*
X150751509Y-81274332D01*
X150995213Y-80888712D01*
X151224109Y-80527150D01*
X151434614Y-80195342D01*
X151623148Y-79898980D01*
X151786129Y-79643761D01*
X151919975Y-79435378D01*
X152021104Y-79279526D01*
X152085934Y-79181900D01*
X152110885Y-79148194D01*
X152116227Y-79148991D01*
G37*
G36*
X149309358Y-92660046D02*
G01*
X149372203Y-92696518D01*
X149496459Y-92771795D01*
X149676428Y-92882303D01*
X149906412Y-93024464D01*
X150180715Y-93194704D01*
X150493638Y-93389445D01*
X150839486Y-93605113D01*
X151212560Y-93838130D01*
X151607163Y-94084922D01*
X152017598Y-94341912D01*
X152438167Y-94605524D01*
X152863174Y-94872182D01*
X153286920Y-95138311D01*
X153703709Y-95400334D01*
X154107844Y-95654675D01*
X154493626Y-95897759D01*
X154855360Y-96126010D01*
X155187347Y-96335851D01*
X155483890Y-96523707D01*
X155739291Y-96686002D01*
X155947855Y-96819159D01*
X156103882Y-96919603D01*
X156201677Y-96983758D01*
X156235541Y-97008048D01*
X156234873Y-97011988D01*
X156206477Y-97069280D01*
X156145570Y-97170474D01*
X156065025Y-97295908D01*
X155977710Y-97425922D01*
X155896498Y-97540854D01*
X155834259Y-97621043D01*
X155786000Y-97658529D01*
X155723323Y-97662076D01*
X155710944Y-97653630D01*
X155638764Y-97602617D01*
X155506890Y-97508676D01*
X155319906Y-97375092D01*
X155082399Y-97205153D01*
X154798954Y-97002143D01*
X154474155Y-96769349D01*
X154112589Y-96510056D01*
X153718840Y-96227551D01*
X153297494Y-95925119D01*
X152853137Y-95606047D01*
X152390353Y-95273620D01*
X149107336Y-92914930D01*
X149193813Y-92781359D01*
X149211416Y-92755093D01*
X149269075Y-92682037D01*
X149304127Y-92657497D01*
X149309358Y-92660046D01*
G37*
G36*
X165882957Y-51537124D02*
G01*
X165951060Y-51590686D01*
X166030642Y-51680834D01*
X166098868Y-51768231D01*
X166366120Y-52068956D01*
X166636525Y-52301883D01*
X166923758Y-52477461D01*
X167241495Y-52606141D01*
X167276747Y-52617861D01*
X167461203Y-52698032D01*
X167563982Y-52784184D01*
X167585279Y-52876969D01*
X167525291Y-52977045D01*
X167384211Y-53085065D01*
X167304530Y-53140221D01*
X167118342Y-53305230D01*
X166931636Y-53512257D01*
X166764582Y-53737724D01*
X166637355Y-53958051D01*
X166620145Y-53994422D01*
X166555981Y-54139211D01*
X166510988Y-54255536D01*
X166494023Y-54320972D01*
X166478672Y-54384286D01*
X166430145Y-54476007D01*
X166415331Y-54495913D01*
X166331985Y-54562309D01*
X166239950Y-54556565D01*
X166133777Y-54476674D01*
X166008019Y-54320632D01*
X165996745Y-54304773D01*
X165782477Y-54048230D01*
X165534358Y-53836531D01*
X165236541Y-53658244D01*
X164873183Y-53501939D01*
X164728262Y-53444744D01*
X164636448Y-53396171D01*
X164590409Y-53347690D01*
X164573309Y-53287248D01*
X164573060Y-53285057D01*
X164579883Y-53209545D01*
X164629549Y-53140849D01*
X164737445Y-53057425D01*
X164984493Y-52858581D01*
X165251267Y-52567318D01*
X165465483Y-52241309D01*
X165612438Y-51900000D01*
X165617407Y-51884511D01*
X165695433Y-51690241D01*
X165777944Y-51571155D01*
X165862607Y-51530695D01*
X165882957Y-51537124D01*
G37*
G36*
X117369813Y-119384972D02*
G01*
X117529480Y-119399193D01*
X117663158Y-119428226D01*
X117798430Y-119476096D01*
X118030488Y-119599692D01*
X118278665Y-119796719D01*
X118494843Y-120036267D01*
X118657485Y-120297738D01*
X118711597Y-120414103D01*
X118753677Y-120527786D01*
X118777371Y-120641984D01*
X118787984Y-120783869D01*
X118790821Y-120980614D01*
X118790837Y-120986463D01*
X118787402Y-121199700D01*
X118773182Y-121359367D01*
X118744149Y-121493045D01*
X118696279Y-121628317D01*
X118589147Y-121835878D01*
X118389918Y-122092933D01*
X118141321Y-122317436D01*
X117861859Y-122493348D01*
X117570035Y-122604628D01*
X117438531Y-122625678D01*
X117216252Y-122632101D01*
X116971896Y-122615480D01*
X116737239Y-122578337D01*
X116544058Y-122523195D01*
X116307177Y-122398726D01*
X116061496Y-122203851D01*
X115847126Y-121965800D01*
X115685003Y-121704524D01*
X115630891Y-121588159D01*
X115588811Y-121474476D01*
X115565117Y-121360278D01*
X115554504Y-121218392D01*
X115551667Y-121021648D01*
X115551651Y-121015798D01*
X115555086Y-120802562D01*
X115569306Y-120642895D01*
X115598339Y-120509216D01*
X115646209Y-120373944D01*
X115769806Y-120141887D01*
X115966832Y-119893710D01*
X116206380Y-119677532D01*
X116467851Y-119514890D01*
X116584216Y-119460778D01*
X116697899Y-119418698D01*
X116812097Y-119395004D01*
X116953983Y-119384391D01*
X117150727Y-119381554D01*
X117156577Y-119381537D01*
X117369813Y-119384972D01*
G37*
G36*
X117369813Y-124473179D02*
G01*
X117529480Y-124487400D01*
X117663158Y-124516433D01*
X117798430Y-124564303D01*
X118030488Y-124687899D01*
X118278665Y-124884926D01*
X118494843Y-125124474D01*
X118657485Y-125385944D01*
X118711597Y-125502309D01*
X118753677Y-125615992D01*
X118777371Y-125730191D01*
X118787984Y-125872076D01*
X118790821Y-126068821D01*
X118790837Y-126074670D01*
X118787402Y-126287907D01*
X118773182Y-126447573D01*
X118744149Y-126581252D01*
X118696279Y-126716524D01*
X118589147Y-126924085D01*
X118389918Y-127181140D01*
X118141321Y-127405643D01*
X117861859Y-127581555D01*
X117570035Y-127692835D01*
X117438531Y-127713885D01*
X117216252Y-127720307D01*
X116971896Y-127703686D01*
X116737239Y-127666544D01*
X116544058Y-127611401D01*
X116307177Y-127486932D01*
X116061496Y-127292058D01*
X115847126Y-127054007D01*
X115685003Y-126792731D01*
X115630891Y-126676366D01*
X115588811Y-126562683D01*
X115565117Y-126448484D01*
X115554504Y-126306599D01*
X115551667Y-126109855D01*
X115551651Y-126104005D01*
X115555086Y-125890768D01*
X115569306Y-125731102D01*
X115598339Y-125597423D01*
X115646209Y-125462151D01*
X115769806Y-125230094D01*
X115966832Y-124981917D01*
X116206380Y-124765739D01*
X116467851Y-124603097D01*
X116584216Y-124548985D01*
X116697899Y-124506904D01*
X116812097Y-124483210D01*
X116953983Y-124472598D01*
X117150727Y-124469760D01*
X117156577Y-124469744D01*
X117369813Y-124473179D01*
G37*
G36*
X117369813Y-129561386D02*
G01*
X117529480Y-129575607D01*
X117663158Y-129604639D01*
X117798430Y-129652510D01*
X118030488Y-129776106D01*
X118278665Y-129973133D01*
X118494843Y-130212680D01*
X118657485Y-130474151D01*
X118711597Y-130590516D01*
X118753677Y-130704199D01*
X118777371Y-130818398D01*
X118787984Y-130960283D01*
X118790821Y-131157027D01*
X118790837Y-131162877D01*
X118787402Y-131376114D01*
X118773182Y-131535780D01*
X118744149Y-131669459D01*
X118696279Y-131804731D01*
X118589147Y-132012292D01*
X118389918Y-132269346D01*
X118141321Y-132493850D01*
X117861859Y-132669762D01*
X117570035Y-132781042D01*
X117438531Y-132802091D01*
X117216252Y-132808514D01*
X116971896Y-132791893D01*
X116737239Y-132754751D01*
X116544058Y-132699608D01*
X116307177Y-132575139D01*
X116061496Y-132380265D01*
X115847126Y-132142214D01*
X115685003Y-131880938D01*
X115630891Y-131764572D01*
X115588811Y-131650889D01*
X115565117Y-131536691D01*
X115554504Y-131394806D01*
X115551667Y-131198061D01*
X115551651Y-131192212D01*
X115555086Y-130978975D01*
X115569306Y-130819308D01*
X115598339Y-130685630D01*
X115646209Y-130550358D01*
X115769806Y-130318301D01*
X115966832Y-130070123D01*
X116206380Y-129853946D01*
X116467851Y-129691304D01*
X116584216Y-129637191D01*
X116697899Y-129595111D01*
X116812097Y-129571417D01*
X116953983Y-129560804D01*
X117150727Y-129557967D01*
X117156577Y-129557951D01*
X117369813Y-129561386D01*
G37*
G36*
X145659266Y-77474394D02*
G01*
X145658538Y-77493941D01*
X145654704Y-77606336D01*
X145648656Y-77791670D01*
X145640608Y-78043068D01*
X145630776Y-78353654D01*
X145619376Y-78716553D01*
X145606622Y-79124891D01*
X145592732Y-79571792D01*
X145577919Y-80050380D01*
X145562400Y-80553782D01*
X145546391Y-81075121D01*
X145542326Y-81207462D01*
X145526051Y-81732392D01*
X145510010Y-82242101D01*
X145494449Y-82729165D01*
X145479616Y-83186162D01*
X145465758Y-83605668D01*
X145453122Y-83980260D01*
X145441954Y-84302514D01*
X145432503Y-84565008D01*
X145425014Y-84760317D01*
X145419735Y-84881018D01*
X145394321Y-85383683D01*
X145238449Y-85383683D01*
X145082577Y-85383683D01*
X145057163Y-84881018D01*
X145056068Y-84858319D01*
X145050215Y-84718327D01*
X145042214Y-84505578D01*
X145032312Y-84227495D01*
X145020755Y-83891502D01*
X145007791Y-83505020D01*
X144993667Y-83075475D01*
X144978629Y-82610289D01*
X144962925Y-82116886D01*
X144946803Y-81602689D01*
X144930508Y-81075121D01*
X144925308Y-80905565D01*
X144909433Y-80389256D01*
X144894118Y-79893100D01*
X144879579Y-79423973D01*
X144866031Y-78988750D01*
X144853691Y-78594305D01*
X144842772Y-78247514D01*
X144833491Y-77955253D01*
X144826064Y-77724395D01*
X144820706Y-77561817D01*
X144817632Y-77474394D01*
X144805998Y-77176898D01*
X145238449Y-77176898D01*
X145670900Y-77176898D01*
X145659266Y-77474394D01*
G37*
G36*
X145419735Y-95406220D02*
G01*
X145420831Y-95428918D01*
X145426683Y-95568910D01*
X145434684Y-95781659D01*
X145444587Y-96059742D01*
X145456143Y-96395736D01*
X145469107Y-96782217D01*
X145483232Y-97211762D01*
X145498269Y-97676948D01*
X145513973Y-98170351D01*
X145530096Y-98684548D01*
X145546391Y-99212116D01*
X145551591Y-99381672D01*
X145567466Y-99897981D01*
X145582780Y-100394137D01*
X145597319Y-100863264D01*
X145610867Y-101298488D01*
X145623208Y-101692932D01*
X145634126Y-102039723D01*
X145643407Y-102331985D01*
X145650834Y-102562842D01*
X145656192Y-102725420D01*
X145659266Y-102812843D01*
X145670900Y-103110339D01*
X145238449Y-103110339D01*
X144805998Y-103110339D01*
X144817632Y-102812843D01*
X144818360Y-102793296D01*
X144822194Y-102680901D01*
X144828242Y-102495567D01*
X144836290Y-102244170D01*
X144846122Y-101933584D01*
X144857523Y-101570684D01*
X144870276Y-101162346D01*
X144884167Y-100715446D01*
X144898979Y-100236857D01*
X144914498Y-99733455D01*
X144930508Y-99212116D01*
X144934572Y-99079775D01*
X144950847Y-98554846D01*
X144966888Y-98045137D01*
X144982449Y-97558072D01*
X144997282Y-97101075D01*
X145011140Y-96681569D01*
X145023777Y-96306977D01*
X145034944Y-95984723D01*
X145044396Y-95722230D01*
X145051884Y-95526921D01*
X145057163Y-95406220D01*
X145082577Y-94903554D01*
X145238449Y-94903554D01*
X145394321Y-94903554D01*
X145419735Y-95406220D01*
G37*
G36*
X158205170Y-90143619D02*
G01*
X158205170Y-90576070D01*
X157907674Y-90564435D01*
X157888126Y-90563708D01*
X157775731Y-90559874D01*
X157590398Y-90553825D01*
X157339000Y-90545777D01*
X157028414Y-90535945D01*
X156665515Y-90524545D01*
X156257177Y-90511792D01*
X155810276Y-90497901D01*
X155331687Y-90483089D01*
X154828286Y-90467570D01*
X154306947Y-90451560D01*
X154174606Y-90447496D01*
X153649676Y-90431221D01*
X153139967Y-90415179D01*
X152652903Y-90399619D01*
X152195905Y-90384786D01*
X151776399Y-90370928D01*
X151401808Y-90358291D01*
X151079553Y-90347124D01*
X150817060Y-90337672D01*
X150621751Y-90330183D01*
X150501050Y-90324905D01*
X149998385Y-90299491D01*
X149998385Y-90143619D01*
X149998385Y-89987747D01*
X150501050Y-89962333D01*
X150523749Y-89961237D01*
X150663740Y-89955385D01*
X150876489Y-89947383D01*
X151154572Y-89937481D01*
X151490566Y-89925924D01*
X151877047Y-89912960D01*
X152306593Y-89898836D01*
X152771779Y-89883799D01*
X153265182Y-89868095D01*
X153779379Y-89851972D01*
X154306947Y-89835677D01*
X154476503Y-89830477D01*
X154992812Y-89814602D01*
X155488967Y-89799287D01*
X155958095Y-89784748D01*
X156393318Y-89771201D01*
X156787763Y-89758860D01*
X157134554Y-89747942D01*
X157426815Y-89738661D01*
X157657673Y-89731234D01*
X157820250Y-89725876D01*
X157907674Y-89722802D01*
X158205170Y-89711168D01*
X158205170Y-90143619D01*
G37*
G36*
X132569225Y-89722802D02*
G01*
X132588772Y-89723530D01*
X132701167Y-89727363D01*
X132886501Y-89733412D01*
X133137898Y-89741460D01*
X133448484Y-89751292D01*
X133811384Y-89762692D01*
X134219721Y-89775446D01*
X134666622Y-89789336D01*
X135145211Y-89804149D01*
X135648612Y-89819668D01*
X136169952Y-89835677D01*
X136302293Y-89839741D01*
X136827222Y-89856016D01*
X137336931Y-89872058D01*
X137823996Y-89887619D01*
X138280993Y-89902452D01*
X138700499Y-89916310D01*
X139075091Y-89928946D01*
X139397345Y-89940114D01*
X139659838Y-89949565D01*
X139855147Y-89957054D01*
X139975848Y-89962333D01*
X140478514Y-89987747D01*
X140478514Y-90147750D01*
X140473103Y-90246090D01*
X140446707Y-90297051D01*
X140386187Y-90310569D01*
X140373556Y-90310979D01*
X140287648Y-90313856D01*
X140127863Y-90319249D01*
X139899948Y-90326962D01*
X139609650Y-90336800D01*
X139262716Y-90348569D01*
X138864892Y-90362072D01*
X138421926Y-90377116D01*
X137939564Y-90393506D01*
X137423553Y-90411045D01*
X136879639Y-90429539D01*
X136313570Y-90448794D01*
X136064521Y-90457275D01*
X135509492Y-90476238D01*
X134980176Y-90494408D01*
X134482204Y-90511586D01*
X134021207Y-90527574D01*
X133602815Y-90542177D01*
X133232659Y-90555194D01*
X132916371Y-90566430D01*
X132659580Y-90575686D01*
X132467919Y-90582764D01*
X132347016Y-90587467D01*
X132302504Y-90589598D01*
X132292151Y-90565531D01*
X132281579Y-90474676D01*
X132274385Y-90331703D01*
X132271729Y-90153080D01*
X132271729Y-89711168D01*
X132569225Y-89722802D01*
G37*
G36*
X149884502Y-78028379D02*
G01*
X149997567Y-78070758D01*
X150136759Y-78127838D01*
X150282136Y-78191045D01*
X150413756Y-78251805D01*
X150511675Y-78301544D01*
X150555951Y-78331687D01*
X150544489Y-78371142D01*
X150499068Y-78485001D01*
X150419579Y-78672629D01*
X150306193Y-78933648D01*
X150159081Y-79267676D01*
X149978413Y-79674332D01*
X149764361Y-80153236D01*
X149517093Y-80704007D01*
X149236782Y-81326264D01*
X148923597Y-82019628D01*
X148577709Y-82783716D01*
X148199289Y-83618149D01*
X147788507Y-84522546D01*
X147345533Y-85496527D01*
X147327120Y-85536678D01*
X147264778Y-85667759D01*
X147217631Y-85759485D01*
X147194720Y-85794023D01*
X147192631Y-85793810D01*
X147140041Y-85778928D01*
X147046641Y-85747781D01*
X147042407Y-85746288D01*
X146949472Y-85695775D01*
X146932275Y-85634938D01*
X146933437Y-85631220D01*
X146956012Y-85568195D01*
X147004508Y-85436718D01*
X147076543Y-85243106D01*
X147169736Y-84993675D01*
X147281705Y-84694741D01*
X147410066Y-84352621D01*
X147552438Y-83973631D01*
X147706439Y-83564086D01*
X147869685Y-83130305D01*
X148039796Y-82678601D01*
X148214389Y-82215293D01*
X148391082Y-81746696D01*
X148567492Y-81279126D01*
X148741237Y-80818899D01*
X148909935Y-80372333D01*
X149071203Y-79945743D01*
X149222661Y-79545445D01*
X149361924Y-79177756D01*
X149486612Y-78848992D01*
X149594341Y-78565469D01*
X149682731Y-78333503D01*
X149749397Y-78159412D01*
X149791959Y-78049510D01*
X149808033Y-78010114D01*
X149817506Y-78009277D01*
X149884502Y-78028379D01*
G37*
G36*
X138397699Y-79166990D02*
G01*
X138447740Y-79241050D01*
X138536397Y-79377400D01*
X138660700Y-79571334D01*
X138817679Y-79818149D01*
X139004367Y-80113142D01*
X139217794Y-80451609D01*
X139454991Y-80828845D01*
X139712989Y-81240147D01*
X139988820Y-81680812D01*
X140279515Y-82146135D01*
X140582104Y-82631412D01*
X140840199Y-83046029D01*
X141194121Y-83615854D01*
X141506447Y-84120450D01*
X141778639Y-84562243D01*
X142012155Y-84943659D01*
X142208456Y-85267123D01*
X142369002Y-85535060D01*
X142495255Y-85749897D01*
X142588674Y-85914058D01*
X142650719Y-86029969D01*
X142682851Y-86100056D01*
X142686531Y-86126744D01*
X142638589Y-86157040D01*
X142552824Y-86217228D01*
X142513764Y-86243475D01*
X142462042Y-86248012D01*
X142405499Y-86189262D01*
X142377617Y-86151933D01*
X142301179Y-86047307D01*
X142185515Y-85887669D01*
X142034584Y-85678548D01*
X141852343Y-85425477D01*
X141642752Y-85133985D01*
X141409769Y-84809605D01*
X141157352Y-84457866D01*
X140889460Y-84084299D01*
X140610051Y-83694436D01*
X140323084Y-83293808D01*
X140032516Y-82887945D01*
X139742307Y-82482379D01*
X139456415Y-82082640D01*
X139178798Y-81694260D01*
X138913415Y-81322768D01*
X138664225Y-80973697D01*
X138435185Y-80652577D01*
X138230254Y-80364939D01*
X138053390Y-80116314D01*
X137908552Y-79912233D01*
X137799699Y-79758227D01*
X137730789Y-79659827D01*
X137705780Y-79622563D01*
X137710121Y-79608584D01*
X137762795Y-79554241D01*
X137859790Y-79476047D01*
X137983334Y-79386205D01*
X138115653Y-79296919D01*
X138238977Y-79220393D01*
X138335531Y-79168829D01*
X138387545Y-79154432D01*
X138397699Y-79166990D01*
G37*
G36*
X140673842Y-78017697D02*
G01*
X140699542Y-78081803D01*
X140750875Y-78214360D01*
X140825463Y-78409059D01*
X140920931Y-78659587D01*
X141034903Y-78959633D01*
X141165002Y-79302886D01*
X141308854Y-79683035D01*
X141464081Y-80093769D01*
X141628308Y-80528777D01*
X141799159Y-80981746D01*
X141974258Y-81446367D01*
X142151229Y-81916328D01*
X142327697Y-82385318D01*
X142501284Y-82847026D01*
X142669616Y-83295140D01*
X142830316Y-83723349D01*
X142981008Y-84125342D01*
X143119317Y-84494808D01*
X143242866Y-84825436D01*
X143349279Y-85110915D01*
X143436181Y-85344932D01*
X143501195Y-85521178D01*
X143541947Y-85633341D01*
X143556058Y-85675110D01*
X143523840Y-85707767D01*
X143443215Y-85746150D01*
X143355249Y-85771642D01*
X143291354Y-85777597D01*
X143289072Y-85774979D01*
X143259718Y-85719666D01*
X143200119Y-85597217D01*
X143113074Y-85413775D01*
X143001383Y-85175481D01*
X142867847Y-84888476D01*
X142715266Y-84558902D01*
X142546440Y-84192900D01*
X142364169Y-83796612D01*
X142171253Y-83376179D01*
X141970493Y-82937742D01*
X141764687Y-82487444D01*
X141556637Y-82031426D01*
X141349142Y-81575828D01*
X141145003Y-81126794D01*
X140947020Y-80690463D01*
X140757992Y-80272978D01*
X140580720Y-79880480D01*
X140418005Y-79519110D01*
X140272645Y-79195010D01*
X140147442Y-78914322D01*
X140045194Y-78683187D01*
X139968703Y-78507746D01*
X139920769Y-78394141D01*
X139904191Y-78348513D01*
X139917419Y-78333384D01*
X139989063Y-78290080D01*
X140105607Y-78231543D01*
X140247325Y-78166409D01*
X140394489Y-78103315D01*
X140527372Y-78050898D01*
X140626247Y-78017793D01*
X140671388Y-78012637D01*
X140673842Y-78017697D01*
G37*
G36*
X140544860Y-90936647D02*
G01*
X140560420Y-90993014D01*
X140581081Y-91092728D01*
X140608899Y-91241676D01*
X140307762Y-91309393D01*
X140306036Y-91309781D01*
X140219248Y-91329664D01*
X140058981Y-91366718D01*
X139831442Y-91419499D01*
X139542836Y-91486562D01*
X139199370Y-91566461D01*
X138807251Y-91657753D01*
X138372686Y-91758991D01*
X137901880Y-91868731D01*
X137401041Y-91985529D01*
X136876374Y-92107938D01*
X136334087Y-92234515D01*
X136263632Y-92250963D01*
X135731339Y-92375188D01*
X135222593Y-92493846D01*
X134743029Y-92605626D01*
X134298286Y-92709219D01*
X133893999Y-92803312D01*
X133535807Y-92886595D01*
X133229345Y-92957758D01*
X132980250Y-93015490D01*
X132794160Y-93058480D01*
X132676711Y-93085417D01*
X132633541Y-93094991D01*
X132615256Y-93085329D01*
X132584950Y-93026252D01*
X132570272Y-92969067D01*
X132542835Y-92845048D01*
X132512611Y-92694817D01*
X132483545Y-92539677D01*
X132459579Y-92400931D01*
X132444657Y-92299882D01*
X132442720Y-92257832D01*
X132451235Y-92255665D01*
X132525915Y-92241767D01*
X132672002Y-92216341D01*
X132882872Y-92180471D01*
X133151898Y-92135240D01*
X133472457Y-92081730D01*
X133837923Y-92021027D01*
X134241670Y-91954212D01*
X134677076Y-91882369D01*
X135137513Y-91806583D01*
X135616357Y-91727935D01*
X136106983Y-91647511D01*
X136602767Y-91566392D01*
X137097082Y-91485662D01*
X137583305Y-91406406D01*
X138054809Y-91329705D01*
X138504971Y-91256644D01*
X138927164Y-91188307D01*
X139314765Y-91125775D01*
X139661147Y-91070133D01*
X139959686Y-91022465D01*
X140203758Y-90983853D01*
X140386736Y-90955381D01*
X140501996Y-90938133D01*
X140542914Y-90933191D01*
X140544860Y-90936647D01*
G37*
G36*
X140772772Y-91826778D02*
G01*
X140806645Y-91870079D01*
X140845664Y-91959370D01*
X140865185Y-92021497D01*
X140868666Y-92090537D01*
X140830340Y-92132811D01*
X140820059Y-92138198D01*
X140744780Y-92174102D01*
X140602162Y-92240578D01*
X140397401Y-92335245D01*
X140135693Y-92455720D01*
X139822234Y-92599623D01*
X139462220Y-92764572D01*
X139060846Y-92948184D01*
X138623310Y-93148079D01*
X138154808Y-93361875D01*
X137660534Y-93587190D01*
X137145686Y-93821643D01*
X136925043Y-93922024D01*
X136418521Y-94152118D01*
X135934770Y-94371394D01*
X135478977Y-94577524D01*
X135056330Y-94768181D01*
X134672017Y-94941038D01*
X134331228Y-95093768D01*
X134039149Y-95224044D01*
X133800970Y-95329538D01*
X133621879Y-95407923D01*
X133507064Y-95456873D01*
X133461712Y-95474059D01*
X133455951Y-95473565D01*
X133404529Y-95425325D01*
X133334100Y-95300581D01*
X133246139Y-95101877D01*
X133203417Y-94995482D01*
X133149483Y-94853176D01*
X133115500Y-94752598D01*
X133107468Y-94710680D01*
X133112535Y-94708228D01*
X133176655Y-94682537D01*
X133309222Y-94631212D01*
X133503925Y-94556631D01*
X133754454Y-94461168D01*
X134054496Y-94347200D01*
X134397741Y-94217103D01*
X134777878Y-94073253D01*
X135188597Y-93918026D01*
X135623585Y-93753798D01*
X136076533Y-93582946D01*
X136541128Y-93407845D01*
X137011061Y-93230871D01*
X137480019Y-93054401D01*
X137941693Y-92880810D01*
X138389771Y-92712475D01*
X138817942Y-92551771D01*
X139219896Y-92401075D01*
X139589320Y-92262763D01*
X139919905Y-92139211D01*
X140205339Y-92032795D01*
X140439311Y-91945890D01*
X140615510Y-91880874D01*
X140727625Y-91840122D01*
X140769346Y-91826010D01*
X140772772Y-91826778D01*
G37*
G36*
X143126477Y-77357080D02*
G01*
X143140450Y-77433622D01*
X143166286Y-77583130D01*
X143203067Y-77800079D01*
X143249875Y-78078948D01*
X143305792Y-78414213D01*
X143369901Y-78800350D01*
X143441283Y-79231836D01*
X143519021Y-79703148D01*
X143602196Y-80208763D01*
X143689892Y-80743157D01*
X143781190Y-81300808D01*
X143820398Y-81540533D01*
X143910668Y-82092178D01*
X143997081Y-82619855D01*
X144078697Y-83117863D01*
X144154581Y-83580498D01*
X144223795Y-84002056D01*
X144285402Y-84376837D01*
X144338465Y-84699137D01*
X144382047Y-84963253D01*
X144415210Y-85163482D01*
X144437017Y-85294123D01*
X144446532Y-85349472D01*
X144452089Y-85384618D01*
X144439678Y-85449141D01*
X144370920Y-85477244D01*
X144261523Y-85495316D01*
X144177261Y-85493362D01*
X144133433Y-85455607D01*
X144108205Y-85373425D01*
X144105419Y-85360944D01*
X144085656Y-85274602D01*
X144049117Y-85116123D01*
X143997123Y-84891209D01*
X143930997Y-84605564D01*
X143852060Y-84264889D01*
X143761634Y-83874887D01*
X143661041Y-83441259D01*
X143551604Y-82969707D01*
X143434644Y-82465934D01*
X143311483Y-81935642D01*
X143183443Y-81384534D01*
X143131021Y-81158781D01*
X143006069Y-80619406D01*
X142887354Y-80105164D01*
X142776118Y-79621532D01*
X142673604Y-79173989D01*
X142581055Y-78768014D01*
X142499715Y-78409086D01*
X142430827Y-78102681D01*
X142375634Y-77854280D01*
X142335379Y-77669360D01*
X142311305Y-77553399D01*
X142304655Y-77511877D01*
X142322367Y-77504256D01*
X142403765Y-77482423D01*
X142531260Y-77453412D01*
X142683827Y-77421429D01*
X142840439Y-77390681D01*
X142980071Y-77365372D01*
X143081698Y-77349711D01*
X143124295Y-77347903D01*
X143126477Y-77357080D01*
G37*
G36*
X143428712Y-94538918D02*
G01*
X143435414Y-94541294D01*
X143527647Y-94591816D01*
X143544585Y-94652300D01*
X143541999Y-94660048D01*
X143515742Y-94732213D01*
X143463209Y-94873936D01*
X143386419Y-95079834D01*
X143287393Y-95344526D01*
X143168150Y-95662627D01*
X143030712Y-96028757D01*
X142877097Y-96437532D01*
X142709325Y-96883571D01*
X142529418Y-97361489D01*
X142339395Y-97865906D01*
X142141276Y-98391438D01*
X142076172Y-98564078D01*
X141879783Y-99084943D01*
X141691737Y-99583799D01*
X141514097Y-100055170D01*
X141348926Y-100493578D01*
X141198286Y-100893545D01*
X141064240Y-101249593D01*
X140948849Y-101556245D01*
X140854177Y-101808022D01*
X140782286Y-101999447D01*
X140735238Y-102125043D01*
X140715095Y-102179331D01*
X140672255Y-102255255D01*
X140620322Y-102274127D01*
X140579988Y-102258509D01*
X140396695Y-102184376D01*
X140222278Y-102109364D01*
X140073626Y-102041162D01*
X139967631Y-101987456D01*
X139921184Y-101955934D01*
X139921297Y-101953729D01*
X139941389Y-101899432D01*
X139992165Y-101777779D01*
X140070857Y-101594927D01*
X140174694Y-101357035D01*
X140300904Y-101070259D01*
X140446719Y-100740758D01*
X140609366Y-100374689D01*
X140786076Y-99978210D01*
X140974078Y-99557479D01*
X141170602Y-99118653D01*
X141372877Y-98667890D01*
X141578133Y-98211348D01*
X141783599Y-97755184D01*
X141986505Y-97305556D01*
X142184080Y-96868622D01*
X142373553Y-96450539D01*
X142552155Y-96057466D01*
X142717115Y-95695559D01*
X142865662Y-95370977D01*
X142995025Y-95089877D01*
X143102435Y-94858416D01*
X143185121Y-94682754D01*
X143240312Y-94569046D01*
X143265238Y-94523452D01*
X143268964Y-94520475D01*
X143331037Y-94515673D01*
X143428712Y-94538918D01*
G37*
G36*
X157059176Y-84838866D02*
G01*
X157102509Y-84897215D01*
X157156960Y-85007704D01*
X157230759Y-85182910D01*
X157273995Y-85291315D01*
X157327655Y-85433910D01*
X157361439Y-85534636D01*
X157369395Y-85576593D01*
X157357165Y-85581944D01*
X157278163Y-85613094D01*
X157130378Y-85670155D01*
X156919013Y-85751150D01*
X156649268Y-85854101D01*
X156326345Y-85977031D01*
X155955446Y-86117963D01*
X155541772Y-86274919D01*
X155090524Y-86445922D01*
X154606904Y-86628995D01*
X154096113Y-86822160D01*
X153563353Y-87023440D01*
X153277485Y-87131351D01*
X152754762Y-87328450D01*
X152256232Y-87516146D01*
X151787152Y-87692473D01*
X151352777Y-87855467D01*
X150958364Y-88003164D01*
X150609168Y-88133598D01*
X150310447Y-88244804D01*
X150067455Y-88334819D01*
X149885449Y-88401677D01*
X149769686Y-88443414D01*
X149725420Y-88458064D01*
X149711588Y-88454682D01*
X149667115Y-88402968D01*
X149628282Y-88315456D01*
X149607776Y-88226297D01*
X149618282Y-88169646D01*
X149618330Y-88169602D01*
X149661028Y-88147438D01*
X149772288Y-88094402D01*
X149945900Y-88013311D01*
X150175652Y-87906985D01*
X150455333Y-87778243D01*
X150778730Y-87629903D01*
X151139634Y-87464784D01*
X151531833Y-87285705D01*
X151949115Y-87095485D01*
X152385269Y-86896943D01*
X152834085Y-86692898D01*
X153289349Y-86486168D01*
X153744852Y-86279572D01*
X154194382Y-86075929D01*
X154631727Y-85878058D01*
X155050676Y-85688778D01*
X155445019Y-85510907D01*
X155808543Y-85347265D01*
X156135037Y-85200670D01*
X156418291Y-85073942D01*
X156652092Y-84969898D01*
X156830230Y-84891358D01*
X156946492Y-84841141D01*
X156994669Y-84822066D01*
X157018733Y-84820078D01*
X157059176Y-84838866D01*
G37*
G36*
X157877869Y-87227590D02*
G01*
X157899683Y-87308972D01*
X157928677Y-87436456D01*
X157960646Y-87589018D01*
X157991384Y-87745629D01*
X158016686Y-87885263D01*
X158032348Y-87986893D01*
X158034165Y-88029491D01*
X158022526Y-88032178D01*
X157941402Y-88047000D01*
X157787619Y-88073732D01*
X157566670Y-88111455D01*
X157284048Y-88159248D01*
X156945246Y-88216191D01*
X156555755Y-88281364D01*
X156121069Y-88353848D01*
X155646681Y-88432721D01*
X155138082Y-88517065D01*
X154600766Y-88605959D01*
X154040226Y-88698483D01*
X153757414Y-88745096D01*
X153205974Y-88835888D01*
X152679602Y-88922428D01*
X152183889Y-89003804D01*
X151724423Y-89079103D01*
X151306796Y-89147411D01*
X150936597Y-89207817D01*
X150619418Y-89259407D01*
X150360847Y-89301268D01*
X150166476Y-89332489D01*
X150041895Y-89352156D01*
X149992693Y-89359356D01*
X149989321Y-89359502D01*
X149933896Y-89325224D01*
X149897720Y-89216162D01*
X149893654Y-89193525D01*
X149881298Y-89099965D01*
X149883051Y-89055290D01*
X149890559Y-89052581D01*
X149962490Y-89033649D01*
X150105090Y-88998595D01*
X150311813Y-88948929D01*
X150576113Y-88886166D01*
X150891440Y-88811818D01*
X151251249Y-88727397D01*
X151648992Y-88634416D01*
X152078122Y-88534388D01*
X152532092Y-88428826D01*
X153004354Y-88319241D01*
X153488361Y-88207148D01*
X153977565Y-88094059D01*
X154465421Y-87981486D01*
X154945380Y-87870942D01*
X155410894Y-87763939D01*
X155855418Y-87661991D01*
X156272404Y-87566611D01*
X156655304Y-87479310D01*
X156997571Y-87401602D01*
X157292658Y-87334999D01*
X157534017Y-87281014D01*
X157715103Y-87241160D01*
X157829366Y-87216949D01*
X157870260Y-87209894D01*
X157877869Y-87227590D01*
G37*
G36*
X132613637Y-87210497D02*
G01*
X132684311Y-87224478D01*
X132825768Y-87255017D01*
X133031461Y-87300602D01*
X133294842Y-87359721D01*
X133609362Y-87430860D01*
X133968475Y-87512507D01*
X134365632Y-87603150D01*
X134794286Y-87701276D01*
X135247889Y-87805372D01*
X135719894Y-87913927D01*
X136203751Y-88025427D01*
X136692915Y-88138361D01*
X137180836Y-88251214D01*
X137660968Y-88362476D01*
X138126762Y-88470634D01*
X138571671Y-88574174D01*
X138989146Y-88671585D01*
X139372641Y-88761353D01*
X139715607Y-88841967D01*
X140011497Y-88911914D01*
X140253762Y-88969681D01*
X140435856Y-89013756D01*
X140551229Y-89042626D01*
X140593336Y-89054779D01*
X140595221Y-89059251D01*
X140593640Y-89118528D01*
X140578506Y-89219746D01*
X140574399Y-89241228D01*
X140549722Y-89327836D01*
X140507142Y-89356698D01*
X140421982Y-89348038D01*
X140408739Y-89345752D01*
X140320761Y-89331060D01*
X140159778Y-89304441D01*
X139931543Y-89266837D01*
X139641810Y-89219194D01*
X139296335Y-89162457D01*
X138900871Y-89097568D01*
X138461172Y-89025473D01*
X137982994Y-88947117D01*
X137472090Y-88863442D01*
X136934214Y-88775395D01*
X136375121Y-88683918D01*
X136136408Y-88644850D01*
X135589446Y-88555179D01*
X135068105Y-88469497D01*
X134577923Y-88388724D01*
X134124438Y-88313782D01*
X133713188Y-88245592D01*
X133349710Y-88185076D01*
X133039543Y-88133153D01*
X132788224Y-88090746D01*
X132601291Y-88058775D01*
X132484281Y-88038162D01*
X132442734Y-88029828D01*
X132441822Y-88014043D01*
X132452020Y-87935217D01*
X132473677Y-87809310D01*
X132502589Y-87657358D01*
X132534550Y-87500401D01*
X132565353Y-87359475D01*
X132590793Y-87255618D01*
X132606663Y-87209869D01*
X132613637Y-87210497D01*
G37*
G36*
X133428724Y-84826246D02*
G01*
X133483072Y-84846393D01*
X133604768Y-84897224D01*
X133787655Y-84975967D01*
X134025577Y-85079852D01*
X134312374Y-85206108D01*
X134641891Y-85351965D01*
X135007969Y-85514651D01*
X135404452Y-85691396D01*
X135825181Y-85879428D01*
X136263998Y-86075979D01*
X136714748Y-86278276D01*
X137171272Y-86483549D01*
X137627412Y-86689027D01*
X138077011Y-86891940D01*
X138513912Y-87089517D01*
X138931958Y-87278986D01*
X139324990Y-87457578D01*
X139686851Y-87622522D01*
X140011385Y-87771046D01*
X140292432Y-87900381D01*
X140523837Y-88007755D01*
X140699440Y-88090398D01*
X140813086Y-88145539D01*
X140858616Y-88170407D01*
X140861592Y-88174133D01*
X140866395Y-88236207D01*
X140843150Y-88333882D01*
X140840830Y-88340428D01*
X140790282Y-88432782D01*
X140729768Y-88449793D01*
X140726051Y-88448630D01*
X140663025Y-88426056D01*
X140531548Y-88377560D01*
X140337936Y-88305525D01*
X140088505Y-88212331D01*
X139789572Y-88100363D01*
X139447452Y-87972002D01*
X139068461Y-87829630D01*
X138658917Y-87675629D01*
X138225135Y-87512382D01*
X137773432Y-87342271D01*
X137310123Y-87167679D01*
X136841526Y-86990986D01*
X136373956Y-86814576D01*
X135913730Y-86640831D01*
X135467164Y-86472133D01*
X135040573Y-86310864D01*
X134640276Y-86159407D01*
X134272586Y-86020143D01*
X133943822Y-85895456D01*
X133660299Y-85787726D01*
X133428334Y-85699337D01*
X133254242Y-85632671D01*
X133144340Y-85590109D01*
X133104945Y-85574034D01*
X133104108Y-85564562D01*
X133123211Y-85497568D01*
X133165588Y-85384503D01*
X133222667Y-85245312D01*
X133285872Y-85099935D01*
X133346630Y-84968317D01*
X133396365Y-84870399D01*
X133426505Y-84826124D01*
X133428724Y-84826246D01*
G37*
G36*
X147446858Y-77357182D02*
G01*
X147572769Y-77378842D01*
X147724725Y-77407761D01*
X147881689Y-77439731D01*
X148022622Y-77470547D01*
X148126489Y-77496000D01*
X148172251Y-77511885D01*
X148171726Y-77519467D01*
X148157832Y-77591981D01*
X148127023Y-77736703D01*
X148080543Y-77948152D01*
X148019634Y-78220852D01*
X147945540Y-78549322D01*
X147859502Y-78928085D01*
X147762765Y-79351663D01*
X147656571Y-79814575D01*
X147542162Y-80311345D01*
X147420782Y-80836494D01*
X147293674Y-81384542D01*
X147246270Y-81588601D01*
X147119860Y-82132871D01*
X146998794Y-82654299D01*
X146884396Y-83147176D01*
X146777988Y-83605793D01*
X146680895Y-84024441D01*
X146594441Y-84397409D01*
X146519948Y-84718988D01*
X146458741Y-84983469D01*
X146412143Y-85185141D01*
X146381478Y-85318296D01*
X146368069Y-85377223D01*
X146362571Y-85401917D01*
X146336343Y-85477362D01*
X146287933Y-85499662D01*
X146188393Y-85486407D01*
X146164461Y-85481825D01*
X146071028Y-85461409D01*
X146027477Y-85447538D01*
X146027995Y-85439446D01*
X146038299Y-85365673D01*
X146060453Y-85220408D01*
X146093371Y-85010278D01*
X146135972Y-84741909D01*
X146187170Y-84421925D01*
X146245883Y-84056954D01*
X146311027Y-83653620D01*
X146381517Y-83218550D01*
X146456271Y-82758370D01*
X146534204Y-82279704D01*
X146614233Y-81789179D01*
X146695274Y-81293421D01*
X146776243Y-80799055D01*
X146856057Y-80312707D01*
X146933632Y-79841003D01*
X147007885Y-79390570D01*
X147077730Y-78968031D01*
X147142086Y-78580014D01*
X147199868Y-78233144D01*
X147249993Y-77934047D01*
X147291376Y-77689349D01*
X147322934Y-77505675D01*
X147343584Y-77389651D01*
X147352241Y-77347903D01*
X147368028Y-77346988D01*
X147446858Y-77357182D01*
G37*
G36*
X150054916Y-90939199D02*
G01*
X150068160Y-90941485D01*
X150156137Y-90956177D01*
X150317121Y-90982797D01*
X150545356Y-91020400D01*
X150835088Y-91068043D01*
X151180563Y-91124781D01*
X151576028Y-91189669D01*
X152015726Y-91261764D01*
X152493905Y-91340121D01*
X153004809Y-91423795D01*
X153542684Y-91511843D01*
X154101777Y-91603319D01*
X154340487Y-91642387D01*
X154887450Y-91732058D01*
X155408792Y-91817741D01*
X155898975Y-91898514D01*
X156352462Y-91973457D01*
X156763713Y-92041648D01*
X157127192Y-92102166D01*
X157437361Y-92154091D01*
X157688682Y-92196499D01*
X157875617Y-92228472D01*
X157992629Y-92249087D01*
X158034178Y-92257423D01*
X158034566Y-92277721D01*
X158023592Y-92361412D01*
X158002204Y-92490025D01*
X157974348Y-92642273D01*
X157943966Y-92796871D01*
X157915003Y-92932531D01*
X157891404Y-93027967D01*
X157869429Y-93067008D01*
X157801779Y-93082003D01*
X157787917Y-93078542D01*
X157702564Y-93058255D01*
X157545450Y-93021357D01*
X157322110Y-92969134D01*
X157038075Y-92902875D01*
X156698878Y-92823867D01*
X156310053Y-92733398D01*
X155877131Y-92632755D01*
X155405645Y-92523226D01*
X154901128Y-92406098D01*
X154369113Y-92282660D01*
X153815133Y-92154198D01*
X153537370Y-92089781D01*
X152995511Y-91963962D01*
X152479295Y-91843897D01*
X151994154Y-91730860D01*
X151545519Y-91626125D01*
X151138821Y-91530964D01*
X150779492Y-91446651D01*
X150472964Y-91374461D01*
X150224669Y-91315665D01*
X150040036Y-91271538D01*
X149924499Y-91243353D01*
X149883488Y-91232384D01*
X149881615Y-91227922D01*
X149883241Y-91168688D01*
X149898393Y-91067491D01*
X149902500Y-91046010D01*
X149927176Y-90959402D01*
X149969756Y-90930540D01*
X150054916Y-90939199D01*
G37*
G36*
X144288505Y-94800830D02*
G01*
X144312433Y-94805411D01*
X144405876Y-94825834D01*
X144449441Y-94839719D01*
X144448262Y-94853177D01*
X144436240Y-94937352D01*
X144412258Y-95093972D01*
X144377195Y-95317571D01*
X144331929Y-95602683D01*
X144277338Y-95943843D01*
X144214300Y-96335585D01*
X144143695Y-96772441D01*
X144066399Y-97248947D01*
X143983292Y-97759637D01*
X143895252Y-98299044D01*
X143803157Y-98861702D01*
X143751760Y-99175389D01*
X143661504Y-99726799D01*
X143575594Y-100252360D01*
X143494925Y-100746558D01*
X143420393Y-101203880D01*
X143352893Y-101618813D01*
X143293321Y-101985844D01*
X143242572Y-102299458D01*
X143201542Y-102554143D01*
X143171126Y-102744385D01*
X143152220Y-102864671D01*
X143145719Y-102909488D01*
X143142067Y-102922942D01*
X143094427Y-102944586D01*
X143091853Y-102944468D01*
X143020275Y-102934387D01*
X142898820Y-102911832D01*
X142749235Y-102881468D01*
X142593263Y-102847956D01*
X142452648Y-102815960D01*
X142349134Y-102790144D01*
X142304466Y-102775171D01*
X142305002Y-102767599D01*
X142318922Y-102695107D01*
X142349756Y-102550408D01*
X142396259Y-102338979D01*
X142457189Y-102066300D01*
X142531302Y-101737849D01*
X142617356Y-101359103D01*
X142714108Y-100935541D01*
X142820313Y-100472641D01*
X142934730Y-99975881D01*
X143056115Y-99450740D01*
X143183224Y-98902695D01*
X143230628Y-98698636D01*
X143357038Y-98154367D01*
X143478104Y-97632939D01*
X143592503Y-97140061D01*
X143698910Y-96681444D01*
X143796003Y-96262796D01*
X143882458Y-95889828D01*
X143956950Y-95568249D01*
X144018157Y-95303768D01*
X144064755Y-95102096D01*
X144095421Y-94968941D01*
X144108829Y-94910014D01*
X144114327Y-94885320D01*
X144140556Y-94809875D01*
X144188965Y-94787576D01*
X144288505Y-94800830D01*
G37*
G36*
X146342763Y-94820934D02*
G01*
X146367859Y-94910014D01*
X146370676Y-94922637D01*
X146390538Y-95009436D01*
X146427176Y-95168369D01*
X146479267Y-95393726D01*
X146545487Y-95679797D01*
X146624512Y-96020873D01*
X146715019Y-96411244D01*
X146815684Y-96845202D01*
X146925184Y-97317036D01*
X147042195Y-97821038D01*
X147165393Y-98351496D01*
X147293455Y-98902704D01*
X147345864Y-99128402D01*
X147470809Y-99667792D01*
X147589510Y-100182058D01*
X147700725Y-100665720D01*
X147803210Y-101113299D01*
X147895724Y-101519317D01*
X147977023Y-101878293D01*
X148045866Y-102184750D01*
X148101008Y-102433207D01*
X148141209Y-102618185D01*
X148165225Y-102734206D01*
X148171813Y-102775790D01*
X148163728Y-102779887D01*
X148094232Y-102800515D01*
X147971226Y-102830746D01*
X147814528Y-102865600D01*
X147811930Y-102866152D01*
X147605917Y-102908506D01*
X147467189Y-102932609D01*
X147383393Y-102939486D01*
X147342174Y-102930160D01*
X147331179Y-102905654D01*
X147329217Y-102890545D01*
X147315824Y-102803259D01*
X147290512Y-102643530D01*
X147254180Y-102416882D01*
X147207722Y-102128838D01*
X147152035Y-101784920D01*
X147088014Y-101390651D01*
X147016557Y-100951553D01*
X146938559Y-100473149D01*
X146854916Y-99960962D01*
X146766525Y-99420514D01*
X146674282Y-98857328D01*
X146622608Y-98541832D01*
X146532690Y-97991691D01*
X146447306Y-97467855D01*
X146367336Y-96975792D01*
X146293659Y-96520969D01*
X146227154Y-96108853D01*
X146168702Y-95744911D01*
X146119181Y-95434612D01*
X146079471Y-95183422D01*
X146050450Y-94996808D01*
X146032999Y-94880238D01*
X146027997Y-94839179D01*
X146031606Y-94837167D01*
X146088365Y-94821545D01*
X146188393Y-94800830D01*
X146215482Y-94795877D01*
X146301609Y-94788751D01*
X146342763Y-94820934D01*
G37*
G36*
X147212422Y-94523452D02*
G01*
X147212467Y-94523500D01*
X147234624Y-94566195D01*
X147287654Y-94677452D01*
X147368740Y-94851059D01*
X147475061Y-95080805D01*
X147603800Y-95360479D01*
X147752137Y-95683871D01*
X147917253Y-96044768D01*
X148096331Y-96436960D01*
X148286550Y-96854236D01*
X148485093Y-97290384D01*
X148689139Y-97739194D01*
X148895872Y-98194454D01*
X149102470Y-98649953D01*
X149306117Y-99099480D01*
X149503993Y-99536823D01*
X149693279Y-99955773D01*
X149871156Y-100350117D01*
X150034806Y-100713644D01*
X150181410Y-101040144D01*
X150308148Y-101323405D01*
X150412203Y-101557216D01*
X150490755Y-101735366D01*
X150540985Y-101851644D01*
X150560075Y-101899838D01*
X150562295Y-101919105D01*
X150546998Y-101960701D01*
X150492697Y-102004385D01*
X150386667Y-102058763D01*
X150216183Y-102132442D01*
X150124374Y-102170430D01*
X149980008Y-102229016D01*
X149875208Y-102270028D01*
X149828005Y-102286319D01*
X149797492Y-102256206D01*
X149760285Y-102176817D01*
X149755877Y-102164893D01*
X149725207Y-102082955D01*
X149668417Y-101931765D01*
X149587557Y-101716765D01*
X149484675Y-101443396D01*
X149361822Y-101117102D01*
X149221047Y-100743325D01*
X149064401Y-100327506D01*
X148893931Y-99875088D01*
X148711689Y-99391514D01*
X148519723Y-98882226D01*
X148320083Y-98352666D01*
X148236813Y-98131751D01*
X148041351Y-97612781D01*
X147855126Y-97117771D01*
X147680117Y-96652004D01*
X147518297Y-96220759D01*
X147371642Y-95829319D01*
X147242130Y-95482964D01*
X147131734Y-95186978D01*
X147042432Y-94946640D01*
X146976198Y-94767232D01*
X146935009Y-94654036D01*
X146920840Y-94612334D01*
X146925857Y-94600491D01*
X146981523Y-94564646D01*
X147071103Y-94532766D01*
X147159701Y-94515488D01*
X147212422Y-94523452D01*
G37*
G36*
X149750923Y-91838636D02*
G01*
X149813964Y-91861255D01*
X149945449Y-91909784D01*
X150139063Y-91981841D01*
X150388490Y-92075047D01*
X150687413Y-92187018D01*
X151029518Y-92315373D01*
X151408487Y-92457730D01*
X151818005Y-92611708D01*
X152251755Y-92774926D01*
X152703423Y-92945000D01*
X153166691Y-93119550D01*
X153635244Y-93296194D01*
X154102766Y-93472551D01*
X154562941Y-93646238D01*
X155009453Y-93814874D01*
X155435986Y-93976077D01*
X155836223Y-94127466D01*
X156203849Y-94266659D01*
X156532549Y-94391275D01*
X156816005Y-94498931D01*
X157047902Y-94587245D01*
X157221923Y-94653838D01*
X157331754Y-94696325D01*
X157371078Y-94712327D01*
X157363444Y-94753355D01*
X157330758Y-94849015D01*
X157281135Y-94978641D01*
X157222744Y-95121620D01*
X157163754Y-95257340D01*
X157112336Y-95365186D01*
X157111323Y-95367142D01*
X157062284Y-95445525D01*
X157025399Y-95478029D01*
X157022895Y-95477346D01*
X156967331Y-95454277D01*
X156844514Y-95400503D01*
X156660616Y-95318822D01*
X156421808Y-95212037D01*
X156134262Y-95082947D01*
X155804148Y-94934352D01*
X155437638Y-94769053D01*
X155040903Y-94589851D01*
X154620114Y-94399545D01*
X154181443Y-94200937D01*
X153731061Y-93996826D01*
X153275138Y-93790013D01*
X152819847Y-93583298D01*
X152371359Y-93379482D01*
X151935844Y-93181365D01*
X151519474Y-92991747D01*
X151128420Y-92813429D01*
X150768854Y-92649211D01*
X150446947Y-92501894D01*
X150168869Y-92374278D01*
X149940792Y-92269163D01*
X149768888Y-92189350D01*
X149659328Y-92137639D01*
X149618282Y-92116830D01*
X149615306Y-92113104D01*
X149610504Y-92051031D01*
X149633748Y-91953356D01*
X149636069Y-91946809D01*
X149686617Y-91854455D01*
X149747130Y-91837444D01*
X149750923Y-91838636D01*
G37*
G36*
X175252307Y-114714391D02*
G01*
X175281968Y-114901977D01*
X175299977Y-115020314D01*
X175305362Y-115063560D01*
X175283049Y-115080719D01*
X175194722Y-115131496D01*
X175047435Y-115209939D01*
X174849849Y-115311607D01*
X174610628Y-115432057D01*
X174338433Y-115566846D01*
X174041927Y-115711532D01*
X173819701Y-115819018D01*
X173539323Y-115954070D01*
X173288885Y-116074061D01*
X173077158Y-116174822D01*
X172912914Y-116252183D01*
X172804922Y-116301974D01*
X172761955Y-116320026D01*
X172758735Y-116288254D01*
X172755237Y-116179031D01*
X172751881Y-115996427D01*
X172748690Y-115745036D01*
X172745688Y-115429448D01*
X172742900Y-115054255D01*
X172740350Y-114624048D01*
X172738062Y-114143420D01*
X172736059Y-113616962D01*
X172734367Y-113049265D01*
X172733008Y-112444922D01*
X172732783Y-112301931D01*
X173557096Y-112301931D01*
X173557534Y-112794081D01*
X173559021Y-113260407D01*
X173561556Y-113672791D01*
X173572375Y-115002609D01*
X173987425Y-114806639D01*
X174402475Y-114610669D01*
X173987425Y-112146500D01*
X173572375Y-109682331D01*
X173561556Y-111012652D01*
X173559367Y-111352635D01*
X173557707Y-111812076D01*
X173557096Y-112301931D01*
X172732783Y-112301931D01*
X172732008Y-111808523D01*
X172731391Y-111144661D01*
X172731179Y-110457926D01*
X172731179Y-104592589D01*
X172905574Y-104571446D01*
X173092364Y-104549036D01*
X173280075Y-104528539D01*
X173407959Y-104519695D01*
X173488387Y-104523380D01*
X173533727Y-104540469D01*
X173556348Y-104571837D01*
X173568619Y-104618360D01*
X173570371Y-104627059D01*
X173588270Y-104723986D01*
X173617830Y-104891876D01*
X173658080Y-105124886D01*
X173708048Y-105417174D01*
X173766763Y-105762898D01*
X173833253Y-106156216D01*
X173906548Y-106591285D01*
X173985675Y-107062264D01*
X174069664Y-107563309D01*
X174157542Y-108088580D01*
X174248340Y-108632234D01*
X174341084Y-109188429D01*
X174434804Y-109751322D01*
X174528528Y-110315071D01*
X174621285Y-110873835D01*
X174712104Y-111421771D01*
X174800014Y-111953037D01*
X174884042Y-112461790D01*
X174963217Y-112942189D01*
X175036568Y-113388391D01*
X175103125Y-113794555D01*
X175161914Y-114154837D01*
X175211965Y-114463397D01*
X175235636Y-114610669D01*
X175252307Y-114714391D01*
G37*
G36*
X169716652Y-68896801D02*
G01*
X169640972Y-69147663D01*
X169546539Y-69459457D01*
X169434692Y-69827782D01*
X169306771Y-70248236D01*
X169164117Y-70716419D01*
X169008069Y-71227930D01*
X168839967Y-71778367D01*
X168661153Y-72363329D01*
X168472965Y-72978416D01*
X168276743Y-73619225D01*
X168073829Y-74281357D01*
X167873777Y-74934012D01*
X167677519Y-75574546D01*
X167489268Y-76189196D01*
X167310364Y-76773581D01*
X167142145Y-77323320D01*
X166985950Y-77834031D01*
X166843118Y-78301334D01*
X166714986Y-78720848D01*
X166602895Y-79088190D01*
X166508182Y-79398980D01*
X166432186Y-79648836D01*
X166376246Y-79833378D01*
X166341700Y-79948225D01*
X166329887Y-79988994D01*
X166326392Y-79995937D01*
X166278595Y-80007929D01*
X166243701Y-80005310D01*
X166137516Y-79992088D01*
X165993521Y-79971318D01*
X165838402Y-79947078D01*
X165698845Y-79923446D01*
X165601535Y-79904496D01*
X165509208Y-79883574D01*
X165509208Y-71840751D01*
X165509208Y-71667243D01*
X166335520Y-71667243D01*
X166335871Y-72377031D01*
X166336710Y-73063066D01*
X166338040Y-73705911D01*
X166339859Y-74286127D01*
X166350404Y-77058037D01*
X167599200Y-72983300D01*
X167739220Y-72526217D01*
X167905575Y-71982604D01*
X168063971Y-71464400D01*
X168212793Y-70976907D01*
X168350430Y-70525430D01*
X168475269Y-70115275D01*
X168585696Y-69751745D01*
X168680100Y-69440146D01*
X168756867Y-69185781D01*
X168814385Y-68993956D01*
X168851041Y-68869975D01*
X168865221Y-68819143D01*
X168860811Y-68790913D01*
X168832667Y-68737435D01*
X168776056Y-68656962D01*
X168687010Y-68544811D01*
X168561563Y-68396299D01*
X168395747Y-68206745D01*
X168185597Y-67971466D01*
X167927145Y-67685779D01*
X167616425Y-67345001D01*
X166350404Y-65960279D01*
X166339859Y-68737248D01*
X166339013Y-68979319D01*
X166337406Y-69589740D01*
X166336288Y-70254159D01*
X166335659Y-70953140D01*
X166335520Y-71667243D01*
X165509208Y-71667243D01*
X165509208Y-63797929D01*
X167663490Y-66156372D01*
X167746779Y-66247583D01*
X168083405Y-66616833D01*
X168402479Y-66967779D01*
X168699790Y-67295733D01*
X168971125Y-67596008D01*
X169212272Y-67863916D01*
X169419019Y-68094770D01*
X169587155Y-68283882D01*
X169712467Y-68426564D01*
X169790743Y-68518129D01*
X169817771Y-68553890D01*
X169806389Y-68595477D01*
X169772237Y-68711272D01*
X169739919Y-68819143D01*
X169716652Y-68896801D01*
G37*
G36*
X167491428Y-124668474D02*
G01*
X167519208Y-124683523D01*
X167569382Y-124737951D01*
X167636057Y-124837766D01*
X167723617Y-124990290D01*
X167836446Y-125202846D01*
X167978927Y-125482757D01*
X168130720Y-125781023D01*
X168272658Y-126043241D01*
X168403531Y-126255009D01*
X168535507Y-126428570D01*
X168680754Y-126576165D01*
X168851441Y-126710038D01*
X169059736Y-126842431D01*
X169317808Y-126985587D01*
X169637825Y-127151746D01*
X169707088Y-127187386D01*
X169933209Y-127306408D01*
X170131819Y-127414937D01*
X170291434Y-127506445D01*
X170400569Y-127574401D01*
X170447740Y-127612274D01*
X170464343Y-127654766D01*
X170462447Y-127743464D01*
X170455248Y-127752710D01*
X170389243Y-127800915D01*
X170264572Y-127876630D01*
X170092364Y-127973528D01*
X169883749Y-128085279D01*
X169649857Y-128205554D01*
X169362954Y-128352111D01*
X169092091Y-128499013D01*
X168873157Y-128634091D01*
X168694034Y-128769350D01*
X168542606Y-128916797D01*
X168406754Y-129088438D01*
X168274362Y-129296280D01*
X168133313Y-129552330D01*
X167971490Y-129868593D01*
X167944249Y-129922670D01*
X167829416Y-130148922D01*
X167726468Y-130349117D01*
X167641589Y-130511406D01*
X167580959Y-130623942D01*
X167550762Y-130674879D01*
X167524365Y-130703679D01*
X167474812Y-130730689D01*
X167420162Y-130718697D01*
X167355644Y-130661733D01*
X167276490Y-130553828D01*
X167177928Y-130389011D01*
X167055189Y-130161312D01*
X166903503Y-129864761D01*
X166901765Y-129861311D01*
X166738831Y-129542838D01*
X166597579Y-129285084D01*
X166466007Y-129076113D01*
X166332112Y-128903989D01*
X166183892Y-128756776D01*
X166009344Y-128622537D01*
X165796466Y-128489335D01*
X165533256Y-128345235D01*
X165207710Y-128178300D01*
X165141965Y-128144915D01*
X164918337Y-128028976D01*
X164723522Y-127924363D01*
X164568716Y-127837323D01*
X164465116Y-127774104D01*
X164423916Y-127740953D01*
X164420587Y-127731634D01*
X164416221Y-127684637D01*
X164439117Y-127635640D01*
X164497092Y-127579120D01*
X164597965Y-127509557D01*
X164749555Y-127421431D01*
X164959679Y-127309221D01*
X165236155Y-127167406D01*
X165538230Y-127012044D01*
X165803742Y-126866704D01*
X166018372Y-126732635D01*
X166194297Y-126597646D01*
X166343695Y-126449548D01*
X166478743Y-126276150D01*
X166611619Y-126065262D01*
X166754501Y-125804695D01*
X166919565Y-125482257D01*
X166960927Y-125400543D01*
X167076968Y-125174799D01*
X167180725Y-124977945D01*
X167266158Y-124821143D01*
X167327227Y-124715552D01*
X167357892Y-124672334D01*
X167401454Y-124660888D01*
X167491428Y-124668474D01*
G37*
G36*
X172666847Y-48216131D02*
G01*
X172742322Y-48258239D01*
X172746732Y-48261902D01*
X172770737Y-48297952D01*
X172791567Y-48365400D01*
X172810696Y-48474358D01*
X172829601Y-48634940D01*
X172849757Y-48857257D01*
X172872638Y-49151421D01*
X172875163Y-49184956D01*
X172897897Y-49453332D01*
X172923388Y-49705139D01*
X172949694Y-49924042D01*
X172974875Y-50093703D01*
X172996989Y-50197786D01*
X173050910Y-50350008D01*
X173134736Y-50526326D01*
X173249247Y-50715713D01*
X173401690Y-50928987D01*
X173599310Y-51176967D01*
X173849354Y-51470473D01*
X173864450Y-51487824D01*
X174025134Y-51675469D01*
X174164620Y-51843574D01*
X174274573Y-51981695D01*
X174346656Y-52079384D01*
X174372536Y-52126195D01*
X174366212Y-52174075D01*
X174337236Y-52218602D01*
X174275598Y-52253466D01*
X174171427Y-52281171D01*
X174014853Y-52304225D01*
X173796004Y-52325133D01*
X173505008Y-52346400D01*
X173476281Y-52348346D01*
X173097582Y-52377044D01*
X172784611Y-52410505D01*
X172522097Y-52454888D01*
X172294767Y-52516348D01*
X172087347Y-52601045D01*
X171884566Y-52715136D01*
X171671149Y-52864778D01*
X171431825Y-53056129D01*
X171151321Y-53295346D01*
X170951397Y-53466538D01*
X170759901Y-53623578D01*
X170613452Y-53732435D01*
X170504185Y-53797673D01*
X170424236Y-53823854D01*
X170365744Y-53815543D01*
X170320842Y-53777302D01*
X170306081Y-53724917D01*
X170287906Y-53603423D01*
X170268346Y-53427307D01*
X170248938Y-53210487D01*
X170231223Y-52966882D01*
X170208892Y-52652672D01*
X170176828Y-52324983D01*
X170133895Y-52050710D01*
X170073673Y-51814000D01*
X169989742Y-51599001D01*
X169875681Y-51389857D01*
X169725071Y-51170716D01*
X169531490Y-50925723D01*
X169288520Y-50639025D01*
X169260787Y-50606765D01*
X169099108Y-50414337D01*
X168959072Y-50240430D01*
X168848886Y-50095761D01*
X168776756Y-49991047D01*
X168750889Y-49937002D01*
X168758429Y-49890371D01*
X168803710Y-49814515D01*
X168808044Y-49811922D01*
X168876920Y-49794816D01*
X169012036Y-49774335D01*
X169200119Y-49752078D01*
X169427895Y-49729646D01*
X169682091Y-49708638D01*
X169764062Y-49702414D01*
X170112495Y-49672880D01*
X170399688Y-49639028D01*
X170640841Y-49594447D01*
X170851153Y-49532726D01*
X171045822Y-49447451D01*
X171240047Y-49332212D01*
X171449028Y-49180597D01*
X171687963Y-48986193D01*
X171972052Y-48742589D01*
X172002219Y-48716471D01*
X172190497Y-48555489D01*
X172357624Y-48415936D01*
X172493492Y-48306014D01*
X172587990Y-48233926D01*
X172631010Y-48207875D01*
X172666847Y-48216131D01*
G37*
G36*
X123002165Y-110886318D02*
G01*
X123044209Y-110895198D01*
X123087032Y-110926510D01*
X123137689Y-110990514D01*
X123203232Y-111097468D01*
X123290717Y-111257630D01*
X123407198Y-111481260D01*
X123463430Y-111589612D01*
X123581384Y-111808211D01*
X123682236Y-111977314D01*
X123777987Y-112114767D01*
X123880638Y-112238419D01*
X124002190Y-112366115D01*
X124069897Y-112432851D01*
X124189960Y-112541576D01*
X124313878Y-112636851D01*
X124459335Y-112730590D01*
X124644021Y-112834704D01*
X124885622Y-112961107D01*
X124909891Y-112973562D01*
X125127098Y-113086483D01*
X125281768Y-113171198D01*
X125384178Y-113234747D01*
X125444605Y-113284172D01*
X125473324Y-113326516D01*
X125480614Y-113368821D01*
X125480564Y-113372924D01*
X125471684Y-113414968D01*
X125440372Y-113457792D01*
X125376368Y-113508448D01*
X125269414Y-113573991D01*
X125109252Y-113661476D01*
X124885622Y-113777957D01*
X124779718Y-113832910D01*
X124560276Y-113951257D01*
X124390492Y-114052423D01*
X124252494Y-114148419D01*
X124128411Y-114251257D01*
X124000374Y-114372949D01*
X123963831Y-114409601D01*
X123845706Y-114535908D01*
X123746331Y-114660426D01*
X123652718Y-114802365D01*
X123551878Y-114980935D01*
X123430824Y-115215347D01*
X123383377Y-115309018D01*
X123286548Y-115497422D01*
X123203506Y-115655376D01*
X123141845Y-115768541D01*
X123109162Y-115822578D01*
X123069751Y-115850693D01*
X122981135Y-115863612D01*
X122941652Y-115843345D01*
X122885610Y-115780388D01*
X122811644Y-115666998D01*
X122714500Y-115495041D01*
X122588925Y-115256381D01*
X122532693Y-115148029D01*
X122414739Y-114929430D01*
X122313887Y-114760327D01*
X122218136Y-114622874D01*
X122115485Y-114499223D01*
X121993933Y-114371526D01*
X121926226Y-114304790D01*
X121806163Y-114196066D01*
X121682245Y-114100790D01*
X121536787Y-114007051D01*
X121352102Y-113902937D01*
X121110501Y-113776534D01*
X121086232Y-113764079D01*
X120869025Y-113651158D01*
X120714355Y-113566443D01*
X120611945Y-113502895D01*
X120551518Y-113453469D01*
X120522798Y-113411125D01*
X120515509Y-113368821D01*
X120515558Y-113364717D01*
X120524439Y-113322673D01*
X120555751Y-113279850D01*
X120619755Y-113229193D01*
X120726709Y-113163650D01*
X120886871Y-113076165D01*
X121110501Y-112959684D01*
X121218853Y-112903452D01*
X121437452Y-112785498D01*
X121606555Y-112684646D01*
X121744008Y-112588895D01*
X121867660Y-112486244D01*
X121995356Y-112364693D01*
X122062092Y-112296985D01*
X122170816Y-112176922D01*
X122266092Y-112053004D01*
X122359831Y-111907547D01*
X122463945Y-111722861D01*
X122590348Y-111481260D01*
X122602803Y-111456991D01*
X122715724Y-111239784D01*
X122800439Y-111085114D01*
X122863987Y-110982704D01*
X122913413Y-110922277D01*
X122955757Y-110893558D01*
X122998061Y-110886268D01*
X123002165Y-110886318D01*
G37*
G36*
X118877909Y-72949928D02*
G01*
X118878975Y-73070192D01*
X118880023Y-73267798D01*
X118881050Y-73540382D01*
X118882055Y-73885579D01*
X118883035Y-74301026D01*
X118883990Y-74784358D01*
X118884917Y-75333210D01*
X118885813Y-75945220D01*
X118886678Y-76618022D01*
X118887510Y-77349252D01*
X118888305Y-78136547D01*
X118889063Y-78977542D01*
X118889782Y-79869872D01*
X118890459Y-80811175D01*
X118891093Y-81799084D01*
X118891682Y-82831237D01*
X118892224Y-83905270D01*
X118892717Y-85018817D01*
X118893159Y-86169515D01*
X118893548Y-87354999D01*
X118893882Y-88572906D01*
X118894160Y-89820871D01*
X118894380Y-91096530D01*
X118894539Y-92397519D01*
X118894636Y-93721474D01*
X118894669Y-95066030D01*
X118894669Y-117222691D01*
X118556139Y-117236515D01*
X118511241Y-117238396D01*
X118349642Y-117245962D01*
X118220914Y-117253174D01*
X118149629Y-117258691D01*
X118135392Y-117258914D01*
X118106463Y-117239732D01*
X118086024Y-117180839D01*
X118070535Y-117068125D01*
X118056454Y-116887480D01*
X118055826Y-116877225D01*
X118051068Y-116781698D01*
X118043319Y-116608889D01*
X118032698Y-116361803D01*
X118019322Y-116043446D01*
X118003309Y-115656824D01*
X117984777Y-115204941D01*
X117963844Y-114690803D01*
X117940628Y-114117415D01*
X117915245Y-113487783D01*
X117887815Y-112804913D01*
X117858454Y-112071808D01*
X117827281Y-111291476D01*
X117794413Y-110466921D01*
X117759969Y-109601148D01*
X117724065Y-108697164D01*
X117686820Y-107757973D01*
X117648352Y-106786581D01*
X117608778Y-105785993D01*
X117568216Y-104759214D01*
X117526784Y-103709251D01*
X117484599Y-102639108D01*
X117441780Y-101551790D01*
X117398444Y-100450304D01*
X117354709Y-99337654D01*
X117310692Y-98216846D01*
X117266513Y-97090885D01*
X117222287Y-95962777D01*
X117178134Y-94835527D01*
X117134170Y-93712141D01*
X117090514Y-92595623D01*
X117047284Y-91488979D01*
X117004596Y-90395215D01*
X116962570Y-89317336D01*
X116921323Y-88258347D01*
X116880972Y-87221254D01*
X116841635Y-86209062D01*
X116803430Y-85224776D01*
X116766476Y-84271403D01*
X116730889Y-83351946D01*
X116696787Y-82469413D01*
X116664289Y-81626807D01*
X116633511Y-80827134D01*
X116604573Y-80073401D01*
X116577591Y-79368611D01*
X116552683Y-78715772D01*
X116529968Y-78117887D01*
X116509562Y-77577962D01*
X116491584Y-77099003D01*
X116476152Y-76684015D01*
X116463383Y-76336004D01*
X116453395Y-76057974D01*
X116446306Y-75852932D01*
X116442233Y-75723882D01*
X116441295Y-75673831D01*
X116444464Y-75643357D01*
X116454896Y-75598839D01*
X116476705Y-75548267D01*
X116514853Y-75485650D01*
X116574301Y-75404998D01*
X116660008Y-75300320D01*
X116776935Y-75165625D01*
X116930044Y-74994924D01*
X117124296Y-74782224D01*
X117364650Y-74521535D01*
X117656068Y-74206868D01*
X117815969Y-74034564D01*
X118059398Y-73772939D01*
X118281844Y-73534692D01*
X118477521Y-73325974D01*
X118640643Y-73152934D01*
X118765425Y-73021720D01*
X118846082Y-72938482D01*
X118876827Y-72909370D01*
X118877909Y-72949928D01*
G37*
G36*
X174834596Y-64375874D02*
G01*
X174816346Y-64775945D01*
X174796841Y-65198298D01*
X174776437Y-65635359D01*
X174755494Y-66079550D01*
X174734367Y-66523298D01*
X174713415Y-66959027D01*
X174692994Y-67379161D01*
X174673462Y-67776124D01*
X174655177Y-68142341D01*
X174638496Y-68470236D01*
X174623776Y-68752235D01*
X174611374Y-68980760D01*
X174601649Y-69148238D01*
X174594957Y-69247092D01*
X174593238Y-69267618D01*
X174578789Y-69407934D01*
X174563917Y-69507035D01*
X174551587Y-69544588D01*
X174538241Y-69533979D01*
X174472701Y-69473600D01*
X174357848Y-69364660D01*
X174199378Y-69212722D01*
X174002987Y-69023349D01*
X173774371Y-68802104D01*
X173519225Y-68554552D01*
X173243246Y-68286255D01*
X172952128Y-68002776D01*
X172651569Y-67709679D01*
X172347262Y-67412528D01*
X172044906Y-67116884D01*
X171750194Y-66828312D01*
X171468823Y-66552375D01*
X171206488Y-66294636D01*
X170968886Y-66060659D01*
X170761712Y-65856006D01*
X170590662Y-65686242D01*
X170516653Y-65612185D01*
X171734432Y-65612185D01*
X171758953Y-65644097D01*
X171835986Y-65726981D01*
X171959123Y-65854058D01*
X172121852Y-66018739D01*
X172317661Y-66214437D01*
X172540038Y-66434562D01*
X172782472Y-66672527D01*
X172810849Y-66700261D01*
X173090482Y-66972487D01*
X173317494Y-67191015D01*
X173496620Y-67360042D01*
X173632590Y-67483761D01*
X173730138Y-67566367D01*
X173793997Y-67612055D01*
X173828898Y-67625019D01*
X173839574Y-67609454D01*
X173839686Y-67603126D01*
X173842604Y-67525896D01*
X173849129Y-67378181D01*
X173858809Y-67169484D01*
X173871195Y-66909308D01*
X173885834Y-66607155D01*
X173902275Y-66272527D01*
X173920066Y-65914929D01*
X173924624Y-65823583D01*
X173941676Y-65476241D01*
X173956878Y-65157820D01*
X173969838Y-64877160D01*
X173980162Y-64643100D01*
X173987458Y-64464481D01*
X173991334Y-64350143D01*
X173991396Y-64308924D01*
X173971707Y-64316926D01*
X173890617Y-64359633D01*
X173756455Y-64433715D01*
X173579558Y-64533204D01*
X173370264Y-64652130D01*
X173138910Y-64784523D01*
X172895834Y-64924414D01*
X172651373Y-65065834D01*
X172415865Y-65202814D01*
X172199648Y-65329385D01*
X172013058Y-65439576D01*
X171866434Y-65527420D01*
X171770113Y-65586945D01*
X171734432Y-65612185D01*
X170516653Y-65612185D01*
X170461431Y-65556928D01*
X170379716Y-65473630D01*
X170351212Y-65441909D01*
X170360634Y-65434393D01*
X170429183Y-65391340D01*
X170557963Y-65314181D01*
X170739684Y-65207098D01*
X170967052Y-65074270D01*
X171232779Y-64919878D01*
X171529572Y-64748103D01*
X171850140Y-64563124D01*
X172187192Y-64369124D01*
X172533437Y-64170281D01*
X172881585Y-63970777D01*
X173224343Y-63774791D01*
X173554420Y-63586506D01*
X173864526Y-63410100D01*
X174147369Y-63249754D01*
X174395658Y-63109650D01*
X174602103Y-62993967D01*
X174759411Y-62906886D01*
X174860292Y-62852587D01*
X174897455Y-62835251D01*
X174897720Y-62867616D01*
X174894508Y-62974905D01*
X174887895Y-63149929D01*
X174878240Y-63385114D01*
X174865900Y-63672883D01*
X174851233Y-64005662D01*
X174837605Y-64308924D01*
X174834596Y-64375874D01*
G37*
G36*
X171825724Y-83926979D02*
G01*
X168554623Y-85636621D01*
X168549390Y-85639357D01*
X168068039Y-85890810D01*
X167607493Y-86131156D01*
X167172943Y-86357701D01*
X166769579Y-86567749D01*
X166402591Y-86758606D01*
X166077170Y-86927575D01*
X165798506Y-87071962D01*
X165571791Y-87189072D01*
X165402214Y-87276210D01*
X165294966Y-87330680D01*
X165255237Y-87349788D01*
X165249369Y-87342581D01*
X165255817Y-87281871D01*
X165284363Y-87178918D01*
X165295926Y-87142176D01*
X165331315Y-87028084D01*
X165388863Y-86841811D01*
X165467491Y-86586868D01*
X165566119Y-86266765D01*
X165683669Y-85885011D01*
X165758800Y-85640907D01*
X166632840Y-85640907D01*
X166649188Y-85669388D01*
X166686521Y-85652243D01*
X166790575Y-85600161D01*
X166954761Y-85516432D01*
X167172659Y-85404373D01*
X167437852Y-85267301D01*
X167743922Y-85108536D01*
X168084451Y-84931393D01*
X168453021Y-84739191D01*
X168843215Y-84535247D01*
X171007754Y-83402640D01*
X171004515Y-77427653D01*
X171004091Y-76744807D01*
X171003450Y-75983146D01*
X171002635Y-75296999D01*
X171001612Y-74682763D01*
X171000341Y-74136836D01*
X170998786Y-73655616D01*
X170996909Y-73235500D01*
X170994674Y-72872885D01*
X170992043Y-72564170D01*
X170988978Y-72305752D01*
X170985443Y-72094028D01*
X170981400Y-71925396D01*
X170976812Y-71796254D01*
X170971642Y-71702998D01*
X170965852Y-71642028D01*
X170959405Y-71609740D01*
X170952263Y-71602532D01*
X170944391Y-71616801D01*
X170940620Y-71628267D01*
X170914297Y-71711800D01*
X170865622Y-71868225D01*
X170795853Y-72093455D01*
X170706248Y-72383401D01*
X170598068Y-72733973D01*
X170472570Y-73141083D01*
X170331014Y-73600642D01*
X170174658Y-74108562D01*
X170004761Y-74660754D01*
X169822581Y-75253128D01*
X169629379Y-75881597D01*
X169426412Y-76542071D01*
X169214939Y-77230461D01*
X168996219Y-77942679D01*
X168771511Y-78674636D01*
X168683477Y-78961434D01*
X168461740Y-79683763D01*
X168246867Y-80383652D01*
X168040089Y-81057100D01*
X167842634Y-81700105D01*
X167655733Y-82308667D01*
X167480614Y-82878784D01*
X167318507Y-83406455D01*
X167170641Y-83887680D01*
X167038246Y-84318455D01*
X166922551Y-84694782D01*
X166824786Y-85012657D01*
X166746179Y-85268081D01*
X166687961Y-85457051D01*
X166651361Y-85575568D01*
X166637608Y-85619628D01*
X166632840Y-85640907D01*
X165758800Y-85640907D01*
X165819060Y-85445117D01*
X165971213Y-84950593D01*
X166139049Y-84404949D01*
X166321487Y-83811695D01*
X166517449Y-83174341D01*
X166725855Y-82496398D01*
X166945625Y-81781374D01*
X167175680Y-81032782D01*
X167414940Y-80254129D01*
X167662326Y-79448927D01*
X167916759Y-78620686D01*
X168177158Y-77772916D01*
X168390808Y-77077396D01*
X168645452Y-76248671D01*
X168892937Y-75443511D01*
X169132207Y-74665345D01*
X169362204Y-73917604D01*
X169581871Y-73203719D01*
X169790150Y-72527122D01*
X169985983Y-71891242D01*
X170168313Y-71299510D01*
X170336082Y-70755358D01*
X170488234Y-70262215D01*
X170623710Y-69823514D01*
X170741454Y-69442684D01*
X170840407Y-69123156D01*
X170919512Y-68868362D01*
X170977712Y-68681731D01*
X171013949Y-68566695D01*
X171027165Y-68526685D01*
X171043106Y-68524676D01*
X171122377Y-68529961D01*
X171247527Y-68544038D01*
X171396040Y-68563822D01*
X171545403Y-68586230D01*
X171673102Y-68608180D01*
X171756624Y-68626588D01*
X171759909Y-68627886D01*
X171768384Y-68635913D01*
X171776129Y-68653229D01*
X171783178Y-68683297D01*
X171789562Y-68729585D01*
X171795313Y-68795558D01*
X171800462Y-68884682D01*
X171805042Y-69000422D01*
X171809084Y-69146244D01*
X171812621Y-69325614D01*
X171815683Y-69541998D01*
X171818304Y-69798860D01*
X171820515Y-70099668D01*
X171822347Y-70447886D01*
X171823833Y-70846981D01*
X171825005Y-71300418D01*
X171825894Y-71811663D01*
X171826532Y-72384181D01*
X171826952Y-73021439D01*
X171827184Y-73726901D01*
X171827261Y-74504034D01*
X171827216Y-75356304D01*
X171827078Y-76287175D01*
X171825817Y-83402640D01*
X171825724Y-83926979D01*
G37*
G36*
X176978191Y-132141842D02*
G01*
X176862629Y-132470113D01*
X176737851Y-132786621D01*
X176573498Y-133101728D01*
X176373077Y-133384072D01*
X176120086Y-133660097D01*
X175874254Y-133886305D01*
X175596113Y-134093596D01*
X175302974Y-134255322D01*
X174969385Y-134387575D01*
X174639257Y-134499544D01*
X145245684Y-134500418D01*
X115852111Y-134501292D01*
X115537122Y-134395989D01*
X115318301Y-134315799D01*
X114972000Y-134148723D01*
X114662066Y-133937208D01*
X114360297Y-133663705D01*
X114217865Y-133512804D01*
X113961154Y-133187634D01*
X113766334Y-132849541D01*
X113620759Y-132478253D01*
X113519225Y-132158122D01*
X113519225Y-90056409D01*
X113519225Y-48145396D01*
X114319386Y-48145396D01*
X114319386Y-90061551D01*
X114319386Y-131977706D01*
X114415280Y-132255351D01*
X114525970Y-132522987D01*
X114742263Y-132875737D01*
X115020106Y-133174298D01*
X115359102Y-133418270D01*
X115758852Y-133607252D01*
X115779320Y-133614871D01*
X115833689Y-133633719D01*
X115890530Y-133649574D01*
X115957080Y-133662747D01*
X116040575Y-133673552D01*
X116148250Y-133682303D01*
X116287342Y-133689312D01*
X116465085Y-133694892D01*
X116688716Y-133699357D01*
X116965471Y-133703020D01*
X117302585Y-133706195D01*
X117707294Y-133709193D01*
X118186834Y-133712328D01*
X120371890Y-133726248D01*
X120371890Y-133721648D01*
X121192315Y-133721648D01*
X130148096Y-133719525D01*
X139103877Y-133717402D01*
X138488368Y-133500335D01*
X137385166Y-133076811D01*
X136199658Y-132539498D01*
X135055424Y-131931351D01*
X133951567Y-131251853D01*
X132887188Y-130500487D01*
X131861389Y-129676734D01*
X131689512Y-129525610D01*
X131442438Y-129298530D01*
X131167539Y-129037539D01*
X130877525Y-128755302D01*
X130585105Y-128464484D01*
X130302988Y-128177749D01*
X130043885Y-127907762D01*
X129820505Y-127667189D01*
X129645557Y-127468694D01*
X129130027Y-126835382D01*
X128354860Y-125781155D01*
X127650658Y-124689119D01*
X127018794Y-123561985D01*
X126460638Y-122402468D01*
X125977562Y-121213278D01*
X125570935Y-119997129D01*
X125242129Y-118756734D01*
X125107420Y-118174210D01*
X124042482Y-118875098D01*
X124037454Y-118878408D01*
X123732149Y-119079254D01*
X123412412Y-119289442D01*
X123094835Y-119498074D01*
X122796012Y-119694253D01*
X122532536Y-119867081D01*
X122321002Y-120005660D01*
X122123622Y-120134941D01*
X121905095Y-120278305D01*
X121707495Y-120408174D01*
X121546747Y-120514081D01*
X121438772Y-120585558D01*
X121213086Y-120735782D01*
X121202701Y-127228715D01*
X121192315Y-133721648D01*
X120371890Y-133721648D01*
X120371890Y-127001192D01*
X120371890Y-120276136D01*
X123817890Y-118022721D01*
X124302642Y-117705731D01*
X125887527Y-117705731D01*
X125898738Y-117807809D01*
X125927813Y-117970187D01*
X125971990Y-118181483D01*
X126028509Y-118430312D01*
X126094609Y-118705290D01*
X126167530Y-118995035D01*
X126244511Y-119288161D01*
X126322792Y-119573286D01*
X126399611Y-119839025D01*
X126472207Y-120073995D01*
X126571534Y-120374488D01*
X127006296Y-121540923D01*
X127506643Y-122665110D01*
X128075595Y-123752503D01*
X128716174Y-124808557D01*
X129431401Y-125838726D01*
X130224297Y-126848465D01*
X130406195Y-127057760D01*
X130637830Y-127309561D01*
X130905667Y-127590243D01*
X131196959Y-127887127D01*
X131498954Y-128187529D01*
X131798902Y-128478767D01*
X132084054Y-128748159D01*
X132341658Y-128983024D01*
X132558966Y-129170679D01*
X133226793Y-129702624D01*
X134276072Y-130456236D01*
X135354217Y-131133485D01*
X136460666Y-131734097D01*
X137594857Y-132257798D01*
X138756227Y-132704314D01*
X139944214Y-133073370D01*
X141158255Y-133364692D01*
X141329073Y-133399645D01*
X141560981Y-133446519D01*
X141764543Y-133487010D01*
X141922423Y-133517678D01*
X142017286Y-133535086D01*
X142035227Y-133536350D01*
X142046208Y-133531203D01*
X142046496Y-133516866D01*
X142033599Y-133490770D01*
X142005021Y-133450346D01*
X141958271Y-133393026D01*
X141890853Y-133316242D01*
X141800276Y-133217424D01*
X141684045Y-133094006D01*
X141539666Y-132943417D01*
X141364646Y-132763090D01*
X141156492Y-132550457D01*
X140912710Y-132302948D01*
X140630806Y-132017995D01*
X140308287Y-131693030D01*
X139942659Y-131325485D01*
X139531429Y-130912791D01*
X139072103Y-130452379D01*
X138562187Y-129941681D01*
X137999189Y-129378129D01*
X137380614Y-128759154D01*
X132579805Y-123955764D01*
X132580042Y-123955527D01*
X133769550Y-123955527D01*
X138652481Y-128838587D01*
X143330635Y-133516866D01*
X143531166Y-133717402D01*
X143535412Y-133721648D01*
X145238449Y-133721648D01*
X146941486Y-133721648D01*
X146992955Y-133670178D01*
X151520643Y-133670178D01*
X151525684Y-133679008D01*
X151556019Y-133686640D01*
X151616378Y-133693169D01*
X151711494Y-133698687D01*
X151846096Y-133703290D01*
X152024917Y-133707071D01*
X152252688Y-133710123D01*
X152534139Y-133712542D01*
X152874002Y-133714420D01*
X153277008Y-133715852D01*
X153747889Y-133716931D01*
X154291375Y-133717752D01*
X154912197Y-133718408D01*
X158451373Y-133721648D01*
X158451373Y-131769900D01*
X158451373Y-129818153D01*
X158153877Y-130060367D01*
X157998360Y-130185732D01*
X157044063Y-130902112D01*
X156050067Y-131558677D01*
X155010402Y-132158681D01*
X153919095Y-132705373D01*
X152770176Y-133202005D01*
X151557674Y-133651829D01*
X151536164Y-133660057D01*
X151520643Y-133670178D01*
X146992955Y-133670178D01*
X147110378Y-133552752D01*
X148357093Y-133552752D01*
X148400716Y-133547733D01*
X148500646Y-133530290D01*
X148506672Y-133529010D01*
X148587438Y-133512630D01*
X148727950Y-133484707D01*
X148910194Y-133448804D01*
X149116155Y-133408487D01*
X149576340Y-133312275D01*
X150712493Y-133020972D01*
X151844345Y-132655604D01*
X152958166Y-132220874D01*
X154040226Y-131721485D01*
X154698858Y-131374403D01*
X155584169Y-130853281D01*
X156458610Y-130278140D01*
X157301542Y-129662736D01*
X158092326Y-129020822D01*
X158451373Y-128712588D01*
X158452298Y-116147409D01*
X158453183Y-104108181D01*
X159272052Y-104108181D01*
X159272052Y-118914914D01*
X159272052Y-131769900D01*
X159272052Y-133721648D01*
X160051579Y-133721648D01*
X160831106Y-133721648D01*
X160841482Y-126698783D01*
X160851105Y-120185270D01*
X161652019Y-120185270D01*
X161652019Y-126953459D01*
X161652019Y-133721648D01*
X167519871Y-133721648D01*
X173387722Y-133721648D01*
X173387722Y-126024367D01*
X173387574Y-125301219D01*
X173387084Y-124533490D01*
X173386270Y-123791806D01*
X173385148Y-123080168D01*
X173383737Y-122402580D01*
X173382053Y-121763041D01*
X173380115Y-121165554D01*
X173377939Y-120614120D01*
X173375543Y-120112742D01*
X173372945Y-119665420D01*
X173370163Y-119276156D01*
X173367213Y-118948952D01*
X173364113Y-118687809D01*
X173360881Y-118496729D01*
X173357535Y-118379714D01*
X173354091Y-118340765D01*
X173342897Y-118346128D01*
X173269417Y-118383230D01*
X173136279Y-118451265D01*
X172952590Y-118545556D01*
X172727458Y-118661424D01*
X172469989Y-118794191D01*
X172189291Y-118939176D01*
X172058113Y-119006898D01*
X171787763Y-119145894D01*
X171545200Y-119269833D01*
X171339434Y-119374158D01*
X171179472Y-119454317D01*
X171074322Y-119505752D01*
X171032990Y-119523909D01*
X171031384Y-119492326D01*
X171029544Y-119381710D01*
X171027692Y-119194274D01*
X171025833Y-118932810D01*
X171023974Y-118600106D01*
X171022120Y-118198953D01*
X171020280Y-117732139D01*
X171018457Y-117202455D01*
X171016659Y-116612689D01*
X171014892Y-115965632D01*
X171013162Y-115264073D01*
X171011475Y-114510802D01*
X171009837Y-113708608D01*
X171008255Y-112860281D01*
X171006735Y-111968610D01*
X171005283Y-111036385D01*
X171003906Y-110066396D01*
X171002609Y-109061432D01*
X171001398Y-108024283D01*
X171000281Y-106957738D01*
X170999263Y-105864587D01*
X170998350Y-104747620D01*
X170997548Y-103609626D01*
X170987238Y-87695342D01*
X168658562Y-88806613D01*
X166329887Y-89917883D01*
X166329887Y-97019477D01*
X166329887Y-104121072D01*
X164935133Y-104774914D01*
X163540380Y-105428756D01*
X163529721Y-112277227D01*
X163519063Y-119125698D01*
X162585541Y-119655484D01*
X161652019Y-120185270D01*
X160851105Y-120185270D01*
X160851858Y-119675918D01*
X161785380Y-119146132D01*
X162718902Y-118616346D01*
X162718902Y-111753130D01*
X162718902Y-104889914D01*
X164113756Y-104236072D01*
X165508611Y-103582229D01*
X165508910Y-96482523D01*
X165509208Y-89382816D01*
X168658562Y-87879365D01*
X171807916Y-86375914D01*
X171818227Y-102276254D01*
X171818938Y-103271275D01*
X171819896Y-104390346D01*
X171821001Y-105485888D01*
X171822245Y-106555115D01*
X171823621Y-107595238D01*
X171825121Y-108603471D01*
X171826737Y-109577025D01*
X171828462Y-110513113D01*
X171830287Y-111408948D01*
X171832206Y-112261741D01*
X171834210Y-113068705D01*
X171836291Y-113827053D01*
X171838443Y-114533997D01*
X171840657Y-115186749D01*
X171842926Y-115782522D01*
X171845241Y-116318527D01*
X171847596Y-116791979D01*
X171849982Y-117200088D01*
X171852392Y-117540067D01*
X171854818Y-117809129D01*
X171857253Y-118004485D01*
X171859688Y-118123349D01*
X171862116Y-118162933D01*
X171873306Y-118157571D01*
X171946775Y-118120473D01*
X172079902Y-118052441D01*
X172263581Y-117958153D01*
X172488706Y-117842288D01*
X172746169Y-117709524D01*
X173026864Y-117564539D01*
X173158036Y-117496821D01*
X173428391Y-117357824D01*
X173670960Y-117233885D01*
X173876736Y-117129558D01*
X174036710Y-117049399D01*
X174141873Y-116997964D01*
X174183217Y-116979806D01*
X174184697Y-116994207D01*
X174187134Y-117081619D01*
X174189497Y-117244964D01*
X174191775Y-117480394D01*
X174193957Y-117784064D01*
X174196030Y-118152127D01*
X174197984Y-118580737D01*
X174199807Y-119066048D01*
X174201487Y-119604213D01*
X174203013Y-120191386D01*
X174204373Y-120823720D01*
X174205556Y-121497370D01*
X174206549Y-122208489D01*
X174207342Y-122953230D01*
X174207922Y-123727748D01*
X174208279Y-124528196D01*
X174208401Y-125350727D01*
X174208454Y-125843503D01*
X174208526Y-126024367D01*
X174208775Y-126653237D01*
X174209376Y-127438558D01*
X174210242Y-128195621D01*
X174211358Y-128920582D01*
X174212712Y-129609598D01*
X174214287Y-130258826D01*
X174216072Y-130864422D01*
X174218050Y-131422542D01*
X174220209Y-131929343D01*
X174222534Y-132380982D01*
X174225010Y-132773613D01*
X174227624Y-133103395D01*
X174230362Y-133366484D01*
X174233210Y-133559035D01*
X174236152Y-133677205D01*
X174239176Y-133717152D01*
X174604555Y-133636954D01*
X174996727Y-133481575D01*
X175341734Y-133265338D01*
X175634155Y-132993434D01*
X175868566Y-132671054D01*
X176039545Y-132303392D01*
X176141670Y-131895638D01*
X176142461Y-131884183D01*
X176144433Y-131798276D01*
X176146340Y-131631732D01*
X176148180Y-131385580D01*
X176149952Y-131060846D01*
X176151657Y-130658559D01*
X176153294Y-130179748D01*
X176154861Y-129625438D01*
X176156358Y-128996659D01*
X176157785Y-128294439D01*
X176159141Y-127519805D01*
X176160425Y-126673785D01*
X176161637Y-125757406D01*
X176162775Y-124771698D01*
X176163840Y-123717687D01*
X176164830Y-122596402D01*
X176165745Y-121408870D01*
X176166585Y-120156120D01*
X176167348Y-118839178D01*
X176168034Y-117459074D01*
X176168642Y-116016834D01*
X176169172Y-114513487D01*
X176169623Y-112950061D01*
X176169994Y-111327584D01*
X176170285Y-109647082D01*
X176170495Y-107909585D01*
X176170623Y-106116120D01*
X176170669Y-104267715D01*
X176170631Y-102365397D01*
X176170510Y-100410196D01*
X176170305Y-98403138D01*
X176170015Y-96345251D01*
X176169639Y-94237564D01*
X176169177Y-92081103D01*
X176168628Y-89876898D01*
X176157512Y-48104362D01*
X176064995Y-47861437D01*
X175957549Y-47613800D01*
X175740611Y-47255941D01*
X175471197Y-46959268D01*
X175144922Y-46719323D01*
X174757404Y-46531646D01*
X174475121Y-46421971D01*
X168720113Y-46410749D01*
X162965105Y-46399528D01*
X162964976Y-50469062D01*
X162964799Y-56063328D01*
X162964220Y-74313819D01*
X162963730Y-89778539D01*
X162963336Y-102228110D01*
X162873553Y-102273839D01*
X161117694Y-103168145D01*
X159272052Y-104108181D01*
X158453183Y-104108181D01*
X158453222Y-103582229D01*
X159703587Y-102946203D01*
X159936496Y-102827096D01*
X160212372Y-102684254D01*
X160456956Y-102555643D01*
X160661840Y-102445784D01*
X160818614Y-102359197D01*
X160918870Y-102300403D01*
X160954197Y-102273923D01*
X160954197Y-102273839D01*
X160928425Y-102224791D01*
X160856747Y-102124049D01*
X160747322Y-101981583D01*
X160608312Y-101807363D01*
X160447879Y-101611362D01*
X160274184Y-101403549D01*
X160095387Y-101193897D01*
X159919650Y-100992375D01*
X159755135Y-100808956D01*
X159591912Y-100634500D01*
X159387061Y-100423804D01*
X159161634Y-100198638D01*
X158923473Y-99966268D01*
X158680420Y-99733963D01*
X158440320Y-99508991D01*
X158211016Y-99298618D01*
X158000350Y-99110114D01*
X157816166Y-98950745D01*
X157666307Y-98827779D01*
X157558616Y-98748484D01*
X157500936Y-98720128D01*
X157494650Y-98723159D01*
X157448190Y-98771580D01*
X157371926Y-98866801D01*
X157278765Y-98992974D01*
X156799653Y-99616566D01*
X156227199Y-100268627D01*
X155597201Y-100904465D01*
X154922092Y-101512267D01*
X154214303Y-102080220D01*
X153486268Y-102596511D01*
X152962211Y-102929503D01*
X152002178Y-103467436D01*
X151019172Y-103927027D01*
X150011545Y-104309012D01*
X148977650Y-104614130D01*
X148520686Y-104730568D01*
X153208889Y-109418905D01*
X157897008Y-114107158D01*
X157897092Y-114107242D01*
X156666492Y-115338354D01*
X155435893Y-116569467D01*
X156666397Y-117800485D01*
X157896579Y-119031179D01*
X157896902Y-119031502D01*
X156666397Y-120262520D01*
X155435893Y-121493538D01*
X156666493Y-122724651D01*
X157896856Y-123955527D01*
X157897093Y-123955764D01*
X153096351Y-128756638D01*
X152596221Y-129257090D01*
X152089740Y-129764543D01*
X151602698Y-130253171D01*
X151138069Y-130719965D01*
X150698828Y-131161915D01*
X150287948Y-131576010D01*
X149908405Y-131959241D01*
X149563172Y-132308597D01*
X149255225Y-132621069D01*
X148987537Y-132893645D01*
X148763083Y-133123317D01*
X148584837Y-133307073D01*
X148455774Y-133441905D01*
X148378868Y-133524801D01*
X148357093Y-133552752D01*
X147110378Y-133552752D01*
X151824417Y-128838587D01*
X156707348Y-123955527D01*
X150972899Y-118221077D01*
X145238449Y-112486628D01*
X139504000Y-118221077D01*
X133769550Y-123955527D01*
X132580042Y-123955527D01*
X133810406Y-122724651D01*
X135041006Y-121493538D01*
X133810501Y-120262520D01*
X132579996Y-119031502D01*
X132580090Y-119031408D01*
X133769598Y-119031408D01*
X134703078Y-119964888D01*
X135636558Y-120898367D01*
X140437503Y-116097553D01*
X145238449Y-111296739D01*
X150029225Y-116087384D01*
X150513885Y-116571924D01*
X151022220Y-117079899D01*
X151512052Y-117569145D01*
X151980342Y-118036637D01*
X152424053Y-118479350D01*
X152840145Y-118894257D01*
X153225581Y-119278334D01*
X153577321Y-119628556D01*
X153892327Y-119941897D01*
X154167561Y-120215332D01*
X154399984Y-120445835D01*
X154586557Y-120630382D01*
X154724242Y-120765947D01*
X154810001Y-120849504D01*
X154840795Y-120878029D01*
X154852066Y-120869563D01*
X154913638Y-120812795D01*
X155022153Y-120708516D01*
X155170546Y-120563642D01*
X155351751Y-120385088D01*
X155558701Y-120179770D01*
X155784330Y-119954604D01*
X156707071Y-119031179D01*
X150972760Y-113296868D01*
X145238449Y-107562557D01*
X139504024Y-113296982D01*
X133769598Y-119031408D01*
X132580090Y-119031408D01*
X133810501Y-117800485D01*
X135041006Y-116569467D01*
X133810406Y-115338354D01*
X132579906Y-114107341D01*
X133769603Y-114107341D01*
X134703080Y-115040819D01*
X135636558Y-115974296D01*
X140437503Y-111173482D01*
X145238449Y-106372668D01*
X150029225Y-111163313D01*
X150513885Y-111647853D01*
X151022220Y-112155828D01*
X151512052Y-112645074D01*
X151980342Y-113112566D01*
X152424053Y-113555279D01*
X152840145Y-113970186D01*
X153225581Y-114354263D01*
X153577321Y-114704485D01*
X153892327Y-115017826D01*
X154167561Y-115291261D01*
X154399984Y-115521764D01*
X154586557Y-115706311D01*
X154724242Y-115841876D01*
X154810001Y-115925433D01*
X154840795Y-115953958D01*
X154852063Y-115945495D01*
X154913630Y-115888731D01*
X155022141Y-115784457D01*
X155170531Y-115639586D01*
X155351732Y-115461036D01*
X155558679Y-115255721D01*
X155784305Y-115030558D01*
X156707021Y-114107158D01*
X152111426Y-109509447D01*
X151606966Y-109004793D01*
X151048197Y-108445961D01*
X150542419Y-107940388D01*
X150086907Y-107485433D01*
X149678936Y-107078453D01*
X149315779Y-106716806D01*
X148994712Y-106397850D01*
X148713007Y-106118942D01*
X148467941Y-105877441D01*
X148256786Y-105670705D01*
X148076818Y-105496090D01*
X147925310Y-105350957D01*
X147799538Y-105232661D01*
X147696774Y-105138561D01*
X147614294Y-105066015D01*
X147549372Y-105012380D01*
X147499282Y-104975015D01*
X147461299Y-104951278D01*
X147432696Y-104938526D01*
X147410748Y-104934117D01*
X147392730Y-104935409D01*
X147349311Y-104942178D01*
X147224422Y-104957865D01*
X147045405Y-104978023D01*
X146829155Y-105000778D01*
X146592569Y-105024253D01*
X146489569Y-105033277D01*
X146143398Y-105054185D01*
X145749117Y-105066699D01*
X145325286Y-105071076D01*
X144890464Y-105067576D01*
X144463209Y-105056456D01*
X144062081Y-105037975D01*
X143705638Y-105012392D01*
X143412439Y-104979965D01*
X142961066Y-104916759D01*
X138365334Y-109512050D01*
X133769603Y-114107341D01*
X132579906Y-114107341D01*
X132579807Y-114107242D01*
X137269947Y-109416968D01*
X141960087Y-104726694D01*
X141639898Y-104652753D01*
X141473972Y-104610453D01*
X141218191Y-104536924D01*
X140920687Y-104445027D01*
X140600484Y-104341095D01*
X140276607Y-104231459D01*
X139968082Y-104122450D01*
X139693932Y-104020400D01*
X139473183Y-103931640D01*
X139385063Y-103893770D01*
X138367457Y-103408947D01*
X137396951Y-102857112D01*
X136474915Y-102239330D01*
X135602720Y-101556667D01*
X134781736Y-100810188D01*
X134013333Y-100000960D01*
X133298883Y-99130048D01*
X133181030Y-98979111D01*
X133078696Y-98854950D01*
X133003336Y-98771045D01*
X132965907Y-98740226D01*
X132932704Y-98752776D01*
X132839441Y-98815440D01*
X132700826Y-98924657D01*
X132524541Y-99073616D01*
X132318263Y-99255508D01*
X132089673Y-99463520D01*
X131846449Y-99690843D01*
X131596272Y-99930665D01*
X131346820Y-100176176D01*
X131222019Y-100301593D01*
X130551855Y-101008462D01*
X129943068Y-101713317D01*
X129381060Y-102434723D01*
X128851231Y-103191246D01*
X128338985Y-104001450D01*
X128086268Y-104420671D01*
X128086268Y-110324975D01*
X128086268Y-116229278D01*
X126996756Y-116940151D01*
X126853925Y-117033479D01*
X126597923Y-117201466D01*
X126368989Y-117352606D01*
X126175475Y-117481332D01*
X126025734Y-117582073D01*
X125928120Y-117649262D01*
X125890986Y-117677330D01*
X125887527Y-117705731D01*
X124302642Y-117705731D01*
X127263890Y-115769305D01*
X127264740Y-96110242D01*
X127264981Y-90531184D01*
X128092125Y-90531184D01*
X128092307Y-91606623D01*
X128092702Y-92664501D01*
X128093307Y-93691918D01*
X128094125Y-94675972D01*
X128095155Y-95603760D01*
X128096397Y-96462383D01*
X128106785Y-102781147D01*
X128463499Y-102278942D01*
X128844311Y-101760037D01*
X129665773Y-100743829D01*
X130551762Y-99777215D01*
X131499916Y-98862695D01*
X132507874Y-98002764D01*
X132502670Y-97986866D01*
X132464953Y-97914040D01*
X132398635Y-97796333D01*
X132312268Y-97649207D01*
X132308382Y-97642693D01*
X131851879Y-96804630D01*
X131446041Y-95910108D01*
X131094481Y-94969842D01*
X130800811Y-93994545D01*
X130568643Y-92994932D01*
X130401588Y-91981717D01*
X130388114Y-91867838D01*
X130361008Y-91558588D01*
X130339127Y-91195075D01*
X130322864Y-90796518D01*
X130320258Y-90691183D01*
X131145705Y-90691183D01*
X131224306Y-91742626D01*
X131380329Y-92780066D01*
X131612530Y-93799672D01*
X131919663Y-94797612D01*
X132300484Y-95770056D01*
X132753747Y-96713173D01*
X133278207Y-97623131D01*
X133536702Y-98002764D01*
X133872619Y-98496101D01*
X134535737Y-99328251D01*
X135266318Y-100115750D01*
X135644023Y-100480064D01*
X136458033Y-101182227D01*
X137315478Y-101815661D01*
X138213512Y-102379072D01*
X139149288Y-102871167D01*
X140119959Y-103290653D01*
X141122679Y-103636238D01*
X142154602Y-103906628D01*
X143212880Y-104100531D01*
X144294669Y-104216654D01*
X144626738Y-104235905D01*
X145677809Y-104243555D01*
X146725730Y-104171530D01*
X147764960Y-104021421D01*
X148789959Y-103794819D01*
X149795185Y-103493317D01*
X150775100Y-103118506D01*
X151724162Y-102671976D01*
X152636830Y-102155321D01*
X153507566Y-101570132D01*
X153891210Y-101280494D01*
X154718553Y-100584107D01*
X155484186Y-99835971D01*
X156186275Y-99039074D01*
X156822987Y-98196403D01*
X157392488Y-97310948D01*
X157892943Y-96385696D01*
X158322520Y-95423636D01*
X158679385Y-94427755D01*
X158961704Y-93401043D01*
X159167643Y-92346486D01*
X159251146Y-91725628D01*
X159331126Y-90657670D01*
X159331193Y-89596054D01*
X159252592Y-88544611D01*
X159096569Y-87507171D01*
X158864368Y-86487566D01*
X158557235Y-85489625D01*
X158176414Y-84517181D01*
X157723152Y-83574065D01*
X157198692Y-82664106D01*
X156943659Y-82289557D01*
X157956599Y-82289557D01*
X158163647Y-82636378D01*
X158621025Y-83474725D01*
X159028154Y-84370655D01*
X159380734Y-85312335D01*
X159675177Y-86289131D01*
X159907898Y-87290405D01*
X160075310Y-88305520D01*
X160088784Y-88419399D01*
X160115890Y-88728649D01*
X160137771Y-89092162D01*
X160154034Y-89490719D01*
X160156640Y-89596054D01*
X160164286Y-89905101D01*
X160168134Y-90316088D01*
X160165184Y-90704461D01*
X160155043Y-91051001D01*
X160137318Y-91336488D01*
X160015057Y-92365441D01*
X159808882Y-93463156D01*
X159527428Y-94529317D01*
X159170961Y-95563048D01*
X158739751Y-96563475D01*
X158234067Y-97529725D01*
X157964107Y-98001615D01*
X158094897Y-98104192D01*
X158452168Y-98396456D01*
X158901821Y-98792454D01*
X159368425Y-99230079D01*
X159837761Y-99694824D01*
X160295608Y-100172184D01*
X160727749Y-100647656D01*
X161119964Y-101106734D01*
X161458034Y-101534913D01*
X161537956Y-101638718D01*
X161638102Y-101760740D01*
X161714356Y-101844042D01*
X161754604Y-101874742D01*
X161775539Y-101870372D01*
X161858464Y-101838720D01*
X161970032Y-101786624D01*
X162144427Y-101699017D01*
X162144427Y-89778539D01*
X162144423Y-89590442D01*
X162144257Y-88532811D01*
X162143851Y-87509180D01*
X162143214Y-86522219D01*
X162142354Y-85574598D01*
X162141278Y-84668988D01*
X162139996Y-83808059D01*
X162138514Y-82994482D01*
X162136842Y-82230927D01*
X162134987Y-81520065D01*
X162132958Y-80864566D01*
X162130762Y-80267101D01*
X162128408Y-79730339D01*
X162125905Y-79256953D01*
X162123259Y-78849611D01*
X162120479Y-78510985D01*
X162117574Y-78243744D01*
X162114552Y-78050560D01*
X162111420Y-77934103D01*
X162108187Y-77897044D01*
X162082296Y-77929050D01*
X162013045Y-78018696D01*
X161910618Y-78153155D01*
X161783770Y-78320924D01*
X161641257Y-78510501D01*
X161578365Y-78593758D01*
X161386655Y-78841963D01*
X161180138Y-79102775D01*
X160979822Y-79349856D01*
X160806714Y-79556866D01*
X160785680Y-79581365D01*
X160499402Y-79902549D01*
X160172016Y-80250763D01*
X159816857Y-80613101D01*
X159447259Y-80976661D01*
X159076554Y-81328536D01*
X158718077Y-81655823D01*
X158385162Y-81945617D01*
X158091143Y-82185013D01*
X157956599Y-82289557D01*
X156943659Y-82289557D01*
X156604280Y-81791136D01*
X155941161Y-80958986D01*
X155210580Y-80171488D01*
X154971988Y-79938286D01*
X154165554Y-79223599D01*
X153315018Y-78577282D01*
X152423159Y-78000750D01*
X151492757Y-77495420D01*
X150526592Y-77062706D01*
X149527443Y-76704025D01*
X148498092Y-76420792D01*
X147441316Y-76214425D01*
X146820458Y-76130922D01*
X145752501Y-76050942D01*
X144690885Y-76050875D01*
X143639441Y-76129476D01*
X142602002Y-76285499D01*
X141582396Y-76517700D01*
X140584456Y-76824833D01*
X139612012Y-77205653D01*
X138668895Y-77658916D01*
X137758936Y-78183376D01*
X136885967Y-78777788D01*
X136053817Y-79440907D01*
X135266318Y-80171488D01*
X135033116Y-80410080D01*
X134318430Y-81216513D01*
X133672113Y-82067049D01*
X133095581Y-82958908D01*
X132590250Y-83889310D01*
X132157536Y-84855476D01*
X131798855Y-85854624D01*
X131515623Y-86883976D01*
X131309255Y-87940751D01*
X131225753Y-88561610D01*
X131145773Y-89629567D01*
X131145705Y-90691183D01*
X130320258Y-90691183D01*
X130312612Y-90382137D01*
X130308765Y-89971150D01*
X130311715Y-89582776D01*
X130321855Y-89236237D01*
X130339580Y-88950750D01*
X130455797Y-87962289D01*
X130658062Y-86868209D01*
X130934519Y-85805921D01*
X131284556Y-84777442D01*
X131707558Y-83784791D01*
X132202909Y-82829986D01*
X132228071Y-82785632D01*
X132326514Y-82610762D01*
X132407695Y-82464469D01*
X132463780Y-82360970D01*
X132486935Y-82314481D01*
X132462644Y-82277912D01*
X132386412Y-82200643D01*
X132270176Y-82094476D01*
X132125995Y-81970892D01*
X131794682Y-81688454D01*
X130884154Y-80844888D01*
X130017657Y-79941520D01*
X129206884Y-78991010D01*
X128463530Y-78006019D01*
X128106785Y-77501538D01*
X128096397Y-83822578D01*
X128095483Y-84432264D01*
X128094394Y-85342135D01*
X128093516Y-86311854D01*
X128092851Y-87328520D01*
X128092397Y-88379231D01*
X128092155Y-89451086D01*
X128092125Y-90531184D01*
X127264981Y-90531184D01*
X127265581Y-76659378D01*
X128566573Y-76659378D01*
X128592422Y-76702601D01*
X128723079Y-76907047D01*
X128893849Y-77158445D01*
X129095152Y-77443723D01*
X129317405Y-77749811D01*
X129551028Y-78063638D01*
X129786438Y-78372132D01*
X130014055Y-78662223D01*
X130224297Y-78920840D01*
X130244529Y-78944999D01*
X130427838Y-79153928D01*
X130658068Y-79403078D01*
X130922532Y-79679788D01*
X131208548Y-79971401D01*
X131503430Y-80265257D01*
X131794494Y-80548695D01*
X132069056Y-80809058D01*
X132314430Y-81033685D01*
X132517932Y-81209917D01*
X132562912Y-81247078D01*
X132717257Y-81372664D01*
X132845766Y-81474307D01*
X132936112Y-81542385D01*
X132975962Y-81567280D01*
X132982244Y-81564226D01*
X133028702Y-81515736D01*
X133104968Y-81420461D01*
X133198133Y-81294264D01*
X133677246Y-80670671D01*
X134249699Y-80018610D01*
X134879697Y-79382772D01*
X135554806Y-78774970D01*
X136262595Y-78207017D01*
X136990630Y-77690726D01*
X137514687Y-77357735D01*
X138474720Y-76819802D01*
X139457727Y-76360211D01*
X140465353Y-75978225D01*
X141499248Y-75673107D01*
X141941009Y-75560544D01*
X148516812Y-75560544D01*
X148837000Y-75634485D01*
X149002926Y-75676785D01*
X149258707Y-75750313D01*
X149556212Y-75842210D01*
X149876415Y-75946142D01*
X150200291Y-76055779D01*
X150508816Y-76164788D01*
X150782966Y-76266838D01*
X151003716Y-76355597D01*
X151241121Y-76459042D01*
X152251428Y-76952794D01*
X153213016Y-77512373D01*
X154125304Y-78137388D01*
X154987713Y-78827449D01*
X155799661Y-79582165D01*
X155803213Y-79585720D01*
X156113756Y-79907599D01*
X156434893Y-80260036D01*
X156748419Y-80622016D01*
X157036125Y-80972525D01*
X157279806Y-81290549D01*
X157313933Y-81336767D01*
X157404275Y-81454566D01*
X157472261Y-81536576D01*
X157505249Y-81567280D01*
X157514818Y-81564810D01*
X157582788Y-81521864D01*
X157698693Y-81431258D01*
X157854176Y-81300484D01*
X158040881Y-81137038D01*
X158250453Y-80948412D01*
X158474535Y-80742100D01*
X158704772Y-80525597D01*
X158932806Y-80306396D01*
X159150283Y-80091991D01*
X159385147Y-79854242D01*
X159920594Y-79286741D01*
X160407030Y-78729770D01*
X160860966Y-78163081D01*
X161298911Y-77566428D01*
X161737378Y-76919565D01*
X162144427Y-76297658D01*
X162144427Y-66180493D01*
X162144427Y-56063328D01*
X161770544Y-55489661D01*
X161747095Y-55453792D01*
X161409262Y-54956968D01*
X161033343Y-54436304D01*
X160640677Y-53920629D01*
X160252601Y-53438772D01*
X160070703Y-53229477D01*
X159839069Y-52977677D01*
X159571231Y-52696994D01*
X159279939Y-52400111D01*
X158977945Y-52099709D01*
X158677996Y-51808470D01*
X158392845Y-51539078D01*
X158135240Y-51304213D01*
X157917932Y-51116558D01*
X157233773Y-50571955D01*
X156187044Y-49821202D01*
X155112061Y-49147130D01*
X154007568Y-48549077D01*
X152872308Y-48026380D01*
X151705026Y-47578375D01*
X150504464Y-47204399D01*
X150357248Y-47165008D01*
X150137129Y-47109336D01*
X149893216Y-47050316D01*
X149640284Y-46991267D01*
X149393106Y-46935509D01*
X149166454Y-46886363D01*
X148975103Y-46847149D01*
X148833826Y-46821185D01*
X148757396Y-46811793D01*
X148765198Y-46823230D01*
X148823075Y-46886724D01*
X148934084Y-47003150D01*
X149095177Y-47169427D01*
X149303309Y-47382474D01*
X149555432Y-47639211D01*
X149848501Y-47936557D01*
X150179469Y-48271429D01*
X150545290Y-48640748D01*
X150942918Y-49041433D01*
X151369306Y-49470402D01*
X151821407Y-49924575D01*
X152296176Y-50400871D01*
X152790565Y-50896209D01*
X153301530Y-51407507D01*
X157897106Y-56003221D01*
X157896924Y-56003403D01*
X156584415Y-57316392D01*
X155271725Y-58629564D01*
X156584322Y-59942641D01*
X157896918Y-61255719D01*
X157896854Y-61255783D01*
X156666405Y-62486745D01*
X155435893Y-63717771D01*
X156666492Y-64948883D01*
X157896947Y-66179850D01*
X157897092Y-66179995D01*
X153206952Y-70870269D01*
X148520686Y-75556670D01*
X148516812Y-75560544D01*
X141941009Y-75560544D01*
X141956213Y-75556670D01*
X137268010Y-70868332D01*
X132579807Y-66179995D01*
X132579952Y-66179850D01*
X133769648Y-66179850D01*
X138365357Y-70777676D01*
X138869977Y-71282490D01*
X139428741Y-71841316D01*
X139934513Y-72346882D01*
X140390020Y-72801832D01*
X140797986Y-73208808D01*
X141161139Y-73570451D01*
X141482203Y-73889403D01*
X141763904Y-74168308D01*
X142008968Y-74409806D01*
X142220120Y-74616540D01*
X142400087Y-74791153D01*
X142551593Y-74936285D01*
X142677364Y-75054580D01*
X142780127Y-75148679D01*
X142862606Y-75221224D01*
X142927528Y-75274858D01*
X142977617Y-75312222D01*
X143015600Y-75335959D01*
X143044203Y-75348711D01*
X143066150Y-75353120D01*
X143084168Y-75351828D01*
X143127587Y-75345060D01*
X143252476Y-75329373D01*
X143431493Y-75309214D01*
X143647743Y-75286459D01*
X143884330Y-75262984D01*
X143988534Y-75253864D01*
X144334888Y-75232986D01*
X144729218Y-75220503D01*
X145152984Y-75216156D01*
X145587647Y-75219685D01*
X146014665Y-75230833D01*
X146415500Y-75249340D01*
X146771611Y-75274946D01*
X147064459Y-75307394D01*
X147223555Y-75329738D01*
X147375065Y-75351065D01*
X147477956Y-75365608D01*
X147515901Y-75371065D01*
X147527035Y-75359958D01*
X147590124Y-75296912D01*
X147706233Y-75180843D01*
X147872276Y-75014836D01*
X148085167Y-74801979D01*
X148341817Y-74545357D01*
X148639142Y-74248057D01*
X148974054Y-73913166D01*
X149343467Y-73543770D01*
X149744294Y-73142956D01*
X150173448Y-72713809D01*
X150627843Y-72259416D01*
X151104393Y-71782864D01*
X151600011Y-71287239D01*
X152111610Y-70775628D01*
X156707250Y-66179850D01*
X155773795Y-65246395D01*
X154840341Y-64312941D01*
X150039395Y-69113755D01*
X145238449Y-73914570D01*
X140437503Y-69113755D01*
X135636558Y-64312941D01*
X134703103Y-65246395D01*
X133769648Y-66179850D01*
X132579952Y-66179850D01*
X133810406Y-64948883D01*
X135041006Y-63717771D01*
X133810493Y-62486745D01*
X132580044Y-61255783D01*
X133769626Y-61255783D01*
X139493724Y-66979992D01*
X139676163Y-67162424D01*
X140243616Y-67729721D01*
X140794722Y-68280475D01*
X141326704Y-68811918D01*
X141836784Y-69321282D01*
X142322184Y-69805800D01*
X142780128Y-70262705D01*
X143207838Y-70689229D01*
X143602537Y-71082606D01*
X143961447Y-71440067D01*
X144281792Y-71758845D01*
X144560793Y-72036172D01*
X144795675Y-72269283D01*
X144983658Y-72455408D01*
X145121966Y-72591781D01*
X145207823Y-72675634D01*
X145238449Y-72704200D01*
X145241996Y-72701311D01*
X145290392Y-72654959D01*
X145393138Y-72554194D01*
X145547459Y-72401786D01*
X145750576Y-72200500D01*
X145999713Y-71953105D01*
X146292091Y-71662367D01*
X146624934Y-71331055D01*
X146995465Y-70961935D01*
X147400905Y-70557775D01*
X147838478Y-70121342D01*
X148305407Y-69655404D01*
X148798913Y-69162728D01*
X149316221Y-68646081D01*
X149854552Y-68108231D01*
X150411129Y-67551946D01*
X150983175Y-66979992D01*
X156707273Y-61255783D01*
X155691744Y-60240255D01*
X154676215Y-59224726D01*
X149957332Y-63943475D01*
X145238449Y-68662225D01*
X140519566Y-63943475D01*
X135800683Y-59224726D01*
X134785154Y-60240255D01*
X133769626Y-61255783D01*
X132580044Y-61255783D01*
X132579980Y-61255719D01*
X133892577Y-59942641D01*
X135205173Y-58629564D01*
X133892483Y-57316392D01*
X132579974Y-56003403D01*
X133769588Y-56003403D01*
X139493705Y-61727630D01*
X139676160Y-61910078D01*
X140243614Y-62477376D01*
X140794720Y-63028130D01*
X141326702Y-63559573D01*
X141836782Y-64068938D01*
X142322183Y-64553456D01*
X142780127Y-65010362D01*
X143207837Y-65436886D01*
X143602536Y-65830263D01*
X143961447Y-66187724D01*
X144281792Y-66506502D01*
X144560793Y-66783830D01*
X144795675Y-67016940D01*
X144983658Y-67203066D01*
X145121966Y-67339439D01*
X145207823Y-67423292D01*
X145238449Y-67451858D01*
X145241996Y-67448968D01*
X145290394Y-67402614D01*
X145393142Y-67301849D01*
X145547464Y-67149439D01*
X145750582Y-66948152D01*
X145999720Y-66700755D01*
X146292100Y-66410016D01*
X146624944Y-66078703D01*
X146995476Y-65709582D01*
X147400917Y-65305421D01*
X147838491Y-64868987D01*
X148305421Y-64403047D01*
X148798928Y-63910370D01*
X149316237Y-63393723D01*
X149854569Y-62855872D01*
X150411147Y-62299585D01*
X150983193Y-61727630D01*
X156707310Y-56003403D01*
X151906467Y-51202428D01*
X147135682Y-46431513D01*
X150880614Y-46431513D01*
X150951691Y-46450530D01*
X151143860Y-46507982D01*
X151387480Y-46586206D01*
X151665731Y-46679426D01*
X151961796Y-46781866D01*
X152258857Y-46887751D01*
X152540095Y-46991305D01*
X152788691Y-47086754D01*
X153223267Y-47264349D01*
X154373945Y-47794566D01*
X155492599Y-48397885D01*
X156574333Y-49070682D01*
X157614248Y-49809337D01*
X158607447Y-50610226D01*
X159549032Y-51469728D01*
X160434105Y-52384219D01*
X161257768Y-53350079D01*
X161282967Y-53381693D01*
X161448837Y-53592955D01*
X161618543Y-53813712D01*
X161773514Y-54019603D01*
X161895178Y-54186266D01*
X162144427Y-54536670D01*
X162144427Y-50469062D01*
X162144427Y-46401454D01*
X156471486Y-46406214D01*
X156008713Y-46406671D01*
X155350965Y-46407562D01*
X154720295Y-46408699D01*
X154121284Y-46410061D01*
X153558515Y-46411628D01*
X153036571Y-46413379D01*
X152560034Y-46415292D01*
X152133486Y-46417349D01*
X151761512Y-46419526D01*
X151448692Y-46421805D01*
X151199610Y-46424163D01*
X151018848Y-46426581D01*
X150910988Y-46429038D01*
X150880614Y-46431513D01*
X147135682Y-46431513D01*
X147105624Y-46401454D01*
X145238449Y-46401454D01*
X143371274Y-46401454D01*
X143367910Y-46404818D01*
X138570431Y-51202428D01*
X133769588Y-56003403D01*
X132579974Y-56003403D01*
X132579792Y-56003221D01*
X137175437Y-51403957D01*
X137554943Y-51024146D01*
X138124126Y-50454435D01*
X138639421Y-49938491D01*
X139103381Y-49473669D01*
X139518560Y-49057322D01*
X139887508Y-48686806D01*
X140212780Y-48359476D01*
X140496928Y-48072687D01*
X140742503Y-47823793D01*
X140952060Y-47610149D01*
X141128151Y-47429110D01*
X141273328Y-47278032D01*
X141390144Y-47154268D01*
X141481151Y-47055173D01*
X141548903Y-46978103D01*
X141595952Y-46920413D01*
X141624851Y-46879456D01*
X141638151Y-46852589D01*
X141638407Y-46837165D01*
X141628170Y-46830540D01*
X141609994Y-46830068D01*
X141586430Y-46833105D01*
X141585975Y-46833175D01*
X141473347Y-46853430D01*
X141303795Y-46887419D01*
X141100213Y-46930419D01*
X140885500Y-46977707D01*
X140252800Y-47131336D01*
X139049072Y-47487139D01*
X137872413Y-47919187D01*
X136726362Y-48425568D01*
X135614460Y-49004370D01*
X134540245Y-49653681D01*
X133507257Y-50371589D01*
X132519036Y-51156180D01*
X131579121Y-52005544D01*
X131040711Y-52524251D01*
X131040711Y-63736278D01*
X131040711Y-74948304D01*
X129790254Y-75781027D01*
X129603751Y-75905749D01*
X129299525Y-76111857D01*
X129041794Y-76290106D01*
X128835096Y-76437240D01*
X128683968Y-76550002D01*
X128592947Y-76625134D01*
X128566573Y-76659378D01*
X127265581Y-76659378D01*
X127265590Y-76451179D01*
X128741744Y-75470177D01*
X130217898Y-74489176D01*
X130218965Y-60445315D01*
X130220032Y-46401454D01*
X131040711Y-46401454D01*
X131040711Y-48863489D01*
X131040711Y-48863491D01*
X131040923Y-49304563D01*
X131041533Y-49720306D01*
X131042504Y-50103627D01*
X131043798Y-50447433D01*
X131045377Y-50744634D01*
X131047204Y-50988135D01*
X131049241Y-51170846D01*
X131051450Y-51285673D01*
X131053794Y-51325525D01*
X131082400Y-51303875D01*
X131160298Y-51237069D01*
X131274644Y-51135909D01*
X131412841Y-51011415D01*
X132307323Y-50243319D01*
X133343005Y-49454859D01*
X134420293Y-48736316D01*
X135537106Y-48088888D01*
X136691362Y-47513772D01*
X137880979Y-47012168D01*
X139103877Y-46585271D01*
X139678352Y-46404818D01*
X135359532Y-46403136D01*
X131040711Y-46401454D01*
X130220032Y-46401454D01*
X129440388Y-46401454D01*
X128660743Y-46401454D01*
X128660743Y-51687333D01*
X128660743Y-56973212D01*
X128127302Y-57336995D01*
X127593861Y-57700778D01*
X127593861Y-60116704D01*
X127593879Y-60250168D01*
X127594359Y-60753996D01*
X127595576Y-61182152D01*
X127597641Y-61539788D01*
X127600665Y-61832055D01*
X127604759Y-62064105D01*
X127610034Y-62241088D01*
X127616600Y-62368157D01*
X127624568Y-62450462D01*
X127634049Y-62493155D01*
X127645154Y-62501387D01*
X127649860Y-62498344D01*
X127710428Y-62454583D01*
X127819427Y-62372814D01*
X127963004Y-62263504D01*
X128127302Y-62137121D01*
X128157999Y-62113417D01*
X128319552Y-61989447D01*
X128457879Y-61884544D01*
X128559129Y-61809147D01*
X128609451Y-61773698D01*
X128611488Y-61773413D01*
X128618951Y-61791163D01*
X128625669Y-61841594D01*
X128631676Y-61928233D01*
X128637007Y-62054607D01*
X128641695Y-62224245D01*
X128645775Y-62440673D01*
X128649281Y-62707421D01*
X128652246Y-63028014D01*
X128654705Y-63405982D01*
X128656692Y-63844851D01*
X128658242Y-64348149D01*
X128659387Y-64919404D01*
X128660163Y-65562144D01*
X128660604Y-66279895D01*
X128660743Y-67076187D01*
X128660743Y-72409075D01*
X127144623Y-73346541D01*
X125628503Y-74284006D01*
X125616110Y-83121302D01*
X125603716Y-91958598D01*
X122782699Y-93632510D01*
X119961682Y-95306421D01*
X119951358Y-82590360D01*
X119941034Y-69874298D01*
X118771567Y-70782101D01*
X117602100Y-71689905D01*
X117591710Y-65416733D01*
X117581320Y-59143561D01*
X116801807Y-59922264D01*
X116022294Y-60700967D01*
X116022294Y-53568962D01*
X116022294Y-46436957D01*
X115929968Y-46465302D01*
X115863607Y-46486422D01*
X115450727Y-46658066D01*
X115101492Y-46880575D01*
X114813648Y-47156042D01*
X114584944Y-47486560D01*
X114413127Y-47874220D01*
X114319386Y-48145396D01*
X113519225Y-48145396D01*
X113519225Y-47954696D01*
X113624528Y-47639707D01*
X113704718Y-47420885D01*
X113871794Y-47074585D01*
X114083309Y-46764651D01*
X114356812Y-46462882D01*
X114502018Y-46325550D01*
X114825674Y-46068716D01*
X115166959Y-45869698D01*
X115550404Y-45713086D01*
X115878675Y-45601292D01*
X145238449Y-45601292D01*
X174598223Y-45601292D01*
X174926494Y-45716854D01*
X175242339Y-45841342D01*
X175557721Y-46005757D01*
X175840321Y-46206272D01*
X176116601Y-46459397D01*
X176253933Y-46604602D01*
X176510767Y-46928259D01*
X176709785Y-47269544D01*
X176866397Y-47652989D01*
X176978191Y-47981260D01*
X176978191Y-90061551D01*
X176978191Y-104267715D01*
X176978191Y-132141842D01*
G37*
G04 #@! TD*
%LPC*%
G04 #@! TO.C,REF\u002A\u002A*
D11*
X127025000Y-129500000D02*
G75*
G02*
X123975000Y-129500000I-1525000J0D01*
G01*
X123975000Y-129500000D02*
G75*
G02*
X127025000Y-129500000I1525000J0D01*
G01*
G04 #@! TD*
%LPD*%
M02*
