G04 #@! TF.GenerationSoftware,KiCad,Pcbnew,9.0.3*
G04 #@! TF.CreationDate,2025-07-14T03:19:36-04:00*
G04 #@! TF.ProjectId,CHEAPSUITS,43484541-5053-4554-9954-532e6b696361,rev?*
G04 #@! TF.SameCoordinates,Original*
G04 #@! TF.FileFunction,Legend,Top*
G04 #@! TF.FilePolarity,Positive*
%FSLAX46Y46*%
G04 Gerber Fmt 4.6, Leading zero omitted, Abs format (unit mm)*
G04 Created by KiCad (PCBNEW 9.0.3) date 2025-07-14 03:19:36*
%MOMM*%
%LPD*%
G01*
G04 APERTURE LIST*
G04 Aperture macros list*
%AMRoundRect*
0 Rectangle with rounded corners*
0 $1 Rounding radius*
0 $2 $3 $4 $5 $6 $7 $8 $9 X,Y pos of 4 corners*
0 Add a 4 corners polygon primitive as box body*
4,1,4,$2,$3,$4,$5,$6,$7,$8,$9,$2,$3,0*
0 Add four circle primitives for the rounded corners*
1,1,$1+$1,$2,$3*
1,1,$1+$1,$4,$5*
1,1,$1+$1,$6,$7*
1,1,$1+$1,$8,$9*
0 Add four rect primitives between the rounded corners*
20,1,$1+$1,$2,$3,$4,$5,0*
20,1,$1+$1,$4,$5,$6,$7,0*
20,1,$1+$1,$6,$7,$8,$9,0*
20,1,$1+$1,$8,$9,$2,$3,0*%
G04 Aperture macros list end*
%ADD10C,0.000000*%
%ADD11C,0.254000*%
%ADD12C,0.152400*%
%ADD13RoundRect,0.050800X0.699750X-0.500000X0.699750X0.500000X-0.699750X0.500000X-0.699750X-0.500000X0*%
%ADD14RoundRect,0.050800X0.200000X0.140000X-0.200000X0.140000X-0.200000X-0.140000X0.200000X-0.140000X0*%
%ADD15RoundRect,0.050800X0.200000X0.110000X-0.200000X0.110000X-0.200000X-0.110000X0.200000X-0.110000X0*%
%ADD16RoundRect,0.050800X-0.110000X0.200000X-0.110000X-0.200000X0.110000X-0.200000X0.110000X0.200000X0*%
%ADD17RoundRect,0.050800X0.400000X0.450000X-0.400000X0.450000X-0.400000X-0.450000X0.400000X-0.450000X0*%
%ADD18RoundRect,0.050800X0.403250X0.432000X-0.403250X0.432000X-0.403250X-0.432000X0.403250X-0.432000X0*%
G04 APERTURE END LIST*
D10*
G04 #@! TO.C,G\u002A\u002A\u002A*
G36*
X145809138Y-76453682D02*
G01*
X146214862Y-76463345D01*
X146586358Y-76479420D01*
X146907017Y-76501915D01*
X147137885Y-76527583D01*
X148203977Y-76716033D01*
X149228073Y-76974515D01*
X150214579Y-77304884D01*
X151167898Y-77708999D01*
X152092436Y-78188715D01*
X152992596Y-78745890D01*
X153828617Y-79348209D01*
X154047656Y-79527202D01*
X154306920Y-79755505D01*
X154592892Y-80019788D01*
X154892053Y-80306723D01*
X155190885Y-80602980D01*
X155475872Y-80895230D01*
X155733496Y-81170146D01*
X155950238Y-81414398D01*
X156065638Y-81553983D01*
X156706909Y-82425973D01*
X157272378Y-83330226D01*
X157762444Y-84267679D01*
X158177508Y-85239270D01*
X158517971Y-86245936D01*
X158784232Y-87288615D01*
X158976694Y-88368243D01*
X158976747Y-88368617D01*
X159005334Y-88630955D01*
X159027571Y-88958709D01*
X159043449Y-89335272D01*
X159052956Y-89744036D01*
X159056084Y-90168395D01*
X159052821Y-90591740D01*
X159043157Y-90997464D01*
X159027083Y-91368959D01*
X159004588Y-91689619D01*
X158978920Y-91920487D01*
X158790470Y-92986579D01*
X158531988Y-94010675D01*
X158201618Y-94997181D01*
X157797504Y-95950500D01*
X157317787Y-96875038D01*
X156760612Y-97775198D01*
X156158294Y-98611219D01*
X155979300Y-98830258D01*
X155750997Y-99089522D01*
X155486714Y-99375493D01*
X155199780Y-99674654D01*
X154903523Y-99973487D01*
X154611272Y-100258474D01*
X154336356Y-100516097D01*
X154092105Y-100732840D01*
X153952520Y-100848240D01*
X153078363Y-101490522D01*
X152169645Y-102057807D01*
X151227062Y-102549797D01*
X150251312Y-102966193D01*
X149243092Y-103306699D01*
X148203099Y-103571014D01*
X147158536Y-103755170D01*
X146905327Y-103782715D01*
X146587091Y-103805287D01*
X146221253Y-103822672D01*
X145825237Y-103834654D01*
X145416470Y-103841018D01*
X145012375Y-103841549D01*
X144630378Y-103836032D01*
X144287904Y-103824251D01*
X144002377Y-103805992D01*
X143895772Y-103795452D01*
X142821611Y-103632540D01*
X141778638Y-103393152D01*
X140767278Y-103077475D01*
X140706394Y-103053118D01*
X142812692Y-103053118D01*
X142833575Y-103082476D01*
X142892464Y-103106878D01*
X143003059Y-103131565D01*
X143179061Y-103161775D01*
X143221791Y-103168696D01*
X144033501Y-103278229D01*
X144806853Y-103336973D01*
X145567596Y-103346230D01*
X146187967Y-103318636D01*
X146385966Y-103302788D01*
X146615228Y-103280699D01*
X146861599Y-103254160D01*
X147110923Y-103224958D01*
X147349046Y-103194883D01*
X147561813Y-103165723D01*
X147735071Y-103139268D01*
X147854665Y-103117306D01*
X147906439Y-103101625D01*
X147906642Y-103101432D01*
X147901430Y-103060162D01*
X147882100Y-102948476D01*
X147850715Y-102776960D01*
X147809338Y-102556200D01*
X147760032Y-102296781D01*
X147704860Y-102009289D01*
X147645883Y-101704310D01*
X147585165Y-101392429D01*
X147524769Y-101084232D01*
X147466757Y-100790305D01*
X147413192Y-100521234D01*
X147366137Y-100287604D01*
X147327654Y-100100000D01*
X147299806Y-99969009D01*
X147284656Y-99905217D01*
X147282984Y-99900853D01*
X147241058Y-99902769D01*
X147135564Y-99916994D01*
X146984189Y-99940967D01*
X146864973Y-99961371D01*
X146643193Y-99990267D01*
X146356320Y-100012408D01*
X146021585Y-100027793D01*
X145656219Y-100036424D01*
X145277452Y-100038299D01*
X144902518Y-100033420D01*
X144548646Y-100021785D01*
X144233069Y-100003395D01*
X143973016Y-99978250D01*
X143858928Y-99961371D01*
X143686742Y-99932273D01*
X143548663Y-99911189D01*
X143462308Y-99900677D01*
X143442133Y-99900853D01*
X143432524Y-99942519D01*
X143408746Y-100056242D01*
X143372616Y-100233038D01*
X143325948Y-100463924D01*
X143270559Y-100739917D01*
X143208262Y-101052033D01*
X143140874Y-101391288D01*
X143135249Y-101419674D01*
X143066843Y-101764530D01*
X143002853Y-102086266D01*
X142945199Y-102375296D01*
X142895800Y-102622035D01*
X142856576Y-102816896D01*
X142829445Y-102950295D01*
X142816328Y-103012646D01*
X142816112Y-103013565D01*
X142812692Y-103053118D01*
X140706394Y-103053118D01*
X139787958Y-102685691D01*
X138841101Y-102217985D01*
X137927133Y-101674543D01*
X137046479Y-101055548D01*
X136420324Y-100552213D01*
X136212500Y-100366840D01*
X135967363Y-100133739D01*
X135700294Y-99868796D01*
X135426675Y-99587892D01*
X135161887Y-99306913D01*
X134921312Y-99041743D01*
X134720331Y-98808263D01*
X134660706Y-98735121D01*
X134022905Y-97872722D01*
X133793814Y-97507352D01*
X134417235Y-97507352D01*
X134442364Y-97563676D01*
X134512881Y-97673676D01*
X134621481Y-97827418D01*
X134760857Y-98014967D01*
X134923705Y-98226389D01*
X135102718Y-98451749D01*
X135197194Y-98568004D01*
X135465426Y-98880257D01*
X135775530Y-99216111D01*
X136106340Y-99554086D01*
X136436690Y-99872700D01*
X136745415Y-100150470D01*
X136812682Y-100207617D01*
X137002483Y-100363691D01*
X137203186Y-100523496D01*
X137403375Y-100678514D01*
X137591636Y-100820226D01*
X137756551Y-100940116D01*
X137886706Y-101029665D01*
X137970684Y-101080356D01*
X137993381Y-101088596D01*
X138025457Y-101055495D01*
X138097820Y-100960809D01*
X138205298Y-100811921D01*
X138342719Y-100616217D01*
X138504915Y-100381079D01*
X138686712Y-100113891D01*
X138882941Y-99822038D01*
X138935769Y-99742902D01*
X139133185Y-99445974D01*
X139314916Y-99171157D01*
X139476133Y-98925867D01*
X139612004Y-98717521D01*
X139717699Y-98553534D01*
X139788389Y-98441325D01*
X139819241Y-98388309D01*
X139820111Y-98385101D01*
X139783922Y-98357552D01*
X139694206Y-98290279D01*
X139563733Y-98192832D01*
X139405271Y-98074762D01*
X139373333Y-98050992D01*
X139110976Y-97841616D01*
X138817530Y-97583553D01*
X138509279Y-97293075D01*
X138202505Y-96986457D01*
X137913492Y-96679973D01*
X137658524Y-96389896D01*
X137454379Y-96133170D01*
X137334125Y-95970671D01*
X137232553Y-95833837D01*
X137159201Y-95735487D01*
X137123607Y-95688438D01*
X137121932Y-95686392D01*
X137085028Y-95704014D01*
X136989000Y-95762453D01*
X136842771Y-95855698D01*
X136655264Y-95977743D01*
X136435404Y-96122580D01*
X136192114Y-96284199D01*
X135934319Y-96456594D01*
X135670941Y-96633757D01*
X135410905Y-96809679D01*
X135163134Y-96978352D01*
X134936552Y-97133768D01*
X134740084Y-97269920D01*
X134582651Y-97380799D01*
X134473180Y-97460398D01*
X134420592Y-97502708D01*
X134417235Y-97507352D01*
X133793814Y-97507352D01*
X133458703Y-96972895D01*
X132968284Y-96036072D01*
X132551835Y-95062687D01*
X132209538Y-94053170D01*
X131941580Y-93007955D01*
X131748146Y-91927474D01*
X131747154Y-91920487D01*
X131718567Y-91658149D01*
X131696329Y-91330395D01*
X131680452Y-90953832D01*
X131670944Y-90545068D01*
X131667817Y-90120709D01*
X131668493Y-90033010D01*
X132168054Y-90033010D01*
X132195406Y-91054755D01*
X132297552Y-92061791D01*
X132358160Y-92450343D01*
X132385161Y-92591499D01*
X132410624Y-92667375D01*
X132443761Y-92694589D01*
X132491231Y-92690387D01*
X132550810Y-92677744D01*
X132681840Y-92651100D01*
X132874718Y-92612373D01*
X133119841Y-92563477D01*
X133407608Y-92506327D01*
X133728414Y-92442838D01*
X134072657Y-92374927D01*
X134086828Y-92372136D01*
X134427930Y-92304766D01*
X134742612Y-92242249D01*
X135021887Y-92186397D01*
X135256768Y-92139025D01*
X135438268Y-92101944D01*
X135557401Y-92076968D01*
X135605178Y-92065912D01*
X135605649Y-92065683D01*
X135603733Y-92023714D01*
X135589507Y-91918183D01*
X135565533Y-91766782D01*
X135545131Y-91647574D01*
X135516236Y-91425795D01*
X135494095Y-91138922D01*
X135478709Y-90804187D01*
X135470079Y-90438820D01*
X135468203Y-90060054D01*
X135469318Y-89974353D01*
X136299315Y-89974353D01*
X136299834Y-90204832D01*
X136301990Y-90425875D01*
X136305763Y-90622144D01*
X136311130Y-90778304D01*
X136318069Y-90879017D01*
X136324462Y-90909124D01*
X136374152Y-90915984D01*
X136486226Y-90913147D01*
X136641140Y-90901434D01*
X136734014Y-90891900D01*
X136902230Y-90874779D01*
X137036406Y-90864255D01*
X137117659Y-90861647D01*
X137132884Y-90863995D01*
X137144962Y-90908610D01*
X137165457Y-91016751D01*
X137191079Y-91170178D01*
X137208781Y-91284607D01*
X137244717Y-91497869D01*
X137290419Y-91731599D01*
X137340838Y-91963195D01*
X137390922Y-92170057D01*
X137435622Y-92329584D01*
X137454874Y-92385843D01*
X137444531Y-92420622D01*
X137380964Y-92459758D01*
X137254623Y-92507754D01*
X137083117Y-92561135D01*
X136916831Y-92613643D01*
X136785187Y-92661687D01*
X136705130Y-92698705D01*
X136688780Y-92713848D01*
X136704512Y-92780150D01*
X136747548Y-92906661D01*
X136811645Y-93078199D01*
X136890560Y-93279580D01*
X136978049Y-93495622D01*
X137067871Y-93711144D01*
X137153783Y-93910961D01*
X137229541Y-94079892D01*
X137288903Y-94202753D01*
X137325626Y-94264363D01*
X137326852Y-94265660D01*
X137368072Y-94254957D01*
X137465716Y-94212725D01*
X137603366Y-94146391D01*
X137706003Y-94094134D01*
X137859500Y-94015544D01*
X137981959Y-93954927D01*
X138057528Y-93920007D01*
X138074001Y-93914763D01*
X138096140Y-93951596D01*
X138151349Y-94043727D01*
X138230292Y-94175572D01*
X138289580Y-94274633D01*
X138415211Y-94475538D01*
X138561046Y-94695259D01*
X138700154Y-94893486D01*
X138731087Y-94935446D01*
X138962520Y-95245202D01*
X138846603Y-95348454D01*
X138750712Y-95432066D01*
X138623416Y-95540795D01*
X138526230Y-95622643D01*
X138321773Y-95793580D01*
X138932863Y-96407359D01*
X139543954Y-97021137D01*
X139654822Y-96894566D01*
X139744799Y-96790700D01*
X139857543Y-96659042D01*
X139930893Y-96572684D01*
X140096097Y-96377373D01*
X140420431Y-96622242D01*
X140614401Y-96762201D01*
X140836798Y-96912915D01*
X141045937Y-97046313D01*
X141087164Y-97071226D01*
X141429564Y-97275341D01*
X141248257Y-97623199D01*
X141169872Y-97776036D01*
X141108508Y-97900344D01*
X141072622Y-97978741D01*
X141066808Y-97996088D01*
X141103032Y-98026919D01*
X141202590Y-98081011D01*
X141351515Y-98152508D01*
X141535840Y-98235555D01*
X141741600Y-98324298D01*
X141954828Y-98412880D01*
X142161557Y-98495447D01*
X142347822Y-98566142D01*
X142499656Y-98619111D01*
X142603092Y-98648498D01*
X142632545Y-98652520D01*
X142656602Y-98615546D01*
X142696429Y-98515908D01*
X142745690Y-98370530D01*
X142780164Y-98258182D01*
X142837025Y-98074501D01*
X142880484Y-97959291D01*
X142916411Y-97900702D01*
X142950677Y-97886885D01*
X142962535Y-97890096D01*
X143054414Y-97918422D01*
X143206201Y-97956704D01*
X143396494Y-98000355D01*
X143603888Y-98044789D01*
X143806981Y-98085418D01*
X143984370Y-98117657D01*
X144113874Y-98136830D01*
X144293731Y-98158639D01*
X144405957Y-98180771D01*
X144465006Y-98212780D01*
X144485331Y-98264218D01*
X144481387Y-98344640D01*
X144477470Y-98377162D01*
X144460512Y-98521164D01*
X144441029Y-98695445D01*
X144431435Y-98784706D01*
X144406598Y-99020144D01*
X144667445Y-99037755D01*
X144787647Y-99042347D01*
X144956245Y-99044118D01*
X145157101Y-99043418D01*
X145374075Y-99040595D01*
X145591031Y-99036001D01*
X145791830Y-99029984D01*
X145960335Y-99022893D01*
X146080406Y-99015079D01*
X146135906Y-99006890D01*
X146137438Y-99005921D01*
X146139552Y-98961203D01*
X146133060Y-98853350D01*
X146119293Y-98701231D01*
X146109298Y-98607285D01*
X146092178Y-98439069D01*
X146081653Y-98304893D01*
X146079045Y-98223640D01*
X146081394Y-98208415D01*
X146126008Y-98196338D01*
X146234150Y-98175842D01*
X146387576Y-98150221D01*
X146502005Y-98132518D01*
X146715267Y-98096583D01*
X146948997Y-98050880D01*
X147180594Y-98000462D01*
X147387456Y-97950377D01*
X147546982Y-97905678D01*
X147603241Y-97886425D01*
X147638020Y-97896768D01*
X147677156Y-97960335D01*
X147725152Y-98086676D01*
X147778533Y-98258182D01*
X147831042Y-98424469D01*
X147879086Y-98556112D01*
X147916104Y-98636170D01*
X147931247Y-98652520D01*
X147997548Y-98636787D01*
X148124059Y-98593751D01*
X148295597Y-98529654D01*
X148496978Y-98450740D01*
X148660375Y-98384570D01*
X150903790Y-98384570D01*
X150921413Y-98421474D01*
X150979851Y-98517502D01*
X151073097Y-98663732D01*
X151195142Y-98851238D01*
X151339978Y-99071098D01*
X151501598Y-99314388D01*
X151673993Y-99572184D01*
X151851155Y-99835561D01*
X152027077Y-100095598D01*
X152195750Y-100343368D01*
X152351167Y-100569950D01*
X152487318Y-100766419D01*
X152598198Y-100923851D01*
X152677796Y-101033323D01*
X152720106Y-101085910D01*
X152724751Y-101089268D01*
X152773856Y-101066469D01*
X152871597Y-101005566D01*
X153000364Y-100917796D01*
X153058783Y-100876114D01*
X153619673Y-100444598D01*
X154178006Y-99965683D01*
X154713296Y-99458523D01*
X155205057Y-98942274D01*
X155525626Y-98569650D01*
X155710729Y-98340025D01*
X155883112Y-98119656D01*
X156035511Y-97918421D01*
X156160662Y-97746200D01*
X156251303Y-97612872D01*
X156300168Y-97528317D01*
X156306666Y-97507352D01*
X156273854Y-97478078D01*
X156181364Y-97409620D01*
X156038117Y-97307985D01*
X155853035Y-97179182D01*
X155635036Y-97029216D01*
X155393043Y-96864095D01*
X155135976Y-96689826D01*
X154872754Y-96512416D01*
X154612300Y-96337871D01*
X154363533Y-96172200D01*
X154135374Y-96021409D01*
X153936744Y-95891505D01*
X153776563Y-95788496D01*
X153663752Y-95718387D01*
X153607232Y-95687187D01*
X153602500Y-95686392D01*
X153574950Y-95722580D01*
X153507677Y-95812296D01*
X153410231Y-95942770D01*
X153292160Y-96101231D01*
X153268391Y-96133170D01*
X153059015Y-96395527D01*
X152800951Y-96688972D01*
X152510473Y-96997224D01*
X152203856Y-97303998D01*
X151897371Y-97593010D01*
X151607295Y-97847978D01*
X151350568Y-98052124D01*
X151188069Y-98172377D01*
X151051235Y-98273949D01*
X150952885Y-98347301D01*
X150905837Y-98382895D01*
X150903790Y-98384570D01*
X148660375Y-98384570D01*
X148713021Y-98363250D01*
X148928542Y-98273428D01*
X149128359Y-98187517D01*
X149297290Y-98111758D01*
X149420152Y-98052396D01*
X149481761Y-98015673D01*
X149483058Y-98014447D01*
X149472355Y-97973227D01*
X149430123Y-97875584D01*
X149363790Y-97737933D01*
X149311532Y-97635296D01*
X149232943Y-97481799D01*
X149172325Y-97359340D01*
X149137406Y-97283771D01*
X149132161Y-97267298D01*
X149168994Y-97245160D01*
X149261126Y-97189951D01*
X149392971Y-97111007D01*
X149492032Y-97051720D01*
X149692936Y-96926088D01*
X149912657Y-96780253D01*
X150110884Y-96641145D01*
X150152845Y-96610212D01*
X150462601Y-96378779D01*
X150565853Y-96494696D01*
X150649464Y-96590587D01*
X150758193Y-96717883D01*
X150840042Y-96815070D01*
X151010979Y-97019526D01*
X151624757Y-96408436D01*
X152238536Y-95797345D01*
X152111964Y-95686477D01*
X152008098Y-95596501D01*
X151876440Y-95483756D01*
X151790082Y-95410406D01*
X151594771Y-95245202D01*
X151839641Y-94920868D01*
X151979600Y-94726898D01*
X152130314Y-94504501D01*
X152263711Y-94295363D01*
X152288625Y-94254135D01*
X152492740Y-93911735D01*
X152840597Y-94093042D01*
X152993435Y-94171427D01*
X153117743Y-94232791D01*
X153196139Y-94268677D01*
X153213487Y-94274491D01*
X153244317Y-94238267D01*
X153298409Y-94138709D01*
X153369906Y-93989785D01*
X153452954Y-93805459D01*
X153541696Y-93599699D01*
X153630279Y-93386471D01*
X153712845Y-93179742D01*
X153783541Y-92993477D01*
X153836510Y-92841643D01*
X153865897Y-92738207D01*
X153869918Y-92708754D01*
X153832944Y-92684697D01*
X153733306Y-92644870D01*
X153587929Y-92595609D01*
X153475581Y-92561135D01*
X153291899Y-92504274D01*
X153176689Y-92460816D01*
X153118101Y-92424889D01*
X153104283Y-92390622D01*
X153107494Y-92378764D01*
X153137529Y-92281932D01*
X153177059Y-92125144D01*
X153195485Y-92044259D01*
X155118075Y-92044259D01*
X155118252Y-92064454D01*
X155159683Y-92074161D01*
X155271454Y-92097870D01*
X155442897Y-92133431D01*
X155663345Y-92178689D01*
X155922130Y-92231493D01*
X156208587Y-92289689D01*
X156512048Y-92351126D01*
X156821845Y-92413649D01*
X157127311Y-92475108D01*
X157417781Y-92533348D01*
X157682586Y-92586218D01*
X157911059Y-92631565D01*
X158092533Y-92667235D01*
X158216342Y-92691077D01*
X158271818Y-92700938D01*
X158272730Y-92701037D01*
X158299119Y-92664277D01*
X158331434Y-92558868D01*
X158366046Y-92398208D01*
X158386246Y-92281869D01*
X158510084Y-91301103D01*
X158561532Y-90341324D01*
X158540713Y-89383968D01*
X158447754Y-88410468D01*
X158413875Y-88166597D01*
X158383123Y-87963139D01*
X158355608Y-87791300D01*
X158333909Y-87666459D01*
X158320604Y-87603994D01*
X158318830Y-87599860D01*
X158277560Y-87605073D01*
X158165874Y-87624403D01*
X157994358Y-87655787D01*
X157773598Y-87697164D01*
X157514179Y-87746470D01*
X157226687Y-87801643D01*
X156921708Y-87860619D01*
X156609827Y-87921337D01*
X156301631Y-87981733D01*
X156007704Y-88039745D01*
X155738632Y-88093310D01*
X155505002Y-88140365D01*
X155317398Y-88178848D01*
X155186408Y-88206696D01*
X155122615Y-88221846D01*
X155118252Y-88223519D01*
X155120168Y-88265445D01*
X155134392Y-88370938D01*
X155158365Y-88522314D01*
X155178769Y-88641530D01*
X155207665Y-88863309D01*
X155229806Y-89150182D01*
X155245192Y-89484917D01*
X155253822Y-89850284D01*
X155255698Y-90229050D01*
X155250818Y-90603985D01*
X155239183Y-90957856D01*
X155220794Y-91273434D01*
X155195649Y-91533486D01*
X155178769Y-91647574D01*
X155149671Y-91819772D01*
X155128587Y-91957874D01*
X155118075Y-92044259D01*
X153195485Y-92044259D01*
X153221548Y-91929846D01*
X153266464Y-91717482D01*
X153307270Y-91509498D01*
X153339433Y-91327341D01*
X153358418Y-91192454D01*
X153358504Y-91191634D01*
X153376630Y-91050294D01*
X153396982Y-90940763D01*
X153412008Y-90893793D01*
X153460299Y-90873944D01*
X153574783Y-90870545D01*
X153761965Y-90883537D01*
X153826290Y-90889896D01*
X153996472Y-90904951D01*
X154133836Y-90912314D01*
X154219052Y-90911191D01*
X154236643Y-90906716D01*
X154244641Y-90859101D01*
X154250893Y-90744241D01*
X154255419Y-90577471D01*
X154258242Y-90374127D01*
X154259383Y-90149548D01*
X154258864Y-89919069D01*
X154256707Y-89698026D01*
X154252935Y-89501757D01*
X154247568Y-89345597D01*
X154240628Y-89244884D01*
X154234235Y-89214777D01*
X154184545Y-89207917D01*
X154072471Y-89210754D01*
X153917558Y-89222466D01*
X153824684Y-89232001D01*
X153656467Y-89249121D01*
X153522292Y-89259646D01*
X153441038Y-89262254D01*
X153425813Y-89259906D01*
X153413736Y-89215291D01*
X153393241Y-89107150D01*
X153367619Y-88953723D01*
X153349916Y-88839294D01*
X153313981Y-88626032D01*
X153268279Y-88392302D01*
X153217860Y-88160705D01*
X153167775Y-87953843D01*
X153123076Y-87794317D01*
X153103823Y-87738058D01*
X153114166Y-87703279D01*
X153177733Y-87664143D01*
X153304075Y-87616147D01*
X153475581Y-87562766D01*
X153641867Y-87510258D01*
X153773510Y-87462214D01*
X153853568Y-87425195D01*
X153869918Y-87410053D01*
X153854185Y-87343751D01*
X153811149Y-87217240D01*
X153747053Y-87045702D01*
X153668138Y-86844321D01*
X153580648Y-86628278D01*
X153490826Y-86412757D01*
X153404915Y-86212940D01*
X153329157Y-86044009D01*
X153269795Y-85921147D01*
X153233071Y-85859538D01*
X153231845Y-85858241D01*
X153190625Y-85868944D01*
X153092982Y-85911176D01*
X152955332Y-85977510D01*
X152852694Y-86029767D01*
X152699197Y-86108357D01*
X152576738Y-86168974D01*
X152501169Y-86203893D01*
X152484696Y-86209138D01*
X152462558Y-86172305D01*
X152407349Y-86080173D01*
X152328406Y-85948328D01*
X152269118Y-85849268D01*
X152143487Y-85648363D01*
X151997651Y-85428642D01*
X151858543Y-85230415D01*
X151827611Y-85188454D01*
X151596177Y-84878698D01*
X151712094Y-84775446D01*
X151807985Y-84691835D01*
X151935282Y-84583106D01*
X152032468Y-84501257D01*
X152236925Y-84330320D01*
X151625834Y-83716542D01*
X151014744Y-83102763D01*
X150903876Y-83229335D01*
X150813899Y-83333201D01*
X150701154Y-83464859D01*
X150627804Y-83551217D01*
X150462601Y-83746528D01*
X150138267Y-83501659D01*
X149944296Y-83361700D01*
X149721899Y-83210986D01*
X149512761Y-83077588D01*
X149471533Y-83052674D01*
X149129134Y-82848559D01*
X149310440Y-82500702D01*
X149388825Y-82347865D01*
X149450189Y-82223557D01*
X149486075Y-82145160D01*
X149491889Y-82127812D01*
X149455665Y-82096982D01*
X149356108Y-82042890D01*
X149207183Y-81971393D01*
X149057610Y-81904003D01*
X150903790Y-81904003D01*
X150940006Y-81931519D01*
X151029788Y-81998693D01*
X151160351Y-82095986D01*
X151318909Y-82213857D01*
X151350568Y-82237364D01*
X151585486Y-82424576D01*
X151853443Y-82659422D01*
X152139954Y-82927344D01*
X152430534Y-83213787D01*
X152710695Y-83504193D01*
X152965954Y-83784006D01*
X153181824Y-84038669D01*
X153312174Y-84208583D01*
X153424776Y-84363967D01*
X153518695Y-84491386D01*
X153584217Y-84577816D01*
X153611633Y-84610235D01*
X153611709Y-84610243D01*
X153647230Y-84588127D01*
X153744011Y-84525057D01*
X153894618Y-84425948D01*
X154091619Y-84295718D01*
X154327578Y-84139283D01*
X154595062Y-83961559D01*
X154886636Y-83767462D01*
X154964493Y-83715576D01*
X155261045Y-83516930D01*
X155534883Y-83331630D01*
X155778612Y-83164820D01*
X155984835Y-83021647D01*
X156146158Y-82907255D01*
X156255187Y-82826790D01*
X156304525Y-82785396D01*
X156306666Y-82781752D01*
X156279943Y-82713211D01*
X156204772Y-82593068D01*
X156088646Y-82430491D01*
X155939063Y-82234651D01*
X155763516Y-82014717D01*
X155569501Y-81779859D01*
X155364513Y-81539246D01*
X155156047Y-81302048D01*
X154951599Y-81077435D01*
X154758663Y-80874577D01*
X154695666Y-80810836D01*
X154502518Y-80623658D01*
X154284427Y-80422362D01*
X154050565Y-80214443D01*
X153810099Y-80007396D01*
X153572201Y-79808717D01*
X153346039Y-79625900D01*
X153140784Y-79466442D01*
X152965604Y-79337836D01*
X152829671Y-79247578D01*
X152742152Y-79203164D01*
X152724751Y-79199837D01*
X152695476Y-79232649D01*
X152627018Y-79325139D01*
X152525384Y-79468385D01*
X152396580Y-79653468D01*
X152246614Y-79871466D01*
X152081493Y-80113459D01*
X151907224Y-80370527D01*
X151729814Y-80633748D01*
X151555270Y-80894203D01*
X151389598Y-81142970D01*
X151238807Y-81371129D01*
X151108903Y-81569759D01*
X151005894Y-81729940D01*
X150935785Y-81842750D01*
X150904586Y-81899271D01*
X150903790Y-81904003D01*
X149057610Y-81904003D01*
X149022857Y-81888345D01*
X148817098Y-81799603D01*
X148603870Y-81711021D01*
X148397140Y-81628454D01*
X148210875Y-81557759D01*
X148059042Y-81504790D01*
X147955605Y-81475403D01*
X147926152Y-81471381D01*
X147902095Y-81508355D01*
X147862268Y-81607993D01*
X147813007Y-81753370D01*
X147778533Y-81865718D01*
X147721672Y-82049400D01*
X147678214Y-82164610D01*
X147642287Y-82223199D01*
X147608020Y-82237016D01*
X147596163Y-82233805D01*
X147499331Y-82203770D01*
X147342543Y-82164240D01*
X147147244Y-82119751D01*
X146934880Y-82074836D01*
X146726897Y-82034029D01*
X146544739Y-82001866D01*
X146409852Y-81982881D01*
X146409033Y-81982795D01*
X146267692Y-81964669D01*
X146158161Y-81944317D01*
X146111191Y-81929291D01*
X146091342Y-81881000D01*
X146087944Y-81766516D01*
X146100935Y-81579334D01*
X146107295Y-81515009D01*
X146122350Y-81344828D01*
X146129712Y-81207464D01*
X146128589Y-81122248D01*
X146124114Y-81104656D01*
X146076500Y-81096658D01*
X145961639Y-81090406D01*
X145794869Y-81085880D01*
X145591526Y-81083058D01*
X145366946Y-81081917D01*
X145136467Y-81082435D01*
X144915424Y-81084592D01*
X144719155Y-81088365D01*
X144562996Y-81093732D01*
X144462283Y-81100671D01*
X144432176Y-81107064D01*
X144425315Y-81156754D01*
X144428152Y-81268828D01*
X144439865Y-81423741D01*
X144449399Y-81516616D01*
X144466520Y-81684832D01*
X144477045Y-81819008D01*
X144479652Y-81900261D01*
X144477304Y-81915486D01*
X144432689Y-81927563D01*
X144324548Y-81948059D01*
X144171122Y-81973680D01*
X144056692Y-81991383D01*
X143843430Y-82027318D01*
X143609700Y-82073021D01*
X143378104Y-82123439D01*
X143171242Y-82173524D01*
X143011716Y-82218223D01*
X142955456Y-82237476D01*
X142920677Y-82227133D01*
X142881541Y-82163566D01*
X142833546Y-82037225D01*
X142780164Y-81865718D01*
X142727656Y-81699432D01*
X142679612Y-81567789D01*
X142642594Y-81487731D01*
X142627451Y-81471381D01*
X142561149Y-81487114D01*
X142434638Y-81530150D01*
X142263101Y-81594247D01*
X142061719Y-81673161D01*
X141845677Y-81760651D01*
X141630155Y-81850473D01*
X141430338Y-81936384D01*
X141261407Y-82012142D01*
X141138546Y-82071505D01*
X141076936Y-82108228D01*
X141075639Y-82109454D01*
X141086343Y-82150674D01*
X141128574Y-82248317D01*
X141194908Y-82385967D01*
X141247166Y-82488605D01*
X141325755Y-82642102D01*
X141386373Y-82764561D01*
X141421292Y-82840130D01*
X141426536Y-82856603D01*
X141389704Y-82878741D01*
X141297572Y-82933950D01*
X141165727Y-83012894D01*
X141066666Y-83072181D01*
X140865761Y-83197812D01*
X140646041Y-83343648D01*
X140447813Y-83482756D01*
X140405853Y-83513689D01*
X140096097Y-83745122D01*
X139992845Y-83629205D01*
X139909233Y-83533314D01*
X139800504Y-83406017D01*
X139718656Y-83308831D01*
X139547719Y-83104374D01*
X138933940Y-83715465D01*
X138320162Y-84326555D01*
X138446733Y-84437424D01*
X138550600Y-84527400D01*
X138682257Y-84640145D01*
X138768616Y-84713495D01*
X138963926Y-84878698D01*
X138719057Y-85203032D01*
X138579098Y-85397003D01*
X138428384Y-85619400D01*
X138294986Y-85828538D01*
X138270073Y-85869766D01*
X138065958Y-86212166D01*
X137718100Y-86030859D01*
X137565263Y-85952474D01*
X137440955Y-85891110D01*
X137362559Y-85855224D01*
X137345211Y-85849410D01*
X137314380Y-85885634D01*
X137260289Y-85985192D01*
X137188791Y-86134116D01*
X137105744Y-86318442D01*
X137017001Y-86524202D01*
X136928419Y-86737430D01*
X136845852Y-86944159D01*
X136775157Y-87130424D01*
X136722188Y-87282258D01*
X136692801Y-87385694D01*
X136688780Y-87415147D01*
X136725753Y-87439204D01*
X136825391Y-87479031D01*
X136970769Y-87528292D01*
X137083117Y-87562766D01*
X137266798Y-87619627D01*
X137382008Y-87663085D01*
X137440597Y-87699012D01*
X137454414Y-87733279D01*
X137451203Y-87745137D01*
X137421168Y-87841969D01*
X137381639Y-87998757D01*
X137337149Y-88194055D01*
X137292234Y-88406419D01*
X137251427Y-88614403D01*
X137219264Y-88796560D01*
X137200279Y-88931447D01*
X137200194Y-88932267D01*
X137182067Y-89073607D01*
X137161715Y-89183138D01*
X137146689Y-89230108D01*
X137098398Y-89249957D01*
X136983915Y-89253355D01*
X136796732Y-89240364D01*
X136732407Y-89234005D01*
X136562226Y-89218949D01*
X136424862Y-89211587D01*
X136339646Y-89212710D01*
X136322055Y-89217185D01*
X136314056Y-89264800D01*
X136307805Y-89379660D01*
X136303279Y-89546430D01*
X136300456Y-89749773D01*
X136299315Y-89974353D01*
X135469318Y-89974353D01*
X135473083Y-89685120D01*
X135484717Y-89331248D01*
X135503107Y-89015670D01*
X135528252Y-88755618D01*
X135545131Y-88641530D01*
X135574229Y-88469343D01*
X135595313Y-88331264D01*
X135605825Y-88244909D01*
X135605649Y-88224735D01*
X135563983Y-88215125D01*
X135450261Y-88191348D01*
X135273464Y-88155218D01*
X135042578Y-88108550D01*
X134766585Y-88053160D01*
X134454469Y-87990864D01*
X134115214Y-87923475D01*
X134086828Y-87917851D01*
X133741972Y-87849444D01*
X133420236Y-87785454D01*
X133131206Y-87727800D01*
X132884468Y-87678402D01*
X132689606Y-87639177D01*
X132556207Y-87612047D01*
X132493856Y-87598929D01*
X132492938Y-87598714D01*
X132453388Y-87595289D01*
X132424044Y-87616159D01*
X132399673Y-87675027D01*
X132375042Y-87785597D01*
X132344916Y-87961572D01*
X132338001Y-88004393D01*
X132215563Y-89011307D01*
X132168054Y-90033010D01*
X131668493Y-90033010D01*
X131671080Y-89697364D01*
X131680744Y-89291640D01*
X131696818Y-88920145D01*
X131719313Y-88599485D01*
X131744981Y-88368617D01*
X131933431Y-87302525D01*
X132191913Y-86278429D01*
X132522283Y-85291923D01*
X132926397Y-84338604D01*
X133406114Y-83414066D01*
X133790496Y-82793066D01*
X134424159Y-82793066D01*
X134460140Y-82824098D01*
X134555746Y-82894260D01*
X134701924Y-82997463D01*
X134889622Y-83127620D01*
X135109785Y-83278642D01*
X135353361Y-83444441D01*
X135611296Y-83618927D01*
X135874537Y-83796013D01*
X136134032Y-83969611D01*
X136380727Y-84133631D01*
X136605568Y-84281986D01*
X136799502Y-84408587D01*
X136953477Y-84507345D01*
X137058440Y-84572173D01*
X137105336Y-84596981D01*
X137106541Y-84597012D01*
X137139348Y-84562911D01*
X137211093Y-84474876D01*
X137311798Y-84345532D01*
X137431487Y-84187506D01*
X137455064Y-84155934D01*
X137664736Y-83893462D01*
X137922931Y-83600023D01*
X138213406Y-83291866D01*
X138519917Y-82985242D01*
X138826220Y-82696400D01*
X139116071Y-82441589D01*
X139373227Y-82237059D01*
X139373333Y-82236981D01*
X139535831Y-82116727D01*
X139672665Y-82015155D01*
X139771016Y-81941803D01*
X139818064Y-81906209D01*
X139820111Y-81904534D01*
X139802488Y-81867630D01*
X139744050Y-81771602D01*
X139650804Y-81625372D01*
X139528759Y-81437866D01*
X139383923Y-81218006D01*
X139222303Y-80974716D01*
X139049908Y-80716920D01*
X138872746Y-80453543D01*
X138696824Y-80193506D01*
X138528151Y-79945736D01*
X138372734Y-79719154D01*
X138236582Y-79522685D01*
X138125703Y-79365253D01*
X138046105Y-79255781D01*
X138003795Y-79203194D01*
X137999150Y-79199837D01*
X137930610Y-79226559D01*
X137810466Y-79301731D01*
X137647890Y-79417856D01*
X137452049Y-79567440D01*
X137232115Y-79742987D01*
X136997257Y-79937001D01*
X136756644Y-80141989D01*
X136519446Y-80350455D01*
X136294833Y-80554903D01*
X136091975Y-80747839D01*
X136028235Y-80810836D01*
X135831839Y-81013319D01*
X135624602Y-81237707D01*
X135413595Y-81475261D01*
X135205890Y-81717243D01*
X135008559Y-81954911D01*
X134828674Y-82179529D01*
X134673308Y-82382355D01*
X134549532Y-82554651D01*
X134464419Y-82687678D01*
X134425040Y-82772696D01*
X134424159Y-82793066D01*
X133790496Y-82793066D01*
X133963288Y-82513906D01*
X134565607Y-81677885D01*
X134744601Y-81458846D01*
X134972904Y-81199582D01*
X135237187Y-80913611D01*
X135524121Y-80614450D01*
X135820378Y-80315617D01*
X136112629Y-80030630D01*
X136387544Y-79773007D01*
X136631796Y-79556264D01*
X136771381Y-79440864D01*
X137643372Y-78799593D01*
X138547624Y-78234125D01*
X139485078Y-77744059D01*
X140456668Y-77328995D01*
X140874963Y-77187524D01*
X142817406Y-77187524D01*
X142822135Y-77229255D01*
X142841182Y-77341181D01*
X142872470Y-77512772D01*
X142913926Y-77733496D01*
X142963473Y-77992821D01*
X143019038Y-78280215D01*
X143078544Y-78585146D01*
X143139917Y-78897083D01*
X143201082Y-79205494D01*
X143259962Y-79499846D01*
X143314484Y-79769609D01*
X143362572Y-80004250D01*
X143402151Y-80193238D01*
X143431146Y-80326041D01*
X143447481Y-80392127D01*
X143449897Y-80397560D01*
X143493490Y-80390860D01*
X143600344Y-80372812D01*
X143752387Y-80346501D01*
X143865241Y-80326717D01*
X144084260Y-80298227D01*
X144368469Y-80276406D01*
X144700723Y-80261249D01*
X145063880Y-80252751D01*
X145440796Y-80250904D01*
X145814330Y-80255704D01*
X146167338Y-80267145D01*
X146482677Y-80285221D01*
X146743204Y-80309926D01*
X146864973Y-80327733D01*
X147037159Y-80356831D01*
X147175238Y-80377915D01*
X147261593Y-80388427D01*
X147281767Y-80388251D01*
X147291377Y-80346585D01*
X147315155Y-80232862D01*
X147351285Y-80056066D01*
X147397952Y-79825180D01*
X147453342Y-79549187D01*
X147515639Y-79237071D01*
X147583027Y-78897816D01*
X147588652Y-78869430D01*
X147657058Y-78524574D01*
X147721048Y-78202838D01*
X147778702Y-77913808D01*
X147828101Y-77667070D01*
X147867325Y-77472208D01*
X147894456Y-77338809D01*
X147907573Y-77276458D01*
X147907788Y-77275539D01*
X147911217Y-77235991D01*
X147890355Y-77206656D01*
X147831499Y-77182305D01*
X147720944Y-77157708D01*
X147544986Y-77127635D01*
X147502109Y-77120723D01*
X146524317Y-76996995D01*
X145568252Y-76945113D01*
X144615112Y-76964950D01*
X143646096Y-77056376D01*
X143383996Y-77092627D01*
X143180554Y-77123368D01*
X143008747Y-77150854D01*
X142883948Y-77172511D01*
X142821529Y-77185764D01*
X142817406Y-77187524D01*
X140874963Y-77187524D01*
X141463334Y-76988532D01*
X142506013Y-76722270D01*
X143585642Y-76529809D01*
X143586015Y-76529756D01*
X143848353Y-76501168D01*
X144176107Y-76478931D01*
X144552670Y-76463054D01*
X144961435Y-76453546D01*
X145385793Y-76450419D01*
X145809138Y-76453682D01*
G37*
G36*
X156846490Y-45291729D02*
G01*
X158193567Y-45291819D01*
X159472469Y-45291973D01*
X160685000Y-45292203D01*
X161832962Y-45292523D01*
X162918160Y-45292945D01*
X163942396Y-45293481D01*
X164907475Y-45294143D01*
X165815199Y-45294944D01*
X166667371Y-45295896D01*
X167465796Y-45297012D01*
X168212276Y-45298304D01*
X168908614Y-45299784D01*
X169556615Y-45301465D01*
X170158082Y-45303359D01*
X170714817Y-45305478D01*
X171228624Y-45307836D01*
X171701307Y-45310444D01*
X172134668Y-45313314D01*
X172530512Y-45316460D01*
X172890642Y-45319893D01*
X173216860Y-45323626D01*
X173510971Y-45327671D01*
X173774777Y-45332041D01*
X174010083Y-45336747D01*
X174218691Y-45341804D01*
X174402404Y-45347222D01*
X174563027Y-45353014D01*
X174702362Y-45359193D01*
X174822212Y-45365770D01*
X174924382Y-45372760D01*
X175010675Y-45380172D01*
X175082893Y-45388021D01*
X175142840Y-45396319D01*
X175192320Y-45405077D01*
X175233136Y-45414309D01*
X175267091Y-45424026D01*
X175295989Y-45434242D01*
X175321632Y-45444967D01*
X175345825Y-45456216D01*
X175370371Y-45468000D01*
X175397073Y-45480332D01*
X175427734Y-45493223D01*
X175441484Y-45498529D01*
X175768838Y-45655757D01*
X176098637Y-45876311D01*
X176411676Y-46143802D01*
X176688749Y-46441843D01*
X176908370Y-46750243D01*
X176994406Y-46910182D01*
X177085014Y-47105035D01*
X177156175Y-47281139D01*
X177266828Y-47584064D01*
X177266828Y-90082601D01*
X177266828Y-132581137D01*
X177158504Y-132859569D01*
X177009037Y-133193944D01*
X176831846Y-133486819D01*
X176608365Y-133766201D01*
X176440045Y-133943297D01*
X176166499Y-134195444D01*
X175901217Y-134390280D01*
X175617363Y-134545268D01*
X175339510Y-134659427D01*
X175036585Y-134770081D01*
X145423902Y-134777746D01*
X143529628Y-134778223D01*
X141716220Y-134778647D01*
X139981945Y-134779016D01*
X138325067Y-134779327D01*
X136743852Y-134779577D01*
X135236564Y-134779763D01*
X133801470Y-134779881D01*
X132436833Y-134779928D01*
X131140920Y-134779902D01*
X129911996Y-134779800D01*
X128748326Y-134779617D01*
X127648175Y-134779352D01*
X126609808Y-134779000D01*
X125631491Y-134778560D01*
X124711488Y-134778027D01*
X123848066Y-134777399D01*
X123039489Y-134776672D01*
X122284023Y-134775844D01*
X121579932Y-134774911D01*
X120925482Y-134773871D01*
X120318939Y-134772719D01*
X119758567Y-134771454D01*
X119242632Y-134770072D01*
X118769398Y-134768569D01*
X118337132Y-134766943D01*
X117944098Y-134765191D01*
X117588562Y-134763309D01*
X117268788Y-134761295D01*
X116983043Y-134759145D01*
X116729591Y-134756857D01*
X116506697Y-134754426D01*
X116312627Y-134751850D01*
X116145646Y-134749127D01*
X116004020Y-134746252D01*
X115886013Y-134743223D01*
X115789890Y-134740036D01*
X115713917Y-134736689D01*
X115656360Y-134733178D01*
X115615483Y-134729501D01*
X115589551Y-134725654D01*
X115584064Y-134724370D01*
X115135446Y-134562219D01*
X114723911Y-134330362D01*
X114355951Y-134035821D01*
X114038057Y-133685620D01*
X113776723Y-133286780D01*
X113578441Y-132846323D01*
X113460816Y-132427709D01*
X113457295Y-132405904D01*
X113453901Y-132374216D01*
X113450631Y-132331163D01*
X113447484Y-132275261D01*
X113444456Y-132205028D01*
X113441547Y-132118981D01*
X113438752Y-132015638D01*
X113436071Y-131893515D01*
X113433501Y-131751131D01*
X113431039Y-131587001D01*
X113428683Y-131399645D01*
X113426431Y-131187578D01*
X113424281Y-130949319D01*
X113422230Y-130683384D01*
X113420276Y-130388291D01*
X113418417Y-130062557D01*
X113416650Y-129704700D01*
X113414973Y-129313236D01*
X113413384Y-128886684D01*
X113411880Y-128423560D01*
X113410460Y-127922381D01*
X113409121Y-127381666D01*
X113407860Y-126799930D01*
X113406675Y-126175693D01*
X113405565Y-125507470D01*
X113404526Y-124793779D01*
X113403556Y-124033138D01*
X113402654Y-123224063D01*
X113401816Y-122365073D01*
X113401041Y-121454684D01*
X113400326Y-120491413D01*
X113399669Y-119473779D01*
X113399068Y-118400298D01*
X113398519Y-117269487D01*
X113398022Y-116079865D01*
X113397574Y-114829947D01*
X113397172Y-113518252D01*
X113396814Y-112143297D01*
X113396498Y-110703598D01*
X113396221Y-109197674D01*
X113395982Y-107624042D01*
X113395777Y-105981219D01*
X113395605Y-104267722D01*
X113395463Y-102482068D01*
X113395350Y-100622776D01*
X113395262Y-98688361D01*
X113395197Y-96677342D01*
X113395154Y-94588236D01*
X113395129Y-92419560D01*
X113395121Y-90169831D01*
X113395121Y-90067325D01*
X113395121Y-90061950D01*
X114241788Y-90061950D01*
X114241788Y-132250731D01*
X114336840Y-132519186D01*
X114514704Y-132906230D01*
X114753495Y-133244387D01*
X115045861Y-133527352D01*
X115384455Y-133748821D01*
X115761927Y-133902490D01*
X116018891Y-133962072D01*
X116070806Y-133963892D01*
X116203225Y-133965672D01*
X116414053Y-133967410D01*
X116701192Y-133969105D01*
X117062545Y-133970754D01*
X117496016Y-133972356D01*
X117999507Y-133973908D01*
X118570922Y-133975408D01*
X119208165Y-133976854D01*
X119909137Y-133978245D01*
X120671743Y-133979578D01*
X121493886Y-133980850D01*
X122373469Y-133982061D01*
X123308394Y-133983207D01*
X124296566Y-133984288D01*
X125335887Y-133985300D01*
X126424260Y-133986242D01*
X127559589Y-133987112D01*
X128739777Y-133987907D01*
X129962728Y-133988626D01*
X131226343Y-133989266D01*
X132528527Y-133989826D01*
X133867182Y-133990304D01*
X135240212Y-133990697D01*
X136645521Y-133991003D01*
X138081010Y-133991220D01*
X139544584Y-133991347D01*
X141034145Y-133991381D01*
X142547597Y-133991320D01*
X144082843Y-133991162D01*
X145485853Y-133990934D01*
X174747479Y-133985365D01*
X175015934Y-133890313D01*
X175411434Y-133709195D01*
X175752796Y-133466066D01*
X176037737Y-133163211D01*
X176263973Y-132802916D01*
X176385672Y-132519186D01*
X176482113Y-132250731D01*
X176482113Y-90061950D01*
X176482113Y-47873170D01*
X176387061Y-47604715D01*
X176205943Y-47209215D01*
X175962814Y-46867853D01*
X175659959Y-46582912D01*
X175299664Y-46356676D01*
X175015934Y-46234976D01*
X174747479Y-46138536D01*
X145361950Y-46138536D01*
X115976422Y-46138536D01*
X115707967Y-46233588D01*
X115312467Y-46414705D01*
X114971105Y-46657835D01*
X114686164Y-46960690D01*
X114459928Y-47320985D01*
X114338228Y-47604715D01*
X114241788Y-47873170D01*
X114241788Y-90061950D01*
X113395121Y-90061950D01*
X113395133Y-87791951D01*
X113395170Y-85597752D01*
X113395233Y-83483297D01*
X113395326Y-81447160D01*
X113395449Y-79487913D01*
X113395605Y-77604126D01*
X113395796Y-75794373D01*
X113396024Y-74057225D01*
X113396290Y-72391254D01*
X113396597Y-70795032D01*
X113396946Y-69267132D01*
X113397341Y-67806123D01*
X113397781Y-66410580D01*
X113398271Y-65079073D01*
X113398810Y-63810175D01*
X113399402Y-62602458D01*
X113400049Y-61454493D01*
X113400752Y-60364853D01*
X113401513Y-59332109D01*
X113402335Y-58354833D01*
X113403219Y-57431597D01*
X113404167Y-56560974D01*
X113405182Y-55741535D01*
X113406264Y-54971852D01*
X113407417Y-54250496D01*
X113408642Y-53576041D01*
X113409941Y-52947057D01*
X113411316Y-52362118D01*
X113412769Y-51819793D01*
X113414302Y-51318657D01*
X113415917Y-50857280D01*
X113417616Y-50434234D01*
X113419401Y-50048092D01*
X113421274Y-49697425D01*
X113423236Y-49380806D01*
X113425291Y-49096805D01*
X113427439Y-48843996D01*
X113429682Y-48620950D01*
X113432024Y-48426239D01*
X113434465Y-48258434D01*
X113437008Y-48116109D01*
X113439654Y-47997834D01*
X113442406Y-47902182D01*
X113443520Y-47873170D01*
X113445265Y-47827725D01*
X113448234Y-47773034D01*
X113451314Y-47736682D01*
X113453432Y-47721925D01*
X113585588Y-47244452D01*
X113787833Y-46805574D01*
X114054468Y-46411037D01*
X114379792Y-46066588D01*
X114758105Y-45777974D01*
X115183708Y-45550939D01*
X115650900Y-45391231D01*
X115799152Y-45357135D01*
X115824640Y-45352952D01*
X115860592Y-45348950D01*
X115908790Y-45345125D01*
X115971015Y-45341472D01*
X116049049Y-45337988D01*
X116144673Y-45334670D01*
X116259668Y-45331512D01*
X116395815Y-45328512D01*
X116554896Y-45325664D01*
X116738692Y-45322966D01*
X116948983Y-45320413D01*
X117187552Y-45318002D01*
X117456180Y-45315727D01*
X117756647Y-45313587D01*
X118090736Y-45311576D01*
X118460226Y-45309690D01*
X118866900Y-45307926D01*
X119312539Y-45306280D01*
X119798924Y-45304748D01*
X120327837Y-45303325D01*
X120901058Y-45302009D01*
X121520368Y-45300795D01*
X122187550Y-45299678D01*
X122904384Y-45298656D01*
X123672652Y-45297724D01*
X124494134Y-45296878D01*
X125370613Y-45296115D01*
X126303869Y-45295430D01*
X127295683Y-45294820D01*
X128347837Y-45294280D01*
X129462112Y-45293806D01*
X130640290Y-45293396D01*
X131884151Y-45293044D01*
X133195476Y-45292747D01*
X134576048Y-45292501D01*
X136027647Y-45292301D01*
X137552055Y-45292145D01*
X139151053Y-45292028D01*
X140826421Y-45291946D01*
X142579942Y-45291895D01*
X144413396Y-45291872D01*
X145356576Y-45291869D01*
X147231370Y-45291854D01*
X149025366Y-45291816D01*
X150740367Y-45291769D01*
X152378177Y-45291724D01*
X153940598Y-45291695D01*
X155429435Y-45291692D01*
X156846490Y-45291729D01*
G37*
G36*
X145706030Y-82721415D02*
G01*
X146035545Y-82740576D01*
X146311129Y-82769985D01*
X146329487Y-82772685D01*
X147092347Y-82928286D01*
X147825969Y-83158739D01*
X148525744Y-83460379D01*
X149187061Y-83829541D01*
X149805311Y-84262558D01*
X150375885Y-84755767D01*
X150894173Y-85305500D01*
X151355566Y-85908092D01*
X151755453Y-86559879D01*
X152089225Y-87257194D01*
X152146169Y-87398048D01*
X152249058Y-87690507D01*
X152351394Y-88035013D01*
X152445596Y-88401517D01*
X152524083Y-88759969D01*
X152579275Y-89080321D01*
X152588703Y-89152249D01*
X152613206Y-89436995D01*
X152626393Y-89772007D01*
X152628530Y-90131236D01*
X152619884Y-90488632D01*
X152600723Y-90818147D01*
X152571314Y-91093731D01*
X152568614Y-91112089D01*
X152413013Y-91874949D01*
X152182560Y-92608571D01*
X151880920Y-93308345D01*
X151511759Y-93969663D01*
X151078741Y-94587913D01*
X150585533Y-95158487D01*
X150035799Y-95676775D01*
X149433207Y-96138167D01*
X148781420Y-96538054D01*
X148084105Y-96871826D01*
X147943251Y-96928771D01*
X147650792Y-97031660D01*
X147306286Y-97133996D01*
X146939783Y-97228197D01*
X146581330Y-97306684D01*
X146260979Y-97361877D01*
X146189050Y-97371305D01*
X145942782Y-97392357D01*
X145643071Y-97404629D01*
X145313257Y-97408381D01*
X144976680Y-97403874D01*
X144656679Y-97391366D01*
X144376594Y-97371119D01*
X144194018Y-97349070D01*
X143434489Y-97190112D01*
X142703624Y-96956140D01*
X142006169Y-96650952D01*
X141346871Y-96278342D01*
X140730475Y-95842105D01*
X140161729Y-95346038D01*
X139645379Y-94793936D01*
X139186171Y-94189594D01*
X138788852Y-93536808D01*
X138458168Y-92839373D01*
X138412528Y-92725853D01*
X138309639Y-92433394D01*
X138207304Y-92088888D01*
X138132174Y-91796585D01*
X143709918Y-91796585D01*
X145361950Y-91796585D01*
X147013983Y-91796585D01*
X147013983Y-90144552D01*
X147013983Y-88492520D01*
X145361950Y-88492520D01*
X143709918Y-88492520D01*
X143709918Y-90144552D01*
X143709918Y-91796585D01*
X138132174Y-91796585D01*
X138113102Y-91722384D01*
X138034615Y-91363932D01*
X137979423Y-91043580D01*
X137969994Y-90971652D01*
X137945491Y-90686906D01*
X137932305Y-90351894D01*
X137931072Y-90144552D01*
X137930168Y-89992665D01*
X137938813Y-89635269D01*
X137957974Y-89305754D01*
X137987384Y-89030170D01*
X137990084Y-89011812D01*
X138145684Y-88248952D01*
X138376137Y-87515330D01*
X138677777Y-86815556D01*
X139046939Y-86154238D01*
X139479957Y-85535988D01*
X139973165Y-84965414D01*
X140522898Y-84447126D01*
X141125491Y-83985733D01*
X141777277Y-83585847D01*
X142474592Y-83252075D01*
X142615446Y-83195130D01*
X142907905Y-83092241D01*
X143252411Y-82989905D01*
X143618915Y-82895704D01*
X143977367Y-82817216D01*
X144297719Y-82762024D01*
X144369647Y-82752596D01*
X144654394Y-82728093D01*
X144989406Y-82714906D01*
X145348634Y-82712769D01*
X145706030Y-82721415D01*
G37*
G36*
X129211117Y-128889216D02*
G01*
X129333744Y-128895683D01*
X129393603Y-128905550D01*
X129397112Y-128909162D01*
X129380730Y-128953384D01*
X129335371Y-129063310D01*
X129265064Y-129229504D01*
X129173838Y-129442530D01*
X129065720Y-129692953D01*
X128944740Y-129971338D01*
X128892933Y-130090045D01*
X128390896Y-131238995D01*
X127828193Y-131250412D01*
X127624274Y-131252366D01*
X127453627Y-131249841D01*
X127330999Y-131243374D01*
X127271141Y-131233506D01*
X127267631Y-131229895D01*
X127284013Y-131185672D01*
X127329372Y-131075747D01*
X127399679Y-130909553D01*
X127490906Y-130696527D01*
X127599023Y-130446104D01*
X127720003Y-130167719D01*
X127771810Y-130049011D01*
X128273848Y-128900061D01*
X128836551Y-128888645D01*
X129040470Y-128886690D01*
X129211117Y-128889216D01*
G37*
G36*
X130688338Y-128889216D02*
G01*
X130810965Y-128895683D01*
X130870824Y-128905550D01*
X130874334Y-128909162D01*
X130857951Y-128953384D01*
X130812592Y-129063310D01*
X130742285Y-129229504D01*
X130651059Y-129442530D01*
X130542942Y-129692953D01*
X130421962Y-129971338D01*
X130370155Y-130090045D01*
X129868117Y-131238995D01*
X129305414Y-131250412D01*
X129101495Y-131252366D01*
X128930848Y-131249841D01*
X128808221Y-131243374D01*
X128748362Y-131233506D01*
X128744852Y-131229895D01*
X128761235Y-131185672D01*
X128806594Y-131075747D01*
X128876901Y-130909553D01*
X128968127Y-130696527D01*
X129076244Y-130446104D01*
X129197224Y-130167719D01*
X129249031Y-130049011D01*
X129751069Y-128900061D01*
X130313772Y-128888645D01*
X130517691Y-128886690D01*
X130688338Y-128889216D01*
G37*
G36*
X153325194Y-50452839D02*
G01*
X152760078Y-51633179D01*
X151566933Y-51644053D01*
X150373787Y-51654926D01*
X150610128Y-51161289D01*
X151187167Y-51161289D01*
X151802497Y-51161289D01*
X152417826Y-51161289D01*
X152689482Y-50597073D01*
X152789376Y-50388744D01*
X152880917Y-50196272D01*
X152956091Y-50036618D01*
X153006888Y-49926741D01*
X153019034Y-49899496D01*
X153076930Y-49766136D01*
X152461601Y-49766136D01*
X151846271Y-49766136D01*
X151574615Y-50330352D01*
X151474721Y-50538682D01*
X151383180Y-50731153D01*
X151308006Y-50890807D01*
X151257210Y-51000684D01*
X151245063Y-51027929D01*
X151187167Y-51161289D01*
X150610128Y-51161289D01*
X150938903Y-50474586D01*
X151504019Y-49294246D01*
X152697164Y-49283372D01*
X153890310Y-49272499D01*
X153325194Y-50452839D01*
G37*
G36*
X122975442Y-126827975D02*
G01*
X123493391Y-126828343D01*
X123981506Y-126828934D01*
X124433987Y-126829730D01*
X124845036Y-126830712D01*
X125208855Y-126831861D01*
X125519644Y-126833161D01*
X125771606Y-126834591D01*
X125958941Y-126836135D01*
X126075851Y-126837773D01*
X126116537Y-126839487D01*
X126116540Y-126839501D01*
X126101893Y-126879111D01*
X126060605Y-126984836D01*
X125996651Y-127146649D01*
X125914007Y-127354523D01*
X125816649Y-127598431D01*
X125709756Y-127865349D01*
X125302972Y-128879544D01*
X126489401Y-128879544D01*
X126791783Y-128880564D01*
X127065596Y-128883447D01*
X127300647Y-128887928D01*
X127486744Y-128893743D01*
X127613697Y-128900626D01*
X127671312Y-128908312D01*
X127673688Y-128910320D01*
X127657306Y-128954246D01*
X127611951Y-129063889D01*
X127541650Y-129229825D01*
X127450430Y-129442632D01*
X127342319Y-129692886D01*
X127221344Y-129971164D01*
X127169453Y-130090045D01*
X126667360Y-131238995D01*
X124237047Y-131249579D01*
X121806734Y-131260163D01*
X121971784Y-130931895D01*
X122136835Y-130603626D01*
X119740146Y-130593039D01*
X117343457Y-130582452D01*
X118046916Y-128705150D01*
X118750374Y-126827848D01*
X122433457Y-126827848D01*
X122975442Y-126827975D01*
G37*
G36*
X173178022Y-49274878D02*
G01*
X173442615Y-49278119D01*
X173667927Y-49283145D01*
X173843435Y-49289649D01*
X173958618Y-49297321D01*
X174002952Y-49305855D01*
X174003131Y-49306442D01*
X173991223Y-49350654D01*
X173956974Y-49465985D01*
X173902598Y-49645245D01*
X173830308Y-49881246D01*
X173742317Y-50166797D01*
X173640839Y-50494710D01*
X173528087Y-50857794D01*
X173406274Y-51248860D01*
X173326071Y-51505738D01*
X173199789Y-51910129D01*
X173081164Y-52290564D01*
X172972403Y-52639923D01*
X172875715Y-52951085D01*
X172793309Y-53216931D01*
X172727392Y-53430339D01*
X172680173Y-53584190D01*
X172653861Y-53671362D01*
X172649011Y-53688856D01*
X172609693Y-53693102D01*
X172498597Y-53696944D01*
X172326015Y-53700237D01*
X172102237Y-53702836D01*
X171837554Y-53704595D01*
X171542255Y-53705369D01*
X171479545Y-53705393D01*
X171179293Y-53704372D01*
X170907569Y-53701489D01*
X170674663Y-53697010D01*
X170490864Y-53691202D01*
X170366464Y-53684332D01*
X170311752Y-53676668D01*
X170310078Y-53675041D01*
X170322695Y-53631542D01*
X170358996Y-53517289D01*
X170416654Y-53339363D01*
X170467516Y-53183822D01*
X171007654Y-53183822D01*
X171046324Y-53193941D01*
X171152949Y-53201206D01*
X171313450Y-53205167D01*
X171513750Y-53205372D01*
X171631713Y-53203796D01*
X172255772Y-53192469D01*
X172777809Y-51530595D01*
X172888844Y-51176155D01*
X172991949Y-50845166D01*
X173084558Y-50546000D01*
X173164107Y-50287028D01*
X173228031Y-50076622D01*
X173273764Y-49923156D01*
X173298741Y-49835000D01*
X173302700Y-49817428D01*
X173282851Y-49796060D01*
X173214487Y-49781064D01*
X173088524Y-49771639D01*
X172895878Y-49766984D01*
X172720450Y-49766136D01*
X172135346Y-49766136D01*
X171571500Y-51459328D01*
X171453192Y-51815300D01*
X171343313Y-52147254D01*
X171244511Y-52447096D01*
X171159432Y-52706733D01*
X171090724Y-52918068D01*
X171041031Y-53073008D01*
X171013003Y-53163458D01*
X171007654Y-53183822D01*
X170467516Y-53183822D01*
X170493340Y-53104848D01*
X170586729Y-52820826D01*
X170694493Y-52494380D01*
X170814306Y-52132590D01*
X170943839Y-51742541D01*
X171038142Y-51459209D01*
X171766207Y-49273729D01*
X172884669Y-49273729D01*
X173178022Y-49274878D01*
G37*
G36*
X150288373Y-50453454D02*
G01*
X149723536Y-51633179D01*
X145086501Y-51643613D01*
X140449467Y-51654046D01*
X140289620Y-52064210D01*
X140129773Y-52474375D01*
X137595854Y-52474375D01*
X137148223Y-52474159D01*
X136725820Y-52473536D01*
X136335636Y-52472544D01*
X135984663Y-52471221D01*
X135679891Y-52469605D01*
X135428310Y-52467734D01*
X135236913Y-52465645D01*
X135112690Y-52463377D01*
X135062631Y-52460967D01*
X135061935Y-52460644D01*
X135076424Y-52419365D01*
X135115575Y-52318614D01*
X135172914Y-52174852D01*
X135223310Y-52050305D01*
X135384685Y-51653696D01*
X130853197Y-51653696D01*
X130250824Y-51653522D01*
X129671916Y-51653014D01*
X129121701Y-51652196D01*
X128605406Y-51651089D01*
X128128259Y-51649717D01*
X127695489Y-51648103D01*
X127312322Y-51646268D01*
X126983986Y-51644236D01*
X126715709Y-51642029D01*
X126512719Y-51639671D01*
X126380244Y-51637183D01*
X126323511Y-51634588D01*
X126321709Y-51634032D01*
X126341158Y-51594872D01*
X126396342Y-51492856D01*
X126482520Y-51336515D01*
X126594953Y-51134387D01*
X126599127Y-51126928D01*
X127190261Y-51126928D01*
X127228562Y-51131522D01*
X127343693Y-51135935D01*
X127530415Y-51140128D01*
X127783488Y-51144060D01*
X128097675Y-51147691D01*
X128467738Y-51150980D01*
X128888436Y-51153887D01*
X129354533Y-51156373D01*
X129860789Y-51158395D01*
X130401966Y-51159914D01*
X130972825Y-51160891D01*
X131568128Y-51161283D01*
X131652700Y-51161289D01*
X132251315Y-51161412D01*
X132826433Y-51161771D01*
X133372793Y-51162350D01*
X133885137Y-51163131D01*
X134358203Y-51164100D01*
X134786732Y-51165240D01*
X135165464Y-51166535D01*
X135489139Y-51167968D01*
X135752497Y-51169525D01*
X135950278Y-51171188D01*
X136077222Y-51172941D01*
X136128070Y-51174768D01*
X136128818Y-51175020D01*
X136114329Y-51216299D01*
X136075178Y-51317050D01*
X136017839Y-51460812D01*
X135967443Y-51585359D01*
X135806068Y-51981968D01*
X137787341Y-51981968D01*
X139768614Y-51981968D01*
X139928529Y-51571629D01*
X140088444Y-51161289D01*
X144734880Y-51161289D01*
X149381316Y-51161289D01*
X149652971Y-50597073D01*
X149752866Y-50388744D01*
X149844406Y-50196272D01*
X149919581Y-50036618D01*
X149970377Y-49926741D01*
X149982523Y-49899496D01*
X150040420Y-49766136D01*
X138991485Y-49767395D01*
X127942549Y-49768655D01*
X127573244Y-50430611D01*
X127455397Y-50642354D01*
X127351599Y-50829825D01*
X127268413Y-50981089D01*
X127212403Y-51084215D01*
X127190261Y-51126928D01*
X126599127Y-51126928D01*
X126728899Y-50895003D01*
X126879617Y-50626899D01*
X126982765Y-50444048D01*
X127643820Y-49273729D01*
X139248515Y-49273729D01*
X150853211Y-49273729D01*
X150288373Y-50453454D01*
G37*
G36*
X138145478Y-127649155D02*
G01*
X138588172Y-127650482D01*
X138999231Y-127652619D01*
X139371955Y-127655488D01*
X139699646Y-127659011D01*
X139975604Y-127663109D01*
X140193131Y-127667704D01*
X140345527Y-127672718D01*
X140426093Y-127678072D01*
X140437380Y-127681011D01*
X140424964Y-127729710D01*
X140390867Y-127841187D01*
X140339816Y-128000516D01*
X140276539Y-128192771D01*
X140252727Y-128264036D01*
X140186328Y-128464188D01*
X140130525Y-128636563D01*
X140090044Y-128766236D01*
X140069614Y-128838282D01*
X140068074Y-128847060D01*
X140108581Y-128849691D01*
X140227992Y-128852266D01*
X140423144Y-128854777D01*
X140690874Y-128857214D01*
X141028018Y-128859571D01*
X141431412Y-128861838D01*
X141897894Y-128864007D01*
X142424299Y-128866071D01*
X143007465Y-128868020D01*
X143644228Y-128869846D01*
X144331425Y-128871542D01*
X145065891Y-128873098D01*
X145844465Y-128874507D01*
X146663981Y-128875760D01*
X147521278Y-128876849D01*
X148413191Y-128877766D01*
X149336557Y-128878501D01*
X150288212Y-128879048D01*
X151264994Y-128879397D01*
X152263738Y-128879541D01*
X152443223Y-128879544D01*
X153445371Y-128879657D01*
X154426037Y-128879988D01*
X155382062Y-128880529D01*
X156310288Y-128881271D01*
X157207555Y-128882206D01*
X158070704Y-128883325D01*
X158896577Y-128884618D01*
X159682016Y-128886077D01*
X160423861Y-128887694D01*
X161118953Y-128889460D01*
X161764134Y-128891365D01*
X162356246Y-128893402D01*
X162892128Y-128895561D01*
X163368623Y-128897833D01*
X163782572Y-128900210D01*
X164130816Y-128902683D01*
X164410196Y-128905243D01*
X164617553Y-128907882D01*
X164749730Y-128910590D01*
X164803566Y-128913360D01*
X164804693Y-128913864D01*
X164781872Y-128958144D01*
X164725190Y-129063929D01*
X164640298Y-129220799D01*
X164532848Y-129418329D01*
X164408490Y-129646096D01*
X164323496Y-129801355D01*
X163855978Y-130654527D01*
X154932370Y-130639006D01*
X146008761Y-130623486D01*
X145848745Y-130941499D01*
X145688729Y-131259512D01*
X138446738Y-131259512D01*
X137682446Y-131259341D01*
X136940548Y-131258838D01*
X136225178Y-131258022D01*
X135540469Y-131256910D01*
X134890555Y-131255519D01*
X134279569Y-131253868D01*
X133711646Y-131251973D01*
X133190919Y-131249852D01*
X132721521Y-131247524D01*
X132307586Y-131245004D01*
X131953248Y-131242312D01*
X131662640Y-131239464D01*
X131439897Y-131236478D01*
X131289151Y-131233373D01*
X131214536Y-131230164D01*
X131206888Y-131228737D01*
X131223268Y-131184810D01*
X131268622Y-131075167D01*
X131338922Y-130909230D01*
X131430140Y-130696422D01*
X131538248Y-130446167D01*
X131659220Y-130167888D01*
X131711108Y-130049011D01*
X132213186Y-128900061D01*
X133323260Y-128889155D01*
X134433334Y-128878249D01*
X134675826Y-128263579D01*
X134918317Y-127648908D01*
X137677848Y-127648718D01*
X138145478Y-127649155D01*
G37*
G36*
X166381475Y-48289499D02*
G01*
X166932635Y-48289905D01*
X167454611Y-48290602D01*
X167941930Y-48291568D01*
X168389120Y-48292781D01*
X168790706Y-48294221D01*
X169141217Y-48295866D01*
X169435177Y-48297695D01*
X169667115Y-48299685D01*
X169831557Y-48301816D01*
X169923031Y-48304066D01*
X169940772Y-48305612D01*
X169925850Y-48347787D01*
X169885274Y-48449982D01*
X169825334Y-48596619D01*
X169756120Y-48763046D01*
X169683334Y-48939623D01*
X169624066Y-49088827D01*
X169584678Y-49194266D01*
X169571467Y-49238756D01*
X169610134Y-49250927D01*
X169716679Y-49261255D01*
X169876920Y-49268935D01*
X170076674Y-49273162D01*
X170186976Y-49273729D01*
X170401174Y-49275635D01*
X170582952Y-49280890D01*
X170718128Y-49288791D01*
X170792517Y-49298642D01*
X170802485Y-49304081D01*
X170789867Y-49347579D01*
X170753566Y-49461833D01*
X170695909Y-49639758D01*
X170619222Y-49874273D01*
X170525833Y-50158295D01*
X170418069Y-50484742D01*
X170298257Y-50846531D01*
X170168724Y-51236580D01*
X170074420Y-51519913D01*
X169346355Y-53705393D01*
X163283305Y-53705393D01*
X162584850Y-53705315D01*
X161909151Y-53705089D01*
X161260728Y-53704722D01*
X160644101Y-53704224D01*
X160063789Y-53703602D01*
X159524312Y-53702866D01*
X159030189Y-53702025D01*
X158585940Y-53701087D01*
X158196084Y-53700060D01*
X157865140Y-53698954D01*
X157597628Y-53697777D01*
X157398068Y-53696538D01*
X157270978Y-53695246D01*
X157220879Y-53693908D01*
X157220255Y-53693740D01*
X157234902Y-53654130D01*
X157276190Y-53548405D01*
X157340144Y-53386592D01*
X157422788Y-53178717D01*
X157520146Y-52934810D01*
X157627039Y-52667892D01*
X158033823Y-51653696D01*
X156009592Y-51653696D01*
X153985361Y-51653696D01*
X154230942Y-51140772D01*
X154799715Y-51140772D01*
X156789630Y-51151421D01*
X157184989Y-51153762D01*
X157554222Y-51156382D01*
X157889441Y-51159196D01*
X158182755Y-51162116D01*
X158426278Y-51165055D01*
X158612120Y-51167927D01*
X158732391Y-51170645D01*
X158779204Y-51173121D01*
X158779545Y-51173332D01*
X158764899Y-51212836D01*
X158723614Y-51318460D01*
X158659664Y-51480184D01*
X158577025Y-51687984D01*
X158479673Y-51931838D01*
X158372761Y-52198790D01*
X157965977Y-53212986D01*
X163471597Y-53212986D01*
X168977216Y-53212986D01*
X169541062Y-51519793D01*
X169659364Y-51163867D01*
X169769236Y-50832000D01*
X169868034Y-50532278D01*
X169953111Y-50272790D01*
X170021820Y-50061624D01*
X170071516Y-49906868D01*
X170099553Y-49816610D01*
X170104908Y-49796368D01*
X170066165Y-49786161D01*
X169959092Y-49777425D01*
X169797421Y-49770794D01*
X169594886Y-49766900D01*
X169448365Y-49766136D01*
X169226686Y-49765150D01*
X169036978Y-49762427D01*
X168892975Y-49758316D01*
X168808410Y-49753165D01*
X168791822Y-49749439D01*
X168806745Y-49707263D01*
X168847321Y-49605068D01*
X168907261Y-49458431D01*
X168976475Y-49292004D01*
X169049261Y-49115428D01*
X169108529Y-48966223D01*
X169147916Y-48860784D01*
X169161128Y-48816294D01*
X169121076Y-48811065D01*
X169004851Y-48806072D01*
X168818346Y-48801374D01*
X168567456Y-48797029D01*
X168258073Y-48793093D01*
X167896093Y-48789626D01*
X167487409Y-48786685D01*
X167037915Y-48784327D01*
X166553506Y-48782610D01*
X166040074Y-48781593D01*
X165596231Y-48781322D01*
X162031335Y-48781322D01*
X161831369Y-49273015D01*
X161631402Y-49764708D01*
X158539644Y-49775680D01*
X155447886Y-49786653D01*
X155123800Y-50463713D01*
X154799715Y-51140772D01*
X154230942Y-51140772D01*
X154550197Y-50473971D01*
X155115033Y-49294246D01*
X158193874Y-49283729D01*
X161272715Y-49273212D01*
X161472576Y-48781554D01*
X161672436Y-48289896D01*
X165806604Y-48289405D01*
X166381475Y-48289499D01*
G37*
D11*
G04 #@! TO.C,LED1*
X144257200Y-72682600D02*
X144663600Y-72276200D01*
X144257200Y-74155800D02*
X144257200Y-72682600D01*
X144282600Y-74943200D02*
X144282600Y-76492600D01*
X144282600Y-76492600D02*
X146314600Y-76492600D01*
X144663600Y-72276200D02*
X145933600Y-72276200D01*
X145199600Y-74300000D02*
X144799600Y-74700000D01*
X145299900Y-74200000D02*
X145199600Y-74300000D01*
X145399900Y-74300000D02*
X145299900Y-74200000D01*
X145799900Y-74700000D02*
X144799600Y-74700000D01*
X145799900Y-74700000D02*
X145399900Y-74300000D01*
X145933600Y-72276200D02*
X146314600Y-72657200D01*
X146314600Y-72657200D02*
X146314600Y-74181200D01*
X146314600Y-76492600D02*
X146314600Y-74943200D01*
G04 #@! TO.C,U1*
X144299800Y-89000000D02*
X144974700Y-89000000D01*
X144299800Y-89141800D02*
X144299800Y-89000000D01*
X144299800Y-91000000D02*
X144299800Y-90858000D01*
X144974700Y-91000000D02*
X144299800Y-91000000D01*
X145624800Y-89000000D02*
X146299800Y-89000000D01*
X146299800Y-89000000D02*
X146299800Y-89141800D01*
X146299800Y-90858000D02*
X146299800Y-91000000D01*
X146299800Y-91000000D02*
X145624800Y-91000000D01*
X146633400Y-90507600D02*
G75*
G02*
X146506400Y-90507600I-63500J0D01*
G01*
X146506400Y-90507600D02*
G75*
G02*
X146633400Y-90507600I63500J0D01*
G01*
G04 #@! TO.C,C1*
X143910000Y-101699800D02*
X143910000Y-100899700D01*
X145019700Y-100590000D02*
X144219800Y-100590000D01*
X145019700Y-102009600D02*
X144219800Y-102009600D01*
X145580200Y-100590400D02*
X146380200Y-100590400D01*
X145580200Y-102010100D02*
X146380200Y-102010100D01*
X146689900Y-100900300D02*
X146689900Y-101700300D01*
X143910000Y-100899800D02*
G75*
G02*
X144219800Y-100590000I309800J0D01*
G01*
X144219800Y-102009600D02*
G75*
G02*
X143910000Y-101699800I0J309800D01*
G01*
X146380100Y-100590400D02*
G75*
G02*
X146689900Y-100900300I69J-309731D01*
G01*
X146689900Y-101700200D02*
G75*
G02*
X146380100Y-102010100I-309801J-99D01*
G01*
D12*
G04 #@! TO.C,R1*
X143914900Y-78139400D02*
X143914900Y-79460600D01*
X143914900Y-79460600D02*
X144873800Y-79460600D01*
X144873800Y-78139400D02*
X143914900Y-78139400D01*
X145726200Y-78139400D02*
X146685100Y-78139400D01*
X146685100Y-78139400D02*
X146685100Y-79460600D01*
X146685100Y-79460600D02*
X145726200Y-79460600D01*
G04 #@! TD*
%LPC*%
D10*
G04 #@! TO.C,G\u002A\u002A\u002A*
G36*
X168659207Y-67060497D02*
G01*
X168654475Y-67175386D01*
X168645810Y-67355094D01*
X168633701Y-67591072D01*
X168618637Y-67874767D01*
X168601106Y-68197631D01*
X168581598Y-68551111D01*
X168560601Y-68926658D01*
X168538603Y-69315721D01*
X168516095Y-69709749D01*
X168493565Y-70100192D01*
X168471501Y-70478499D01*
X168450392Y-70836120D01*
X168430728Y-71164503D01*
X168412997Y-71455098D01*
X168397688Y-71699356D01*
X168385290Y-71888724D01*
X168376291Y-72014653D01*
X168371181Y-72068591D01*
X168370749Y-72069976D01*
X168330111Y-72080955D01*
X168217882Y-72109187D01*
X168042250Y-72152664D01*
X167811399Y-72209378D01*
X167533516Y-72277322D01*
X167216787Y-72354487D01*
X166869397Y-72438867D01*
X166637541Y-72495055D01*
X166272520Y-72583522D01*
X165930906Y-72666481D01*
X165621230Y-72741848D01*
X165352026Y-72807538D01*
X165131826Y-72861467D01*
X164969164Y-72901551D01*
X164872572Y-72925707D01*
X164849799Y-72931712D01*
X164816244Y-72925313D01*
X164784027Y-72876752D01*
X164748327Y-72774340D01*
X164704327Y-72606392D01*
X164688628Y-72540806D01*
X164649957Y-72368768D01*
X164622191Y-72228955D01*
X164608585Y-72138851D01*
X164609328Y-72114621D01*
X164651831Y-72101601D01*
X164765150Y-72071503D01*
X164940339Y-72026583D01*
X165168455Y-71969093D01*
X165440554Y-71901286D01*
X165747692Y-71825416D01*
X166080925Y-71743738D01*
X166093842Y-71740584D01*
X166458364Y-71650356D01*
X166782701Y-71567610D01*
X167059932Y-71494255D01*
X167283138Y-71432202D01*
X167445396Y-71383359D01*
X167539786Y-71349638D01*
X167561877Y-71335444D01*
X167564445Y-71285456D01*
X167571328Y-71162480D01*
X167582008Y-70975454D01*
X167595970Y-70733315D01*
X167612697Y-70445002D01*
X167631674Y-70119452D01*
X167652385Y-69765602D01*
X167660544Y-69626556D01*
X167681542Y-69266286D01*
X167700683Y-68932580D01*
X167717495Y-68634090D01*
X167731504Y-68379470D01*
X167742237Y-68177372D01*
X167749220Y-68036450D01*
X167751980Y-67965355D01*
X167751799Y-67958411D01*
X167710951Y-67960746D01*
X167596026Y-67969797D01*
X167414682Y-67984902D01*
X167174575Y-68005401D01*
X166883365Y-68030632D01*
X166548710Y-68059936D01*
X166178267Y-68092651D01*
X165779694Y-68128117D01*
X165642469Y-68140386D01*
X165174141Y-68182409D01*
X164780990Y-68218079D01*
X164456443Y-68248250D01*
X164193926Y-68273775D01*
X163986865Y-68295506D01*
X163828686Y-68314295D01*
X163712816Y-68330997D01*
X163632682Y-68346463D01*
X163581708Y-68361546D01*
X163553322Y-68377099D01*
X163540950Y-68393975D01*
X163538018Y-68413026D01*
X163538011Y-68413378D01*
X163532873Y-68496187D01*
X163520055Y-68641066D01*
X163500975Y-68835337D01*
X163477054Y-69066323D01*
X163449711Y-69321345D01*
X163420366Y-69587725D01*
X163390440Y-69852787D01*
X163361351Y-70103852D01*
X163334520Y-70328241D01*
X163311366Y-70513278D01*
X163293309Y-70646284D01*
X163281769Y-70714581D01*
X163279607Y-70720786D01*
X163230284Y-70728383D01*
X163122091Y-70727622D01*
X162977598Y-70720264D01*
X162819377Y-70708073D01*
X162669999Y-70692810D01*
X162552034Y-70676236D01*
X162488053Y-70660114D01*
X162485821Y-70658817D01*
X162478530Y-70610261D01*
X162481535Y-70482766D01*
X162494646Y-70278787D01*
X162517674Y-70000780D01*
X162550427Y-69651201D01*
X162592715Y-69232505D01*
X162607302Y-69093115D01*
X162643933Y-68747323D01*
X162678087Y-68428167D01*
X162708779Y-68144616D01*
X162735022Y-67905642D01*
X162755830Y-67720216D01*
X162770217Y-67597309D01*
X162777196Y-67545893D01*
X162777507Y-67544929D01*
X162818848Y-67539377D01*
X162934030Y-67527411D01*
X163115160Y-67509737D01*
X163354347Y-67487059D01*
X163643700Y-67460084D01*
X163975328Y-67429517D01*
X164341339Y-67396064D01*
X164733843Y-67360430D01*
X165144948Y-67323321D01*
X165566762Y-67285442D01*
X165991395Y-67247500D01*
X166410955Y-67210200D01*
X166817551Y-67174246D01*
X167203292Y-67140346D01*
X167560286Y-67109205D01*
X167880643Y-67081527D01*
X168156470Y-67058020D01*
X168379877Y-67039388D01*
X168542973Y-67026337D01*
X168637866Y-67019572D01*
X168659517Y-67018979D01*
X168659207Y-67060497D01*
G37*
G36*
X145222335Y-54520449D02*
G01*
X145266891Y-54632670D01*
X145329199Y-54797989D01*
X145404673Y-55004192D01*
X145488725Y-55239066D01*
X145505030Y-55285199D01*
X145878938Y-56301770D01*
X146269469Y-57274403D01*
X146688477Y-58230564D01*
X147147819Y-59197720D01*
X147470907Y-59839965D01*
X147935468Y-60718315D01*
X148430263Y-61603944D01*
X148946150Y-62481955D01*
X149473985Y-63337452D01*
X150004627Y-64155538D01*
X150528932Y-64921315D01*
X150929547Y-65475336D01*
X151085029Y-65687071D01*
X151197083Y-65848381D01*
X151272732Y-65973570D01*
X151318997Y-66076944D01*
X151342902Y-66172806D01*
X151351469Y-66275461D01*
X151352194Y-66336255D01*
X151313353Y-66566638D01*
X151197811Y-66769281D01*
X151006242Y-66943804D01*
X150739317Y-67089831D01*
X150397709Y-67206980D01*
X149982089Y-67294875D01*
X149557170Y-67347584D01*
X149259674Y-67374659D01*
X149259674Y-66946687D01*
X149259674Y-66518714D01*
X149639238Y-66470249D01*
X149888775Y-66433117D01*
X150102850Y-66391035D01*
X150270821Y-66346957D01*
X150382044Y-66303837D01*
X150425879Y-66264628D01*
X150423465Y-66252591D01*
X150390458Y-66205033D01*
X150318384Y-66104479D01*
X150216745Y-65964089D01*
X150095044Y-65797021D01*
X150047853Y-65732474D01*
X149703127Y-65248096D01*
X149333065Y-64703774D01*
X148946841Y-64114023D01*
X148553628Y-63493358D01*
X148162602Y-62856293D01*
X147782936Y-62217343D01*
X147423805Y-61591023D01*
X147373824Y-61501839D01*
X147187377Y-61160411D01*
X146979355Y-60766193D01*
X146757568Y-60334988D01*
X146529824Y-59882600D01*
X146303930Y-59424832D01*
X146087694Y-58977488D01*
X145888926Y-58556372D01*
X145715433Y-58177287D01*
X145590221Y-57891841D01*
X145484014Y-57643761D01*
X145404819Y-57463074D01*
X145347760Y-57341549D01*
X145307965Y-57270959D01*
X145280558Y-57243075D01*
X145260666Y-57249668D01*
X145243415Y-57282509D01*
X145237797Y-57296849D01*
X145205220Y-57382884D01*
X145151464Y-57525579D01*
X145084127Y-57704733D01*
X145014295Y-57890853D01*
X144776812Y-58493877D01*
X144500065Y-59144078D01*
X144193139Y-59822318D01*
X143865119Y-60509461D01*
X143525089Y-61186369D01*
X143182134Y-61833904D01*
X142917462Y-62307990D01*
X142555122Y-62918828D01*
X142162643Y-63541263D01*
X141751605Y-64158459D01*
X141333588Y-64753581D01*
X140920173Y-65309794D01*
X140522942Y-65810260D01*
X140439222Y-65910795D01*
X140298297Y-66085057D01*
X140195168Y-66226484D01*
X140136309Y-66325600D01*
X140125867Y-66369362D01*
X140187154Y-66434948D01*
X140321826Y-66513943D01*
X140522820Y-66603555D01*
X140783069Y-66700992D01*
X141095507Y-66803463D01*
X141453068Y-66908174D01*
X141570714Y-66940315D01*
X141587637Y-66977429D01*
X141583149Y-67078068D01*
X141556726Y-67248315D01*
X141534150Y-67366346D01*
X141492172Y-67562010D01*
X141456912Y-67688017D01*
X141424153Y-67756046D01*
X141389682Y-67777779D01*
X141385630Y-67777845D01*
X141317676Y-67765668D01*
X141193999Y-67735122D01*
X141037321Y-67691955D01*
X140978916Y-67674936D01*
X140505464Y-67521332D01*
X140110856Y-67362811D01*
X139791908Y-67196980D01*
X139545435Y-67021446D01*
X139368252Y-66833819D01*
X139257174Y-66631705D01*
X139209016Y-66412712D01*
X139206362Y-66343439D01*
X139210868Y-66233994D01*
X139228959Y-66134798D01*
X139267492Y-66033784D01*
X139333326Y-65918882D01*
X139433318Y-65778025D01*
X139574326Y-65599145D01*
X139751361Y-65384392D01*
X140475382Y-64465122D01*
X141175884Y-63475710D01*
X141846622Y-62426243D01*
X142481354Y-61326807D01*
X143073836Y-60187489D01*
X143424265Y-59450142D01*
X143775453Y-58659968D01*
X144083254Y-57914396D01*
X144354947Y-57193465D01*
X144597809Y-56477217D01*
X144819119Y-55745692D01*
X144954694Y-55253183D01*
X145020679Y-55011357D01*
X145081402Y-54801329D01*
X145133345Y-54634267D01*
X145172993Y-54521342D01*
X145196829Y-54473724D01*
X145200122Y-54473538D01*
X145222335Y-54520449D01*
G37*
G36*
X122547818Y-105443598D02*
G01*
X122613965Y-105496745D01*
X122702213Y-105602081D01*
X122825547Y-105766277D01*
X122834503Y-105778357D01*
X123041178Y-106057147D01*
X122817737Y-106280588D01*
X122527755Y-106621245D01*
X122312332Y-106984246D01*
X122171807Y-107362581D01*
X122106520Y-107749237D01*
X122116810Y-108137205D01*
X122203017Y-108519472D01*
X122365480Y-108889027D01*
X122604539Y-109238859D01*
X122670704Y-109316143D01*
X122937617Y-109555779D01*
X123264686Y-109747633D01*
X123643106Y-109888419D01*
X124064074Y-109974850D01*
X124512522Y-110003651D01*
X124783081Y-109995212D01*
X125037620Y-109967395D01*
X125294153Y-109915884D01*
X125570695Y-109836364D01*
X125885260Y-109724518D01*
X126198608Y-109599733D01*
X126402523Y-109516925D01*
X126578174Y-109447894D01*
X126712373Y-109397638D01*
X126791931Y-109371158D01*
X126807927Y-109368737D01*
X126798065Y-109409485D01*
X126761311Y-109512154D01*
X126702858Y-109663130D01*
X126627893Y-109848795D01*
X126590185Y-109939964D01*
X126425456Y-110355603D01*
X126300814Y-110721128D01*
X126211940Y-111055440D01*
X126154510Y-111377438D01*
X126124204Y-111706024D01*
X126116540Y-112011598D01*
X126134063Y-112433591D01*
X126189407Y-112793031D01*
X126286731Y-113102214D01*
X126430196Y-113373435D01*
X126623961Y-113618987D01*
X126680077Y-113677134D01*
X126961425Y-113906931D01*
X127272682Y-114062039D01*
X127617150Y-114143520D01*
X127998132Y-114152429D01*
X128125204Y-114140498D01*
X128410889Y-114092568D01*
X128648041Y-114016607D01*
X128862755Y-113900188D01*
X129081129Y-113730880D01*
X129186586Y-113635029D01*
X129493412Y-113310997D01*
X129760934Y-112949877D01*
X129994887Y-112541357D01*
X130201004Y-112075124D01*
X130385020Y-111540867D01*
X130424220Y-111409351D01*
X130466472Y-111267580D01*
X130499753Y-111162740D01*
X130517925Y-111114010D01*
X130519166Y-111112677D01*
X130579079Y-111125092D01*
X130691868Y-111153362D01*
X130836437Y-111191678D01*
X130991691Y-111234236D01*
X131136536Y-111275229D01*
X131249877Y-111308849D01*
X131310620Y-111329292D01*
X131315285Y-111331817D01*
X131316402Y-111382861D01*
X131292443Y-111495920D01*
X131248087Y-111656523D01*
X131188010Y-111850199D01*
X131116892Y-112062479D01*
X131039408Y-112278891D01*
X130960239Y-112484967D01*
X130884060Y-112666235D01*
X130883507Y-112667475D01*
X130609167Y-113207912D01*
X130294169Y-113686033D01*
X129929373Y-114115297D01*
X129835586Y-114210386D01*
X129574098Y-114451366D01*
X129332108Y-114633452D01*
X129088487Y-114769051D01*
X128822103Y-114870571D01*
X128615420Y-114926893D01*
X128319561Y-114979157D01*
X127996086Y-115005007D01*
X127672261Y-115004340D01*
X127375355Y-114977054D01*
X127162905Y-114932384D01*
X126785216Y-114791646D01*
X126449700Y-114597698D01*
X126134697Y-114337511D01*
X126072017Y-114276143D01*
X125810699Y-113984281D01*
X125607788Y-113686084D01*
X125457408Y-113366844D01*
X125353684Y-113011852D01*
X125290738Y-112606402D01*
X125266766Y-112260612D01*
X125267397Y-111681040D01*
X125320051Y-111146717D01*
X125362270Y-110910057D01*
X125376693Y-110818590D01*
X125362119Y-110788837D01*
X125312626Y-110802223D01*
X125218826Y-110823169D01*
X125061899Y-110839468D01*
X124860675Y-110850800D01*
X124633980Y-110856846D01*
X124400643Y-110857286D01*
X124179491Y-110851800D01*
X123989353Y-110840068D01*
X123876253Y-110826629D01*
X123361424Y-110706790D01*
X122892822Y-110522416D01*
X122473965Y-110276454D01*
X122108369Y-109971849D01*
X121799551Y-109611549D01*
X121551028Y-109198498D01*
X121366315Y-108735642D01*
X121361474Y-108719966D01*
X121266177Y-108271968D01*
X121246664Y-107812070D01*
X121299722Y-107350613D01*
X121422139Y-106897940D01*
X121610703Y-106464392D01*
X121862201Y-106060311D01*
X122173421Y-105696040D01*
X122352130Y-105530607D01*
X122429885Y-105467198D01*
X122490786Y-105435972D01*
X122547818Y-105443598D01*
G37*
G36*
X147566946Y-64988825D02*
G01*
X147651374Y-65070189D01*
X147763054Y-65184095D01*
X147836146Y-65261084D01*
X148110067Y-65552964D01*
X146942628Y-66689504D01*
X145775189Y-67826043D01*
X147227404Y-69126380D01*
X147519328Y-69388489D01*
X147791763Y-69634482D01*
X148038733Y-69858865D01*
X148254261Y-70056141D01*
X148432370Y-70220814D01*
X148567083Y-70347390D01*
X148652422Y-70430372D01*
X148682409Y-70464232D01*
X148664650Y-70514164D01*
X148614642Y-70617597D01*
X148541156Y-70756951D01*
X148491801Y-70846295D01*
X148398308Y-71007863D01*
X148331400Y-71107800D01*
X148280892Y-71157843D01*
X148236594Y-71169730D01*
X148214822Y-71165413D01*
X148142582Y-71147049D01*
X148009612Y-71116411D01*
X147835533Y-71077923D01*
X147659351Y-71040110D01*
X147056664Y-70935317D01*
X146396646Y-70862416D01*
X145698305Y-70823183D01*
X145264381Y-70816540D01*
X144798386Y-70821939D01*
X144370854Y-70839746D01*
X143965147Y-70872380D01*
X143564624Y-70922257D01*
X143152647Y-70991793D01*
X142712577Y-71083405D01*
X142227774Y-71199511D01*
X141726520Y-71330421D01*
X141453605Y-71403401D01*
X141206559Y-71468674D01*
X140996542Y-71523355D01*
X140834713Y-71564560D01*
X140732229Y-71589406D01*
X140700672Y-71595573D01*
X140720895Y-71567928D01*
X140794242Y-71489223D01*
X140914793Y-71365401D01*
X141076629Y-71202405D01*
X141273831Y-71006175D01*
X141500481Y-70782654D01*
X141750659Y-70537784D01*
X141873567Y-70418099D01*
X142171382Y-70128269D01*
X142239194Y-70062161D01*
X143470033Y-70062161D01*
X143707907Y-70030022D01*
X143818814Y-70019471D01*
X143996137Y-70007923D01*
X144224246Y-69996152D01*
X144487507Y-69984931D01*
X144770289Y-69975035D01*
X144889561Y-69971504D01*
X145317192Y-69963639D01*
X145714752Y-69964321D01*
X146065290Y-69973323D01*
X146351854Y-69990414D01*
X146363000Y-69991372D01*
X146561576Y-70007803D01*
X146728050Y-70019856D01*
X146846785Y-70026525D01*
X146902146Y-70026808D01*
X146904145Y-70026134D01*
X146877835Y-69996908D01*
X146797835Y-69919913D01*
X146671640Y-69802079D01*
X146506743Y-69650333D01*
X146310639Y-69471604D01*
X146090822Y-69272819D01*
X146033209Y-69220953D01*
X145150786Y-68427258D01*
X144527766Y-69034563D01*
X144325881Y-69231272D01*
X144128930Y-69423021D01*
X143949913Y-69597166D01*
X143801831Y-69741059D01*
X143697684Y-69842056D01*
X143687390Y-69852014D01*
X143470033Y-70062161D01*
X142239194Y-70062161D01*
X142481788Y-69825661D01*
X142792762Y-69522033D01*
X143092281Y-69229140D01*
X143368321Y-68958739D01*
X143608861Y-68722587D01*
X143793025Y-68541182D01*
X144501982Y-67841128D01*
X143411464Y-66862532D01*
X143160284Y-66635699D01*
X142930261Y-66425206D01*
X142728178Y-66237474D01*
X142560816Y-66078925D01*
X142434961Y-65955981D01*
X142357395Y-65875061D01*
X142334554Y-65843111D01*
X142367167Y-65793044D01*
X142438859Y-65702844D01*
X142534788Y-65589363D01*
X142640118Y-65469450D01*
X142740008Y-65359956D01*
X142819619Y-65277731D01*
X142864113Y-65239627D01*
X142866762Y-65238765D01*
X142902800Y-65264637D01*
X142992707Y-65339533D01*
X143129538Y-65457374D01*
X143306344Y-65612080D01*
X143516179Y-65797571D01*
X143752095Y-66007769D01*
X144007147Y-66236593D01*
X144013783Y-66242567D01*
X145131906Y-67249207D01*
X145626242Y-66765857D01*
X145811017Y-66584967D01*
X146036076Y-66364293D01*
X146283256Y-66121663D01*
X146534394Y-65874908D01*
X146771330Y-65641855D01*
X146803102Y-65610580D01*
X146997796Y-65421083D01*
X147174130Y-65253583D01*
X147323499Y-65115923D01*
X147437296Y-65015942D01*
X147506912Y-64961482D01*
X147523926Y-64953929D01*
X147566946Y-64988825D01*
G37*
G36*
X165524229Y-73387946D02*
G01*
X165663622Y-73393262D01*
X165870472Y-73400616D01*
X166130207Y-73409518D01*
X166428258Y-73419475D01*
X166750051Y-73429995D01*
X167081016Y-73440587D01*
X167124980Y-73441976D01*
X167433769Y-73452306D01*
X167715284Y-73462855D01*
X167959272Y-73473149D01*
X168155482Y-73482714D01*
X168293661Y-73491075D01*
X168363558Y-73497758D01*
X168369954Y-73499571D01*
X168371370Y-73543195D01*
X168367629Y-73659707D01*
X168359306Y-73840128D01*
X168346977Y-74075480D01*
X168331215Y-74356783D01*
X168312597Y-74675057D01*
X168291697Y-75021325D01*
X168269091Y-75386606D01*
X168245353Y-75761923D01*
X168221059Y-76138295D01*
X168196784Y-76506744D01*
X168173102Y-76858291D01*
X168150589Y-77183956D01*
X168129821Y-77474761D01*
X168111371Y-77721726D01*
X168095815Y-77915872D01*
X168083729Y-78048221D01*
X168075686Y-78109793D01*
X168074478Y-78112990D01*
X168026867Y-78121678D01*
X167907312Y-78130465D01*
X167724948Y-78139216D01*
X167488909Y-78147800D01*
X167208327Y-78156084D01*
X166892338Y-78163934D01*
X166550075Y-78171218D01*
X166190673Y-78177802D01*
X165823264Y-78183555D01*
X165456983Y-78188343D01*
X165100963Y-78192033D01*
X164764340Y-78194492D01*
X164456246Y-78195587D01*
X164185816Y-78195186D01*
X163962183Y-78193156D01*
X163794481Y-78189363D01*
X163691845Y-78183675D01*
X163662582Y-78177180D01*
X163656199Y-78131653D01*
X163638129Y-78015109D01*
X163609995Y-77837513D01*
X163573416Y-77608827D01*
X163530013Y-77339018D01*
X163481406Y-77038050D01*
X163429217Y-76715887D01*
X163375065Y-76382494D01*
X163320571Y-76047835D01*
X163267356Y-75721875D01*
X163217041Y-75414578D01*
X163171246Y-75135909D01*
X163131592Y-74895832D01*
X163099699Y-74704313D01*
X163077188Y-74571314D01*
X163065679Y-74506802D01*
X163065499Y-74505925D01*
X163058332Y-74457865D01*
X163069796Y-74424184D01*
X163113671Y-74398765D01*
X163203735Y-74375491D01*
X163353768Y-74348248D01*
X163461200Y-74330292D01*
X163635515Y-74302574D01*
X163776548Y-74282477D01*
X163866826Y-74272350D01*
X163890607Y-74272567D01*
X163899663Y-74314337D01*
X163920180Y-74427856D01*
X163950588Y-74603848D01*
X163989317Y-74833036D01*
X164034799Y-75106141D01*
X164085462Y-75413888D01*
X164132071Y-75699734D01*
X164186733Y-76035577D01*
X164238133Y-76349760D01*
X164284578Y-76632058D01*
X164324375Y-76872242D01*
X164355830Y-77060087D01*
X164377250Y-77185365D01*
X164386048Y-77233786D01*
X164410215Y-77352324D01*
X165831633Y-77322344D01*
X166164917Y-77314798D01*
X166471528Y-77306864D01*
X166741963Y-77298865D01*
X166966721Y-77291122D01*
X167136302Y-77283960D01*
X167241202Y-77277699D01*
X167272336Y-77273426D01*
X167278834Y-77230298D01*
X167289471Y-77116610D01*
X167303503Y-76943589D01*
X167320187Y-76722467D01*
X167338778Y-76464473D01*
X167358532Y-76180837D01*
X167378704Y-75882788D01*
X167398552Y-75581555D01*
X167417330Y-75288369D01*
X167434294Y-75014460D01*
X167448701Y-74771056D01*
X167459805Y-74569388D01*
X167466863Y-74420686D01*
X167469131Y-74336178D01*
X167467987Y-74321029D01*
X167425958Y-74317018D01*
X167312346Y-74310795D01*
X167137589Y-74302807D01*
X166912129Y-74293502D01*
X166646406Y-74283326D01*
X166350859Y-74272726D01*
X166296202Y-74270839D01*
X165995764Y-74259819D01*
X165722680Y-74248452D01*
X165487526Y-74237284D01*
X165300875Y-74226867D01*
X165173304Y-74217747D01*
X165115388Y-74210474D01*
X165113228Y-74209459D01*
X165106864Y-74161934D01*
X165107016Y-74051205D01*
X165113365Y-73895851D01*
X165120625Y-73780270D01*
X165149528Y-73372588D01*
X165524229Y-73387946D01*
G37*
G36*
X161731605Y-67518735D02*
G01*
X161731708Y-67518832D01*
X161743600Y-67564835D01*
X161764636Y-67680150D01*
X161793189Y-67853428D01*
X161827631Y-68073321D01*
X161866333Y-68328481D01*
X161907668Y-68607560D01*
X161950008Y-68899210D01*
X161991725Y-69192082D01*
X162031191Y-69474828D01*
X162066778Y-69736100D01*
X162096858Y-69964550D01*
X162119803Y-70148830D01*
X162133985Y-70277592D01*
X162137776Y-70339487D01*
X162136879Y-70343210D01*
X162090531Y-70355270D01*
X161985446Y-70373513D01*
X161844422Y-70394769D01*
X161690255Y-70415866D01*
X161545742Y-70433633D01*
X161433681Y-70444899D01*
X161389030Y-70447234D01*
X161359233Y-70444841D01*
X161334725Y-70431381D01*
X161313339Y-70397437D01*
X161292903Y-70333590D01*
X161271249Y-70230422D01*
X161246207Y-70078513D01*
X161215607Y-69868447D01*
X161177280Y-69590803D01*
X161156390Y-69437304D01*
X161108829Y-69097240D01*
X161068593Y-68832599D01*
X161034506Y-68637174D01*
X161005392Y-68504763D01*
X160980074Y-68429159D01*
X160960636Y-68404919D01*
X160908159Y-68401844D01*
X160782643Y-68402401D01*
X160593021Y-68406321D01*
X160348229Y-68413339D01*
X160057202Y-68423185D01*
X159728874Y-68435591D01*
X159372181Y-68450291D01*
X159208730Y-68457409D01*
X157515339Y-68532354D01*
X157489208Y-69110230D01*
X157480377Y-69341137D01*
X157471853Y-69628599D01*
X157464250Y-69947104D01*
X157458182Y-70271140D01*
X157454509Y-70549819D01*
X157445942Y-71411532D01*
X159169367Y-71480003D01*
X159537826Y-71494690D01*
X159880845Y-71508454D01*
X160189746Y-71520940D01*
X160455849Y-71531794D01*
X160670475Y-71540660D01*
X160824944Y-71547183D01*
X160910578Y-71551009D01*
X160925003Y-71551813D01*
X160937315Y-71591401D01*
X160945109Y-71695658D01*
X160947545Y-71847271D01*
X160945520Y-71975748D01*
X160939013Y-72165693D01*
X160930023Y-72288388D01*
X160915287Y-72358645D01*
X160891541Y-72391279D01*
X160855522Y-72401103D01*
X160851758Y-72401363D01*
X160795794Y-72400766D01*
X160665875Y-72397170D01*
X160470047Y-72390862D01*
X160216358Y-72382125D01*
X159912855Y-72371245D01*
X159567584Y-72358507D01*
X159188592Y-72344196D01*
X158783926Y-72328596D01*
X158656443Y-72323619D01*
X158248524Y-72307562D01*
X157866248Y-72292359D01*
X157517296Y-72278325D01*
X157209349Y-72265777D01*
X156950086Y-72255031D01*
X156747191Y-72246404D01*
X156608342Y-72240211D01*
X156541221Y-72236770D01*
X156536107Y-72236284D01*
X156534989Y-72195106D01*
X156536645Y-72080978D01*
X156540769Y-71902959D01*
X156547051Y-71670108D01*
X156555184Y-71391486D01*
X156564861Y-71076152D01*
X156575772Y-70733165D01*
X156587610Y-70371584D01*
X156600067Y-70000471D01*
X156612834Y-69628883D01*
X156625604Y-69265881D01*
X156638069Y-68920524D01*
X156649921Y-68601872D01*
X156660851Y-68318984D01*
X156670552Y-68080919D01*
X156678715Y-67896738D01*
X156685033Y-67775500D01*
X156689197Y-67726264D01*
X156689476Y-67725655D01*
X156735589Y-67718763D01*
X156854847Y-67709426D01*
X157038639Y-67697997D01*
X157278359Y-67684829D01*
X157565397Y-67670275D01*
X157891144Y-67654688D01*
X158246994Y-67638421D01*
X158624336Y-67621828D01*
X159014562Y-67605261D01*
X159409064Y-67589074D01*
X159799234Y-67573620D01*
X160176463Y-67559251D01*
X160532142Y-67546322D01*
X160857664Y-67535184D01*
X161144419Y-67526191D01*
X161383799Y-67519697D01*
X161567196Y-67516054D01*
X161686001Y-67515616D01*
X161731605Y-67518735D01*
G37*
G36*
X160381300Y-73048874D02*
G01*
X160383940Y-73112647D01*
X160390693Y-73240539D01*
X160400727Y-73418807D01*
X160413210Y-73633705D01*
X160427308Y-73871488D01*
X160442190Y-74118413D01*
X160457024Y-74360733D01*
X160470976Y-74584706D01*
X160483215Y-74776585D01*
X160492908Y-74922627D01*
X160499222Y-75009087D01*
X160501085Y-75026764D01*
X160540884Y-75028873D01*
X160652371Y-75032728D01*
X160825194Y-75038024D01*
X161048997Y-75044456D01*
X161313427Y-75051721D01*
X161608130Y-75059514D01*
X161662131Y-75060911D01*
X161961881Y-75069137D01*
X162233894Y-75077547D01*
X162467660Y-75085740D01*
X162652669Y-75093317D01*
X162778411Y-75099874D01*
X162834376Y-75105012D01*
X162836185Y-75105706D01*
X162839701Y-75150286D01*
X162837270Y-75258559D01*
X162829508Y-75412415D01*
X162821637Y-75531935D01*
X162792196Y-75943271D01*
X161668100Y-75917431D01*
X160544003Y-75891592D01*
X160545535Y-75990495D01*
X160548307Y-76055063D01*
X160555424Y-76190663D01*
X160566271Y-76386410D01*
X160580232Y-76631416D01*
X160596690Y-76914797D01*
X160615029Y-77225667D01*
X160623123Y-77361451D01*
X160641084Y-77676348D01*
X160655865Y-77964573D01*
X160667076Y-78216011D01*
X160674331Y-78420551D01*
X160677242Y-78568079D01*
X160675422Y-78648483D01*
X160672883Y-78660150D01*
X160624106Y-78681784D01*
X160514746Y-78717960D01*
X160363673Y-78762664D01*
X160268318Y-78789065D01*
X159890049Y-78891333D01*
X159780752Y-78700867D01*
X159623092Y-78452849D01*
X159416069Y-78167989D01*
X159172774Y-77862686D01*
X158906299Y-77553340D01*
X158629735Y-77256350D01*
X158617991Y-77244287D01*
X158275592Y-76904720D01*
X157957570Y-76615715D01*
X157642828Y-76359515D01*
X157310267Y-76118368D01*
X157158704Y-76016316D01*
X157009058Y-75914925D01*
X156937796Y-75863713D01*
X158457123Y-75863713D01*
X159100482Y-76510379D01*
X159286783Y-76697375D01*
X159452423Y-76863129D01*
X159589098Y-76999375D01*
X159688506Y-77097847D01*
X159742346Y-77150277D01*
X159749558Y-77156663D01*
X159749209Y-77117969D01*
X159744397Y-77011768D01*
X159735870Y-76852456D01*
X159724372Y-76654429D01*
X159718721Y-76561289D01*
X159704422Y-76345775D01*
X159689961Y-76157719D01*
X159676724Y-76013216D01*
X159666100Y-75928362D01*
X159662999Y-75915005D01*
X159630284Y-75893265D01*
X159545319Y-75878029D01*
X159399598Y-75868583D01*
X159184611Y-75864215D01*
X159050478Y-75863713D01*
X158457123Y-75863713D01*
X156937796Y-75863713D01*
X156889546Y-75829039D01*
X156814034Y-75768942D01*
X156794634Y-75746272D01*
X156806650Y-75697384D01*
X156834436Y-75588415D01*
X156873048Y-75438693D01*
X156894068Y-75357669D01*
X156988267Y-74995244D01*
X158316258Y-75008880D01*
X159644249Y-75022517D01*
X159622226Y-74755797D01*
X159608939Y-74581429D01*
X159594506Y-74369466D01*
X159579673Y-74133700D01*
X159565188Y-73887921D01*
X159551796Y-73645924D01*
X159540244Y-73421498D01*
X159531278Y-73228437D01*
X159525645Y-73080533D01*
X159524091Y-72991577D01*
X159525678Y-72971843D01*
X159569484Y-72965373D01*
X159677440Y-72956851D01*
X159831695Y-72947541D01*
X159959270Y-72941156D01*
X160379868Y-72921758D01*
X160381300Y-73048874D01*
G37*
G36*
X145767299Y-106932112D02*
G01*
X145779713Y-106955597D01*
X145797828Y-107007693D01*
X145824301Y-107097255D01*
X145861787Y-107233138D01*
X145912941Y-107424198D01*
X145980421Y-107679290D01*
X146041562Y-107911208D01*
X146204328Y-108509751D01*
X146361458Y-109041568D01*
X146519483Y-109520556D01*
X146684932Y-109960609D01*
X146864337Y-110375625D01*
X147064226Y-110779500D01*
X147291131Y-111186130D01*
X147551581Y-111609410D01*
X147852107Y-112063237D01*
X148199238Y-112561506D01*
X148280523Y-112675688D01*
X148427396Y-112882461D01*
X148556496Y-113066319D01*
X148660702Y-113216946D01*
X148732892Y-113324027D01*
X148765948Y-113377245D01*
X148767267Y-113380827D01*
X148735775Y-113412743D01*
X148653133Y-113476965D01*
X148537085Y-113561211D01*
X148405381Y-113653198D01*
X148275766Y-113740644D01*
X148165987Y-113811267D01*
X148093791Y-113852784D01*
X148076677Y-113858776D01*
X148044256Y-113825556D01*
X147972997Y-113734455D01*
X147870015Y-113595591D01*
X147742424Y-113419080D01*
X147597339Y-113215037D01*
X147441875Y-112993579D01*
X147283148Y-112764822D01*
X147128272Y-112538881D01*
X146984362Y-112325873D01*
X146858532Y-112135914D01*
X146786470Y-112024352D01*
X146573781Y-111671858D01*
X146357709Y-111280715D01*
X146153322Y-110879955D01*
X145975690Y-110498610D01*
X145892968Y-110302990D01*
X145756918Y-109966015D01*
X145524827Y-110528676D01*
X145206405Y-111261957D01*
X144865798Y-111967548D01*
X144489671Y-112671588D01*
X144064686Y-113400216D01*
X144033997Y-113450788D01*
X143867874Y-113719069D01*
X143685034Y-114005928D01*
X143490988Y-114303460D01*
X143291245Y-114603760D01*
X143091317Y-114898921D01*
X142896713Y-115181038D01*
X142712945Y-115442206D01*
X142545521Y-115674520D01*
X142399954Y-115870073D01*
X142281753Y-116020960D01*
X142196429Y-116119276D01*
X142149492Y-116157115D01*
X142147474Y-116157290D01*
X142095402Y-116132472D01*
X141997274Y-116067620D01*
X141870584Y-115974629D01*
X141812016Y-115929216D01*
X141682544Y-115824557D01*
X141580357Y-115736985D01*
X141520971Y-115680016D01*
X141512422Y-115668197D01*
X141531349Y-115624906D01*
X141591678Y-115528363D01*
X141685254Y-115390734D01*
X141803925Y-115224182D01*
X141875286Y-115126885D01*
X142480102Y-114275147D01*
X143054003Y-113397162D01*
X143583857Y-112513997D01*
X144056529Y-111646716D01*
X144109800Y-111542711D01*
X144349385Y-111060130D01*
X144558329Y-110611960D01*
X144743248Y-110180610D01*
X144910759Y-109748487D01*
X145067476Y-109298003D01*
X145220015Y-108811564D01*
X145374993Y-108271581D01*
X145466046Y-107936499D01*
X145539050Y-107665645D01*
X145605912Y-107421801D01*
X145663523Y-107215962D01*
X145708776Y-107059122D01*
X145738564Y-106962275D01*
X145748953Y-106935553D01*
X145757931Y-106928383D01*
X145767299Y-106932112D01*
G37*
G36*
X122583377Y-103022532D02*
G01*
X122688004Y-103096068D01*
X122850107Y-103212016D01*
X123065699Y-103367450D01*
X123330792Y-103559443D01*
X123641399Y-103785067D01*
X123993533Y-104041394D01*
X124383206Y-104325499D01*
X124806432Y-104634452D01*
X125259221Y-104965328D01*
X125737588Y-105315199D01*
X126237545Y-105681138D01*
X126755104Y-106060217D01*
X127286278Y-106449509D01*
X127827080Y-106846087D01*
X128373522Y-107247024D01*
X128921617Y-107649392D01*
X129467378Y-108050265D01*
X130006816Y-108446714D01*
X130535946Y-108835814D01*
X131050778Y-109214635D01*
X131547327Y-109580252D01*
X132021604Y-109929737D01*
X132469623Y-110260163D01*
X132887396Y-110568602D01*
X133270935Y-110852128D01*
X133616253Y-111107812D01*
X133919362Y-111332728D01*
X134176276Y-111523949D01*
X134383008Y-111678547D01*
X134535568Y-111793595D01*
X134629971Y-111866165D01*
X134662229Y-111893332D01*
X134662191Y-111893418D01*
X134614585Y-111908977D01*
X134501512Y-111936466D01*
X134338193Y-111972815D01*
X134139847Y-112014954D01*
X133921693Y-112059814D01*
X133698952Y-112104326D01*
X133486842Y-112145421D01*
X133300584Y-112180029D01*
X133155396Y-112205080D01*
X133066499Y-112217505D01*
X133051273Y-112218298D01*
X133011597Y-112195166D01*
X132907853Y-112127644D01*
X132743445Y-112018063D01*
X132521777Y-111868751D01*
X132246253Y-111682037D01*
X131920279Y-111460252D01*
X131547257Y-111205724D01*
X131130592Y-110920782D01*
X130673688Y-110607757D01*
X130179949Y-110268977D01*
X129652780Y-109906772D01*
X129095585Y-109523471D01*
X128511767Y-109121403D01*
X127904732Y-108702899D01*
X127277882Y-108270286D01*
X126889511Y-108002037D01*
X126253339Y-107562247D01*
X125635816Y-107134863D01*
X125040287Y-106722222D01*
X124470099Y-106326660D01*
X123928599Y-105950516D01*
X123419131Y-105596125D01*
X122945044Y-105265825D01*
X122509682Y-104961954D01*
X122116393Y-104686847D01*
X121768523Y-104442843D01*
X121469418Y-104232279D01*
X121222423Y-104057491D01*
X121030887Y-103920817D01*
X120898154Y-103824594D01*
X120827571Y-103771158D01*
X120816490Y-103760541D01*
X120864693Y-103732441D01*
X120973505Y-103678686D01*
X121129906Y-103605065D01*
X121320874Y-103517364D01*
X121533389Y-103421371D01*
X121754431Y-103322874D01*
X121970977Y-103227662D01*
X122170009Y-103141521D01*
X122338504Y-103070240D01*
X122463443Y-103019606D01*
X122531804Y-102995407D01*
X122540214Y-102994336D01*
X122583377Y-103022532D01*
G37*
G36*
X148585240Y-116283942D02*
G01*
X148676265Y-116324066D01*
X148801568Y-116385821D01*
X148942783Y-116459450D01*
X149081544Y-116535196D01*
X149199487Y-116603301D01*
X149278246Y-116654009D01*
X149300708Y-116675705D01*
X149281515Y-116714513D01*
X149227169Y-116816129D01*
X149142517Y-116971703D01*
X149032404Y-117172383D01*
X148901679Y-117409317D01*
X148755187Y-117673656D01*
X148690300Y-117790406D01*
X148190176Y-118696979D01*
X147727421Y-119551167D01*
X147303083Y-120350898D01*
X146918206Y-121094101D01*
X146573838Y-121778708D01*
X146271025Y-122402646D01*
X146010814Y-122963844D01*
X145794251Y-123460233D01*
X145668097Y-123770821D01*
X145589363Y-123987756D01*
X145502530Y-124252489D01*
X145417708Y-124532797D01*
X145345014Y-124796456D01*
X145339688Y-124817186D01*
X145284443Y-125029907D01*
X145234238Y-125216284D01*
X145193375Y-125360861D01*
X145166154Y-125448182D01*
X145159527Y-125464630D01*
X145134337Y-125445443D01*
X145079853Y-125358471D01*
X144999954Y-125210993D01*
X144898515Y-125010291D01*
X144779413Y-124763645D01*
X144727496Y-124653325D01*
X144228236Y-123633246D01*
X143695494Y-122635347D01*
X143138068Y-121674827D01*
X142564759Y-120766889D01*
X142019647Y-119975536D01*
X141907808Y-119818453D01*
X141813986Y-119683075D01*
X141748643Y-119584737D01*
X141722783Y-119540450D01*
X141746088Y-119501629D01*
X141818464Y-119428221D01*
X141923877Y-119333406D01*
X142046294Y-119230367D01*
X142169682Y-119132285D01*
X142278006Y-119052342D01*
X142355235Y-119003719D01*
X142384262Y-118996624D01*
X142430836Y-119057004D01*
X142514367Y-119172762D01*
X142626056Y-119331148D01*
X142757103Y-119519412D01*
X142898706Y-119724806D01*
X143042065Y-119934580D01*
X143178381Y-120135984D01*
X143298851Y-120316269D01*
X143371303Y-120426556D01*
X143682212Y-120912237D01*
X143962564Y-121367462D01*
X144231385Y-121824051D01*
X144507702Y-122313826D01*
X144601706Y-122484386D01*
X144976409Y-123167580D01*
X145237260Y-122586971D01*
X145468542Y-122086566D01*
X145741183Y-121522341D01*
X146052407Y-120899665D01*
X146399433Y-120223907D01*
X146779486Y-119500435D01*
X147189786Y-118734618D01*
X147627556Y-117931824D01*
X147915613Y-117410562D01*
X148068519Y-117135272D01*
X148208595Y-116883159D01*
X148330876Y-116663153D01*
X148430396Y-116484184D01*
X148502190Y-116355184D01*
X148541293Y-116285083D01*
X148546859Y-116275205D01*
X148585240Y-116283942D01*
G37*
G36*
X151314492Y-113111536D02*
G01*
X151353207Y-113169156D01*
X151417807Y-113282065D01*
X151501025Y-113435921D01*
X151595592Y-113616384D01*
X151694238Y-113809113D01*
X151789696Y-113999766D01*
X151874695Y-114174005D01*
X151941969Y-114317486D01*
X151984247Y-114415871D01*
X151994927Y-114453986D01*
X151955661Y-114472316D01*
X151844446Y-114517489D01*
X151666221Y-114587646D01*
X151425922Y-114680930D01*
X151128487Y-114795481D01*
X150778852Y-114929443D01*
X150381956Y-115080955D01*
X149942734Y-115248161D01*
X149466126Y-115429202D01*
X148957067Y-115622220D01*
X148420496Y-115825357D01*
X147861349Y-116036754D01*
X147284564Y-116254553D01*
X146695078Y-116476896D01*
X146097829Y-116701925D01*
X145497753Y-116927781D01*
X144899787Y-117152607D01*
X144308871Y-117374543D01*
X143729939Y-117591732D01*
X143167930Y-117802316D01*
X142627782Y-118004437D01*
X142114430Y-118196235D01*
X141632814Y-118375853D01*
X141187869Y-118541434D01*
X140784533Y-118691117D01*
X140427744Y-118823046D01*
X140122438Y-118935361D01*
X139873554Y-119026206D01*
X139686027Y-119093721D01*
X139564796Y-119136048D01*
X139514798Y-119151330D01*
X139514116Y-119151341D01*
X139464885Y-119135187D01*
X139352153Y-119092763D01*
X139188360Y-119028923D01*
X138985944Y-118948518D01*
X138757343Y-118856400D01*
X138739018Y-118848963D01*
X138515390Y-118755845D01*
X138323975Y-118671668D01*
X138175478Y-118601521D01*
X138080604Y-118550488D01*
X138050059Y-118523657D01*
X138051350Y-118522225D01*
X138103583Y-118497767D01*
X138226204Y-118444797D01*
X138414510Y-118365234D01*
X138663800Y-118260994D01*
X138969373Y-118133996D01*
X139326526Y-117986159D01*
X139730556Y-117819400D01*
X140176764Y-117635638D01*
X140660446Y-117436791D01*
X141176900Y-117224776D01*
X141721425Y-117001512D01*
X142289319Y-116768918D01*
X142875880Y-116528911D01*
X143476406Y-116283409D01*
X144086195Y-116034331D01*
X144700545Y-115783594D01*
X145314754Y-115533117D01*
X145924121Y-115284818D01*
X146523944Y-115040615D01*
X147109520Y-114802427D01*
X147676148Y-114572170D01*
X148219125Y-114351764D01*
X148733751Y-114143127D01*
X149215323Y-113948177D01*
X149659139Y-113768831D01*
X150060497Y-113607008D01*
X150414696Y-113464627D01*
X150717033Y-113343605D01*
X150962806Y-113245860D01*
X151147315Y-113173311D01*
X151265856Y-113127875D01*
X151313728Y-113111471D01*
X151314492Y-113111536D01*
G37*
G36*
X133290106Y-102842987D02*
G01*
X133285054Y-102887006D01*
X133258028Y-102996464D01*
X133212548Y-103158794D01*
X133152136Y-103361427D01*
X133080313Y-103591797D01*
X133080044Y-103592644D01*
X132792016Y-104537336D01*
X132536132Y-105463352D01*
X132305938Y-106396652D01*
X132094981Y-107363199D01*
X131922370Y-108249738D01*
X131876410Y-108489697D01*
X131839571Y-108659134D01*
X131808694Y-108768671D01*
X131780619Y-108828928D01*
X131752188Y-108850528D01*
X131743515Y-108851084D01*
X131674203Y-108841729D01*
X131547707Y-108820205D01*
X131387293Y-108790540D01*
X131327848Y-108779061D01*
X130979060Y-108710943D01*
X130992867Y-108588055D01*
X131008313Y-108484853D01*
X131038175Y-108314916D01*
X131079761Y-108091769D01*
X131130375Y-107828942D01*
X131187326Y-107539963D01*
X131247918Y-107238358D01*
X131309459Y-106937656D01*
X131369255Y-106651385D01*
X131424612Y-106393073D01*
X131472836Y-106176248D01*
X131474891Y-106167267D01*
X131526516Y-105948298D01*
X131588101Y-105697173D01*
X131655827Y-105428437D01*
X131725876Y-105156635D01*
X131794432Y-104896314D01*
X131857676Y-104662018D01*
X131911792Y-104468293D01*
X131952962Y-104329685D01*
X131971884Y-104273630D01*
X131978918Y-104225221D01*
X131930935Y-104230837D01*
X131919706Y-104235137D01*
X131854478Y-104256761D01*
X131725729Y-104296149D01*
X131548894Y-104348695D01*
X131339412Y-104409790D01*
X131204746Y-104448555D01*
X130684082Y-104586515D01*
X130105619Y-104720190D01*
X129489578Y-104846078D01*
X128856178Y-104960675D01*
X128225638Y-105060478D01*
X127618178Y-105141984D01*
X127054016Y-105201690D01*
X126705657Y-105228038D01*
X126251737Y-105255607D01*
X126222702Y-104860061D01*
X126212323Y-104686567D01*
X126208190Y-104543977D01*
X126210644Y-104452011D01*
X126215209Y-104429660D01*
X126262492Y-104413339D01*
X126374298Y-104395669D01*
X126533162Y-104378933D01*
X126694764Y-104366987D01*
X127598688Y-104286220D01*
X128541677Y-104153533D01*
X129503223Y-103973448D01*
X130462815Y-103750489D01*
X131399943Y-103489177D01*
X132294098Y-103194035D01*
X132698277Y-103043129D01*
X132899070Y-102966966D01*
X133071843Y-102905031D01*
X133202741Y-102862007D01*
X133277912Y-102842581D01*
X133290106Y-102842987D01*
G37*
G36*
X165836488Y-117203380D02*
G01*
X165911678Y-117256547D01*
X165939076Y-117278907D01*
X166133671Y-117413871D01*
X166363782Y-117517521D01*
X166637779Y-117591442D01*
X166964034Y-117637216D01*
X167350919Y-117656425D01*
X167806804Y-117650653D01*
X167888282Y-117647450D01*
X168577211Y-117618130D01*
X168565342Y-118003007D01*
X168553473Y-118387884D01*
X167691761Y-118624160D01*
X167404147Y-118702875D01*
X167111634Y-118782670D01*
X166834675Y-118857984D01*
X166593724Y-118923257D01*
X166409237Y-118972926D01*
X166393531Y-118977128D01*
X165957015Y-119093821D01*
X165978657Y-118592683D01*
X165979556Y-118150144D01*
X165940024Y-117765621D01*
X165858430Y-117424813D01*
X165838762Y-117365893D01*
X165807447Y-117262899D01*
X165796462Y-117198145D01*
X165798610Y-117189812D01*
X165836488Y-117203380D01*
G37*
G36*
X123216335Y-59401971D02*
G01*
X123501330Y-59403334D01*
X123721325Y-59406148D01*
X123884851Y-59410860D01*
X124000441Y-59417913D01*
X124076629Y-59427753D01*
X124121946Y-59440823D01*
X124144926Y-59457570D01*
X124151341Y-59469039D01*
X124164991Y-59535277D01*
X124159682Y-59553996D01*
X124118305Y-59568998D01*
X124009768Y-59603790D01*
X123845616Y-59654901D01*
X123637391Y-59718859D01*
X123396636Y-59792192D01*
X123134894Y-59871429D01*
X122863709Y-59953099D01*
X122594623Y-60033730D01*
X122339180Y-60109850D01*
X122108922Y-60177989D01*
X121915393Y-60234674D01*
X121770137Y-60276434D01*
X121684695Y-60299798D01*
X121667324Y-60303551D01*
X121645092Y-60268081D01*
X121621647Y-60179038D01*
X121616483Y-60150485D01*
X121603391Y-60029396D01*
X121594051Y-59863424D01*
X121590597Y-59699111D01*
X121590145Y-59401615D01*
X122857807Y-59401615D01*
X123216335Y-59401971D01*
G37*
G36*
X168502115Y-118891217D02*
G01*
X168520898Y-119001679D01*
X168539903Y-119149451D01*
X168556502Y-119312247D01*
X168568070Y-119467779D01*
X168571883Y-119567609D01*
X168573990Y-119721486D01*
X167306963Y-119721486D01*
X166944321Y-119721008D01*
X166655243Y-119719303D01*
X166431229Y-119715970D01*
X166263779Y-119710606D01*
X166144392Y-119702806D01*
X166064570Y-119692168D01*
X166015811Y-119678290D01*
X165989616Y-119660767D01*
X165988030Y-119658944D01*
X165952812Y-119600558D01*
X165953093Y-119579432D01*
X165998451Y-119560774D01*
X166110378Y-119523548D01*
X166277441Y-119471090D01*
X166488204Y-119406736D01*
X166731233Y-119333822D01*
X166995094Y-119255686D01*
X167268352Y-119175662D01*
X167539572Y-119097087D01*
X167797321Y-119023297D01*
X168030163Y-118957630D01*
X168226665Y-118903420D01*
X168375391Y-118864004D01*
X168464908Y-118842719D01*
X168486180Y-118840353D01*
X168502115Y-118891217D01*
G37*
G36*
X124189898Y-60087520D02*
G01*
X124182740Y-60191467D01*
X124168235Y-60334263D01*
X124165868Y-60354747D01*
X124148505Y-60784821D01*
X124190453Y-61240911D01*
X124261643Y-61591424D01*
X124298123Y-61741755D01*
X124322985Y-61857359D01*
X124332172Y-61918862D01*
X124331247Y-61923881D01*
X124295006Y-61906409D01*
X124214646Y-61851158D01*
X124141780Y-61796380D01*
X124009027Y-61712860D01*
X123835499Y-61628905D01*
X123669889Y-61566508D01*
X123566284Y-61535714D01*
X123469112Y-61512773D01*
X123364403Y-61496687D01*
X123238187Y-61486463D01*
X123076492Y-61481105D01*
X122865348Y-61479618D01*
X122590783Y-61481007D01*
X122482633Y-61481938D01*
X121590145Y-61490047D01*
X121590145Y-61111150D01*
X121590145Y-60732252D01*
X122882842Y-60381656D01*
X123194403Y-60297630D01*
X123479720Y-60221593D01*
X123729401Y-60155975D01*
X123934056Y-60103208D01*
X124084291Y-60065725D01*
X124170715Y-60045956D01*
X124188182Y-60043701D01*
X124189898Y-60087520D01*
G37*
G36*
X170059587Y-108607564D02*
G01*
X170103062Y-108629567D01*
X170140493Y-108677235D01*
X170174974Y-108759874D01*
X170209599Y-108886789D01*
X170247462Y-109067284D01*
X170291658Y-109310666D01*
X170342927Y-109612171D01*
X170392371Y-109895026D01*
X170443271Y-110164292D01*
X170492453Y-110404748D01*
X170536746Y-110601170D01*
X170572976Y-110738336D01*
X170585403Y-110775619D01*
X170652602Y-110930241D01*
X170739418Y-111083165D01*
X170853577Y-111243792D01*
X171002804Y-111421526D01*
X171194824Y-111625771D01*
X171437363Y-111865929D01*
X171639746Y-112058945D01*
X171832730Y-112243014D01*
X172006361Y-112412439D01*
X172151272Y-112557768D01*
X172258097Y-112669552D01*
X172317468Y-112738340D01*
X172325385Y-112750681D01*
X172342770Y-112805973D01*
X172333033Y-112853155D01*
X172288255Y-112895126D01*
X172200517Y-112934787D01*
X172061901Y-112975041D01*
X171864489Y-113018789D01*
X171600363Y-113068930D01*
X171323770Y-113117661D01*
X171046915Y-113166896D01*
X170785375Y-113216023D01*
X170554164Y-113262020D01*
X170368294Y-113301863D01*
X170242779Y-113332529D01*
X170214416Y-113341020D01*
X170055727Y-113403704D01*
X169896571Y-113489288D01*
X169728028Y-113604919D01*
X169541181Y-113757746D01*
X169327111Y-113954918D01*
X169076901Y-114203583D01*
X168866710Y-114421304D01*
X168675524Y-114619538D01*
X168500967Y-114796191D01*
X168351554Y-114942994D01*
X168235802Y-115051680D01*
X168162226Y-115113978D01*
X168141289Y-115125686D01*
X168070816Y-115098857D01*
X168022963Y-115061205D01*
X167971372Y-114998579D01*
X167958234Y-114968878D01*
X167951553Y-114922143D01*
X167932947Y-114806215D01*
X167904354Y-114632789D01*
X167867712Y-114413561D01*
X167824956Y-114160226D01*
X167798316Y-114003420D01*
X167740056Y-113666002D01*
X167686618Y-113383954D01*
X167631596Y-113146157D01*
X167568586Y-112941489D01*
X167491181Y-112758831D01*
X167392976Y-112587062D01*
X167267566Y-112415061D01*
X167108545Y-112231709D01*
X166909508Y-112025885D01*
X166664049Y-111786468D01*
X166365764Y-111502339D01*
X166347900Y-111485385D01*
X166139925Y-111284493D01*
X165989202Y-111129045D01*
X165890493Y-111011280D01*
X165838561Y-110923442D01*
X165828172Y-110857771D01*
X165854086Y-110806509D01*
X165876010Y-110786225D01*
X165930133Y-110767538D01*
X166052728Y-110738276D01*
X166231257Y-110701006D01*
X166453184Y-110658300D01*
X166705970Y-110612728D01*
X166809531Y-110594850D01*
X167184921Y-110528749D01*
X167490224Y-110469547D01*
X167736790Y-110414005D01*
X167935973Y-110358890D01*
X168099125Y-110300964D01*
X168237597Y-110236993D01*
X168362743Y-110163741D01*
X168393692Y-110143319D01*
X168482261Y-110073017D01*
X168615623Y-109953350D01*
X168782623Y-109794999D01*
X168972110Y-109608645D01*
X169172932Y-109404967D01*
X169271834Y-109302349D01*
X169463587Y-109104608D01*
X169639447Y-108928520D01*
X169790721Y-108782369D01*
X169908712Y-108674439D01*
X169984727Y-108613015D01*
X170006972Y-108601921D01*
X170059587Y-108607564D01*
G37*
G36*
X122067681Y-64013699D02*
G01*
X122109496Y-64059123D01*
X122149138Y-64147830D01*
X122189485Y-64287707D01*
X122233413Y-64486644D01*
X122283802Y-64752528D01*
X122331392Y-65022757D01*
X122393530Y-65375389D01*
X122446917Y-65658620D01*
X122494773Y-65884237D01*
X122540318Y-66064028D01*
X122586771Y-66209781D01*
X122637352Y-66333285D01*
X122695281Y-66446328D01*
X122741782Y-66525310D01*
X122805697Y-66609983D01*
X122919421Y-66740480D01*
X123073077Y-66906301D01*
X123256786Y-67096943D01*
X123460672Y-67301905D01*
X123607671Y-67445914D01*
X123840249Y-67672459D01*
X124019094Y-67849945D01*
X124150403Y-67985378D01*
X124240371Y-68085769D01*
X124295195Y-68158124D01*
X124321070Y-68209453D01*
X124324192Y-68246763D01*
X124322300Y-68254235D01*
X124310699Y-68288060D01*
X124293618Y-68315722D01*
X124261715Y-68339703D01*
X124205646Y-68362486D01*
X124116069Y-68386553D01*
X123983638Y-68414385D01*
X123799012Y-68448464D01*
X123552847Y-68491274D01*
X123235799Y-68545295D01*
X123210414Y-68549611D01*
X122874613Y-68607524D01*
X122593853Y-68660729D01*
X122357036Y-68715628D01*
X122153065Y-68778625D01*
X121970845Y-68856121D01*
X121799277Y-68954521D01*
X121627265Y-69080227D01*
X121443712Y-69239642D01*
X121237522Y-69439168D01*
X120997597Y-69685208D01*
X120712841Y-69984166D01*
X120699117Y-69998627D01*
X120498225Y-70206601D01*
X120342776Y-70357325D01*
X120225012Y-70456034D01*
X120137174Y-70507965D01*
X120071503Y-70518355D01*
X120020241Y-70492440D01*
X119999956Y-70470517D01*
X119981270Y-70416393D01*
X119952007Y-70293798D01*
X119914738Y-70115269D01*
X119872032Y-69893343D01*
X119826460Y-69640556D01*
X119808581Y-69536995D01*
X119742481Y-69161605D01*
X119683278Y-68856303D01*
X119627737Y-68609736D01*
X119572621Y-68410553D01*
X119514696Y-68247401D01*
X119450725Y-68108929D01*
X119377473Y-67983784D01*
X119357051Y-67952834D01*
X119286748Y-67864265D01*
X119167082Y-67730904D01*
X119008731Y-67563903D01*
X118822376Y-67374416D01*
X118618699Y-67173595D01*
X118516081Y-67074693D01*
X118318340Y-66882940D01*
X118142252Y-66707079D01*
X117996101Y-66555806D01*
X117888171Y-66437814D01*
X117826747Y-66361800D01*
X117815653Y-66339554D01*
X117821296Y-66286940D01*
X117843299Y-66243464D01*
X117890967Y-66206033D01*
X117973606Y-66171553D01*
X118100521Y-66136928D01*
X118281016Y-66099065D01*
X118524398Y-66054868D01*
X118825903Y-66003600D01*
X119108758Y-65954156D01*
X119378024Y-65903256D01*
X119618480Y-65854074D01*
X119814902Y-65809781D01*
X119952068Y-65773551D01*
X119989350Y-65761123D01*
X120141674Y-65695111D01*
X120292043Y-65610221D01*
X120449857Y-65498738D01*
X120624516Y-65352947D01*
X120825418Y-65165134D01*
X121061962Y-64927585D01*
X121271841Y-64708527D01*
X121456598Y-64515481D01*
X121626535Y-64341731D01*
X121772240Y-64196598D01*
X121884297Y-64089404D01*
X121953294Y-64029472D01*
X121966023Y-64021142D01*
X122020816Y-64003668D01*
X122067681Y-64013699D01*
G37*
G36*
X173029697Y-117869005D02*
G01*
X172937000Y-118732753D01*
X172865335Y-119578476D01*
X172814612Y-120418008D01*
X172784741Y-121263182D01*
X172775632Y-122125830D01*
X172787195Y-123017787D01*
X172819339Y-123950884D01*
X172871976Y-124936955D01*
X172945014Y-125987833D01*
X172965869Y-126254771D01*
X172988137Y-126538094D01*
X173007889Y-126796862D01*
X173024251Y-127018999D01*
X173036347Y-127192427D01*
X173043304Y-127305066D01*
X173044628Y-127342170D01*
X173003093Y-127407925D01*
X172883154Y-127488031D01*
X172795628Y-127532402D01*
X172604417Y-127640927D01*
X172411608Y-127787986D01*
X172213753Y-127978219D01*
X172007404Y-128216265D01*
X171789113Y-128506764D01*
X171555432Y-128854355D01*
X171302911Y-129263679D01*
X171028104Y-129739373D01*
X170727562Y-130286079D01*
X170671579Y-130390307D01*
X170462847Y-130780129D01*
X170458141Y-128359128D01*
X170456833Y-127913572D01*
X170454733Y-127486896D01*
X170451935Y-127087168D01*
X170448537Y-126722455D01*
X170444632Y-126400826D01*
X170440319Y-126130349D01*
X170435691Y-125919092D01*
X170430845Y-125775124D01*
X170426717Y-125712439D01*
X170402812Y-125580009D01*
X170361505Y-125502098D01*
X170291463Y-125476780D01*
X170181357Y-125502131D01*
X170019855Y-125576225D01*
X169923643Y-125626978D01*
X169615424Y-125769532D01*
X169289082Y-125870730D01*
X168927606Y-125934145D01*
X168513984Y-125963350D01*
X168307809Y-125966283D01*
X168057215Y-125964114D01*
X167870429Y-125956433D01*
X167729273Y-125941395D01*
X167615570Y-125917155D01*
X167523726Y-125886726D01*
X167406451Y-125831261D01*
X167254618Y-125744117D01*
X167083353Y-125635844D01*
X166907777Y-125516991D01*
X166743016Y-125398110D01*
X166604193Y-125289749D01*
X166506431Y-125202459D01*
X166465275Y-125148366D01*
X166449351Y-125089699D01*
X166416181Y-124963413D01*
X166368850Y-124781395D01*
X166310445Y-124555537D01*
X166244049Y-124297728D01*
X166195744Y-124109586D01*
X165947819Y-123142759D01*
X165947819Y-121550496D01*
X165947819Y-119958234D01*
X166163247Y-119982300D01*
X166265063Y-119991752D01*
X166434329Y-120005264D01*
X166656586Y-120021781D01*
X166917377Y-120040246D01*
X167202243Y-120059600D01*
X167384006Y-120071545D01*
X167667466Y-120090416D01*
X167927420Y-120108659D01*
X168151437Y-120125324D01*
X168327090Y-120139466D01*
X168441949Y-120150137D01*
X168479496Y-120155028D01*
X168569654Y-120173334D01*
X168582080Y-121804195D01*
X168585373Y-122214276D01*
X168588702Y-122550697D01*
X168592527Y-122821865D01*
X168597308Y-123036186D01*
X168603503Y-123202067D01*
X168611573Y-123327915D01*
X168621975Y-123422136D01*
X168635170Y-123493138D01*
X168651617Y-123549328D01*
X168671775Y-123599111D01*
X168681260Y-123619709D01*
X168788616Y-123808761D01*
X168906844Y-123927457D01*
X169051656Y-123987364D01*
X169198786Y-124000738D01*
X169448878Y-123963672D01*
X169678325Y-123851449D01*
X169888951Y-123662538D01*
X170082579Y-123395405D01*
X170216789Y-123144797D01*
X170292752Y-122974624D01*
X170351827Y-122811421D01*
X170395565Y-122642328D01*
X170425520Y-122454489D01*
X170443244Y-122235045D01*
X170450291Y-121971138D01*
X170448211Y-121649910D01*
X170439740Y-121298396D01*
X170410904Y-120310685D01*
X170628088Y-120171318D01*
X170845272Y-120031952D01*
X170670270Y-119955639D01*
X170586811Y-119916206D01*
X170536180Y-119875222D01*
X170517982Y-119817830D01*
X170531823Y-119729175D01*
X170577309Y-119594399D01*
X170654044Y-119398648D01*
X170655395Y-119395262D01*
X170814697Y-119050991D01*
X171009310Y-118719577D01*
X171229479Y-118412454D01*
X171465451Y-118141057D01*
X171707475Y-117916820D01*
X171945795Y-117751178D01*
X172128647Y-117668066D01*
X172253955Y-117646347D01*
X172325548Y-117684493D01*
X172348483Y-117781189D01*
X172381268Y-117838731D01*
X172427395Y-117872934D01*
X172487276Y-117887079D01*
X172572688Y-117869485D01*
X172701429Y-117815282D01*
X172781327Y-117776097D01*
X173056976Y-117637363D01*
X173029697Y-117869005D01*
G37*
G36*
X119677201Y-48445080D02*
G01*
X119682293Y-48559949D01*
X119687001Y-48743027D01*
X119691243Y-48987384D01*
X119694936Y-49286092D01*
X119697997Y-49632220D01*
X119700344Y-50018839D01*
X119701894Y-50439021D01*
X119702564Y-50885835D01*
X119702585Y-50981454D01*
X119702974Y-51538748D01*
X119704200Y-52018510D01*
X119706346Y-52425270D01*
X119709498Y-52763561D01*
X119713741Y-53037913D01*
X119719159Y-53252859D01*
X119725838Y-53412930D01*
X119733862Y-53522657D01*
X119743318Y-53586572D01*
X119751825Y-53607625D01*
X119827068Y-53650364D01*
X119927098Y-53641896D01*
X120065823Y-53579648D01*
X120140973Y-53535622D01*
X120438652Y-53388373D01*
X120793423Y-53272329D01*
X121184224Y-53193653D01*
X121390966Y-53169871D01*
X121642747Y-53156201D01*
X121908180Y-53155289D01*
X122166917Y-53165970D01*
X122398608Y-53187081D01*
X122582905Y-53217458D01*
X122671595Y-53243132D01*
X122749332Y-53283741D01*
X122876592Y-53361469D01*
X123036304Y-53465478D01*
X123211397Y-53584925D01*
X123226980Y-53595819D01*
X123665212Y-53902833D01*
X123941327Y-54980092D01*
X124217442Y-56057350D01*
X124216879Y-57611109D01*
X124216317Y-59164868D01*
X124000888Y-59140801D01*
X123899073Y-59131350D01*
X123729807Y-59117837D01*
X123507550Y-59101320D01*
X123246759Y-59082856D01*
X122961892Y-59063501D01*
X122780129Y-59051557D01*
X122496727Y-59032695D01*
X122236885Y-59014477D01*
X122013018Y-58997848D01*
X121837544Y-58983752D01*
X121722878Y-58973133D01*
X121685455Y-58968278D01*
X121596113Y-58950176D01*
X121581649Y-57360145D01*
X121577810Y-56955769D01*
X121574025Y-56624690D01*
X121569784Y-56358141D01*
X121564573Y-56147353D01*
X121557879Y-55983557D01*
X121549190Y-55857986D01*
X121537993Y-55761871D01*
X121523776Y-55686444D01*
X121506026Y-55622936D01*
X121484230Y-55562580D01*
X121475221Y-55539749D01*
X121366453Y-55327345D01*
X121234865Y-55190551D01*
X121070706Y-55123958D01*
X120864226Y-55122157D01*
X120756109Y-55140785D01*
X120555277Y-55222463D01*
X120356475Y-55374622D01*
X120168417Y-55585949D01*
X119999818Y-55845131D01*
X119859392Y-56140854D01*
X119764518Y-56428072D01*
X119743041Y-56526932D01*
X119726798Y-56647447D01*
X119715250Y-56800922D01*
X119707856Y-56998661D01*
X119704074Y-57251968D01*
X119703365Y-57572148D01*
X119703729Y-57698708D01*
X119704714Y-57982462D01*
X119705407Y-58240068D01*
X119705793Y-58459824D01*
X119705857Y-58630026D01*
X119705584Y-58738973D01*
X119705128Y-58773877D01*
X119672264Y-58822578D01*
X119590187Y-58896327D01*
X119511774Y-58954479D01*
X119320964Y-59085760D01*
X119480999Y-59166770D01*
X119580790Y-59218106D01*
X119643539Y-59251937D01*
X119652540Y-59257555D01*
X119644638Y-59297687D01*
X119613834Y-59397007D01*
X119565803Y-59537774D01*
X119537780Y-59616281D01*
X119389901Y-59960507D01*
X119201090Y-60299708D01*
X118982281Y-60619828D01*
X118744408Y-60906809D01*
X118498403Y-61146595D01*
X118255201Y-61325129D01*
X118173636Y-61370110D01*
X118014011Y-61446456D01*
X117911254Y-61482828D01*
X117850700Y-61479474D01*
X117817683Y-61436643D01*
X117801699Y-61376425D01*
X117765433Y-61278614D01*
X117699842Y-61234368D01*
X117594846Y-61243040D01*
X117440367Y-61303981D01*
X117353389Y-61347569D01*
X117213655Y-61419318D01*
X117132398Y-61455139D01*
X117095782Y-61457913D01*
X117089973Y-61430521D01*
X117095413Y-61401282D01*
X117107726Y-61320276D01*
X117126662Y-61159708D01*
X117151996Y-60921797D01*
X117183501Y-60608762D01*
X117220953Y-60222823D01*
X117264125Y-59766200D01*
X117290416Y-59483683D01*
X117304206Y-59284199D01*
X117315885Y-59013849D01*
X117325453Y-58683811D01*
X117332910Y-58305258D01*
X117338258Y-57889367D01*
X117341495Y-57447313D01*
X117342623Y-56990273D01*
X117341642Y-56529421D01*
X117338551Y-56075933D01*
X117333353Y-55640985D01*
X117326045Y-55235753D01*
X117316630Y-54871412D01*
X117305107Y-54559137D01*
X117291477Y-54310105D01*
X117290270Y-54292892D01*
X117259594Y-53868539D01*
X117229632Y-53462114D01*
X117201066Y-53082317D01*
X117174575Y-52737852D01*
X117150841Y-52437417D01*
X117130544Y-52189715D01*
X117114366Y-52003447D01*
X117102987Y-51887314D01*
X117100275Y-51864923D01*
X117095999Y-51789142D01*
X117119408Y-51736172D01*
X117186784Y-51686716D01*
X117299548Y-51628733D01*
X117539061Y-51485278D01*
X117782370Y-51285957D01*
X118032193Y-51027234D01*
X118291250Y-50705575D01*
X118562260Y-50317449D01*
X118847944Y-49859319D01*
X119151020Y-49327653D01*
X119338136Y-48979863D01*
X119443079Y-48784549D01*
X119536214Y-48617672D01*
X119610381Y-48491560D01*
X119658419Y-48418546D01*
X119671809Y-48405349D01*
X119677201Y-48445080D01*
G37*
G04 #@! TD*
D13*
G04 #@! TO.C,LED1*
X145299900Y-75550300D03*
X145299900Y-73449700D03*
G04 #@! TD*
D14*
G04 #@! TO.C,U1*
X145899800Y-90499700D03*
D15*
X145899800Y-89999800D03*
X145899800Y-89500000D03*
D16*
X145299900Y-89399900D03*
D15*
X144699900Y-89499700D03*
X144699900Y-89999800D03*
X144699900Y-90499700D03*
D16*
X145299900Y-90599800D03*
G04 #@! TD*
D17*
G04 #@! TO.C,C1*
X146000000Y-101300000D03*
X144600000Y-101300000D03*
G04 #@! TD*
D18*
G04 #@! TO.C,R1*
X146053400Y-78800000D03*
X144546600Y-78800000D03*
G04 #@! TD*
%LPD*%
M02*
