G04 #@! TF.GenerationSoftware,KiCad,Pcbnew,9.0.3*
G04 #@! TF.CreationDate,2025-07-14T03:19:36-04:00*
G04 #@! TF.ProjectId,CHEAPSUITS,43484541-5053-4554-9954-532e6b696361,rev?*
G04 #@! TF.SameCoordinates,Original*
G04 #@! TF.FileFunction,Soldermask,Top*
G04 #@! TF.FilePolarity,Negative*
%FSLAX46Y46*%
G04 Gerber Fmt 4.6, Leading zero omitted, Abs format (unit mm)*
G04 Created by KiCad (PCBNEW 9.0.3) date 2025-07-14 03:19:36*
%MOMM*%
%LPD*%
G01*
G04 APERTURE LIST*
G04 Aperture macros list*
%AMRoundRect*
0 Rectangle with rounded corners*
0 $1 Rounding radius*
0 $2 $3 $4 $5 $6 $7 $8 $9 X,Y pos of 4 corners*
0 Add a 4 corners polygon primitive as box body*
4,1,4,$2,$3,$4,$5,$6,$7,$8,$9,$2,$3,0*
0 Add four circle primitives for the rounded corners*
1,1,$1+$1,$2,$3*
1,1,$1+$1,$4,$5*
1,1,$1+$1,$6,$7*
1,1,$1+$1,$8,$9*
0 Add four rect primitives between the rounded corners*
20,1,$1+$1,$2,$3,$4,$5,0*
20,1,$1+$1,$4,$5,$6,$7,0*
20,1,$1+$1,$6,$7,$8,$9,0*
20,1,$1+$1,$8,$9,$2,$3,0*%
G04 Aperture macros list end*
%ADD10C,0.000000*%
%ADD11RoundRect,0.050800X0.699750X-0.500000X0.699750X0.500000X-0.699750X0.500000X-0.699750X-0.500000X0*%
%ADD12RoundRect,0.050800X0.200000X0.140000X-0.200000X0.140000X-0.200000X-0.140000X0.200000X-0.140000X0*%
%ADD13RoundRect,0.050800X0.200000X0.110000X-0.200000X0.110000X-0.200000X-0.110000X0.200000X-0.110000X0*%
%ADD14RoundRect,0.050800X-0.110000X0.200000X-0.110000X-0.200000X0.110000X-0.200000X0.110000X0.200000X0*%
%ADD15RoundRect,0.050800X0.400000X0.450000X-0.400000X0.450000X-0.400000X-0.450000X0.400000X-0.450000X0*%
%ADD16RoundRect,0.050800X0.403250X0.432000X-0.403250X0.432000X-0.403250X-0.432000X0.403250X-0.432000X0*%
G04 APERTURE END LIST*
D10*
G04 #@! TO.C,G\u002A\u002A\u002A*
G36*
X168659207Y-67060497D02*
G01*
X168654475Y-67175386D01*
X168645810Y-67355094D01*
X168633701Y-67591072D01*
X168618637Y-67874767D01*
X168601106Y-68197631D01*
X168581598Y-68551111D01*
X168560601Y-68926658D01*
X168538603Y-69315721D01*
X168516095Y-69709749D01*
X168493565Y-70100192D01*
X168471501Y-70478499D01*
X168450392Y-70836120D01*
X168430728Y-71164503D01*
X168412997Y-71455098D01*
X168397688Y-71699356D01*
X168385290Y-71888724D01*
X168376291Y-72014653D01*
X168371181Y-72068591D01*
X168370749Y-72069976D01*
X168330111Y-72080955D01*
X168217882Y-72109187D01*
X168042250Y-72152664D01*
X167811399Y-72209378D01*
X167533516Y-72277322D01*
X167216787Y-72354487D01*
X166869397Y-72438867D01*
X166637541Y-72495055D01*
X166272520Y-72583522D01*
X165930906Y-72666481D01*
X165621230Y-72741848D01*
X165352026Y-72807538D01*
X165131826Y-72861467D01*
X164969164Y-72901551D01*
X164872572Y-72925707D01*
X164849799Y-72931712D01*
X164816244Y-72925313D01*
X164784027Y-72876752D01*
X164748327Y-72774340D01*
X164704327Y-72606392D01*
X164688628Y-72540806D01*
X164649957Y-72368768D01*
X164622191Y-72228955D01*
X164608585Y-72138851D01*
X164609328Y-72114621D01*
X164651831Y-72101601D01*
X164765150Y-72071503D01*
X164940339Y-72026583D01*
X165168455Y-71969093D01*
X165440554Y-71901286D01*
X165747692Y-71825416D01*
X166080925Y-71743738D01*
X166093842Y-71740584D01*
X166458364Y-71650356D01*
X166782701Y-71567610D01*
X167059932Y-71494255D01*
X167283138Y-71432202D01*
X167445396Y-71383359D01*
X167539786Y-71349638D01*
X167561877Y-71335444D01*
X167564445Y-71285456D01*
X167571328Y-71162480D01*
X167582008Y-70975454D01*
X167595970Y-70733315D01*
X167612697Y-70445002D01*
X167631674Y-70119452D01*
X167652385Y-69765602D01*
X167660544Y-69626556D01*
X167681542Y-69266286D01*
X167700683Y-68932580D01*
X167717495Y-68634090D01*
X167731504Y-68379470D01*
X167742237Y-68177372D01*
X167749220Y-68036450D01*
X167751980Y-67965355D01*
X167751799Y-67958411D01*
X167710951Y-67960746D01*
X167596026Y-67969797D01*
X167414682Y-67984902D01*
X167174575Y-68005401D01*
X166883365Y-68030632D01*
X166548710Y-68059936D01*
X166178267Y-68092651D01*
X165779694Y-68128117D01*
X165642469Y-68140386D01*
X165174141Y-68182409D01*
X164780990Y-68218079D01*
X164456443Y-68248250D01*
X164193926Y-68273775D01*
X163986865Y-68295506D01*
X163828686Y-68314295D01*
X163712816Y-68330997D01*
X163632682Y-68346463D01*
X163581708Y-68361546D01*
X163553322Y-68377099D01*
X163540950Y-68393975D01*
X163538018Y-68413026D01*
X163538011Y-68413378D01*
X163532873Y-68496187D01*
X163520055Y-68641066D01*
X163500975Y-68835337D01*
X163477054Y-69066323D01*
X163449711Y-69321345D01*
X163420366Y-69587725D01*
X163390440Y-69852787D01*
X163361351Y-70103852D01*
X163334520Y-70328241D01*
X163311366Y-70513278D01*
X163293309Y-70646284D01*
X163281769Y-70714581D01*
X163279607Y-70720786D01*
X163230284Y-70728383D01*
X163122091Y-70727622D01*
X162977598Y-70720264D01*
X162819377Y-70708073D01*
X162669999Y-70692810D01*
X162552034Y-70676236D01*
X162488053Y-70660114D01*
X162485821Y-70658817D01*
X162478530Y-70610261D01*
X162481535Y-70482766D01*
X162494646Y-70278787D01*
X162517674Y-70000780D01*
X162550427Y-69651201D01*
X162592715Y-69232505D01*
X162607302Y-69093115D01*
X162643933Y-68747323D01*
X162678087Y-68428167D01*
X162708779Y-68144616D01*
X162735022Y-67905642D01*
X162755830Y-67720216D01*
X162770217Y-67597309D01*
X162777196Y-67545893D01*
X162777507Y-67544929D01*
X162818848Y-67539377D01*
X162934030Y-67527411D01*
X163115160Y-67509737D01*
X163354347Y-67487059D01*
X163643700Y-67460084D01*
X163975328Y-67429517D01*
X164341339Y-67396064D01*
X164733843Y-67360430D01*
X165144948Y-67323321D01*
X165566762Y-67285442D01*
X165991395Y-67247500D01*
X166410955Y-67210200D01*
X166817551Y-67174246D01*
X167203292Y-67140346D01*
X167560286Y-67109205D01*
X167880643Y-67081527D01*
X168156470Y-67058020D01*
X168379877Y-67039388D01*
X168542973Y-67026337D01*
X168637866Y-67019572D01*
X168659517Y-67018979D01*
X168659207Y-67060497D01*
G37*
G36*
X145222335Y-54520449D02*
G01*
X145266891Y-54632670D01*
X145329199Y-54797989D01*
X145404673Y-55004192D01*
X145488725Y-55239066D01*
X145505030Y-55285199D01*
X145878938Y-56301770D01*
X146269469Y-57274403D01*
X146688477Y-58230564D01*
X147147819Y-59197720D01*
X147470907Y-59839965D01*
X147935468Y-60718315D01*
X148430263Y-61603944D01*
X148946150Y-62481955D01*
X149473985Y-63337452D01*
X150004627Y-64155538D01*
X150528932Y-64921315D01*
X150929547Y-65475336D01*
X151085029Y-65687071D01*
X151197083Y-65848381D01*
X151272732Y-65973570D01*
X151318997Y-66076944D01*
X151342902Y-66172806D01*
X151351469Y-66275461D01*
X151352194Y-66336255D01*
X151313353Y-66566638D01*
X151197811Y-66769281D01*
X151006242Y-66943804D01*
X150739317Y-67089831D01*
X150397709Y-67206980D01*
X149982089Y-67294875D01*
X149557170Y-67347584D01*
X149259674Y-67374659D01*
X149259674Y-66946687D01*
X149259674Y-66518714D01*
X149639238Y-66470249D01*
X149888775Y-66433117D01*
X150102850Y-66391035D01*
X150270821Y-66346957D01*
X150382044Y-66303837D01*
X150425879Y-66264628D01*
X150423465Y-66252591D01*
X150390458Y-66205033D01*
X150318384Y-66104479D01*
X150216745Y-65964089D01*
X150095044Y-65797021D01*
X150047853Y-65732474D01*
X149703127Y-65248096D01*
X149333065Y-64703774D01*
X148946841Y-64114023D01*
X148553628Y-63493358D01*
X148162602Y-62856293D01*
X147782936Y-62217343D01*
X147423805Y-61591023D01*
X147373824Y-61501839D01*
X147187377Y-61160411D01*
X146979355Y-60766193D01*
X146757568Y-60334988D01*
X146529824Y-59882600D01*
X146303930Y-59424832D01*
X146087694Y-58977488D01*
X145888926Y-58556372D01*
X145715433Y-58177287D01*
X145590221Y-57891841D01*
X145484014Y-57643761D01*
X145404819Y-57463074D01*
X145347760Y-57341549D01*
X145307965Y-57270959D01*
X145280558Y-57243075D01*
X145260666Y-57249668D01*
X145243415Y-57282509D01*
X145237797Y-57296849D01*
X145205220Y-57382884D01*
X145151464Y-57525579D01*
X145084127Y-57704733D01*
X145014295Y-57890853D01*
X144776812Y-58493877D01*
X144500065Y-59144078D01*
X144193139Y-59822318D01*
X143865119Y-60509461D01*
X143525089Y-61186369D01*
X143182134Y-61833904D01*
X142917462Y-62307990D01*
X142555122Y-62918828D01*
X142162643Y-63541263D01*
X141751605Y-64158459D01*
X141333588Y-64753581D01*
X140920173Y-65309794D01*
X140522942Y-65810260D01*
X140439222Y-65910795D01*
X140298297Y-66085057D01*
X140195168Y-66226484D01*
X140136309Y-66325600D01*
X140125867Y-66369362D01*
X140187154Y-66434948D01*
X140321826Y-66513943D01*
X140522820Y-66603555D01*
X140783069Y-66700992D01*
X141095507Y-66803463D01*
X141453068Y-66908174D01*
X141570714Y-66940315D01*
X141587637Y-66977429D01*
X141583149Y-67078068D01*
X141556726Y-67248315D01*
X141534150Y-67366346D01*
X141492172Y-67562010D01*
X141456912Y-67688017D01*
X141424153Y-67756046D01*
X141389682Y-67777779D01*
X141385630Y-67777845D01*
X141317676Y-67765668D01*
X141193999Y-67735122D01*
X141037321Y-67691955D01*
X140978916Y-67674936D01*
X140505464Y-67521332D01*
X140110856Y-67362811D01*
X139791908Y-67196980D01*
X139545435Y-67021446D01*
X139368252Y-66833819D01*
X139257174Y-66631705D01*
X139209016Y-66412712D01*
X139206362Y-66343439D01*
X139210868Y-66233994D01*
X139228959Y-66134798D01*
X139267492Y-66033784D01*
X139333326Y-65918882D01*
X139433318Y-65778025D01*
X139574326Y-65599145D01*
X139751361Y-65384392D01*
X140475382Y-64465122D01*
X141175884Y-63475710D01*
X141846622Y-62426243D01*
X142481354Y-61326807D01*
X143073836Y-60187489D01*
X143424265Y-59450142D01*
X143775453Y-58659968D01*
X144083254Y-57914396D01*
X144354947Y-57193465D01*
X144597809Y-56477217D01*
X144819119Y-55745692D01*
X144954694Y-55253183D01*
X145020679Y-55011357D01*
X145081402Y-54801329D01*
X145133345Y-54634267D01*
X145172993Y-54521342D01*
X145196829Y-54473724D01*
X145200122Y-54473538D01*
X145222335Y-54520449D01*
G37*
G36*
X122547818Y-105443598D02*
G01*
X122613965Y-105496745D01*
X122702213Y-105602081D01*
X122825547Y-105766277D01*
X122834503Y-105778357D01*
X123041178Y-106057147D01*
X122817737Y-106280588D01*
X122527755Y-106621245D01*
X122312332Y-106984246D01*
X122171807Y-107362581D01*
X122106520Y-107749237D01*
X122116810Y-108137205D01*
X122203017Y-108519472D01*
X122365480Y-108889027D01*
X122604539Y-109238859D01*
X122670704Y-109316143D01*
X122937617Y-109555779D01*
X123264686Y-109747633D01*
X123643106Y-109888419D01*
X124064074Y-109974850D01*
X124512522Y-110003651D01*
X124783081Y-109995212D01*
X125037620Y-109967395D01*
X125294153Y-109915884D01*
X125570695Y-109836364D01*
X125885260Y-109724518D01*
X126198608Y-109599733D01*
X126402523Y-109516925D01*
X126578174Y-109447894D01*
X126712373Y-109397638D01*
X126791931Y-109371158D01*
X126807927Y-109368737D01*
X126798065Y-109409485D01*
X126761311Y-109512154D01*
X126702858Y-109663130D01*
X126627893Y-109848795D01*
X126590185Y-109939964D01*
X126425456Y-110355603D01*
X126300814Y-110721128D01*
X126211940Y-111055440D01*
X126154510Y-111377438D01*
X126124204Y-111706024D01*
X126116540Y-112011598D01*
X126134063Y-112433591D01*
X126189407Y-112793031D01*
X126286731Y-113102214D01*
X126430196Y-113373435D01*
X126623961Y-113618987D01*
X126680077Y-113677134D01*
X126961425Y-113906931D01*
X127272682Y-114062039D01*
X127617150Y-114143520D01*
X127998132Y-114152429D01*
X128125204Y-114140498D01*
X128410889Y-114092568D01*
X128648041Y-114016607D01*
X128862755Y-113900188D01*
X129081129Y-113730880D01*
X129186586Y-113635029D01*
X129493412Y-113310997D01*
X129760934Y-112949877D01*
X129994887Y-112541357D01*
X130201004Y-112075124D01*
X130385020Y-111540867D01*
X130424220Y-111409351D01*
X130466472Y-111267580D01*
X130499753Y-111162740D01*
X130517925Y-111114010D01*
X130519166Y-111112677D01*
X130579079Y-111125092D01*
X130691868Y-111153362D01*
X130836437Y-111191678D01*
X130991691Y-111234236D01*
X131136536Y-111275229D01*
X131249877Y-111308849D01*
X131310620Y-111329292D01*
X131315285Y-111331817D01*
X131316402Y-111382861D01*
X131292443Y-111495920D01*
X131248087Y-111656523D01*
X131188010Y-111850199D01*
X131116892Y-112062479D01*
X131039408Y-112278891D01*
X130960239Y-112484967D01*
X130884060Y-112666235D01*
X130883507Y-112667475D01*
X130609167Y-113207912D01*
X130294169Y-113686033D01*
X129929373Y-114115297D01*
X129835586Y-114210386D01*
X129574098Y-114451366D01*
X129332108Y-114633452D01*
X129088487Y-114769051D01*
X128822103Y-114870571D01*
X128615420Y-114926893D01*
X128319561Y-114979157D01*
X127996086Y-115005007D01*
X127672261Y-115004340D01*
X127375355Y-114977054D01*
X127162905Y-114932384D01*
X126785216Y-114791646D01*
X126449700Y-114597698D01*
X126134697Y-114337511D01*
X126072017Y-114276143D01*
X125810699Y-113984281D01*
X125607788Y-113686084D01*
X125457408Y-113366844D01*
X125353684Y-113011852D01*
X125290738Y-112606402D01*
X125266766Y-112260612D01*
X125267397Y-111681040D01*
X125320051Y-111146717D01*
X125362270Y-110910057D01*
X125376693Y-110818590D01*
X125362119Y-110788837D01*
X125312626Y-110802223D01*
X125218826Y-110823169D01*
X125061899Y-110839468D01*
X124860675Y-110850800D01*
X124633980Y-110856846D01*
X124400643Y-110857286D01*
X124179491Y-110851800D01*
X123989353Y-110840068D01*
X123876253Y-110826629D01*
X123361424Y-110706790D01*
X122892822Y-110522416D01*
X122473965Y-110276454D01*
X122108369Y-109971849D01*
X121799551Y-109611549D01*
X121551028Y-109198498D01*
X121366315Y-108735642D01*
X121361474Y-108719966D01*
X121266177Y-108271968D01*
X121246664Y-107812070D01*
X121299722Y-107350613D01*
X121422139Y-106897940D01*
X121610703Y-106464392D01*
X121862201Y-106060311D01*
X122173421Y-105696040D01*
X122352130Y-105530607D01*
X122429885Y-105467198D01*
X122490786Y-105435972D01*
X122547818Y-105443598D01*
G37*
G36*
X147566946Y-64988825D02*
G01*
X147651374Y-65070189D01*
X147763054Y-65184095D01*
X147836146Y-65261084D01*
X148110067Y-65552964D01*
X146942628Y-66689504D01*
X145775189Y-67826043D01*
X147227404Y-69126380D01*
X147519328Y-69388489D01*
X147791763Y-69634482D01*
X148038733Y-69858865D01*
X148254261Y-70056141D01*
X148432370Y-70220814D01*
X148567083Y-70347390D01*
X148652422Y-70430372D01*
X148682409Y-70464232D01*
X148664650Y-70514164D01*
X148614642Y-70617597D01*
X148541156Y-70756951D01*
X148491801Y-70846295D01*
X148398308Y-71007863D01*
X148331400Y-71107800D01*
X148280892Y-71157843D01*
X148236594Y-71169730D01*
X148214822Y-71165413D01*
X148142582Y-71147049D01*
X148009612Y-71116411D01*
X147835533Y-71077923D01*
X147659351Y-71040110D01*
X147056664Y-70935317D01*
X146396646Y-70862416D01*
X145698305Y-70823183D01*
X145264381Y-70816540D01*
X144798386Y-70821939D01*
X144370854Y-70839746D01*
X143965147Y-70872380D01*
X143564624Y-70922257D01*
X143152647Y-70991793D01*
X142712577Y-71083405D01*
X142227774Y-71199511D01*
X141726520Y-71330421D01*
X141453605Y-71403401D01*
X141206559Y-71468674D01*
X140996542Y-71523355D01*
X140834713Y-71564560D01*
X140732229Y-71589406D01*
X140700672Y-71595573D01*
X140720895Y-71567928D01*
X140794242Y-71489223D01*
X140914793Y-71365401D01*
X141076629Y-71202405D01*
X141273831Y-71006175D01*
X141500481Y-70782654D01*
X141750659Y-70537784D01*
X141873567Y-70418099D01*
X142171382Y-70128269D01*
X142239194Y-70062161D01*
X143470033Y-70062161D01*
X143707907Y-70030022D01*
X143818814Y-70019471D01*
X143996137Y-70007923D01*
X144224246Y-69996152D01*
X144487507Y-69984931D01*
X144770289Y-69975035D01*
X144889561Y-69971504D01*
X145317192Y-69963639D01*
X145714752Y-69964321D01*
X146065290Y-69973323D01*
X146351854Y-69990414D01*
X146363000Y-69991372D01*
X146561576Y-70007803D01*
X146728050Y-70019856D01*
X146846785Y-70026525D01*
X146902146Y-70026808D01*
X146904145Y-70026134D01*
X146877835Y-69996908D01*
X146797835Y-69919913D01*
X146671640Y-69802079D01*
X146506743Y-69650333D01*
X146310639Y-69471604D01*
X146090822Y-69272819D01*
X146033209Y-69220953D01*
X145150786Y-68427258D01*
X144527766Y-69034563D01*
X144325881Y-69231272D01*
X144128930Y-69423021D01*
X143949913Y-69597166D01*
X143801831Y-69741059D01*
X143697684Y-69842056D01*
X143687390Y-69852014D01*
X143470033Y-70062161D01*
X142239194Y-70062161D01*
X142481788Y-69825661D01*
X142792762Y-69522033D01*
X143092281Y-69229140D01*
X143368321Y-68958739D01*
X143608861Y-68722587D01*
X143793025Y-68541182D01*
X144501982Y-67841128D01*
X143411464Y-66862532D01*
X143160284Y-66635699D01*
X142930261Y-66425206D01*
X142728178Y-66237474D01*
X142560816Y-66078925D01*
X142434961Y-65955981D01*
X142357395Y-65875061D01*
X142334554Y-65843111D01*
X142367167Y-65793044D01*
X142438859Y-65702844D01*
X142534788Y-65589363D01*
X142640118Y-65469450D01*
X142740008Y-65359956D01*
X142819619Y-65277731D01*
X142864113Y-65239627D01*
X142866762Y-65238765D01*
X142902800Y-65264637D01*
X142992707Y-65339533D01*
X143129538Y-65457374D01*
X143306344Y-65612080D01*
X143516179Y-65797571D01*
X143752095Y-66007769D01*
X144007147Y-66236593D01*
X144013783Y-66242567D01*
X145131906Y-67249207D01*
X145626242Y-66765857D01*
X145811017Y-66584967D01*
X146036076Y-66364293D01*
X146283256Y-66121663D01*
X146534394Y-65874908D01*
X146771330Y-65641855D01*
X146803102Y-65610580D01*
X146997796Y-65421083D01*
X147174130Y-65253583D01*
X147323499Y-65115923D01*
X147437296Y-65015942D01*
X147506912Y-64961482D01*
X147523926Y-64953929D01*
X147566946Y-64988825D01*
G37*
G36*
X165524229Y-73387946D02*
G01*
X165663622Y-73393262D01*
X165870472Y-73400616D01*
X166130207Y-73409518D01*
X166428258Y-73419475D01*
X166750051Y-73429995D01*
X167081016Y-73440587D01*
X167124980Y-73441976D01*
X167433769Y-73452306D01*
X167715284Y-73462855D01*
X167959272Y-73473149D01*
X168155482Y-73482714D01*
X168293661Y-73491075D01*
X168363558Y-73497758D01*
X168369954Y-73499571D01*
X168371370Y-73543195D01*
X168367629Y-73659707D01*
X168359306Y-73840128D01*
X168346977Y-74075480D01*
X168331215Y-74356783D01*
X168312597Y-74675057D01*
X168291697Y-75021325D01*
X168269091Y-75386606D01*
X168245353Y-75761923D01*
X168221059Y-76138295D01*
X168196784Y-76506744D01*
X168173102Y-76858291D01*
X168150589Y-77183956D01*
X168129821Y-77474761D01*
X168111371Y-77721726D01*
X168095815Y-77915872D01*
X168083729Y-78048221D01*
X168075686Y-78109793D01*
X168074478Y-78112990D01*
X168026867Y-78121678D01*
X167907312Y-78130465D01*
X167724948Y-78139216D01*
X167488909Y-78147800D01*
X167208327Y-78156084D01*
X166892338Y-78163934D01*
X166550075Y-78171218D01*
X166190673Y-78177802D01*
X165823264Y-78183555D01*
X165456983Y-78188343D01*
X165100963Y-78192033D01*
X164764340Y-78194492D01*
X164456246Y-78195587D01*
X164185816Y-78195186D01*
X163962183Y-78193156D01*
X163794481Y-78189363D01*
X163691845Y-78183675D01*
X163662582Y-78177180D01*
X163656199Y-78131653D01*
X163638129Y-78015109D01*
X163609995Y-77837513D01*
X163573416Y-77608827D01*
X163530013Y-77339018D01*
X163481406Y-77038050D01*
X163429217Y-76715887D01*
X163375065Y-76382494D01*
X163320571Y-76047835D01*
X163267356Y-75721875D01*
X163217041Y-75414578D01*
X163171246Y-75135909D01*
X163131592Y-74895832D01*
X163099699Y-74704313D01*
X163077188Y-74571314D01*
X163065679Y-74506802D01*
X163065499Y-74505925D01*
X163058332Y-74457865D01*
X163069796Y-74424184D01*
X163113671Y-74398765D01*
X163203735Y-74375491D01*
X163353768Y-74348248D01*
X163461200Y-74330292D01*
X163635515Y-74302574D01*
X163776548Y-74282477D01*
X163866826Y-74272350D01*
X163890607Y-74272567D01*
X163899663Y-74314337D01*
X163920180Y-74427856D01*
X163950588Y-74603848D01*
X163989317Y-74833036D01*
X164034799Y-75106141D01*
X164085462Y-75413888D01*
X164132071Y-75699734D01*
X164186733Y-76035577D01*
X164238133Y-76349760D01*
X164284578Y-76632058D01*
X164324375Y-76872242D01*
X164355830Y-77060087D01*
X164377250Y-77185365D01*
X164386048Y-77233786D01*
X164410215Y-77352324D01*
X165831633Y-77322344D01*
X166164917Y-77314798D01*
X166471528Y-77306864D01*
X166741963Y-77298865D01*
X166966721Y-77291122D01*
X167136302Y-77283960D01*
X167241202Y-77277699D01*
X167272336Y-77273426D01*
X167278834Y-77230298D01*
X167289471Y-77116610D01*
X167303503Y-76943589D01*
X167320187Y-76722467D01*
X167338778Y-76464473D01*
X167358532Y-76180837D01*
X167378704Y-75882788D01*
X167398552Y-75581555D01*
X167417330Y-75288369D01*
X167434294Y-75014460D01*
X167448701Y-74771056D01*
X167459805Y-74569388D01*
X167466863Y-74420686D01*
X167469131Y-74336178D01*
X167467987Y-74321029D01*
X167425958Y-74317018D01*
X167312346Y-74310795D01*
X167137589Y-74302807D01*
X166912129Y-74293502D01*
X166646406Y-74283326D01*
X166350859Y-74272726D01*
X166296202Y-74270839D01*
X165995764Y-74259819D01*
X165722680Y-74248452D01*
X165487526Y-74237284D01*
X165300875Y-74226867D01*
X165173304Y-74217747D01*
X165115388Y-74210474D01*
X165113228Y-74209459D01*
X165106864Y-74161934D01*
X165107016Y-74051205D01*
X165113365Y-73895851D01*
X165120625Y-73780270D01*
X165149528Y-73372588D01*
X165524229Y-73387946D01*
G37*
G36*
X161731605Y-67518735D02*
G01*
X161731708Y-67518832D01*
X161743600Y-67564835D01*
X161764636Y-67680150D01*
X161793189Y-67853428D01*
X161827631Y-68073321D01*
X161866333Y-68328481D01*
X161907668Y-68607560D01*
X161950008Y-68899210D01*
X161991725Y-69192082D01*
X162031191Y-69474828D01*
X162066778Y-69736100D01*
X162096858Y-69964550D01*
X162119803Y-70148830D01*
X162133985Y-70277592D01*
X162137776Y-70339487D01*
X162136879Y-70343210D01*
X162090531Y-70355270D01*
X161985446Y-70373513D01*
X161844422Y-70394769D01*
X161690255Y-70415866D01*
X161545742Y-70433633D01*
X161433681Y-70444899D01*
X161389030Y-70447234D01*
X161359233Y-70444841D01*
X161334725Y-70431381D01*
X161313339Y-70397437D01*
X161292903Y-70333590D01*
X161271249Y-70230422D01*
X161246207Y-70078513D01*
X161215607Y-69868447D01*
X161177280Y-69590803D01*
X161156390Y-69437304D01*
X161108829Y-69097240D01*
X161068593Y-68832599D01*
X161034506Y-68637174D01*
X161005392Y-68504763D01*
X160980074Y-68429159D01*
X160960636Y-68404919D01*
X160908159Y-68401844D01*
X160782643Y-68402401D01*
X160593021Y-68406321D01*
X160348229Y-68413339D01*
X160057202Y-68423185D01*
X159728874Y-68435591D01*
X159372181Y-68450291D01*
X159208730Y-68457409D01*
X157515339Y-68532354D01*
X157489208Y-69110230D01*
X157480377Y-69341137D01*
X157471853Y-69628599D01*
X157464250Y-69947104D01*
X157458182Y-70271140D01*
X157454509Y-70549819D01*
X157445942Y-71411532D01*
X159169367Y-71480003D01*
X159537826Y-71494690D01*
X159880845Y-71508454D01*
X160189746Y-71520940D01*
X160455849Y-71531794D01*
X160670475Y-71540660D01*
X160824944Y-71547183D01*
X160910578Y-71551009D01*
X160925003Y-71551813D01*
X160937315Y-71591401D01*
X160945109Y-71695658D01*
X160947545Y-71847271D01*
X160945520Y-71975748D01*
X160939013Y-72165693D01*
X160930023Y-72288388D01*
X160915287Y-72358645D01*
X160891541Y-72391279D01*
X160855522Y-72401103D01*
X160851758Y-72401363D01*
X160795794Y-72400766D01*
X160665875Y-72397170D01*
X160470047Y-72390862D01*
X160216358Y-72382125D01*
X159912855Y-72371245D01*
X159567584Y-72358507D01*
X159188592Y-72344196D01*
X158783926Y-72328596D01*
X158656443Y-72323619D01*
X158248524Y-72307562D01*
X157866248Y-72292359D01*
X157517296Y-72278325D01*
X157209349Y-72265777D01*
X156950086Y-72255031D01*
X156747191Y-72246404D01*
X156608342Y-72240211D01*
X156541221Y-72236770D01*
X156536107Y-72236284D01*
X156534989Y-72195106D01*
X156536645Y-72080978D01*
X156540769Y-71902959D01*
X156547051Y-71670108D01*
X156555184Y-71391486D01*
X156564861Y-71076152D01*
X156575772Y-70733165D01*
X156587610Y-70371584D01*
X156600067Y-70000471D01*
X156612834Y-69628883D01*
X156625604Y-69265881D01*
X156638069Y-68920524D01*
X156649921Y-68601872D01*
X156660851Y-68318984D01*
X156670552Y-68080919D01*
X156678715Y-67896738D01*
X156685033Y-67775500D01*
X156689197Y-67726264D01*
X156689476Y-67725655D01*
X156735589Y-67718763D01*
X156854847Y-67709426D01*
X157038639Y-67697997D01*
X157278359Y-67684829D01*
X157565397Y-67670275D01*
X157891144Y-67654688D01*
X158246994Y-67638421D01*
X158624336Y-67621828D01*
X159014562Y-67605261D01*
X159409064Y-67589074D01*
X159799234Y-67573620D01*
X160176463Y-67559251D01*
X160532142Y-67546322D01*
X160857664Y-67535184D01*
X161144419Y-67526191D01*
X161383799Y-67519697D01*
X161567196Y-67516054D01*
X161686001Y-67515616D01*
X161731605Y-67518735D01*
G37*
G36*
X160381300Y-73048874D02*
G01*
X160383940Y-73112647D01*
X160390693Y-73240539D01*
X160400727Y-73418807D01*
X160413210Y-73633705D01*
X160427308Y-73871488D01*
X160442190Y-74118413D01*
X160457024Y-74360733D01*
X160470976Y-74584706D01*
X160483215Y-74776585D01*
X160492908Y-74922627D01*
X160499222Y-75009087D01*
X160501085Y-75026764D01*
X160540884Y-75028873D01*
X160652371Y-75032728D01*
X160825194Y-75038024D01*
X161048997Y-75044456D01*
X161313427Y-75051721D01*
X161608130Y-75059514D01*
X161662131Y-75060911D01*
X161961881Y-75069137D01*
X162233894Y-75077547D01*
X162467660Y-75085740D01*
X162652669Y-75093317D01*
X162778411Y-75099874D01*
X162834376Y-75105012D01*
X162836185Y-75105706D01*
X162839701Y-75150286D01*
X162837270Y-75258559D01*
X162829508Y-75412415D01*
X162821637Y-75531935D01*
X162792196Y-75943271D01*
X161668100Y-75917431D01*
X160544003Y-75891592D01*
X160545535Y-75990495D01*
X160548307Y-76055063D01*
X160555424Y-76190663D01*
X160566271Y-76386410D01*
X160580232Y-76631416D01*
X160596690Y-76914797D01*
X160615029Y-77225667D01*
X160623123Y-77361451D01*
X160641084Y-77676348D01*
X160655865Y-77964573D01*
X160667076Y-78216011D01*
X160674331Y-78420551D01*
X160677242Y-78568079D01*
X160675422Y-78648483D01*
X160672883Y-78660150D01*
X160624106Y-78681784D01*
X160514746Y-78717960D01*
X160363673Y-78762664D01*
X160268318Y-78789065D01*
X159890049Y-78891333D01*
X159780752Y-78700867D01*
X159623092Y-78452849D01*
X159416069Y-78167989D01*
X159172774Y-77862686D01*
X158906299Y-77553340D01*
X158629735Y-77256350D01*
X158617991Y-77244287D01*
X158275592Y-76904720D01*
X157957570Y-76615715D01*
X157642828Y-76359515D01*
X157310267Y-76118368D01*
X157158704Y-76016316D01*
X157009058Y-75914925D01*
X156937796Y-75863713D01*
X158457123Y-75863713D01*
X159100482Y-76510379D01*
X159286783Y-76697375D01*
X159452423Y-76863129D01*
X159589098Y-76999375D01*
X159688506Y-77097847D01*
X159742346Y-77150277D01*
X159749558Y-77156663D01*
X159749209Y-77117969D01*
X159744397Y-77011768D01*
X159735870Y-76852456D01*
X159724372Y-76654429D01*
X159718721Y-76561289D01*
X159704422Y-76345775D01*
X159689961Y-76157719D01*
X159676724Y-76013216D01*
X159666100Y-75928362D01*
X159662999Y-75915005D01*
X159630284Y-75893265D01*
X159545319Y-75878029D01*
X159399598Y-75868583D01*
X159184611Y-75864215D01*
X159050478Y-75863713D01*
X158457123Y-75863713D01*
X156937796Y-75863713D01*
X156889546Y-75829039D01*
X156814034Y-75768942D01*
X156794634Y-75746272D01*
X156806650Y-75697384D01*
X156834436Y-75588415D01*
X156873048Y-75438693D01*
X156894068Y-75357669D01*
X156988267Y-74995244D01*
X158316258Y-75008880D01*
X159644249Y-75022517D01*
X159622226Y-74755797D01*
X159608939Y-74581429D01*
X159594506Y-74369466D01*
X159579673Y-74133700D01*
X159565188Y-73887921D01*
X159551796Y-73645924D01*
X159540244Y-73421498D01*
X159531278Y-73228437D01*
X159525645Y-73080533D01*
X159524091Y-72991577D01*
X159525678Y-72971843D01*
X159569484Y-72965373D01*
X159677440Y-72956851D01*
X159831695Y-72947541D01*
X159959270Y-72941156D01*
X160379868Y-72921758D01*
X160381300Y-73048874D01*
G37*
G36*
X145767299Y-106932112D02*
G01*
X145779713Y-106955597D01*
X145797828Y-107007693D01*
X145824301Y-107097255D01*
X145861787Y-107233138D01*
X145912941Y-107424198D01*
X145980421Y-107679290D01*
X146041562Y-107911208D01*
X146204328Y-108509751D01*
X146361458Y-109041568D01*
X146519483Y-109520556D01*
X146684932Y-109960609D01*
X146864337Y-110375625D01*
X147064226Y-110779500D01*
X147291131Y-111186130D01*
X147551581Y-111609410D01*
X147852107Y-112063237D01*
X148199238Y-112561506D01*
X148280523Y-112675688D01*
X148427396Y-112882461D01*
X148556496Y-113066319D01*
X148660702Y-113216946D01*
X148732892Y-113324027D01*
X148765948Y-113377245D01*
X148767267Y-113380827D01*
X148735775Y-113412743D01*
X148653133Y-113476965D01*
X148537085Y-113561211D01*
X148405381Y-113653198D01*
X148275766Y-113740644D01*
X148165987Y-113811267D01*
X148093791Y-113852784D01*
X148076677Y-113858776D01*
X148044256Y-113825556D01*
X147972997Y-113734455D01*
X147870015Y-113595591D01*
X147742424Y-113419080D01*
X147597339Y-113215037D01*
X147441875Y-112993579D01*
X147283148Y-112764822D01*
X147128272Y-112538881D01*
X146984362Y-112325873D01*
X146858532Y-112135914D01*
X146786470Y-112024352D01*
X146573781Y-111671858D01*
X146357709Y-111280715D01*
X146153322Y-110879955D01*
X145975690Y-110498610D01*
X145892968Y-110302990D01*
X145756918Y-109966015D01*
X145524827Y-110528676D01*
X145206405Y-111261957D01*
X144865798Y-111967548D01*
X144489671Y-112671588D01*
X144064686Y-113400216D01*
X144033997Y-113450788D01*
X143867874Y-113719069D01*
X143685034Y-114005928D01*
X143490988Y-114303460D01*
X143291245Y-114603760D01*
X143091317Y-114898921D01*
X142896713Y-115181038D01*
X142712945Y-115442206D01*
X142545521Y-115674520D01*
X142399954Y-115870073D01*
X142281753Y-116020960D01*
X142196429Y-116119276D01*
X142149492Y-116157115D01*
X142147474Y-116157290D01*
X142095402Y-116132472D01*
X141997274Y-116067620D01*
X141870584Y-115974629D01*
X141812016Y-115929216D01*
X141682544Y-115824557D01*
X141580357Y-115736985D01*
X141520971Y-115680016D01*
X141512422Y-115668197D01*
X141531349Y-115624906D01*
X141591678Y-115528363D01*
X141685254Y-115390734D01*
X141803925Y-115224182D01*
X141875286Y-115126885D01*
X142480102Y-114275147D01*
X143054003Y-113397162D01*
X143583857Y-112513997D01*
X144056529Y-111646716D01*
X144109800Y-111542711D01*
X144349385Y-111060130D01*
X144558329Y-110611960D01*
X144743248Y-110180610D01*
X144910759Y-109748487D01*
X145067476Y-109298003D01*
X145220015Y-108811564D01*
X145374993Y-108271581D01*
X145466046Y-107936499D01*
X145539050Y-107665645D01*
X145605912Y-107421801D01*
X145663523Y-107215962D01*
X145708776Y-107059122D01*
X145738564Y-106962275D01*
X145748953Y-106935553D01*
X145757931Y-106928383D01*
X145767299Y-106932112D01*
G37*
G36*
X122583377Y-103022532D02*
G01*
X122688004Y-103096068D01*
X122850107Y-103212016D01*
X123065699Y-103367450D01*
X123330792Y-103559443D01*
X123641399Y-103785067D01*
X123993533Y-104041394D01*
X124383206Y-104325499D01*
X124806432Y-104634452D01*
X125259221Y-104965328D01*
X125737588Y-105315199D01*
X126237545Y-105681138D01*
X126755104Y-106060217D01*
X127286278Y-106449509D01*
X127827080Y-106846087D01*
X128373522Y-107247024D01*
X128921617Y-107649392D01*
X129467378Y-108050265D01*
X130006816Y-108446714D01*
X130535946Y-108835814D01*
X131050778Y-109214635D01*
X131547327Y-109580252D01*
X132021604Y-109929737D01*
X132469623Y-110260163D01*
X132887396Y-110568602D01*
X133270935Y-110852128D01*
X133616253Y-111107812D01*
X133919362Y-111332728D01*
X134176276Y-111523949D01*
X134383008Y-111678547D01*
X134535568Y-111793595D01*
X134629971Y-111866165D01*
X134662229Y-111893332D01*
X134662191Y-111893418D01*
X134614585Y-111908977D01*
X134501512Y-111936466D01*
X134338193Y-111972815D01*
X134139847Y-112014954D01*
X133921693Y-112059814D01*
X133698952Y-112104326D01*
X133486842Y-112145421D01*
X133300584Y-112180029D01*
X133155396Y-112205080D01*
X133066499Y-112217505D01*
X133051273Y-112218298D01*
X133011597Y-112195166D01*
X132907853Y-112127644D01*
X132743445Y-112018063D01*
X132521777Y-111868751D01*
X132246253Y-111682037D01*
X131920279Y-111460252D01*
X131547257Y-111205724D01*
X131130592Y-110920782D01*
X130673688Y-110607757D01*
X130179949Y-110268977D01*
X129652780Y-109906772D01*
X129095585Y-109523471D01*
X128511767Y-109121403D01*
X127904732Y-108702899D01*
X127277882Y-108270286D01*
X126889511Y-108002037D01*
X126253339Y-107562247D01*
X125635816Y-107134863D01*
X125040287Y-106722222D01*
X124470099Y-106326660D01*
X123928599Y-105950516D01*
X123419131Y-105596125D01*
X122945044Y-105265825D01*
X122509682Y-104961954D01*
X122116393Y-104686847D01*
X121768523Y-104442843D01*
X121469418Y-104232279D01*
X121222423Y-104057491D01*
X121030887Y-103920817D01*
X120898154Y-103824594D01*
X120827571Y-103771158D01*
X120816490Y-103760541D01*
X120864693Y-103732441D01*
X120973505Y-103678686D01*
X121129906Y-103605065D01*
X121320874Y-103517364D01*
X121533389Y-103421371D01*
X121754431Y-103322874D01*
X121970977Y-103227662D01*
X122170009Y-103141521D01*
X122338504Y-103070240D01*
X122463443Y-103019606D01*
X122531804Y-102995407D01*
X122540214Y-102994336D01*
X122583377Y-103022532D01*
G37*
G36*
X148585240Y-116283942D02*
G01*
X148676265Y-116324066D01*
X148801568Y-116385821D01*
X148942783Y-116459450D01*
X149081544Y-116535196D01*
X149199487Y-116603301D01*
X149278246Y-116654009D01*
X149300708Y-116675705D01*
X149281515Y-116714513D01*
X149227169Y-116816129D01*
X149142517Y-116971703D01*
X149032404Y-117172383D01*
X148901679Y-117409317D01*
X148755187Y-117673656D01*
X148690300Y-117790406D01*
X148190176Y-118696979D01*
X147727421Y-119551167D01*
X147303083Y-120350898D01*
X146918206Y-121094101D01*
X146573838Y-121778708D01*
X146271025Y-122402646D01*
X146010814Y-122963844D01*
X145794251Y-123460233D01*
X145668097Y-123770821D01*
X145589363Y-123987756D01*
X145502530Y-124252489D01*
X145417708Y-124532797D01*
X145345014Y-124796456D01*
X145339688Y-124817186D01*
X145284443Y-125029907D01*
X145234238Y-125216284D01*
X145193375Y-125360861D01*
X145166154Y-125448182D01*
X145159527Y-125464630D01*
X145134337Y-125445443D01*
X145079853Y-125358471D01*
X144999954Y-125210993D01*
X144898515Y-125010291D01*
X144779413Y-124763645D01*
X144727496Y-124653325D01*
X144228236Y-123633246D01*
X143695494Y-122635347D01*
X143138068Y-121674827D01*
X142564759Y-120766889D01*
X142019647Y-119975536D01*
X141907808Y-119818453D01*
X141813986Y-119683075D01*
X141748643Y-119584737D01*
X141722783Y-119540450D01*
X141746088Y-119501629D01*
X141818464Y-119428221D01*
X141923877Y-119333406D01*
X142046294Y-119230367D01*
X142169682Y-119132285D01*
X142278006Y-119052342D01*
X142355235Y-119003719D01*
X142384262Y-118996624D01*
X142430836Y-119057004D01*
X142514367Y-119172762D01*
X142626056Y-119331148D01*
X142757103Y-119519412D01*
X142898706Y-119724806D01*
X143042065Y-119934580D01*
X143178381Y-120135984D01*
X143298851Y-120316269D01*
X143371303Y-120426556D01*
X143682212Y-120912237D01*
X143962564Y-121367462D01*
X144231385Y-121824051D01*
X144507702Y-122313826D01*
X144601706Y-122484386D01*
X144976409Y-123167580D01*
X145237260Y-122586971D01*
X145468542Y-122086566D01*
X145741183Y-121522341D01*
X146052407Y-120899665D01*
X146399433Y-120223907D01*
X146779486Y-119500435D01*
X147189786Y-118734618D01*
X147627556Y-117931824D01*
X147915613Y-117410562D01*
X148068519Y-117135272D01*
X148208595Y-116883159D01*
X148330876Y-116663153D01*
X148430396Y-116484184D01*
X148502190Y-116355184D01*
X148541293Y-116285083D01*
X148546859Y-116275205D01*
X148585240Y-116283942D01*
G37*
G36*
X151314492Y-113111536D02*
G01*
X151353207Y-113169156D01*
X151417807Y-113282065D01*
X151501025Y-113435921D01*
X151595592Y-113616384D01*
X151694238Y-113809113D01*
X151789696Y-113999766D01*
X151874695Y-114174005D01*
X151941969Y-114317486D01*
X151984247Y-114415871D01*
X151994927Y-114453986D01*
X151955661Y-114472316D01*
X151844446Y-114517489D01*
X151666221Y-114587646D01*
X151425922Y-114680930D01*
X151128487Y-114795481D01*
X150778852Y-114929443D01*
X150381956Y-115080955D01*
X149942734Y-115248161D01*
X149466126Y-115429202D01*
X148957067Y-115622220D01*
X148420496Y-115825357D01*
X147861349Y-116036754D01*
X147284564Y-116254553D01*
X146695078Y-116476896D01*
X146097829Y-116701925D01*
X145497753Y-116927781D01*
X144899787Y-117152607D01*
X144308871Y-117374543D01*
X143729939Y-117591732D01*
X143167930Y-117802316D01*
X142627782Y-118004437D01*
X142114430Y-118196235D01*
X141632814Y-118375853D01*
X141187869Y-118541434D01*
X140784533Y-118691117D01*
X140427744Y-118823046D01*
X140122438Y-118935361D01*
X139873554Y-119026206D01*
X139686027Y-119093721D01*
X139564796Y-119136048D01*
X139514798Y-119151330D01*
X139514116Y-119151341D01*
X139464885Y-119135187D01*
X139352153Y-119092763D01*
X139188360Y-119028923D01*
X138985944Y-118948518D01*
X138757343Y-118856400D01*
X138739018Y-118848963D01*
X138515390Y-118755845D01*
X138323975Y-118671668D01*
X138175478Y-118601521D01*
X138080604Y-118550488D01*
X138050059Y-118523657D01*
X138051350Y-118522225D01*
X138103583Y-118497767D01*
X138226204Y-118444797D01*
X138414510Y-118365234D01*
X138663800Y-118260994D01*
X138969373Y-118133996D01*
X139326526Y-117986159D01*
X139730556Y-117819400D01*
X140176764Y-117635638D01*
X140660446Y-117436791D01*
X141176900Y-117224776D01*
X141721425Y-117001512D01*
X142289319Y-116768918D01*
X142875880Y-116528911D01*
X143476406Y-116283409D01*
X144086195Y-116034331D01*
X144700545Y-115783594D01*
X145314754Y-115533117D01*
X145924121Y-115284818D01*
X146523944Y-115040615D01*
X147109520Y-114802427D01*
X147676148Y-114572170D01*
X148219125Y-114351764D01*
X148733751Y-114143127D01*
X149215323Y-113948177D01*
X149659139Y-113768831D01*
X150060497Y-113607008D01*
X150414696Y-113464627D01*
X150717033Y-113343605D01*
X150962806Y-113245860D01*
X151147315Y-113173311D01*
X151265856Y-113127875D01*
X151313728Y-113111471D01*
X151314492Y-113111536D01*
G37*
G36*
X133290106Y-102842987D02*
G01*
X133285054Y-102887006D01*
X133258028Y-102996464D01*
X133212548Y-103158794D01*
X133152136Y-103361427D01*
X133080313Y-103591797D01*
X133080044Y-103592644D01*
X132792016Y-104537336D01*
X132536132Y-105463352D01*
X132305938Y-106396652D01*
X132094981Y-107363199D01*
X131922370Y-108249738D01*
X131876410Y-108489697D01*
X131839571Y-108659134D01*
X131808694Y-108768671D01*
X131780619Y-108828928D01*
X131752188Y-108850528D01*
X131743515Y-108851084D01*
X131674203Y-108841729D01*
X131547707Y-108820205D01*
X131387293Y-108790540D01*
X131327848Y-108779061D01*
X130979060Y-108710943D01*
X130992867Y-108588055D01*
X131008313Y-108484853D01*
X131038175Y-108314916D01*
X131079761Y-108091769D01*
X131130375Y-107828942D01*
X131187326Y-107539963D01*
X131247918Y-107238358D01*
X131309459Y-106937656D01*
X131369255Y-106651385D01*
X131424612Y-106393073D01*
X131472836Y-106176248D01*
X131474891Y-106167267D01*
X131526516Y-105948298D01*
X131588101Y-105697173D01*
X131655827Y-105428437D01*
X131725876Y-105156635D01*
X131794432Y-104896314D01*
X131857676Y-104662018D01*
X131911792Y-104468293D01*
X131952962Y-104329685D01*
X131971884Y-104273630D01*
X131978918Y-104225221D01*
X131930935Y-104230837D01*
X131919706Y-104235137D01*
X131854478Y-104256761D01*
X131725729Y-104296149D01*
X131548894Y-104348695D01*
X131339412Y-104409790D01*
X131204746Y-104448555D01*
X130684082Y-104586515D01*
X130105619Y-104720190D01*
X129489578Y-104846078D01*
X128856178Y-104960675D01*
X128225638Y-105060478D01*
X127618178Y-105141984D01*
X127054016Y-105201690D01*
X126705657Y-105228038D01*
X126251737Y-105255607D01*
X126222702Y-104860061D01*
X126212323Y-104686567D01*
X126208190Y-104543977D01*
X126210644Y-104452011D01*
X126215209Y-104429660D01*
X126262492Y-104413339D01*
X126374298Y-104395669D01*
X126533162Y-104378933D01*
X126694764Y-104366987D01*
X127598688Y-104286220D01*
X128541677Y-104153533D01*
X129503223Y-103973448D01*
X130462815Y-103750489D01*
X131399943Y-103489177D01*
X132294098Y-103194035D01*
X132698277Y-103043129D01*
X132899070Y-102966966D01*
X133071843Y-102905031D01*
X133202741Y-102862007D01*
X133277912Y-102842581D01*
X133290106Y-102842987D01*
G37*
G36*
X165836488Y-117203380D02*
G01*
X165911678Y-117256547D01*
X165939076Y-117278907D01*
X166133671Y-117413871D01*
X166363782Y-117517521D01*
X166637779Y-117591442D01*
X166964034Y-117637216D01*
X167350919Y-117656425D01*
X167806804Y-117650653D01*
X167888282Y-117647450D01*
X168577211Y-117618130D01*
X168565342Y-118003007D01*
X168553473Y-118387884D01*
X167691761Y-118624160D01*
X167404147Y-118702875D01*
X167111634Y-118782670D01*
X166834675Y-118857984D01*
X166593724Y-118923257D01*
X166409237Y-118972926D01*
X166393531Y-118977128D01*
X165957015Y-119093821D01*
X165978657Y-118592683D01*
X165979556Y-118150144D01*
X165940024Y-117765621D01*
X165858430Y-117424813D01*
X165838762Y-117365893D01*
X165807447Y-117262899D01*
X165796462Y-117198145D01*
X165798610Y-117189812D01*
X165836488Y-117203380D01*
G37*
G36*
X123216335Y-59401971D02*
G01*
X123501330Y-59403334D01*
X123721325Y-59406148D01*
X123884851Y-59410860D01*
X124000441Y-59417913D01*
X124076629Y-59427753D01*
X124121946Y-59440823D01*
X124144926Y-59457570D01*
X124151341Y-59469039D01*
X124164991Y-59535277D01*
X124159682Y-59553996D01*
X124118305Y-59568998D01*
X124009768Y-59603790D01*
X123845616Y-59654901D01*
X123637391Y-59718859D01*
X123396636Y-59792192D01*
X123134894Y-59871429D01*
X122863709Y-59953099D01*
X122594623Y-60033730D01*
X122339180Y-60109850D01*
X122108922Y-60177989D01*
X121915393Y-60234674D01*
X121770137Y-60276434D01*
X121684695Y-60299798D01*
X121667324Y-60303551D01*
X121645092Y-60268081D01*
X121621647Y-60179038D01*
X121616483Y-60150485D01*
X121603391Y-60029396D01*
X121594051Y-59863424D01*
X121590597Y-59699111D01*
X121590145Y-59401615D01*
X122857807Y-59401615D01*
X123216335Y-59401971D01*
G37*
G36*
X168502115Y-118891217D02*
G01*
X168520898Y-119001679D01*
X168539903Y-119149451D01*
X168556502Y-119312247D01*
X168568070Y-119467779D01*
X168571883Y-119567609D01*
X168573990Y-119721486D01*
X167306963Y-119721486D01*
X166944321Y-119721008D01*
X166655243Y-119719303D01*
X166431229Y-119715970D01*
X166263779Y-119710606D01*
X166144392Y-119702806D01*
X166064570Y-119692168D01*
X166015811Y-119678290D01*
X165989616Y-119660767D01*
X165988030Y-119658944D01*
X165952812Y-119600558D01*
X165953093Y-119579432D01*
X165998451Y-119560774D01*
X166110378Y-119523548D01*
X166277441Y-119471090D01*
X166488204Y-119406736D01*
X166731233Y-119333822D01*
X166995094Y-119255686D01*
X167268352Y-119175662D01*
X167539572Y-119097087D01*
X167797321Y-119023297D01*
X168030163Y-118957630D01*
X168226665Y-118903420D01*
X168375391Y-118864004D01*
X168464908Y-118842719D01*
X168486180Y-118840353D01*
X168502115Y-118891217D01*
G37*
G36*
X124189898Y-60087520D02*
G01*
X124182740Y-60191467D01*
X124168235Y-60334263D01*
X124165868Y-60354747D01*
X124148505Y-60784821D01*
X124190453Y-61240911D01*
X124261643Y-61591424D01*
X124298123Y-61741755D01*
X124322985Y-61857359D01*
X124332172Y-61918862D01*
X124331247Y-61923881D01*
X124295006Y-61906409D01*
X124214646Y-61851158D01*
X124141780Y-61796380D01*
X124009027Y-61712860D01*
X123835499Y-61628905D01*
X123669889Y-61566508D01*
X123566284Y-61535714D01*
X123469112Y-61512773D01*
X123364403Y-61496687D01*
X123238187Y-61486463D01*
X123076492Y-61481105D01*
X122865348Y-61479618D01*
X122590783Y-61481007D01*
X122482633Y-61481938D01*
X121590145Y-61490047D01*
X121590145Y-61111150D01*
X121590145Y-60732252D01*
X122882842Y-60381656D01*
X123194403Y-60297630D01*
X123479720Y-60221593D01*
X123729401Y-60155975D01*
X123934056Y-60103208D01*
X124084291Y-60065725D01*
X124170715Y-60045956D01*
X124188182Y-60043701D01*
X124189898Y-60087520D01*
G37*
G36*
X170059587Y-108607564D02*
G01*
X170103062Y-108629567D01*
X170140493Y-108677235D01*
X170174974Y-108759874D01*
X170209599Y-108886789D01*
X170247462Y-109067284D01*
X170291658Y-109310666D01*
X170342927Y-109612171D01*
X170392371Y-109895026D01*
X170443271Y-110164292D01*
X170492453Y-110404748D01*
X170536746Y-110601170D01*
X170572976Y-110738336D01*
X170585403Y-110775619D01*
X170652602Y-110930241D01*
X170739418Y-111083165D01*
X170853577Y-111243792D01*
X171002804Y-111421526D01*
X171194824Y-111625771D01*
X171437363Y-111865929D01*
X171639746Y-112058945D01*
X171832730Y-112243014D01*
X172006361Y-112412439D01*
X172151272Y-112557768D01*
X172258097Y-112669552D01*
X172317468Y-112738340D01*
X172325385Y-112750681D01*
X172342770Y-112805973D01*
X172333033Y-112853155D01*
X172288255Y-112895126D01*
X172200517Y-112934787D01*
X172061901Y-112975041D01*
X171864489Y-113018789D01*
X171600363Y-113068930D01*
X171323770Y-113117661D01*
X171046915Y-113166896D01*
X170785375Y-113216023D01*
X170554164Y-113262020D01*
X170368294Y-113301863D01*
X170242779Y-113332529D01*
X170214416Y-113341020D01*
X170055727Y-113403704D01*
X169896571Y-113489288D01*
X169728028Y-113604919D01*
X169541181Y-113757746D01*
X169327111Y-113954918D01*
X169076901Y-114203583D01*
X168866710Y-114421304D01*
X168675524Y-114619538D01*
X168500967Y-114796191D01*
X168351554Y-114942994D01*
X168235802Y-115051680D01*
X168162226Y-115113978D01*
X168141289Y-115125686D01*
X168070816Y-115098857D01*
X168022963Y-115061205D01*
X167971372Y-114998579D01*
X167958234Y-114968878D01*
X167951553Y-114922143D01*
X167932947Y-114806215D01*
X167904354Y-114632789D01*
X167867712Y-114413561D01*
X167824956Y-114160226D01*
X167798316Y-114003420D01*
X167740056Y-113666002D01*
X167686618Y-113383954D01*
X167631596Y-113146157D01*
X167568586Y-112941489D01*
X167491181Y-112758831D01*
X167392976Y-112587062D01*
X167267566Y-112415061D01*
X167108545Y-112231709D01*
X166909508Y-112025885D01*
X166664049Y-111786468D01*
X166365764Y-111502339D01*
X166347900Y-111485385D01*
X166139925Y-111284493D01*
X165989202Y-111129045D01*
X165890493Y-111011280D01*
X165838561Y-110923442D01*
X165828172Y-110857771D01*
X165854086Y-110806509D01*
X165876010Y-110786225D01*
X165930133Y-110767538D01*
X166052728Y-110738276D01*
X166231257Y-110701006D01*
X166453184Y-110658300D01*
X166705970Y-110612728D01*
X166809531Y-110594850D01*
X167184921Y-110528749D01*
X167490224Y-110469547D01*
X167736790Y-110414005D01*
X167935973Y-110358890D01*
X168099125Y-110300964D01*
X168237597Y-110236993D01*
X168362743Y-110163741D01*
X168393692Y-110143319D01*
X168482261Y-110073017D01*
X168615623Y-109953350D01*
X168782623Y-109794999D01*
X168972110Y-109608645D01*
X169172932Y-109404967D01*
X169271834Y-109302349D01*
X169463587Y-109104608D01*
X169639447Y-108928520D01*
X169790721Y-108782369D01*
X169908712Y-108674439D01*
X169984727Y-108613015D01*
X170006972Y-108601921D01*
X170059587Y-108607564D01*
G37*
G36*
X122067681Y-64013699D02*
G01*
X122109496Y-64059123D01*
X122149138Y-64147830D01*
X122189485Y-64287707D01*
X122233413Y-64486644D01*
X122283802Y-64752528D01*
X122331392Y-65022757D01*
X122393530Y-65375389D01*
X122446917Y-65658620D01*
X122494773Y-65884237D01*
X122540318Y-66064028D01*
X122586771Y-66209781D01*
X122637352Y-66333285D01*
X122695281Y-66446328D01*
X122741782Y-66525310D01*
X122805697Y-66609983D01*
X122919421Y-66740480D01*
X123073077Y-66906301D01*
X123256786Y-67096943D01*
X123460672Y-67301905D01*
X123607671Y-67445914D01*
X123840249Y-67672459D01*
X124019094Y-67849945D01*
X124150403Y-67985378D01*
X124240371Y-68085769D01*
X124295195Y-68158124D01*
X124321070Y-68209453D01*
X124324192Y-68246763D01*
X124322300Y-68254235D01*
X124310699Y-68288060D01*
X124293618Y-68315722D01*
X124261715Y-68339703D01*
X124205646Y-68362486D01*
X124116069Y-68386553D01*
X123983638Y-68414385D01*
X123799012Y-68448464D01*
X123552847Y-68491274D01*
X123235799Y-68545295D01*
X123210414Y-68549611D01*
X122874613Y-68607524D01*
X122593853Y-68660729D01*
X122357036Y-68715628D01*
X122153065Y-68778625D01*
X121970845Y-68856121D01*
X121799277Y-68954521D01*
X121627265Y-69080227D01*
X121443712Y-69239642D01*
X121237522Y-69439168D01*
X120997597Y-69685208D01*
X120712841Y-69984166D01*
X120699117Y-69998627D01*
X120498225Y-70206601D01*
X120342776Y-70357325D01*
X120225012Y-70456034D01*
X120137174Y-70507965D01*
X120071503Y-70518355D01*
X120020241Y-70492440D01*
X119999956Y-70470517D01*
X119981270Y-70416393D01*
X119952007Y-70293798D01*
X119914738Y-70115269D01*
X119872032Y-69893343D01*
X119826460Y-69640556D01*
X119808581Y-69536995D01*
X119742481Y-69161605D01*
X119683278Y-68856303D01*
X119627737Y-68609736D01*
X119572621Y-68410553D01*
X119514696Y-68247401D01*
X119450725Y-68108929D01*
X119377473Y-67983784D01*
X119357051Y-67952834D01*
X119286748Y-67864265D01*
X119167082Y-67730904D01*
X119008731Y-67563903D01*
X118822376Y-67374416D01*
X118618699Y-67173595D01*
X118516081Y-67074693D01*
X118318340Y-66882940D01*
X118142252Y-66707079D01*
X117996101Y-66555806D01*
X117888171Y-66437814D01*
X117826747Y-66361800D01*
X117815653Y-66339554D01*
X117821296Y-66286940D01*
X117843299Y-66243464D01*
X117890967Y-66206033D01*
X117973606Y-66171553D01*
X118100521Y-66136928D01*
X118281016Y-66099065D01*
X118524398Y-66054868D01*
X118825903Y-66003600D01*
X119108758Y-65954156D01*
X119378024Y-65903256D01*
X119618480Y-65854074D01*
X119814902Y-65809781D01*
X119952068Y-65773551D01*
X119989350Y-65761123D01*
X120141674Y-65695111D01*
X120292043Y-65610221D01*
X120449857Y-65498738D01*
X120624516Y-65352947D01*
X120825418Y-65165134D01*
X121061962Y-64927585D01*
X121271841Y-64708527D01*
X121456598Y-64515481D01*
X121626535Y-64341731D01*
X121772240Y-64196598D01*
X121884297Y-64089404D01*
X121953294Y-64029472D01*
X121966023Y-64021142D01*
X122020816Y-64003668D01*
X122067681Y-64013699D01*
G37*
G36*
X173029697Y-117869005D02*
G01*
X172937000Y-118732753D01*
X172865335Y-119578476D01*
X172814612Y-120418008D01*
X172784741Y-121263182D01*
X172775632Y-122125830D01*
X172787195Y-123017787D01*
X172819339Y-123950884D01*
X172871976Y-124936955D01*
X172945014Y-125987833D01*
X172965869Y-126254771D01*
X172988137Y-126538094D01*
X173007889Y-126796862D01*
X173024251Y-127018999D01*
X173036347Y-127192427D01*
X173043304Y-127305066D01*
X173044628Y-127342170D01*
X173003093Y-127407925D01*
X172883154Y-127488031D01*
X172795628Y-127532402D01*
X172604417Y-127640927D01*
X172411608Y-127787986D01*
X172213753Y-127978219D01*
X172007404Y-128216265D01*
X171789113Y-128506764D01*
X171555432Y-128854355D01*
X171302911Y-129263679D01*
X171028104Y-129739373D01*
X170727562Y-130286079D01*
X170671579Y-130390307D01*
X170462847Y-130780129D01*
X170458141Y-128359128D01*
X170456833Y-127913572D01*
X170454733Y-127486896D01*
X170451935Y-127087168D01*
X170448537Y-126722455D01*
X170444632Y-126400826D01*
X170440319Y-126130349D01*
X170435691Y-125919092D01*
X170430845Y-125775124D01*
X170426717Y-125712439D01*
X170402812Y-125580009D01*
X170361505Y-125502098D01*
X170291463Y-125476780D01*
X170181357Y-125502131D01*
X170019855Y-125576225D01*
X169923643Y-125626978D01*
X169615424Y-125769532D01*
X169289082Y-125870730D01*
X168927606Y-125934145D01*
X168513984Y-125963350D01*
X168307809Y-125966283D01*
X168057215Y-125964114D01*
X167870429Y-125956433D01*
X167729273Y-125941395D01*
X167615570Y-125917155D01*
X167523726Y-125886726D01*
X167406451Y-125831261D01*
X167254618Y-125744117D01*
X167083353Y-125635844D01*
X166907777Y-125516991D01*
X166743016Y-125398110D01*
X166604193Y-125289749D01*
X166506431Y-125202459D01*
X166465275Y-125148366D01*
X166449351Y-125089699D01*
X166416181Y-124963413D01*
X166368850Y-124781395D01*
X166310445Y-124555537D01*
X166244049Y-124297728D01*
X166195744Y-124109586D01*
X165947819Y-123142759D01*
X165947819Y-121550496D01*
X165947819Y-119958234D01*
X166163247Y-119982300D01*
X166265063Y-119991752D01*
X166434329Y-120005264D01*
X166656586Y-120021781D01*
X166917377Y-120040246D01*
X167202243Y-120059600D01*
X167384006Y-120071545D01*
X167667466Y-120090416D01*
X167927420Y-120108659D01*
X168151437Y-120125324D01*
X168327090Y-120139466D01*
X168441949Y-120150137D01*
X168479496Y-120155028D01*
X168569654Y-120173334D01*
X168582080Y-121804195D01*
X168585373Y-122214276D01*
X168588702Y-122550697D01*
X168592527Y-122821865D01*
X168597308Y-123036186D01*
X168603503Y-123202067D01*
X168611573Y-123327915D01*
X168621975Y-123422136D01*
X168635170Y-123493138D01*
X168651617Y-123549328D01*
X168671775Y-123599111D01*
X168681260Y-123619709D01*
X168788616Y-123808761D01*
X168906844Y-123927457D01*
X169051656Y-123987364D01*
X169198786Y-124000738D01*
X169448878Y-123963672D01*
X169678325Y-123851449D01*
X169888951Y-123662538D01*
X170082579Y-123395405D01*
X170216789Y-123144797D01*
X170292752Y-122974624D01*
X170351827Y-122811421D01*
X170395565Y-122642328D01*
X170425520Y-122454489D01*
X170443244Y-122235045D01*
X170450291Y-121971138D01*
X170448211Y-121649910D01*
X170439740Y-121298396D01*
X170410904Y-120310685D01*
X170628088Y-120171318D01*
X170845272Y-120031952D01*
X170670270Y-119955639D01*
X170586811Y-119916206D01*
X170536180Y-119875222D01*
X170517982Y-119817830D01*
X170531823Y-119729175D01*
X170577309Y-119594399D01*
X170654044Y-119398648D01*
X170655395Y-119395262D01*
X170814697Y-119050991D01*
X171009310Y-118719577D01*
X171229479Y-118412454D01*
X171465451Y-118141057D01*
X171707475Y-117916820D01*
X171945795Y-117751178D01*
X172128647Y-117668066D01*
X172253955Y-117646347D01*
X172325548Y-117684493D01*
X172348483Y-117781189D01*
X172381268Y-117838731D01*
X172427395Y-117872934D01*
X172487276Y-117887079D01*
X172572688Y-117869485D01*
X172701429Y-117815282D01*
X172781327Y-117776097D01*
X173056976Y-117637363D01*
X173029697Y-117869005D01*
G37*
G36*
X119677201Y-48445080D02*
G01*
X119682293Y-48559949D01*
X119687001Y-48743027D01*
X119691243Y-48987384D01*
X119694936Y-49286092D01*
X119697997Y-49632220D01*
X119700344Y-50018839D01*
X119701894Y-50439021D01*
X119702564Y-50885835D01*
X119702585Y-50981454D01*
X119702974Y-51538748D01*
X119704200Y-52018510D01*
X119706346Y-52425270D01*
X119709498Y-52763561D01*
X119713741Y-53037913D01*
X119719159Y-53252859D01*
X119725838Y-53412930D01*
X119733862Y-53522657D01*
X119743318Y-53586572D01*
X119751825Y-53607625D01*
X119827068Y-53650364D01*
X119927098Y-53641896D01*
X120065823Y-53579648D01*
X120140973Y-53535622D01*
X120438652Y-53388373D01*
X120793423Y-53272329D01*
X121184224Y-53193653D01*
X121390966Y-53169871D01*
X121642747Y-53156201D01*
X121908180Y-53155289D01*
X122166917Y-53165970D01*
X122398608Y-53187081D01*
X122582905Y-53217458D01*
X122671595Y-53243132D01*
X122749332Y-53283741D01*
X122876592Y-53361469D01*
X123036304Y-53465478D01*
X123211397Y-53584925D01*
X123226980Y-53595819D01*
X123665212Y-53902833D01*
X123941327Y-54980092D01*
X124217442Y-56057350D01*
X124216879Y-57611109D01*
X124216317Y-59164868D01*
X124000888Y-59140801D01*
X123899073Y-59131350D01*
X123729807Y-59117837D01*
X123507550Y-59101320D01*
X123246759Y-59082856D01*
X122961892Y-59063501D01*
X122780129Y-59051557D01*
X122496727Y-59032695D01*
X122236885Y-59014477D01*
X122013018Y-58997848D01*
X121837544Y-58983752D01*
X121722878Y-58973133D01*
X121685455Y-58968278D01*
X121596113Y-58950176D01*
X121581649Y-57360145D01*
X121577810Y-56955769D01*
X121574025Y-56624690D01*
X121569784Y-56358141D01*
X121564573Y-56147353D01*
X121557879Y-55983557D01*
X121549190Y-55857986D01*
X121537993Y-55761871D01*
X121523776Y-55686444D01*
X121506026Y-55622936D01*
X121484230Y-55562580D01*
X121475221Y-55539749D01*
X121366453Y-55327345D01*
X121234865Y-55190551D01*
X121070706Y-55123958D01*
X120864226Y-55122157D01*
X120756109Y-55140785D01*
X120555277Y-55222463D01*
X120356475Y-55374622D01*
X120168417Y-55585949D01*
X119999818Y-55845131D01*
X119859392Y-56140854D01*
X119764518Y-56428072D01*
X119743041Y-56526932D01*
X119726798Y-56647447D01*
X119715250Y-56800922D01*
X119707856Y-56998661D01*
X119704074Y-57251968D01*
X119703365Y-57572148D01*
X119703729Y-57698708D01*
X119704714Y-57982462D01*
X119705407Y-58240068D01*
X119705793Y-58459824D01*
X119705857Y-58630026D01*
X119705584Y-58738973D01*
X119705128Y-58773877D01*
X119672264Y-58822578D01*
X119590187Y-58896327D01*
X119511774Y-58954479D01*
X119320964Y-59085760D01*
X119480999Y-59166770D01*
X119580790Y-59218106D01*
X119643539Y-59251937D01*
X119652540Y-59257555D01*
X119644638Y-59297687D01*
X119613834Y-59397007D01*
X119565803Y-59537774D01*
X119537780Y-59616281D01*
X119389901Y-59960507D01*
X119201090Y-60299708D01*
X118982281Y-60619828D01*
X118744408Y-60906809D01*
X118498403Y-61146595D01*
X118255201Y-61325129D01*
X118173636Y-61370110D01*
X118014011Y-61446456D01*
X117911254Y-61482828D01*
X117850700Y-61479474D01*
X117817683Y-61436643D01*
X117801699Y-61376425D01*
X117765433Y-61278614D01*
X117699842Y-61234368D01*
X117594846Y-61243040D01*
X117440367Y-61303981D01*
X117353389Y-61347569D01*
X117213655Y-61419318D01*
X117132398Y-61455139D01*
X117095782Y-61457913D01*
X117089973Y-61430521D01*
X117095413Y-61401282D01*
X117107726Y-61320276D01*
X117126662Y-61159708D01*
X117151996Y-60921797D01*
X117183501Y-60608762D01*
X117220953Y-60222823D01*
X117264125Y-59766200D01*
X117290416Y-59483683D01*
X117304206Y-59284199D01*
X117315885Y-59013849D01*
X117325453Y-58683811D01*
X117332910Y-58305258D01*
X117338258Y-57889367D01*
X117341495Y-57447313D01*
X117342623Y-56990273D01*
X117341642Y-56529421D01*
X117338551Y-56075933D01*
X117333353Y-55640985D01*
X117326045Y-55235753D01*
X117316630Y-54871412D01*
X117305107Y-54559137D01*
X117291477Y-54310105D01*
X117290270Y-54292892D01*
X117259594Y-53868539D01*
X117229632Y-53462114D01*
X117201066Y-53082317D01*
X117174575Y-52737852D01*
X117150841Y-52437417D01*
X117130544Y-52189715D01*
X117114366Y-52003447D01*
X117102987Y-51887314D01*
X117100275Y-51864923D01*
X117095999Y-51789142D01*
X117119408Y-51736172D01*
X117186784Y-51686716D01*
X117299548Y-51628733D01*
X117539061Y-51485278D01*
X117782370Y-51285957D01*
X118032193Y-51027234D01*
X118291250Y-50705575D01*
X118562260Y-50317449D01*
X118847944Y-49859319D01*
X119151020Y-49327653D01*
X119338136Y-48979863D01*
X119443079Y-48784549D01*
X119536214Y-48617672D01*
X119610381Y-48491560D01*
X119658419Y-48418546D01*
X119671809Y-48405349D01*
X119677201Y-48445080D01*
G37*
G04 #@! TD*
D11*
G04 #@! TO.C,LED1*
X145299900Y-75550300D03*
X145299900Y-73449700D03*
G04 #@! TD*
D12*
G04 #@! TO.C,U1*
X145899800Y-90499700D03*
D13*
X145899800Y-89999800D03*
X145899800Y-89500000D03*
D14*
X145299900Y-89399900D03*
D13*
X144699900Y-89499700D03*
X144699900Y-89999800D03*
X144699900Y-90499700D03*
D14*
X145299900Y-90599800D03*
G04 #@! TD*
D15*
G04 #@! TO.C,C1*
X146000000Y-101300000D03*
X144600000Y-101300000D03*
G04 #@! TD*
D16*
G04 #@! TO.C,R1*
X146053400Y-78800000D03*
X144546600Y-78800000D03*
G04 #@! TD*
M02*
